<svg width="375" height="287" viewBox="0 0 375 287" fill="none" xmlns="http://www.w3.org/2000/svg">
<mask id="path-1-inside-1_2049_12028" fill="white">
<path d="M84.5 30C84.5 13.4315 97.9315 0 114.5 0H262.5C279.069 0 292.5 13.4315 292.5 30V287H84.5V30Z"/>
</mask>
<path d="M84.5 30C84.5 13.4315 97.9315 0 114.5 0H262.5C279.069 0 292.5 13.4315 292.5 30V287H84.5V30Z" fill="#F3F6FB"/>
<path d="M75.5 30C75.5 8.46089 92.9609 -9 114.5 -9H262.5C284.039 -9 301.5 8.46089 301.5 30H283.5C283.5 18.402 274.098 9 262.5 9H114.5C102.902 9 93.5 18.402 93.5 30H75.5ZM292.5 287H84.5H292.5ZM75.5 287V30C75.5 8.46089 92.9609 -9 114.5 -9V9C102.902 9 93.5 18.402 93.5 30V287H75.5ZM262.5 -9C284.039 -9 301.5 8.46089 301.5 30V287H283.5V30C283.5 18.402 274.098 9 262.5 9V-9Z" fill="#DAE0E9" mask="url(#path-1-inside-1_2049_12028)"/>
<path d="M150.5 3H227.5V16C227.5 21.5228 223.023 26 217.5 26H160.5C154.977 26 150.5 21.5228 150.5 16V3Z" fill="#DAE0E9"/>
<rect width="377" height="36" transform="translate(-9.5 251)" fill="url(#paint0_linear_2049_12028)"/>
<g filter="url(#filter0_d_2049_12028)">
<rect x="48" y="39" width="280" height="210" rx="16" fill="white" shape-rendering="crispEdges"/>
<rect x="48.5" y="39.5" width="279" height="209" rx="15.5" stroke="#F2F4F9" shape-rendering="crispEdges"/>
<path d="M77.5848 64.9631C77.4736 64.8861 77.3385 64.8553 77.2114 64.863C77.0843 64.8553 76.9492 64.8861 76.838 64.9631C76.3375 65.3098 75.0665 66.7736 74.0496 68.0986C72.6832 69.8706 72 71.7195 72 73.2295C72 76.4189 74.3118 78.9998 77.1717 78.9998C80.0316 78.9998 82.4228 76.4189 82.4228 73.2295C82.4228 71.7195 81.7396 69.8629 80.3732 68.0986C79.3484 66.7658 78.0853 65.3098 77.5848 64.9631Z" fill="#F87171"/>
<path d="M87.6734 62.105C87.0061 61.2345 86.1799 60.2869 85.8542 60.0635C85.7827 60.0096 85.6953 59.9942 85.6079 60.0019C85.5205 60.0019 85.4411 60.0173 85.3616 60.0635C85.0359 60.2869 84.2097 61.2422 83.5424 62.105C82.6526 63.2529 82.2078 64.4625 82.2078 65.4486C82.2078 67.5287 83.7172 69.2081 85.5761 69.2081C87.4351 69.2081 89.0001 67.5287 89.0001 65.4486C89.0001 64.4625 88.5552 63.2606 87.6654 62.105H87.6734Z" fill="#FCA5A5"/>
<path d="M106.866 64.832H99.4688V63.5869H102.428V62.415H104.054V63.5869H106.866V64.832ZM103.219 65.2861C103.824 65.2861 104.361 65.3789 104.83 65.5645C105.299 65.75 105.663 66.0137 105.921 66.3555C106.185 66.6924 106.319 67.0879 106.324 67.542C106.319 67.9863 106.185 68.3794 105.921 68.7212C105.663 69.0581 105.299 69.3193 104.83 69.5049C104.361 69.6904 103.824 69.7832 103.219 69.7832C102.618 69.7832 102.083 69.6904 101.615 69.5049C101.151 69.3193 100.79 69.0581 100.531 68.7212C100.277 68.3794 100.152 67.9863 100.157 67.542C100.152 67.0928 100.279 66.6973 100.538 66.3555C100.797 66.0137 101.158 65.75 101.622 65.5645C102.086 65.3789 102.618 65.2861 103.219 65.2861ZM103.219 66.4727C102.76 66.4629 102.386 66.5557 102.098 66.751C101.815 66.9463 101.676 67.21 101.681 67.542C101.676 67.874 101.815 68.1377 102.098 68.333C102.381 68.5283 102.755 68.626 103.219 68.626C103.683 68.626 104.059 68.5283 104.347 68.333C104.64 68.1377 104.786 67.874 104.786 67.542C104.786 67.21 104.64 66.9463 104.347 66.751C104.054 66.5557 103.678 66.4629 103.219 66.4727ZM110.528 69.8711H108.902V68.8896H106.939V67.6299H108.902V66.5166H106.954V65.2568H108.902V62.5615H110.528V69.8711ZM110.528 73.5625H103.438V74.4707H110.88V75.6865H101.812V72.4492H108.902V71.6143H101.798V70.4277H110.528V73.5625ZM119.301 64.334V64.5098C119.291 65.1836 119.267 65.7988 119.228 66.3555C119.188 66.9121 119.105 67.5371 118.979 68.2305L117.367 68.084C117.484 67.4688 117.565 66.9121 117.609 66.4141C117.653 65.9111 117.682 65.4033 117.697 64.8906H112.548V63.543H119.301V64.334ZM115.961 69.2046C117.528 69.1362 118.881 69.0215 120.019 68.8604L120.106 70.0322C118.886 70.252 117.611 70.3984 116.283 70.4717C114.96 70.54 113.5 70.5791 111.903 70.5889L111.757 69.2852H112.021L114.35 69.2559V66.5605H115.961V69.2046ZM122.465 66.6924H124.179V68.0547H122.465V72.4785H120.795V62.5615H122.465V66.6924ZM122.89 75.54H113.734V71.5996H115.375V74.2217H122.89V75.54Z" fill="#282828"/>
<g opacity="0.5">
<path d="M283.006 78.6875C285.155 76.7216 286.503 73.8941 286.503 70.7517C286.503 64.8137 281.69 60 275.752 60C269.814 60 265 64.8137 265 70.7517C265 73.8941 266.348 76.7216 268.497 78.6875" stroke="#DADEE4" stroke-width="2.4375" stroke-linecap="round"/>
<path d="M275.752 60C272.732 60 270.003 61.2451 268.05 63.25C266.162 65.1872 265 67.8337 265 70.7517C265 73.8941 266.348 76.7216 268.497 78.6875" stroke="#A2A9B4" stroke-width="3" stroke-linecap="round"/>
<path d="M277.261 76.0304C277.605 75.6651 277.758 75.1562 277.678 74.6483C277.295 72.3144 276.902 69.9825 276.502 67.6526C276.463 67.4723 276.361 67.3062 276.217 67.1871C276.014 67.0304 275.743 66.9939 275.513 67.0923C275.283 67.1907 275.126 67.4093 275.109 67.6624C274.961 68.5309 274.814 69.4059 274.694 70.2813C274.492 71.7467 274.287 73.2121 274.131 74.6848C274.067 75.4375 274.509 76.1544 275.209 76.4506C275.926 76.7601 276.748 76.5924 277.264 76.0326L277.261 76.0304Z" fill="#A2A9B4"/>
<path d="M294.681 71.248C294.686 70.6475 294.744 70.1616 294.856 69.7905C294.969 69.4194 295.125 69.124 295.325 68.9043C295.53 68.6797 295.804 68.46 296.146 68.2451C296.492 68.0254 296.761 67.7861 296.951 67.5273C297.146 67.2637 297.244 66.9609 297.244 66.6191C297.244 66.3506 297.181 66.1162 297.054 65.916C296.927 65.7109 296.753 65.5522 296.534 65.4399C296.319 65.3276 296.077 65.2715 295.809 65.2715C295.555 65.2715 295.318 65.3252 295.098 65.4326C294.878 65.54 294.698 65.7036 294.556 65.9233C294.419 66.1431 294.344 66.4092 294.329 66.7217H292.498C292.513 66.0869 292.669 65.5474 292.967 65.103C293.265 64.6538 293.663 64.3169 294.161 64.0923C294.659 63.8628 295.213 63.748 295.823 63.748C296.478 63.748 297.056 63.8652 297.559 64.0996C298.067 64.3291 298.46 64.6587 298.738 65.0884C299.021 65.5181 299.163 66.0186 299.163 66.5898C299.163 67.1562 299.029 67.6445 298.76 68.0547C298.497 68.4648 298.113 68.8213 297.61 69.124C297.317 69.2998 297.083 69.4829 296.907 69.6733C296.736 69.8589 296.609 70.0762 296.526 70.3252C296.443 70.5742 296.399 70.8818 296.395 71.248V71.3799H294.681V71.248ZM295.589 74.6172C295.384 74.6172 295.193 74.5659 295.018 74.4634C294.842 74.3608 294.703 74.2217 294.6 74.0459C294.498 73.8701 294.446 73.6797 294.446 73.4746C294.446 73.2744 294.498 73.0889 294.6 72.918C294.703 72.7422 294.842 72.603 295.018 72.5005C295.193 72.3979 295.384 72.3467 295.589 72.3467C295.784 72.3467 295.967 72.3979 296.138 72.5005C296.314 72.603 296.453 72.7422 296.556 72.918C296.663 73.0889 296.717 73.2744 296.717 73.4746C296.717 73.6797 296.663 73.8701 296.556 74.0459C296.453 74.2217 296.314 74.3608 296.138 74.4634C295.967 74.5659 295.784 74.6172 295.589 74.6172ZM301.959 71.248C301.964 70.6475 302.022 70.1616 302.135 69.7905C302.247 69.4194 302.403 69.124 302.604 68.9043C302.809 68.6797 303.082 68.46 303.424 68.2451C303.771 68.0254 304.039 67.7861 304.229 67.5273C304.425 67.2637 304.522 66.9609 304.522 66.6191C304.522 66.3506 304.459 66.1162 304.332 65.916C304.205 65.7109 304.032 65.5522 303.812 65.4399C303.597 65.3276 303.355 65.2715 303.087 65.2715C302.833 65.2715 302.596 65.3252 302.376 65.4326C302.157 65.54 301.976 65.7036 301.834 65.9233C301.698 66.1431 301.622 66.4092 301.607 66.7217H299.776C299.791 66.0869 299.947 65.5474 300.245 65.103C300.543 64.6538 300.941 64.3169 301.439 64.0923C301.937 63.8628 302.491 63.748 303.102 63.748C303.756 63.748 304.334 63.8652 304.837 64.0996C305.345 64.3291 305.738 64.6587 306.017 65.0884C306.3 65.5181 306.441 66.0186 306.441 66.5898C306.441 67.1562 306.307 67.6445 306.039 68.0547C305.775 68.4648 305.392 68.8213 304.889 69.124C304.596 69.2998 304.361 69.4829 304.186 69.6733C304.015 69.8589 303.888 70.0762 303.805 70.3252C303.722 70.5742 303.678 70.8818 303.673 71.248V71.3799H301.959V71.248ZM302.867 74.6172C302.662 74.6172 302.472 74.5659 302.296 74.4634C302.12 74.3608 301.981 74.2217 301.878 74.0459C301.776 73.8701 301.725 73.6797 301.725 73.4746C301.725 73.2744 301.776 73.0889 301.878 72.918C301.981 72.7422 302.12 72.603 302.296 72.5005C302.472 72.3979 302.662 72.3467 302.867 72.3467C303.062 72.3467 303.246 72.3979 303.417 72.5005C303.592 72.603 303.731 72.7422 303.834 72.918C303.941 73.0889 303.995 73.2744 303.995 73.4746C303.995 73.6797 303.941 73.8701 303.834 74.0459C303.731 74.2217 303.592 74.3608 303.417 74.4634C303.246 74.5659 303.062 74.6172 302.867 74.6172Z" fill="#282828"/>
</g>
<g clip-path="url(#clip0_2049_12028)">
<path d="M78.9514 109.591C77.3577 111.156 75.2848 112.233 72.9702 112.581C72.2223 112.693 71.666 113.331 71.666 114.089V116.145C71.666 122.818 77.0098 127.116 79.1389 128.564C79.6598 128.918 80.341 128.918 80.8598 128.564C82.9889 127.116 88.3327 122.818 88.3327 116.145V114.089C88.3327 113.333 87.7764 112.695 87.0285 112.581C84.716 112.233 82.641 111.156 81.0473 109.591C80.4702 109.024 79.5285 109.024 78.9514 109.591Z" fill="#8DC6F4"/>
<path d="M79.2826 122.187C79.2826 122.187 79.2659 122.187 79.2576 122.187C78.9764 122.181 78.7076 122.058 78.5159 121.852L75.9284 119.039C75.5389 118.616 75.5659 117.956 75.9889 117.566C76.4118 117.177 77.0722 117.204 77.4618 117.627L79.3201 119.646L83.3701 115.656C83.7805 115.252 84.4389 115.258 84.843 115.666C85.2472 116.077 85.2409 116.735 84.8326 117.139L80.0159 121.885C79.8201 122.077 79.5576 122.185 79.2847 122.185L79.2826 122.187Z" fill="white"/>
</g>
<path d="M106.236 114.729H108.902V112.576H110.528V122.215H108.902V118.875H106.236V120.018H100.011V113.675H106.236V114.729ZM101.637 118.743H104.625V114.964H101.637V118.743ZM110.821 125.54H101.798V121.321H103.453V124.222H110.821V125.54ZM108.902 117.571V116.062H106.236V117.571H108.902ZM122.992 125.804H121.366V122.303H113.969V121.014H122.992V125.804ZM122.992 120.384H121.366V118.626H118.261C117.943 118.982 117.553 119.261 117.089 119.461C116.625 119.656 116.122 119.754 115.58 119.754C114.921 119.754 114.325 119.615 113.793 119.336C113.261 119.058 112.841 118.672 112.533 118.179C112.23 117.686 112.079 117.127 112.079 116.502C112.079 115.892 112.23 115.342 112.533 114.854C112.836 114.366 113.251 113.985 113.778 113.711C114.306 113.433 114.896 113.294 115.551 113.294C116.107 113.294 116.615 113.389 117.074 113.58C117.538 113.77 117.929 114.041 118.246 114.393H121.366V112.562H122.992V120.384ZM115.58 114.671C115.204 114.671 114.867 114.749 114.569 114.905C114.276 115.057 114.047 115.271 113.881 115.55C113.715 115.823 113.632 116.141 113.632 116.502C113.632 116.878 113.712 117.208 113.874 117.491C114.04 117.769 114.269 117.986 114.562 118.143C114.86 118.294 115.199 118.372 115.58 118.377C115.941 118.372 116.266 118.294 116.554 118.143C116.847 117.986 117.077 117.767 117.243 117.483C117.409 117.2 117.494 116.873 117.499 116.502C117.494 116.141 117.406 115.823 117.235 115.55C117.069 115.271 116.842 115.057 116.554 114.905C116.266 114.749 115.941 114.671 115.58 114.671ZM121.366 117.308V115.726H118.957C119.02 115.994 119.052 116.253 119.052 116.502C119.052 116.775 119.018 117.044 118.949 117.308H121.366ZM128.41 116.604C128.41 117.308 128.508 117.989 128.703 118.648C128.903 119.302 129.204 119.898 129.604 120.435C130.009 120.967 130.51 121.395 131.105 121.717L130.197 122.918C129.602 122.601 129.091 122.166 128.667 121.614C128.242 121.062 127.907 120.428 127.663 119.71C127.419 120.491 127.082 121.185 126.652 121.79C126.228 122.391 125.715 122.869 125.114 123.226L124.162 121.995C124.763 121.648 125.266 121.189 125.671 120.618C126.081 120.042 126.384 119.41 126.579 118.721C126.774 118.033 126.872 117.327 126.872 116.604V116.194H124.616V114.876H126.872V113.03H128.41V114.876H130.622V116.194H128.41V116.604ZM135.764 125.804H134.211V112.562H135.764V125.804ZM133.068 125.159H131.53V118.992H129.802V117.645H131.53V112.811H133.068V125.159ZM148.257 125.804H146.704V112.562H148.257V125.804ZM145.518 125.174H143.965V120.75H141.899V119.417H143.965V117.454H142.134C141.812 118.587 141.284 119.617 140.552 120.545C139.824 121.473 138.857 122.293 137.651 123.006L136.699 121.849C138.047 121.053 139.06 120.135 139.739 119.095C140.422 118.055 140.825 116.854 140.947 115.491H137.402V114.173H142.559C142.559 114.856 142.512 115.506 142.419 116.121H143.965V112.884H145.518V125.174Z" fill="#282828"/>
<g opacity="0.5">
<path d="M283.006 128.688C285.155 126.722 286.503 123.894 286.503 120.752C286.503 114.814 281.69 110 275.752 110C269.814 110 265 114.814 265 120.752C265 123.894 266.348 126.722 268.497 128.688" stroke="#DADEE4" stroke-width="2.4375" stroke-linecap="round"/>
<path d="M275.752 110C272.732 110 270.003 111.245 268.05 113.25C266.162 115.187 265 117.834 265 120.752C265 123.894 266.348 126.722 268.497 128.688" stroke="#A2A9B4" stroke-width="3" stroke-linecap="round"/>
<path d="M277.261 126.03C277.605 125.665 277.758 125.156 277.678 124.648C277.295 122.314 276.902 119.982 276.502 117.653C276.463 117.472 276.361 117.306 276.217 117.187C276.014 117.03 275.743 116.994 275.513 117.092C275.283 117.191 275.126 117.409 275.109 117.662C274.961 118.531 274.814 119.406 274.694 120.281C274.492 121.747 274.287 123.212 274.131 124.685C274.067 125.438 274.509 126.154 275.209 126.451C275.926 126.76 276.748 126.592 277.264 126.033L277.261 126.03Z" fill="#A2A9B4"/>
<path d="M294.681 121.248C294.686 120.647 294.744 120.162 294.856 119.791C294.969 119.419 295.125 119.124 295.325 118.904C295.53 118.68 295.804 118.46 296.146 118.245C296.492 118.025 296.761 117.786 296.951 117.527C297.146 117.264 297.244 116.961 297.244 116.619C297.244 116.351 297.181 116.116 297.054 115.916C296.927 115.711 296.753 115.552 296.534 115.44C296.319 115.328 296.077 115.271 295.809 115.271C295.555 115.271 295.318 115.325 295.098 115.433C294.878 115.54 294.698 115.704 294.556 115.923C294.419 116.143 294.344 116.409 294.329 116.722H292.498C292.513 116.087 292.669 115.547 292.967 115.103C293.265 114.654 293.663 114.317 294.161 114.092C294.659 113.863 295.213 113.748 295.823 113.748C296.478 113.748 297.056 113.865 297.559 114.1C298.067 114.329 298.46 114.659 298.738 115.088C299.021 115.518 299.163 116.019 299.163 116.59C299.163 117.156 299.029 117.645 298.76 118.055C298.497 118.465 298.113 118.821 297.61 119.124C297.317 119.3 297.083 119.483 296.907 119.673C296.736 119.859 296.609 120.076 296.526 120.325C296.443 120.574 296.399 120.882 296.395 121.248V121.38H294.681V121.248ZM295.589 124.617C295.384 124.617 295.193 124.566 295.018 124.463C294.842 124.361 294.703 124.222 294.6 124.046C294.498 123.87 294.446 123.68 294.446 123.475C294.446 123.274 294.498 123.089 294.6 122.918C294.703 122.742 294.842 122.603 295.018 122.5C295.193 122.398 295.384 122.347 295.589 122.347C295.784 122.347 295.967 122.398 296.138 122.5C296.314 122.603 296.453 122.742 296.556 122.918C296.663 123.089 296.717 123.274 296.717 123.475C296.717 123.68 296.663 123.87 296.556 124.046C296.453 124.222 296.314 124.361 296.138 124.463C295.967 124.566 295.784 124.617 295.589 124.617ZM301.959 121.248C301.964 120.647 302.022 120.162 302.135 119.791C302.247 119.419 302.403 119.124 302.604 118.904C302.809 118.68 303.082 118.46 303.424 118.245C303.771 118.025 304.039 117.786 304.229 117.527C304.425 117.264 304.522 116.961 304.522 116.619C304.522 116.351 304.459 116.116 304.332 115.916C304.205 115.711 304.032 115.552 303.812 115.44C303.597 115.328 303.355 115.271 303.087 115.271C302.833 115.271 302.596 115.325 302.376 115.433C302.157 115.54 301.976 115.704 301.834 115.923C301.698 116.143 301.622 116.409 301.607 116.722H299.776C299.791 116.087 299.947 115.547 300.245 115.103C300.543 114.654 300.941 114.317 301.439 114.092C301.937 113.863 302.491 113.748 303.102 113.748C303.756 113.748 304.334 113.865 304.837 114.1C305.345 114.329 305.738 114.659 306.017 115.088C306.3 115.518 306.441 116.019 306.441 116.59C306.441 117.156 306.307 117.645 306.039 118.055C305.775 118.465 305.392 118.821 304.889 119.124C304.596 119.3 304.361 119.483 304.186 119.673C304.015 119.859 303.888 120.076 303.805 120.325C303.722 120.574 303.678 120.882 303.673 121.248V121.38H301.959V121.248ZM302.867 124.617C302.662 124.617 302.472 124.566 302.296 124.463C302.12 124.361 301.981 124.222 301.878 124.046C301.776 123.87 301.725 123.68 301.725 123.475C301.725 123.274 301.776 123.089 301.878 122.918C301.981 122.742 302.12 122.603 302.296 122.5C302.472 122.398 302.662 122.347 302.867 122.347C303.062 122.347 303.246 122.398 303.417 122.5C303.592 122.603 303.731 122.742 303.834 122.918C303.941 123.089 303.995 123.274 303.995 123.475C303.995 123.68 303.941 123.87 303.834 124.046C303.731 124.222 303.592 124.361 303.417 124.463C303.246 124.566 303.062 124.617 302.867 124.617Z" fill="#282828"/>
</g>
<path d="M86.6777 164.848C86.6764 164.843 86.675 164.839 86.6733 164.835C85.5476 161.325 81.6583 158.537 77.0914 159.945C74.8076 160.649 73.0171 162.431 72.302 164.712C71.334 167.8 72.2316 170.968 74.6446 172.983V178.274C74.6446 178.359 74.7136 178.429 74.7988 178.429H82.6421C82.7272 178.429 82.7962 178.359 82.7962 178.274V174.9H84.5509C84.9932 174.899 85.4092 174.727 85.7216 174.413C86.0341 174.099 86.206 173.681 86.205 173.238L86.1999 170.537H87.4561C87.6509 170.537 87.8311 170.449 87.9507 170.294C88.07 170.139 88.1104 169.942 88.0608 169.749L86.6774 164.849L86.6777 164.848Z" fill="#FBCBBC"/>
<path d="M83.6725 168.262C84.0867 168.979 85.0041 169.225 85.7215 168.811C86.439 168.396 86.6848 167.479 86.2706 166.762L84.9715 167.512L83.6725 168.262ZM76.4792 176.923V178.423H79.4792V176.923H77.9792H76.4792ZM77.9792 171.709H76.4792H77.9792ZM80.9792 166.463V167.963H83.1559V166.463V164.963H80.9792V166.463ZM77.9792 169.463H76.4792V171.709H77.9792H79.4792V169.463H77.9792ZM77.9792 171.709H76.4792V176.923H77.9792H79.4792V171.709H77.9792ZM83.1559 166.463V167.963C83.369 167.963 83.5659 168.077 83.6725 168.262L84.9715 167.512L86.2706 166.762C85.6281 165.649 84.4408 164.963 83.1559 164.963V166.463ZM80.9792 166.463V164.963C78.494 164.963 76.4792 166.978 76.4792 169.463H77.9792H79.4792C79.4792 168.635 80.1508 167.963 80.9792 167.963V166.463Z" fill="#FFEDE5"/>
<path d="M110.924 165.652H99.9814V164.334H104.654V162.737H106.266V164.334H110.924V165.652ZM111.539 174.383H99.4395V173.064H104.654V171.438C103.888 171.375 103.229 171.236 102.677 171.021C102.13 170.801 101.71 170.511 101.417 170.149C101.129 169.783 100.987 169.358 100.992 168.875C100.987 168.348 101.163 167.894 101.52 167.513C101.881 167.127 102.398 166.834 103.072 166.634C103.746 166.429 104.542 166.326 105.46 166.326C106.363 166.326 107.149 166.429 107.818 166.634C108.492 166.834 109.01 167.127 109.371 167.513C109.732 167.894 109.913 168.348 109.913 168.875C109.913 169.354 109.767 169.776 109.474 170.142C109.181 170.503 108.761 170.794 108.214 171.014C107.667 171.229 107.018 171.368 106.266 171.431V173.064H111.539V174.383ZM105.46 167.601C104.547 167.61 103.851 167.723 103.373 167.938C102.894 168.147 102.657 168.46 102.662 168.875C102.657 169.295 102.894 169.612 103.373 169.827C103.851 170.042 104.547 170.154 105.46 170.164C106.358 170.154 107.047 170.042 107.525 169.827C108.004 169.612 108.243 169.295 108.243 168.875C108.243 168.46 108.004 168.147 107.525 167.938C107.047 167.723 106.358 167.61 105.46 167.601ZM114.965 172.273H120.839V171.336H122.479V175.643H113.354V171.336H114.965V172.273ZM120.839 174.427V173.46H114.965V174.427H120.839ZM123.314 164.773H112.504V163.543H117.118V162.415H118.744V163.543H123.314V164.773ZM117.924 165.14C119.345 165.14 120.434 165.296 121.19 165.608C121.952 165.921 122.333 166.38 122.333 166.985C122.333 167.586 121.955 168.042 121.198 168.355C120.441 168.663 119.35 168.821 117.924 168.831C116.498 168.821 115.409 168.663 114.657 168.355C113.905 168.042 113.529 167.586 113.529 166.985C113.529 166.38 113.905 165.921 114.657 165.608C115.414 165.296 116.503 165.14 117.924 165.14ZM117.924 166.238C117.025 166.248 116.361 166.314 115.932 166.436C115.502 166.553 115.287 166.736 115.287 166.985C115.287 167.239 115.502 167.427 115.932 167.549C116.361 167.671 117.025 167.732 117.924 167.732C118.817 167.732 119.484 167.671 119.923 167.549C120.368 167.427 120.59 167.239 120.59 166.985C120.59 166.736 120.368 166.553 119.923 166.436C119.484 166.314 118.817 166.248 117.924 166.238ZM123.974 170.735H111.903V169.461H123.974V170.735ZM135.427 175.804H133.786V162.562H135.427V175.804ZM131.472 163.968C131.472 166.072 130.996 167.92 130.043 169.512C129.091 171.099 127.512 172.415 125.305 173.46L124.455 172.156C126.159 171.346 127.441 170.376 128.3 169.249C129.165 168.116 129.67 166.785 129.816 165.257H125.129V163.968H131.472Z" fill="#282828"/>
<g opacity="0.5">
<path d="M283.006 178.688C285.155 176.722 286.503 173.894 286.503 170.752C286.503 164.814 281.69 160 275.752 160C269.814 160 265 164.814 265 170.752C265 173.894 266.348 176.722 268.497 178.688" stroke="#DADEE4" stroke-width="2.4375" stroke-linecap="round"/>
<path d="M275.752 160C272.732 160 270.003 161.245 268.05 163.25C266.162 165.187 265 167.834 265 170.752C265 173.894 266.348 176.722 268.497 178.688" stroke="#A2A9B4" stroke-width="3" stroke-linecap="round"/>
<path d="M277.261 176.03C277.605 175.665 277.758 175.156 277.678 174.648C277.295 172.314 276.902 169.982 276.502 167.653C276.463 167.472 276.361 167.306 276.217 167.187C276.014 167.03 275.743 166.994 275.513 167.092C275.283 167.191 275.126 167.409 275.109 167.662C274.961 168.531 274.814 169.406 274.694 170.281C274.492 171.747 274.287 173.212 274.131 174.685C274.067 175.438 274.509 176.154 275.209 176.451C275.926 176.76 276.748 176.592 277.264 176.033L277.261 176.03Z" fill="#A2A9B4"/>
<path d="M294.681 171.248C294.686 170.647 294.744 170.162 294.856 169.791C294.969 169.419 295.125 169.124 295.325 168.904C295.53 168.68 295.804 168.46 296.146 168.245C296.492 168.025 296.761 167.786 296.951 167.527C297.146 167.264 297.244 166.961 297.244 166.619C297.244 166.351 297.181 166.116 297.054 165.916C296.927 165.711 296.753 165.552 296.534 165.44C296.319 165.328 296.077 165.271 295.809 165.271C295.555 165.271 295.318 165.325 295.098 165.433C294.878 165.54 294.698 165.704 294.556 165.923C294.419 166.143 294.344 166.409 294.329 166.722H292.498C292.513 166.087 292.669 165.547 292.967 165.103C293.265 164.654 293.663 164.317 294.161 164.092C294.659 163.863 295.213 163.748 295.823 163.748C296.478 163.748 297.056 163.865 297.559 164.1C298.067 164.329 298.46 164.659 298.738 165.088C299.021 165.518 299.163 166.019 299.163 166.59C299.163 167.156 299.029 167.645 298.76 168.055C298.497 168.465 298.113 168.821 297.61 169.124C297.317 169.3 297.083 169.483 296.907 169.673C296.736 169.859 296.609 170.076 296.526 170.325C296.443 170.574 296.399 170.882 296.395 171.248V171.38H294.681V171.248ZM295.589 174.617C295.384 174.617 295.193 174.566 295.018 174.463C294.842 174.361 294.703 174.222 294.6 174.046C294.498 173.87 294.446 173.68 294.446 173.475C294.446 173.274 294.498 173.089 294.6 172.918C294.703 172.742 294.842 172.603 295.018 172.5C295.193 172.398 295.384 172.347 295.589 172.347C295.784 172.347 295.967 172.398 296.138 172.5C296.314 172.603 296.453 172.742 296.556 172.918C296.663 173.089 296.717 173.274 296.717 173.475C296.717 173.68 296.663 173.87 296.556 174.046C296.453 174.222 296.314 174.361 296.138 174.463C295.967 174.566 295.784 174.617 295.589 174.617ZM301.959 171.248C301.964 170.647 302.022 170.162 302.135 169.791C302.247 169.419 302.403 169.124 302.604 168.904C302.809 168.68 303.082 168.46 303.424 168.245C303.771 168.025 304.039 167.786 304.229 167.527C304.425 167.264 304.522 166.961 304.522 166.619C304.522 166.351 304.459 166.116 304.332 165.916C304.205 165.711 304.032 165.552 303.812 165.44C303.597 165.328 303.355 165.271 303.087 165.271C302.833 165.271 302.596 165.325 302.376 165.433C302.157 165.54 301.976 165.704 301.834 165.923C301.698 166.143 301.622 166.409 301.607 166.722H299.776C299.791 166.087 299.947 165.547 300.245 165.103C300.543 164.654 300.941 164.317 301.439 164.092C301.937 163.863 302.491 163.748 303.102 163.748C303.756 163.748 304.334 163.865 304.837 164.1C305.345 164.329 305.738 164.659 306.017 165.088C306.3 165.518 306.441 166.019 306.441 166.59C306.441 167.156 306.307 167.645 306.039 168.055C305.775 168.465 305.392 168.821 304.889 169.124C304.596 169.3 304.361 169.483 304.186 169.673C304.015 169.859 303.888 170.076 303.805 170.325C303.722 170.574 303.678 170.882 303.673 171.248V171.38H301.959V171.248ZM302.867 174.617C302.662 174.617 302.472 174.566 302.296 174.463C302.12 174.361 301.981 174.222 301.878 174.046C301.776 173.87 301.725 173.68 301.725 173.475C301.725 173.274 301.776 173.089 301.878 172.918C301.981 172.742 302.12 172.603 302.296 172.5C302.472 172.398 302.662 172.347 302.867 172.347C303.062 172.347 303.246 172.398 303.417 172.5C303.592 172.603 303.731 172.742 303.834 172.918C303.941 173.089 303.995 173.274 303.995 173.475C303.995 173.68 303.941 173.87 303.834 174.046C303.731 174.222 303.592 174.361 303.417 174.463C303.246 174.566 303.062 174.617 302.867 174.617Z" fill="#282828"/>
</g>
<path d="M86.2677 212.97C86.2677 212.213 85.9668 211.486 85.4309 210.95C84.895 210.414 84.1683 210.113 83.4106 210.113C82.6529 210.113 81.9261 210.414 81.3903 210.95C80.8545 211.486 80.5535 212.213 80.5535 212.97C80.5567 213.727 80.8598 214.451 81.3963 214.985L75.4249 220.956C74.8915 220.42 74.1672 220.116 73.4106 220.113C72.6529 220.113 71.9261 220.414 71.3903 220.95C70.8545 221.486 70.5535 222.213 70.5535 222.97C70.5535 223.728 70.8545 224.455 71.3903 224.991C71.9261 225.527 72.6529 225.828 73.4106 225.828C73.4106 226.585 73.7116 227.312 74.2475 227.848C74.7833 228.384 75.51 228.685 76.2678 228.685C77.0255 228.685 77.7522 228.384 78.2881 227.848C78.8239 227.312 79.1249 226.585 79.1249 225.828C79.1217 225.071 78.8186 224.347 78.282 223.813L84.2535 217.842C84.7869 218.378 85.5112 218.682 86.2677 218.685C87.0255 218.685 87.7522 218.384 88.288 217.848C88.8239 217.312 89.1249 216.585 89.1249 215.828C89.1249 215.07 88.8239 214.343 88.288 213.807C87.7522 213.271 87.0255 212.97 86.2677 212.97Z" fill="#CEE2ED"/>
<path d="M106.837 214.334V214.51C106.827 215.184 106.803 215.799 106.764 216.355C106.725 216.912 106.642 217.537 106.515 218.23L104.903 218.084C105.021 217.469 105.101 216.912 105.145 216.414C105.189 215.911 105.218 215.403 105.233 214.891H100.084V213.543H106.837V214.334ZM103.497 219.205C105.064 219.136 106.417 219.021 107.555 218.86L107.643 220.032C106.422 220.252 105.147 220.398 103.819 220.472C102.496 220.54 101.036 220.579 99.4395 220.589L99.293 219.285H99.5566L101.886 219.256V216.561H103.497V219.205ZM110.001 216.692H111.715V218.055H110.001V222.479H108.331V212.562H110.001V216.692ZM110.426 225.54H101.271V221.6H102.911V224.222H110.426V225.54ZM116.723 214.51C116.718 214.993 116.835 215.467 117.074 215.931C117.313 216.39 117.665 216.802 118.129 217.168C118.598 217.53 119.159 217.806 119.813 217.996L119.052 219.285C118.319 219.07 117.687 218.746 117.155 218.311C116.623 217.872 116.205 217.354 115.902 216.758C115.595 217.417 115.163 217.994 114.606 218.487C114.054 218.98 113.402 219.344 112.65 219.578L111.845 218.304C112.514 218.084 113.092 217.774 113.581 217.374C114.069 216.973 114.44 216.521 114.694 216.019C114.953 215.516 115.082 215.008 115.082 214.495V214.451H112.299V213.133H119.462V214.451H116.723V214.51ZM122.992 219.344H121.366V216.663H119.096V215.359H121.366V212.562H122.992V219.344ZM122.992 223.343H115.902V224.383H123.417V225.657H114.276V222.127H121.366V221.189H114.262V219.9H122.992V223.343ZM129.038 220.999C128.833 220.999 128.643 220.948 128.467 220.845C128.291 220.743 128.152 220.604 128.049 220.428C127.947 220.252 127.896 220.062 127.896 219.856C127.896 219.656 127.947 219.471 128.049 219.3C128.152 219.124 128.291 218.985 128.467 218.882C128.643 218.78 128.833 218.729 129.038 218.729C129.233 218.729 129.417 218.78 129.587 218.882C129.763 218.985 129.902 219.124 130.005 219.3C130.112 219.471 130.166 219.656 130.166 219.856C130.166 220.062 130.112 220.252 130.005 220.428C129.902 220.604 129.763 220.743 129.587 220.845C129.417 220.948 129.233 220.999 129.038 220.999ZM135.641 216.956H136.798V213.777H138.146V222.669H134.322V213.777H135.641V216.956ZM136.798 221.351V218.23H135.641V221.351H136.798ZM140.182 216.956H141.354V213.777H142.687V215.784H143.917V212.562H145.484V225.804H143.917V220.53H142.687V222.669H138.849V213.777H140.182V216.956ZM141.354 221.351V218.23H140.182V221.351H141.354ZM143.917 219.197V217.117H142.687V219.197H143.917Z" fill="#282828"/>
<g opacity="0.5">
<path d="M283.006 228.688C285.155 226.722 286.503 223.894 286.503 220.752C286.503 214.814 281.69 210 275.752 210C269.814 210 265 214.814 265 220.752C265 223.894 266.348 226.722 268.497 228.688" stroke="#DADEE4" stroke-width="2.4375" stroke-linecap="round"/>
<path d="M275.752 210C272.732 210 270.003 211.245 268.05 213.25C266.162 215.187 265 217.834 265 220.752C265 223.894 266.348 226.722 268.497 228.688" stroke="#A2A9B4" stroke-width="3" stroke-linecap="round"/>
<path d="M277.261 226.03C277.605 225.665 277.758 225.156 277.678 224.648C277.295 222.314 276.902 219.982 276.502 217.653C276.463 217.472 276.361 217.306 276.217 217.187C276.014 217.03 275.743 216.994 275.513 217.092C275.283 217.191 275.126 217.409 275.109 217.662C274.961 218.531 274.814 219.406 274.694 220.281C274.492 221.747 274.287 223.212 274.131 224.685C274.067 225.438 274.509 226.154 275.209 226.451C275.926 226.76 276.748 226.592 277.264 226.033L277.261 226.03Z" fill="#A2A9B4"/>
<path d="M294.681 221.248C294.686 220.647 294.744 220.162 294.856 219.791C294.969 219.419 295.125 219.124 295.325 218.904C295.53 218.68 295.804 218.46 296.146 218.245C296.492 218.025 296.761 217.786 296.951 217.527C297.146 217.264 297.244 216.961 297.244 216.619C297.244 216.351 297.181 216.116 297.054 215.916C296.927 215.711 296.753 215.552 296.534 215.44C296.319 215.328 296.077 215.271 295.809 215.271C295.555 215.271 295.318 215.325 295.098 215.433C294.878 215.54 294.698 215.704 294.556 215.923C294.419 216.143 294.344 216.409 294.329 216.722H292.498C292.513 216.087 292.669 215.547 292.967 215.103C293.265 214.654 293.663 214.317 294.161 214.092C294.659 213.863 295.213 213.748 295.823 213.748C296.478 213.748 297.056 213.865 297.559 214.1C298.067 214.329 298.46 214.659 298.738 215.088C299.021 215.518 299.163 216.019 299.163 216.59C299.163 217.156 299.029 217.645 298.76 218.055C298.497 218.465 298.113 218.821 297.61 219.124C297.317 219.3 297.083 219.483 296.907 219.673C296.736 219.859 296.609 220.076 296.526 220.325C296.443 220.574 296.399 220.882 296.395 221.248V221.38H294.681V221.248ZM295.589 224.617C295.384 224.617 295.193 224.566 295.018 224.463C294.842 224.361 294.703 224.222 294.6 224.046C294.498 223.87 294.446 223.68 294.446 223.475C294.446 223.274 294.498 223.089 294.6 222.918C294.703 222.742 294.842 222.603 295.018 222.5C295.193 222.398 295.384 222.347 295.589 222.347C295.784 222.347 295.967 222.398 296.138 222.5C296.314 222.603 296.453 222.742 296.556 222.918C296.663 223.089 296.717 223.274 296.717 223.475C296.717 223.68 296.663 223.87 296.556 224.046C296.453 224.222 296.314 224.361 296.138 224.463C295.967 224.566 295.784 224.617 295.589 224.617ZM301.959 221.248C301.964 220.647 302.022 220.162 302.135 219.791C302.247 219.419 302.403 219.124 302.604 218.904C302.809 218.68 303.082 218.46 303.424 218.245C303.771 218.025 304.039 217.786 304.229 217.527C304.425 217.264 304.522 216.961 304.522 216.619C304.522 216.351 304.459 216.116 304.332 215.916C304.205 215.711 304.032 215.552 303.812 215.44C303.597 215.328 303.355 215.271 303.087 215.271C302.833 215.271 302.596 215.325 302.376 215.433C302.157 215.54 301.976 215.704 301.834 215.923C301.698 216.143 301.622 216.409 301.607 216.722H299.776C299.791 216.087 299.947 215.547 300.245 215.103C300.543 214.654 300.941 214.317 301.439 214.092C301.937 213.863 302.491 213.748 303.102 213.748C303.756 213.748 304.334 213.865 304.837 214.1C305.345 214.329 305.738 214.659 306.017 215.088C306.3 215.518 306.441 216.019 306.441 216.59C306.441 217.156 306.307 217.645 306.039 218.055C305.775 218.465 305.392 218.821 304.889 219.124C304.596 219.3 304.361 219.483 304.186 219.673C304.015 219.859 303.888 220.076 303.805 220.325C303.722 220.574 303.678 220.882 303.673 221.248V221.38H301.959V221.248ZM302.867 224.617C302.662 224.617 302.472 224.566 302.296 224.463C302.12 224.361 301.981 224.222 301.878 224.046C301.776 223.87 301.725 223.68 301.725 223.475C301.725 223.274 301.776 223.089 301.878 222.918C301.981 222.742 302.12 222.603 302.296 222.5C302.472 222.398 302.662 222.347 302.867 222.347C303.062 222.347 303.246 222.398 303.417 222.5C303.592 222.603 303.731 222.742 303.834 222.918C303.941 223.089 303.995 223.274 303.995 223.475C303.995 223.68 303.941 223.87 303.834 224.046C303.731 224.222 303.592 224.361 303.417 224.463C303.246 224.566 303.062 224.617 302.867 224.617Z" fill="#282828"/>
</g>
</g>
<defs>
<filter id="filter0_d_2049_12028" x="32.4" y="39" width="311.2" height="241.6" filterUnits="userSpaceOnUse" color-interpolation-filters="sRGB">
<feFlood flood-opacity="0" result="BackgroundImageFix"/>
<feColorMatrix in="SourceAlpha" type="matrix" values="0 0 0 0 0 0 0 0 0 0 0 0 0 0 0 0 0 0 127 0" result="hardAlpha"/>
<feOffset dy="16"/>
<feGaussianBlur stdDeviation="7.8"/>
<feComposite in2="hardAlpha" operator="out"/>
<feColorMatrix type="matrix" values="0 0 0 0 0 0 0 0 0 0 0 0 0 0 0 0 0 0 0.09 0"/>
<feBlend mode="normal" in2="BackgroundImageFix" result="effect1_dropShadow_2049_12028"/>
<feBlend mode="normal" in="SourceGraphic" in2="effect1_dropShadow_2049_12028" result="shape"/>
</filter>
<linearGradient id="paint0_linear_2049_12028" x1="188.5" y1="0" x2="188.5" y2="36" gradientUnits="userSpaceOnUse">
<stop stop-color="white" stop-opacity="0"/>
<stop offset="1" stop-color="white"/>
</linearGradient>
<clipPath id="clip0_2049_12028">
<rect width="16.6667" height="19.6646" fill="white" transform="translate(71.6667 109.167)"/>
</clipPath>
</defs>
</svg>
