<svg width="20" height="19" viewBox="0 0 20 19" fill="none" xmlns="http://www.w3.org/2000/svg">
<g clip-path="url(#clip0_1855_4753)">
<path d="M14.3978 14.7123C13.4748 15.4729 0.5 18.2008 0.5 18.2008C0.5 18.2008 5.65889 5.98813 6.58197 5.22604C7.50505 4.46542 10.004 5.97188 12.1618 8.59047C14.3196 11.2091 15.3209 13.9502 14.3964 14.7108L14.3978 14.7123Z" fill="#FFDAAE"/>
<path d="M14.3971 14.7113C15.3206 13.9503 14.3194 11.21 12.161 8.59072C10.0026 5.9714 7.50423 4.46492 6.58077 5.2259C5.65731 5.98687 6.65844 8.72713 8.81687 11.3464C10.9753 13.9658 13.4737 15.4722 14.3971 14.7113Z" fill="#F99D7D"/>
<path d="M4.8465 8.39589C4.62348 8.86555 4.39013 9.36622 4.15234 9.88315C4.58065 10.9318 5.32502 12.1561 6.31308 13.3554C7.33068 14.5916 8.42361 15.5796 9.39247 16.1985C9.9537 16.0626 10.4972 15.9267 11.0067 15.7953C9.8961 15.2547 8.51961 14.1057 7.25979 12.5756C6.03837 11.0942 5.18914 9.57447 4.84797 8.39441L4.8465 8.39589Z" fill="#F99D7D"/>
<path d="M3.22153 11.942C3.01476 12.4043 2.81094 12.8651 2.61304 13.3141C2.99556 13.9492 3.46079 14.6108 3.99839 15.2636C4.55814 15.9445 5.14153 16.5485 5.71458 17.0596C6.19605 16.9503 6.68934 16.838 7.18559 16.7228C6.44861 16.135 5.67765 15.3744 4.94362 14.4853C4.2347 13.6257 3.65279 12.7528 3.22153 11.942Z" fill="#F99D7D"/>
<path d="M1.82567 15.115C1.6189 15.5906 1.42838 16.0322 1.26001 16.4235C1.42543 16.6451 1.5997 16.8681 1.78136 17.0896C1.9837 17.3348 2.18752 17.5696 2.39429 17.7941C2.81226 17.7026 3.28339 17.6007 3.79293 17.4884C3.43404 17.128 3.07663 16.7352 2.72807 16.3113C2.40019 15.9125 2.0989 15.5108 1.82567 15.115Z" fill="#F99D7D"/>
<path d="M17.5937 2.48888C17.449 3.09884 17.0517 3.61872 16.5141 3.93626C16.0888 4.18734 15.3208 4.42364 14.9087 4.02044C14.7802 3.89491 14.7315 3.66598 14.7994 3.51238C14.826 3.45035 14.8792 3.39571 14.984 3.37798C15.1214 3.35583 15.275 3.4282 15.3857 3.50057C15.8672 3.81958 16.0474 4.5034 15.9056 5.041C15.7343 5.6938 15.0815 6.1162 14.4228 6.09552C13.9901 6.08223 14.0078 6.75275 14.4376 6.76605C15.3296 6.79411 16.1848 6.21958 16.4949 5.38512C16.8021 4.561 16.5348 3.51386 15.8141 2.98808C15.4404 2.71632 14.9013 2.57897 14.4937 2.86697C14.1422 3.11509 14.0373 3.5626 14.1363 3.96432C14.3696 4.91989 15.5438 5.02328 16.3221 4.75595C17.2688 4.43103 18.0147 3.6202 18.2465 2.64543C18.347 2.22451 17.6957 2.06795 17.5952 2.4874L17.5937 2.48888Z" fill="#EA7DB1"/>
<path d="M16.1513 10.2993C17.1349 9.67017 18.2944 10.265 19.2006 10.7469C19.3602 10.8325 19.5617 10.8045 19.6632 10.644C19.7543 10.5003 19.7199 10.267 19.5602 10.1814C18.4447 9.58594 17.0375 8.93951 15.8344 9.70915C15.6824 9.80715 15.6074 9.99534 15.6969 10.1631C15.7767 10.3136 15.9975 10.3982 16.1509 10.3007L16.1513 10.2993Z" fill="#3F9AEE"/>
<path d="M10.2683 4.24891C11.1253 3.45594 10.8424 2.18388 10.6047 1.18543C10.5622 1.00936 10.6402 0.821485 10.8211 0.763784C10.9831 0.711908 11.2002 0.804085 11.2427 0.980151C11.5373 2.20989 11.8077 3.73462 10.7593 4.70454C10.6261 4.82686 10.4251 4.85198 10.2853 4.72303C10.1598 4.60784 10.1337 4.37282 10.2668 4.24902L10.2683 4.24891Z" fill="#3F9AEE"/>
</g>
<defs>
<clipPath id="clip0_1855_4753">
<rect width="20" height="19" fill="white"/>
</clipPath>
</defs>
</svg>
