<svg width="96" height="43" viewBox="0 0 96 43" fill="none" xmlns="http://www.w3.org/2000/svg">
<g filter="url(#filter0_d_1900_5615)">
<path d="M47.3438 4.36426C47.7438 3.87853 48.4877 3.87853 48.8877 4.36426L51.0586 7H76C84.8365 7 92 14.1635 92 23C92 31.8366 84.8366 39 76 39H20C11.1634 39 4 31.8366 4 23C4.00004 14.1635 11.1635 7 20 7H45.1729L47.3438 4.36426Z" fill="white"/>
<path d="M47.3438 4.36426C47.7438 3.87853 48.4877 3.87853 48.8877 4.36426L51.0586 7H76C84.8365 7 92 14.1635 92 23C92 31.8366 84.8366 39 76 39H20C11.1634 39 4 31.8366 4 23C4.00004 14.1635 11.1635 7 20 7H45.1729L47.3438 4.36426Z" fill="url(#paint0_linear_1900_5615)" fill-opacity="0.2"/>
</g>
<defs>
<filter id="filter0_d_1900_5615" x="0" y="0" width="96" height="43" filterUnits="userSpaceOnUse" color-interpolation-filters="sRGB">
<feFlood flood-opacity="0" result="BackgroundImageFix"/>
<feColorMatrix in="SourceAlpha" type="matrix" values="0 0 0 0 0 0 0 0 0 0 0 0 0 0 0 0 0 0 127 0" result="hardAlpha"/>
<feOffset/>
<feGaussianBlur stdDeviation="2"/>
<feComposite in2="hardAlpha" operator="out"/>
<feColorMatrix type="matrix" values="0 0 0 0 0 0 0 0 0 0 0 0 0 0 0 0 0 0 0.1 0"/>
<feBlend mode="normal" in2="BackgroundImageFix" result="effect1_dropShadow_1900_5615"/>
<feBlend mode="normal" in="SourceGraphic" in2="effect1_dropShadow_1900_5615" result="shape"/>
</filter>
<linearGradient id="paint0_linear_1900_5615" x1="42.736" y1="1.99965" x2="42.736" y2="31.2507" gradientUnits="userSpaceOnUse">
<stop stop-color="white"/>
<stop offset="1" stop-color="#ACACAC"/>
</linearGradient>
</defs>
</svg>
