<svg width="27" height="26" viewBox="0 0 27 26" fill="none" xmlns="http://www.w3.org/2000/svg">
<path d="M8.3905 3.9917C12.0845 3.75117 16.0055 6.27486 17.9481 10.4937C19.5958 14.0719 19.3905 17.9381 17.7137 20.647L18.5575 20.9214C18.151 21.4852 16.7024 22.8192 14.1571 23.6548C9.94309 25.3034 4.77807 22.683 2.45105 17.6294C0.528721 13.4545 1.12826 8.88823 3.64539 6.2251H3.64441C4.18292 5.55527 5.90185 4.02655 8.47058 3.27002L8.3905 3.9917Z" fill="#DC5454"/>
<ellipse cx="12.091" cy="12.9989" rx="8.53047" ry="10.3823" transform="rotate(-24.7246 12.091 12.9989)" fill="#FB7F7D"/>
<ellipse cx="12.0909" cy="12.9989" rx="6.38415" ry="7.77009" transform="rotate(-24.7246 12.0909 12.9989)" fill="#F5FCFC"/>
<ellipse cx="12.0911" cy="12.9987" rx="4.32555" ry="5.26458" transform="rotate(-24.7246 12.0911 12.9987)" fill="#FD7D7C"/>
<ellipse cx="12.091" cy="12.9986" rx="2.21388" ry="2.69449" transform="rotate(-24.7246 12.091 12.9986)" fill="#FDFDF9"/>
<path d="M19.2688 2.99707C19.5461 2.96143 19.8333 3.16735 19.8333 3.49219V5.5459C19.8332 5.57133 19.8236 5.596 19.8059 5.61426L16.5872 8.91992C16.5229 8.98594 16.4117 8.93543 16.4192 8.84375L16.7083 5.45508C16.7112 5.42047 16.7267 5.38784 16.7512 5.36328L18.6536 3.46582L18.5813 3.3623C18.5534 3.32205 18.559 3.26663 18.595 3.2334L18.8235 3.02344C18.8416 3.00675 18.8652 2.99707 18.8899 2.99707H19.2688Z" fill="#89C6FF"/>
<path d="M16.2555 5.58172L15.9771 8.84217C15.9693 8.93409 16.081 8.98513 16.1453 8.91903L19.3634 5.61296C19.3812 5.59462 19.3912 5.57004 19.3912 5.54446V3.49077C19.3912 3.04703 18.855 2.82442 18.5408 3.13767L16.4003 5.27104C16.3168 5.35424 16.2655 5.46431 16.2555 5.58172Z" fill="#3496F1"/>
<path d="M20.2051 8.71707L16.8165 9.00641C16.7246 9.01426 16.6736 8.90252 16.7397 8.83818L20.0457 5.62015C20.0641 5.6023 20.0886 5.59231 20.1142 5.59231L21.9278 5.59231C22.4603 5.59231 22.7274 6.2357 22.3515 6.61285L20.2969 8.67428C20.2723 8.69895 20.2398 8.71411 20.2051 8.71707Z" fill="#89C6FF"/>
<path d="M19.9597 8.96219L16.5712 9.25153C16.4792 9.25938 16.4282 9.14764 16.4943 9.0833L19.8004 5.86527C19.8187 5.84742 19.8433 5.83743 19.8689 5.83743L21.9226 5.83743C22.3663 5.83743 22.5889 6.37359 22.2757 6.68788L20.0515 8.9194C20.0269 8.94406 19.9944 8.95922 19.9597 8.96219Z" fill="#3496F1"/>
<path d="M18.5869 5.37667C18.9719 4.99174 19.596 4.99174 19.9809 5.37667C20.3659 5.76161 20.3659 6.38571 19.9809 6.77065L13.3186 13.433C12.9336 13.8179 12.3095 13.8179 11.9246 13.433C11.5396 13.0481 11.5396 12.424 11.9246 12.039L18.5869 5.37667Z" fill="#3496F1"/>
<mask id="mask0_2049_14784" style="mask-type:alpha" maskUnits="userSpaceOnUse" x="11" y="5" width="10" height="9">
<path d="M18.5886 5.37665C18.9735 4.99176 19.5976 4.99178 19.9825 5.3767C20.3675 5.76165 20.3675 6.38579 19.9825 6.77072L13.3197 13.4326C12.9347 13.8175 12.3106 13.8175 11.9257 13.4326C11.5408 13.0476 11.5408 12.4235 11.9258 12.0385L18.5886 5.37665Z" fill="#B9D9F9"/>
</mask>
<g mask="url(#mask0_2049_14784)">
<path d="M24.974 -1.37334C25.4693 -1.86856 26.2722 -1.86856 26.7674 -1.37334C27.2626 -0.878117 27.2626 -0.0752028 26.7674 0.42002L17.3103 9.87714C16.8151 10.3724 16.0121 10.3724 15.5169 9.87714C15.0217 9.38192 15.0217 8.57901 15.5169 8.08379L24.974 -1.37334Z" fill="#93D6FF"/>
</g>
<ellipse cx="17.4776" cy="7.89492" rx="0.294641" ry="1.86038" transform="rotate(45 17.4776 7.89492)" fill="#3496F1"/>
</svg>
