<svg width="12" height="12" viewBox="0 0 12 12" fill="none" xmlns="http://www.w3.org/2000/svg">
<path d="M4.75153 2.09874C4.88969 2.05176 5.01272 2.19179 4.96941 2.33115C4.8598 2.68388 4.80097 3.05899 4.80097 3.44779C4.80097 5.52001 6.48084 7.19987 8.55306 7.19987C8.94173 7.19987 9.31649 7.1405 9.66901 7.03066C9.80831 6.98726 9.9483 7.11022 9.90136 7.24838C9.35763 8.84898 7.84317 10.0008 6.05871 10.0008C3.81714 10.0008 2 8.1837 2 5.94214C2 4.15793 3.15132 2.64279 4.75153 2.09874Z" fill="#39B695"/>
<path d="M8.12004 2.13867C8.18031 2.01237 8.36008 2.01237 8.42034 2.13867L8.72989 2.78738C8.75415 2.83821 8.80247 2.87332 8.8583 2.88068L9.57092 2.97461C9.70967 2.9929 9.76521 3.16388 9.66372 3.26022L9.14241 3.75508C9.10157 3.79385 9.08311 3.85066 9.09337 3.90603L9.22424 4.6128C9.24972 4.7504 9.10428 4.85607 8.98129 4.78932L8.34955 4.44645C8.30006 4.41958 8.24033 4.41958 8.19083 4.44645L7.5591 4.78932C7.43611 4.85607 7.29067 4.7504 7.31615 4.6128L7.44702 3.90603C7.45727 3.85066 7.43882 3.79385 7.39797 3.75508L6.87666 3.26022C6.77517 3.16388 6.83073 2.9929 6.96946 2.97461L7.68208 2.88068C7.73792 2.87332 7.78624 2.83821 7.81049 2.78738L8.12004 2.13867Z" fill="#39B695"/>
</svg>
