<svg width="50" height="50" viewBox="0 0 50 50" fill="none" xmlns="http://www.w3.org/2000/svg">
<rect width="50" height="50" rx="17.5" fill="#F6F7F9"/>
<path d="M14.2644 15.3524L10.8787 15.3524C9.67662 15.3524 8.70215 16.3269 8.70215 17.529L8.70215 27.0066C8.70215 28.2087 9.67662 29.1832 10.8787 29.1832L14.2644 29.1832C15.4665 29.1832 16.441 28.2087 16.441 27.0066L16.441 17.529C16.441 16.3269 15.4665 15.3524 14.2644 15.3524Z" fill="#598BC9"/>
<mask id="mask0_3199_9778" style="mask-type:luminance" maskUnits="userSpaceOnUse" x="8" y="15" width="9" height="15">
<path d="M14.2644 15.3522L10.8787 15.3522C9.67662 15.3522 8.70215 16.3266 8.70215 17.5287L8.70215 27.0064C8.70215 28.2085 9.67662 29.1829 10.8787 29.1829L14.2644 29.1829C15.4665 29.1829 16.441 28.2085 16.441 27.0064L16.441 17.5287C16.441 16.3266 15.4665 15.3522 14.2644 15.3522Z" fill="white"/>
</mask>
<g mask="url(#mask0_3199_9778)">
<path d="M14.2644 14.3176L10.8787 14.3176C9.67662 14.3176 8.70215 15.2921 8.70215 16.4942L8.70215 25.9718C8.70215 27.1739 9.67662 28.1484 10.8787 28.1484L14.2644 28.1484C15.4665 28.1484 16.441 27.1739 16.441 25.9718L16.441 16.4942C16.441 15.2921 15.4665 14.3176 14.2644 14.3176Z" fill="#62A9FF"/>
</g>
<path d="M19.324 26.7533L17.5271 20.983L19.4618 18.8016L31.428 18.821C30.139 27.7666 30.642 26.5284 29.4014 28.0205C28.1608 29.5127 29.7255 34.1125 29.7255 34.1125L20.1583 34.1125L21.1329 28.6324L19.3215 26.7533H19.324Z" fill="#FCBEB4"/>
<path d="M16.4417 25.1312C16.4417 25.1312 22.8141 21.2618 33.3486 24.8434L33.3486 19.4697C22.8141 15.8881 16.4417 19.7575 16.4417 19.7575L16.4417 25.1312Z" fill="#B2B2B2"/>
<path d="M21.4827 15.1484L21.3472 15.1484C20.4296 15.1484 19.6858 15.8923 19.6858 16.8099L19.6858 18.3189C19.6858 19.2365 20.4296 19.9804 21.3472 19.9804H21.4827C22.4002 19.9804 23.1441 19.2365 23.1441 18.3189L23.1441 16.8099C23.1441 15.8923 22.4002 15.1484 21.4827 15.1484Z" fill="#FCBEB4"/>
<mask id="mask1_3199_9778" style="mask-type:luminance" maskUnits="userSpaceOnUse" x="19" y="15" width="5" height="5">
<path d="M21.4827 15.1477L21.3472 15.1477C20.4296 15.1477 19.6858 15.8916 19.6858 16.8091L19.6858 18.3182C19.6858 19.2358 20.4296 19.9796 21.3472 19.9796H21.4827C22.4002 19.9796 23.1441 19.2358 23.1441 18.3182L23.1441 16.8091C23.1441 15.8916 22.4002 15.1477 21.4827 15.1477Z" fill="white"/>
</mask>
<g mask="url(#mask1_3199_9778)">
<path d="M21.4827 14.8416L21.3472 14.8416C20.4296 14.8416 19.6858 15.5854 19.6858 16.503L19.6858 18.0121C19.6858 18.9296 20.4296 19.6735 21.3472 19.6735H21.4827C22.4002 19.6735 23.1441 18.9296 23.1441 18.0121L23.1441 16.503C23.1441 15.5854 22.4002 14.8416 21.4827 14.8416Z" fill="#FFD8D4"/>
</g>
<path d="M25.2109 15.0791L25.2085 15.0788C24.3379 14.9588 23.5348 15.5672 23.4147 16.4378L23.164 18.2562C23.044 19.1268 23.6525 19.9299 24.5231 20.0499L24.5255 20.0503C25.3961 20.1703 26.1992 19.5618 26.3192 18.6912L26.5699 16.8728C26.6899 16.0022 26.0815 15.1992 25.2109 15.0791Z" fill="#FCBEB4"/>
<mask id="mask2_3199_9778" style="mask-type:luminance" maskUnits="userSpaceOnUse" x="23" y="15" width="4" height="6">
<path d="M25.2096 15.0817L25.2072 15.0814C24.3366 14.9613 23.5336 15.5698 23.4135 16.4404L23.1628 18.2588C23.0428 19.1294 23.6513 19.9325 24.5219 20.0525L24.5243 20.0528C25.3949 20.1728 26.198 19.5644 26.318 18.6938L26.5687 16.8754C26.6887 16.0048 26.0803 15.2017 25.2096 15.0817Z" fill="white"/>
</mask>
<g mask="url(#mask2_3199_9778)">
<path d="M25.0732 14.8656L25.0708 14.8653C24.2002 14.7453 23.3971 15.3537 23.277 16.2243L23.0263 18.0427C22.9063 18.9133 23.5148 19.7164 24.3854 19.8364L24.3878 19.8368C25.2584 19.9568 26.0615 19.3483 26.1815 18.4777L26.4322 16.6593C26.5522 15.7887 25.9438 14.9857 25.0732 14.8656Z" fill="#FFD8D4"/>
</g>
<path d="M29.3479 17.4584C29.5537 16.7226 29.1247 15.9595 28.3896 15.7538C27.6545 15.5482 26.8917 15.9779 26.6859 16.7136L26.2018 18.4441C25.9959 19.1798 26.425 19.9429 27.1601 20.1486C27.8952 20.3542 28.6579 19.9245 28.8638 19.1888L29.3479 17.4584Z" fill="#FCBEB4"/>
<path d="M29.3498 17.0711C29.5557 16.3353 29.1266 15.5722 28.3915 15.3665C27.6565 15.1609 26.8937 15.5906 26.6878 16.3263L26.2037 18.0567C25.9979 18.7925 26.4269 19.5556 27.162 19.7613C27.8971 19.9669 28.6599 19.5372 28.8657 18.8015L29.3498 17.0711Z" fill="#FFD8D4"/>
<path d="M31.5573 18.3683C31.7499 17.6955 31.3612 16.994 30.689 16.8015C30.0168 16.609 29.3157 16.9984 29.1231 17.6713L28.8767 18.5315C28.684 19.2043 29.0728 19.9058 29.7449 20.0983C30.4171 20.2908 31.1182 19.9014 31.3109 19.2286L31.5573 18.3683Z" fill="#FCBEB4"/>
<path d="M31.5573 18.2213C31.7499 17.5484 31.3612 16.8469 30.689 16.6544C30.0168 16.462 29.3157 16.8513 29.1231 17.5242L28.8767 18.3844C28.684 19.0572 29.0728 19.7587 29.7449 19.9512C30.4171 20.1437 31.1182 19.7543 31.3109 19.0815L31.5573 18.2213Z" fill="#FFD8D4"/>
<path d="M38.8731 15.3521L35.4873 15.3521C34.2853 15.3521 33.3108 16.3265 33.3108 17.5286L33.3108 27.0063C33.3108 28.2083 34.2853 29.1828 35.4873 29.1828L38.8731 29.1828C40.0752 29.1828 41.0496 28.2083 41.0496 27.0063L41.0496 17.5286C41.0496 16.3265 40.0752 15.3521 38.8731 15.3521Z" fill="#598BC9"/>
<mask id="mask3_3199_9778" style="mask-type:luminance" maskUnits="userSpaceOnUse" x="33" y="15" width="9" height="15">
<path d="M38.8726 15.3513L35.4869 15.3513C34.2848 15.3513 33.3103 16.3258 33.3103 17.5279L33.3103 27.0055C33.3103 28.2076 34.2848 29.1821 35.4869 29.1821L38.8726 29.1821C40.0747 29.1821 41.0491 28.2076 41.0491 27.0055L41.0491 17.5279C41.0491 16.3258 40.0747 15.3513 38.8726 15.3513Z" fill="white"/>
</mask>
<g mask="url(#mask3_3199_9778)">
<path d="M38.8726 14.3174L35.4869 14.3174C34.2848 14.3174 33.3103 15.2919 33.3103 16.4939L33.3103 25.9716C33.3103 27.1737 34.2848 28.1481 35.4869 28.1481L38.8726 28.1481C40.0747 28.1481 41.0491 27.1737 41.0491 25.9716L41.0491 16.4939C41.0491 15.2919 40.0747 14.3174 38.8726 14.3174Z" fill="#62A9FF"/>
</g>
<path d="M19.3225 26.7511C19.3225 26.7511 16.4229 24.5455 17.3225 22.7317C18.2222 20.9179 19.9441 20.5455 21.3105 21.2444C22.6768 21.9433 22.5148 23.5274 20.7397 24.0836" fill="#FCBEB4"/>
<path d="M24.9346 35.6698C27.5805 35.6698 29.7255 34.9714 29.7255 34.1099C29.7255 33.2484 27.5805 32.55 24.9346 32.55C22.2887 32.55 20.1438 33.2484 20.1438 34.1099C20.1438 34.9714 22.2887 35.6698 24.9346 35.6698Z" fill="#FCBEB4"/>
</svg>
