<svg width="34" height="34" viewBox="0 0 34 34" fill="none" xmlns="http://www.w3.org/2000/svg">
<circle cx="20.5129" cy="9.82606" r="1.89932" transform="rotate(15 20.5129 9.82606)" fill="#39B695"/>
<path d="M16.1246 11.4021C16.5148 11.0066 17.1406 10.9696 17.5746 11.3163L19.9321 13.1994L15.1778 18.028L13.0132 14.5561L16.1246 11.4021Z" fill="#39B695"/>
<path d="M18.0933 18.0072L13.1425 14.4197L12.3451 15.3092C11.7761 15.944 11.9265 16.94 12.6576 17.3783L16.4012 19.623L16.4012 19.9812L16.4013 23.645C16.4013 24.2444 16.8872 24.7303 17.4866 24.7303C18.086 24.7303 18.5719 24.2444 18.5719 23.645L18.5719 18.945C18.5719 18.5738 18.3939 18.225 18.0933 18.0072Z" fill="#39B695"/>
<path d="M21.8402 14.575L24.3183 14.7816C24.7577 14.8182 25.0957 15.1855 25.0957 15.6265C25.0957 16.0947 24.7161 16.4743 24.2479 16.4743L21.8402 16.4743L21.8403 16.4744L21.8397 16.4743L21.8402 16.4743L18.4395 14.5549L19.9318 13.1983L21.8402 14.575Z" fill="#39B695"/>
<path d="M10.7246 23.6824C10.7246 22.1654 12.0998 21.0195 13.5918 21.2937L21.8955 22.8201C22.6826 22.9649 23.2539 23.6515 23.2539 24.4519C23.2537 25.3677 22.5115 26.1098 21.5957 26.1101H13.1523C11.8115 26.1099 10.7248 25.0232 10.7246 23.6824Z" stroke="#39B695" stroke-width="1.30821" stroke-linecap="round"/>
<path d="M24.9947 18.3544H23.4249C22.9432 18.3544 22.5527 18.7448 22.5527 19.2265V22.967" stroke="#39B695" stroke-width="1.30821" stroke-linecap="round"/>
<path d="M10.0703 17.9465L14.6829 21.3382" stroke="#39B695" stroke-width="1.30821" stroke-linecap="round"/>
</svg>
