<svg width="50" height="50" viewBox="0 0 50 50" fill="none" xmlns="http://www.w3.org/2000/svg">
<rect width="50" height="50" rx="17.5" fill="#F6F7F9"/>
<g clip-path="url(#clip0_3199_9745)">
<path d="M33.7511 16.2499C38.125 18.7752 36.2522 28.7499 33.7511 31.8749C31.25 34.9999 25.7888 38.9664 20.0011 35.6249C18.1647 34.5647 16.8761 34.3749 16.2511 35.6249C15.8895 36.3481 15.7371 36.996 15.6729 37.4137C15.6315 37.6825 15.4087 37.9046 15.1368 37.9104L11.9724 37.978C11.7177 37.9834 11.5011 37.7969 11.4828 37.5427C11.4093 36.5234 11.3607 33.9915 12.499 32.4999C13.949 30.5999 15.2758 31.2306 17.2499 29.6375C24.5237 23.7677 20.6963 17.1279 20.8467 12.4541C20.855 12.1963 21.0721 12 21.33 12H23.9653C24.204 12 24.4096 12.1673 24.463 12.4C24.6953 13.4126 25.3732 16.0146 26.2511 16.2499C28.5836 16.8749 29.3772 13.7246 33.7511 16.2499Z" fill="#F87171"/>
<path d="M31.8361 27.5C32.1279 27.5 32.3067 27.8186 32.1485 28.0639C30.1575 31.1511 27.9565 32.7881 25.7944 33.4228C23.8295 33.9994 21.6069 33.8346 19.1937 32.7633C18.5906 32.4952 18.6205 31.5452 19.173 31.1667C20.4254 30.3084 21.4919 29.1113 22.3314 27.6889C22.4 27.5727 22.5241 27.5 22.659 27.5H31.8361Z" fill="#FFC574"/>
</g>
<defs>
<clipPath id="clip0_3199_9745">
<rect width="27.5" height="27.5" fill="white" transform="translate(11.25 11.25)"/>
</clipPath>
</defs>
</svg>
