<svg width="16" height="19" viewBox="0 0 16 19" fill="none" xmlns="http://www.w3.org/2000/svg">
<path d="M8.13049 0.136066C7.96857 0.0325858 7.77196 -0.00880604 7.58691 0.00154202C7.40187 -0.00880604 7.20526 0.0325858 7.04334 0.136066C6.31472 0.601729 4.46425 2.56786 2.98388 4.34773C0.994626 6.72778 0 9.21132 0 11.2395C0 15.5236 3.36554 18.9902 7.52909 18.9902C11.6926 18.9902 15.1738 15.5236 15.1738 11.2395C15.1738 9.21132 14.1792 6.71743 12.1899 4.34773C10.698 2.55751 8.85911 0.601729 8.13049 0.136066Z" fill="#313131"/>
<rect x="6.41162" y="7.90088" width="2.34158" height="6.50439" rx="1.17079" fill="white"/>
<path d="M4.92578 9.85253L7.63657 7.06543L10.1293 9.85253" stroke="white" stroke-width="1.95132" stroke-linecap="round" stroke-linejoin="round"/>
</svg>
