<svg width="30" height="30" viewBox="0 0 30 30" fill="none" xmlns="http://www.w3.org/2000/svg">
<path d="M11.9048 2.42639C16.0977 1.92401 19.8078 2.07788 22.5562 3.44983C25.1584 4.74905 26.9989 7.19422 27.5005 11.5377L27.5454 11.9635C27.9229 16.0788 27.6075 19.6194 26.1753 22.2135C24.7712 24.7568 22.2341 26.4925 17.897 26.8961C13.4292 27.3118 9.85407 26.9786 7.32959 25.4479C4.85607 23.948 3.25734 21.2108 2.94092 16.4645C2.69294 12.6817 2.96968 9.40628 4.26904 6.97034C5.53984 4.58812 7.84285 2.9131 11.9048 2.42639Z" fill="white" stroke="#E2E6ED" stroke-width="1.25"/>
<path d="M20.7821 15.9258L20.7856 16.0379C20.8031 16.2977 20.8812 16.5496 21.0135 16.7714L21.7948 18.0817C21.9226 18.2961 21.9932 18.5427 21.9995 18.7955C22.0059 19.0483 21.9477 19.2984 21.8309 19.5196C21.714 19.7408 21.5427 19.9255 21.3349 20.0539C21.1272 20.1823 20.8902 20.25 20.6491 20.25H10.3509C10.1098 20.25 9.87279 20.1823 9.66506 20.0539C9.45731 19.9255 9.28597 19.7408 9.16909 19.5196C9.05226 19.2984 8.99414 19.0483 9.00047 18.7955C9.00682 18.5427 9.07742 18.2961 9.20518 18.0817L9.98647 16.7714L10.0399 16.6744C10.1567 16.4441 10.2179 16.1867 10.2179 15.9248V12.7911C10.2179 11.3216 10.7746 9.91225 11.7651 8.87312C12.7557 7.83399 14.0991 7.25 15.5 7.25C16.9009 7.25 18.2443 7.83399 19.2349 8.87312C20.2254 9.91225 20.7821 11.3216 20.7821 12.7911V15.9258Z" fill="#DADEE4"/>
<path d="M17.3306 21.5C17.7003 21.5 18 21.7239 18 22C18 22.2761 17.7003 22.5 17.3306 22.5H13.6694C13.2997 22.5 13 22.2761 13 22C13 21.7239 13.2997 21.5 13.6694 21.5H17.3306Z" fill="#DADEE4"/>
</svg>
