<svg width="25" height="23" viewBox="0 0 25 23" fill="none" xmlns="http://www.w3.org/2000/svg">
<path d="M20.006 20.6875C22.1553 18.7216 23.5034 15.8941 23.5034 12.7517C23.5034 6.81371 18.6897 2 12.7517 2C6.81371 2 2 6.81371 2 12.7517C2 15.8941 3.34808 18.7216 5.49747 20.6875" stroke="#ECECEC" stroke-width="2.4375" stroke-linecap="round"/>
<path d="M12.7517 2C9.73172 2 7.00254 3.24512 5.04952 5.25C3.16245 7.18719 2 9.8337 2 12.7517C2 15.8941 3.34808 18.7216 5.49747 20.6875" stroke="#308AFF" stroke-width="3" stroke-linecap="round"/>
<path d="M14.2614 18.0304C14.6048 17.6651 14.7582 17.1562 14.678 16.6483C14.2953 14.3144 13.9017 11.9825 13.5017 9.65264C13.4627 9.4723 13.361 9.3062 13.2168 9.18712C13.0137 9.03035 12.7429 8.99387 12.5129 9.09227C12.2828 9.19067 12.1257 9.40927 12.1095 9.66243C11.9608 10.5309 11.8143 11.4059 11.6938 12.2813C11.4923 13.7467 11.2865 15.2121 11.1305 16.6848C11.0668 17.4375 11.5085 18.1544 12.2086 18.4506C12.9261 18.7601 13.7477 18.5924 14.2636 18.0326L14.2614 18.0304Z" fill="#308AFF"/>
</svg>
