<svg width="21" height="19" viewBox="0 0 21 19" fill="none" xmlns="http://www.w3.org/2000/svg">
<path d="M14.8638 0.699707C17.8979 0.699707 20.2655 3.32712 20.0913 6.39502L19.7144 13.0308C19.5538 15.8566 17.2809 18.0984 14.4888 18.0991L6.31201 18.1001C3.51941 18.0999 1.24602 15.8569 1.08545 13.0308L0.708496 6.39502C0.534279 3.32712 2.90191 0.699707 5.93604 0.699707H14.8638Z" stroke="#313131" stroke-width="1.4"/>
<path d="M12.6445 3.78076V5.94189H8.1543V3.78076H12.6445Z" stroke="#313131"/>
<path d="M3.71205 9.0429C3.71205 9.0429 3.84308 7.52589 5.08626 7.02694C6.32943 6.52799 7.49365 7.00174 7.84308 8.09708C8.19252 9.19242 8.10852 10.239 7.84308 11.6317C7.44493 13.7216 8.7385 14.1702 8.043 15.2655C7.34749 16.3608 4.80738 16.3608 4.06148 12.8262C3.64485 10.0089 3.71373 9.0429 3.71373 9.0429H3.71205Z" fill="#313131"/>
<path d="M16.9906 9.0429C16.9906 9.0429 16.8595 7.52589 15.6163 7.02694C14.3732 6.52799 13.209 7.00174 12.8595 8.09708C12.5118 9.19242 12.5941 10.239 12.8595 11.6317C13.2577 13.7216 11.9641 14.1702 12.6596 15.2655C13.3551 16.3608 15.8952 16.3608 16.6411 12.8262C17.0578 10.0089 16.9889 9.0429 16.9889 9.0429H16.9906Z" fill="#313131"/>
</svg>
