<svg width="18" height="18" viewBox="0 0 18 18" fill="none" xmlns="http://www.w3.org/2000/svg">
<g clip-path="url(#clip0_2036_851)">
<path d="M18 9C18 9.83571 17.3973 10.4705 16.867 11.025C16.5616 11.3384 16.2482 11.6679 16.1277 11.9491C16.0071 12.2304 16.0152 12.6482 16.0071 13.0741C15.9991 13.8536 15.983 14.7455 15.3643 15.3643C14.7455 15.983 13.8536 15.9991 13.0741 16.0071C12.6482 16.0152 12.2143 16.0232 11.9491 16.1277C11.6839 16.2321 11.3384 16.5616 11.025 16.867C10.4705 17.3973 9.83571 18 9 18C8.16429 18 7.52946 17.3973 6.975 16.867C6.66161 16.5616 6.33214 16.2482 6.05089 16.1277C5.76964 16.0071 5.35179 16.0152 4.92589 16.0071C4.14643 15.9991 3.25446 15.983 2.63571 15.3643C2.01696 14.7455 2.00089 13.8536 1.99286 13.0741C1.98482 12.6482 1.97679 12.2143 1.87232 11.9491C1.76786 11.6839 1.43839 11.3384 1.13304 11.025C0.602679 10.4705 0 9.83571 0 9C0 8.16429 0.602679 7.52946 1.13304 6.975C1.43839 6.66161 1.75179 6.33214 1.87232 6.05089C1.99286 5.76964 1.98482 5.35179 1.99286 4.92589C2.00089 4.14643 2.01696 3.25446 2.63571 2.63571C3.25446 2.01696 4.14643 2.00089 4.92589 1.99286C5.35179 1.98482 5.78571 1.97679 6.05089 1.87232C6.31607 1.76786 6.66161 1.43839 6.975 1.13304C7.52946 0.602679 8.16429 0 9 0C9.83571 0 10.4705 0.602679 11.025 1.13304C11.3384 1.43839 11.6679 1.75179 11.9491 1.87232C12.2304 1.99286 12.6482 1.98482 13.0741 1.99286C13.8536 2.00089 14.7455 2.01696 15.3643 2.63571C15.983 3.25446 15.9991 4.14643 16.0071 4.92589C16.0152 5.35179 16.0232 5.78571 16.1277 6.05089C16.2321 6.31607 16.5616 6.66161 16.867 6.975C17.3973 7.52946 18 8.16429 18 9Z" fill="#282828"/>
<path fill-rule="evenodd" clip-rule="evenodd" d="M12.4673 6.53999C12.7907 6.79874 12.8432 7.27071 12.5844 7.59416L8.98443 12.0942C8.84835 12.2643 8.64503 12.3668 8.42735 12.3751C8.20966 12.3834 7.99913 12.2966 7.85049 12.1374L5.45049 9.56595C5.16787 9.26314 5.18423 8.78854 5.48704 8.50592C5.78986 8.22329 6.26445 8.23966 6.54707 8.54247L8.35511 10.4796L11.4131 6.65712C11.6719 6.33367 12.1439 6.28123 12.4673 6.53999Z" fill="white"/>
</g>
<defs>
<clipPath id="clip0_2036_851">
<rect width="18" height="18" fill="white"/>
</clipPath>
</defs>
</svg>
