<svg width="24" height="24" viewBox="0 0 24 24" fill="none" xmlns="http://www.w3.org/2000/svg">
<g clip-path="url(#clip0_1896_57391)">
<g clip-path="url(#clip1_1896_57391)">
<path fill-rule="evenodd" clip-rule="evenodd" d="M1.42283 14.9366C0.691436 15.3588 0.440836 16.2941 0.863115 17.0255L2.08057 19.1342C2.50287 19.8655 3.43805 20.1161 4.16944 19.6939L5.22379 19.0852C5.53724 18.9041 5.64464 18.5033 5.46368 18.1899L3.37239 14.5678C3.19144 14.2543 2.79063 14.1469 2.47717 14.3279L1.42283 14.9366Z" fill="#D0D6D9"/>
<path fill-rule="evenodd" clip-rule="evenodd" d="M18.7764 4.91738C18.4629 5.09832 18.3555 5.49913 18.5365 5.81259L20.6277 9.43477C20.8087 9.7482 21.2095 9.8556 21.523 9.67464L22.5773 9.06591C23.3087 8.64363 23.5593 7.70845 23.137 6.97704L21.9196 4.86834C21.4973 4.13695 20.5621 3.88635 19.8308 4.30865L18.7764 4.91738Z" fill="#D0D6D9"/>
<path fill-rule="evenodd" clip-rule="evenodd" d="M15.6662 8.67675C15.4853 8.36331 15.0844 8.25592 14.771 8.43688L7.52669 12.6194C7.21326 12.8003 7.10586 13.2012 7.28681 13.5147L8.33246 15.3257C8.51341 15.6392 8.91422 15.7466 9.22767 15.5656L16.472 11.3831C16.7854 11.2021 16.8928 10.8013 16.7119 10.4878L15.6662 8.67675Z" fill="#D0D6D9"/>
<path fill-rule="evenodd" clip-rule="evenodd" d="M2.18851 12.0791C1.4571 12.5014 1.20652 13.4366 1.6288 14.168L4.93753 19.8989C5.35983 20.6302 6.29501 20.8808 7.02641 20.4586L10.0406 18.7183C10.772 18.296 11.0226 17.3608 10.6003 16.6294L7.29163 10.8986C6.86935 10.1672 5.93417 9.91658 5.20276 10.3389L2.18851 12.0791Z" fill="#5A9DF5"/>
<mask id="mask0_1896_57391" style="mask-type:alpha" maskUnits="userSpaceOnUse" x="1" y="10" width="10" height="11">
<path fill-rule="evenodd" clip-rule="evenodd" d="M2.18851 12.0791C1.4571 12.5014 1.20652 13.4366 1.6288 14.168L4.93753 19.8989C5.35983 20.6302 6.29501 20.8808 7.02641 20.4586L10.0406 18.7183C10.772 18.296 11.0226 17.3608 10.6003 16.6294L7.29163 10.8986C6.86935 10.1672 5.93417 9.91658 5.20276 10.3389L2.18851 12.0791Z" fill="#0375C4"/>
</mask>
<g mask="url(#mask0_1896_57391)">
<path fill-rule="evenodd" clip-rule="evenodd" d="M1.51957 10.9248C0.78816 11.3471 0.537578 12.2823 0.959856 13.0137L4.26859 18.7446C4.69088 19.4759 5.62607 19.7265 6.35746 19.3043L9.37164 17.564C10.103 17.1417 10.3536 16.2065 9.93135 15.4752L6.62268 9.74428C6.20041 9.01287 5.26522 8.76229 4.53381 9.18456L1.51957 10.9248Z" fill="#5A9DF5"/>
</g>
<path fill-rule="evenodd" clip-rule="evenodd" d="M13.9561 5.28324C13.2247 5.70552 12.9741 6.6407 13.3964 7.37211L16.7051 13.103C17.1274 13.8343 18.0626 14.0849 18.794 13.6627L21.8082 11.9224C22.5396 11.5001 22.7902 10.5649 22.3679 9.83355L19.0592 4.10267C18.6369 3.37127 17.7017 3.12068 16.9703 3.54296L13.9561 5.28324Z" fill="#5A9DF5"/>
<mask id="mask1_1896_57391" style="mask-type:alpha" maskUnits="userSpaceOnUse" x="13" y="3" width="10" height="11">
<path fill-rule="evenodd" clip-rule="evenodd" d="M13.9561 5.28324C13.2247 5.70552 12.9741 6.6407 13.3964 7.37211L16.7051 13.103C17.1274 13.8343 18.0626 14.0849 18.794 13.6627L21.8082 11.9224C22.5396 11.5001 22.7902 10.5649 22.3679 9.83355L19.0592 4.10267C18.6369 3.37127 17.7017 3.12068 16.9703 3.54296L13.9561 5.28324Z" fill="#0375C4"/>
</mask>
<g mask="url(#mask1_1896_57391)">
<path fill-rule="evenodd" clip-rule="evenodd" d="M13.2871 4.12894C12.5557 4.55122 12.3052 5.48641 12.7274 6.21781L16.0362 11.9487C16.4585 12.68 17.3936 12.9306 18.125 12.5084L21.1392 10.7681C21.8706 10.3458 22.1212 9.41059 21.6989 8.67925L18.3903 2.94838C17.968 2.21697 17.0328 1.96639 16.3014 2.38867L13.2871 4.12894Z" fill="#5A9DF5"/>
</g>
</g>
</g>
<defs>
<clipPath id="clip0_1896_57391">
<rect width="24" height="24" fill="white"/>
</clipPath>
<clipPath id="clip1_1896_57391">
<rect width="20.9713" height="20.9713" fill="white" transform="translate(4.58496 -0.84082) rotate(15)"/>
</clipPath>
</defs>
</svg>
