<svg width="24" height="24" viewBox="0 0 24 24" fill="none" xmlns="http://www.w3.org/2000/svg">
<path d="M9.58478 7.96312C9.47356 7.88608 9.33851 7.85526 9.2114 7.86296C9.0843 7.85526 8.94924 7.88608 8.83802 7.96312C8.33754 8.3098 7.06647 9.77355 6.04961 11.0986C4.6832 12.8706 4 14.7195 4 16.2295C4 19.4189 6.31177 21.9998 9.17168 21.9998C12.0316 21.9998 14.4228 19.4189 14.4228 16.2295C14.4228 14.7195 13.7396 12.8629 12.3732 11.0986C11.3484 9.76585 10.0853 8.3098 9.58478 7.96312Z" fill="#F87171"/>
<path d="M19.6731 5.10505C19.0058 4.2345 18.1796 3.28691 17.8539 3.06349C17.7824 3.00956 17.695 2.99416 17.6076 3.00186C17.5203 3.00186 17.4408 3.01727 17.3614 3.06349C17.0357 3.28691 16.2095 4.2422 15.5421 5.10505C14.6524 6.25294 14.2075 7.46247 14.2075 8.44858C14.2075 10.5287 15.7169 12.2081 17.5759 12.2081C19.4348 12.2081 20.9998 10.5287 20.9998 8.44858C20.9998 7.46247 20.5549 6.26065 19.6652 5.10505H19.6731Z" fill="#FCA5A5"/>
</svg>
