<svg width="16" height="16" viewBox="0 0 16 16" fill="none" xmlns="http://www.w3.org/2000/svg">
<path d="M5.52423 2.38916C6.64263 2.38916 7.54962 3.59816 7.54962 5.08936C7.54945 6.37659 6.87288 7.45096 5.96857 7.72119L6.28595 12.7993C6.31312 13.2384 5.96415 13.6096 5.52423 13.6099C5.0841 13.6099 4.7353 13.2385 4.76251 12.7993L5.07892 7.72119C4.17529 7.45028 3.49999 6.37594 3.49982 5.08936C3.49982 3.59827 4.40595 2.38935 5.52423 2.38916Z" fill="#82A2E7"/>
<path d="M12.0115 2.38916C12.2805 2.38917 12.4994 2.60662 12.4998 2.87549L12.4988 5.10498C12.4932 6.38491 11.819 7.45168 10.9188 7.72119L11.2361 12.7993C11.2633 13.2385 10.9145 13.6098 10.4744 13.6099C10.0343 13.6099 9.68551 13.2385 9.71271 12.7993L10.0291 7.72119C9.12884 7.45168 8.45466 6.38492 8.44904 5.10498V2.87549C8.44945 2.60671 8.66751 2.38933 8.93634 2.38916C9.20524 2.38925 9.42323 2.60667 9.42365 2.87549V5.19873C9.42365 5.35407 9.55053 5.47998 9.70587 5.47998C9.861 5.47972 9.98712 5.35391 9.98712 5.19873V2.87549C9.98753 2.60684 10.2048 2.38954 10.4734 2.38916C10.7424 2.38916 10.9613 2.60661 10.9617 2.87549V5.19873C10.9617 5.35404 11.0877 5.47993 11.243 5.47998C11.3983 5.47998 11.5242 5.35407 11.5242 5.19873V2.87549C11.5246 2.60671 11.7427 2.38933 12.0115 2.38916Z" fill="#82A2E7"/>
</svg>
