<svg width="50" height="50" viewBox="0 0 50 50" fill="none" xmlns="http://www.w3.org/2000/svg">
<rect width="50" height="50" rx="17.5" fill="#F6F7F9"/>
<path d="M25.6252 18.4003C31.838 18.4003 37.2645 22.2966 39.885 24.5614C40.5543 25.1399 40.5543 26.1108 39.885 26.6893C37.2645 28.9542 31.8379 32.8494 25.6252 32.8495C19.4124 32.8495 13.985 28.9542 11.3645 26.6893C10.6955 26.1109 10.6956 25.1399 11.3645 24.5614C13.985 22.2965 19.4124 18.4003 25.6252 18.4003Z" fill="white" stroke="#E2E2E2" stroke-width="1.25"/>
<path d="M40.7213 25.6251C40.7213 25.6251 34.6296 17.7753 25.6254 17.7753C16.6212 17.7753 10.5295 25.0213 10.5295 25.0213" stroke="#434A51" stroke-width="1.8115" stroke-linecap="round"/>
<circle cx="25.625" cy="25.625" r="5.02117" fill="#434A51" stroke="#434A51" stroke-width="1.20767"/>
<ellipse cx="27.6204" cy="22.1772" rx="1.25001" ry="0.625007" transform="rotate(15 27.6204 22.1772)" fill="#F0F0F0"/>
<path d="M42.8833 22.9837L40.7489 25.3226L35.1667 19.7156C35.1667 19.7156 37.2142 20.6863 38.4171 20.7981C39.62 20.9099 40.9865 20.5814 40.9865 20.5814L39.7482 22.5009C39.7482 22.5009 39.9649 23.1819 40.9865 23.1819C42.008 23.1819 42.8833 22.9837 42.8833 22.9837Z" fill="#434A51"/>
</svg>
