<svg width="50" height="50" viewBox="0 0 50 50" fill="none" xmlns="http://www.w3.org/2000/svg">
<rect width="50" height="50" rx="17.5" fill="#F6F7F9"/>
<path d="M33.8474 17.4043C33.8474 16.4353 33.4624 15.5059 32.7772 14.8207C32.0919 14.1354 31.1625 13.7505 30.1935 13.7505C29.2245 13.7505 28.2951 14.1354 27.6099 14.8207C26.9246 15.5059 26.5397 16.4353 26.5397 17.4043C26.5438 18.3718 26.9314 19.2982 27.6176 19.9803L19.981 27.6168C19.2989 26.9307 18.3726 26.543 17.4051 26.539C16.436 26.539 15.5066 26.9239 14.8214 27.6091C14.1362 28.2944 13.7512 29.2237 13.7512 30.1928C13.7512 31.1618 14.1362 32.0912 14.8214 32.7764C15.5066 33.4617 16.436 33.8466 17.4051 33.8466C17.4051 34.8156 17.79 35.745 18.4753 36.4303C19.1605 37.1156 20.0899 37.5005 21.0589 37.5005C22.028 37.5005 22.9573 37.1156 23.6426 36.4303C24.3278 35.745 24.7128 34.8156 24.7128 33.8466C24.7087 32.8791 24.321 31.9529 23.6349 31.2707L31.2714 23.6341C31.9536 24.3203 32.8798 24.708 33.8474 24.712C34.8164 24.712 35.7457 24.3271 36.431 23.6418C37.1163 22.9566 37.5012 22.0272 37.5012 21.0582C37.5012 20.0891 37.1163 19.1598 36.431 18.4745C35.7457 17.7893 34.8164 17.4043 33.8474 17.4043Z" fill="#B8CBD5"/>
</svg>
