<svg width="24" height="24" viewBox="0 0 24 24" fill="none" xmlns="http://www.w3.org/2000/svg">
<rect width="24" height="24" fill="white"/>
<path d="M16.8623 13.2471C19.3066 13.2473 21.2878 15.2285 21.2881 17.6729V19.9922C21.2879 20.1783 21.1373 20.329 20.9512 20.3291H12.4355V17.6729C12.4358 15.2284 14.4178 13.2471 16.8623 13.2471ZM16.8574 6.27051C18.7795 6.27051 20.3379 7.82891 20.3379 9.75098C20.3378 11.673 18.7794 13.2314 16.8574 13.2314C14.9356 13.2313 13.378 11.6729 13.3779 9.75098C13.3779 7.82901 14.9355 6.27067 16.8574 6.27051Z" fill="#B7C3FF"/>
<path d="M8.42188 10.8018C11.5794 10.8018 14.1396 13.361 14.1396 16.5186V20.3301H3.15918C2.90858 20.3301 2.70508 20.1266 2.70508 19.876V16.5186C2.70511 13.3612 5.26458 10.802 8.42188 10.8018ZM8.41699 3.17773C10.5219 3.17773 12.2283 4.88444 12.2285 6.98926C12.2285 9.09423 10.522 10.8008 8.41699 10.8008C6.31217 10.8006 4.60547 9.09412 4.60547 6.98926C4.60565 4.88455 6.31228 3.1779 8.41699 3.17773Z" fill="#8396EA"/>
</svg>
