<svg width="26" height="23" viewBox="0 0 26 23" fill="none" xmlns="http://www.w3.org/2000/svg">
<path d="M20.006 20.6875C22.1553 18.7216 23.5034 15.8941 23.5034 12.7517C23.5034 6.81371 18.6897 2 12.7517 2C6.81371 2 2 6.81371 2 12.7517C2 15.8941 3.34808 18.7216 5.49747 20.6875" stroke="#ECECEC" stroke-width="2.4375" stroke-linecap="round"/>
<path d="M20.006 20.6875C22.1553 18.7216 23.5034 15.8941 23.5034 12.7517C23.5034 9.8337 22.341 7.18719 20.4539 5.25C18.5009 3.24512 15.7717 2 12.7517 2C9.73172 2 7.00254 3.24512 5.04952 5.25C3.16245 7.18719 2 9.8337 2 12.7517C2 15.8941 3.34808 18.7216 5.49747 20.6875" stroke="#EE5D5D" stroke-width="3" stroke-linecap="round"/>
<path d="M9.95776 12.6834C9.97328 13.1845 10.2247 13.6528 10.6405 13.9553C12.5615 15.335 14.4886 16.7056 16.4189 18.0702C16.5741 18.1701 16.7634 18.2157 16.9496 18.1979C17.2041 18.1651 17.4213 17.9995 17.5144 17.7672C17.6075 17.535 17.564 17.2693 17.3965 17.0788C16.8875 16.3596 16.3724 15.6373 15.8386 14.9331C14.9448 13.7544 14.0542 12.5727 13.1232 11.4211C12.6359 10.8437 11.8167 10.6491 11.1122 10.9347C10.386 11.2232 9.92363 11.9227 9.95466 12.6834L9.95776 12.6834Z" fill="#EE5D5D"/>
</svg>
