<svg width="20" height="20" viewBox="0 0 20 20" fill="none" xmlns="http://www.w3.org/2000/svg">
<rect width="20" height="20" rx="10" fill="url(#paint0_linear_2081_77652)"/>
<path d="M7.46029 5.07292H11.1582C11.8613 5.07292 12.4668 5.20746 12.9746 5.47656C13.4824 5.74132 13.8687 6.11458 14.1335 6.59635C14.3982 7.07378 14.5306 7.625 14.5306 8.25C14.5306 8.87934 14.3939 9.4349 14.1204 9.91667C13.8513 10.3941 13.4586 10.7652 12.9421 11.0299C12.4299 11.2947 11.8179 11.4271 11.1061 11.4271H9.41341V14.5H7.46029V5.07292ZM10.7936 9.85156C11.3579 9.85156 11.7854 9.70833 12.0762 9.42187C12.367 9.13108 12.5124 8.74045 12.5124 8.25C12.5124 7.76389 12.367 7.37977 12.0762 7.09766C11.7854 6.81554 11.3579 6.67448 10.7936 6.67448H9.41341V9.85156H10.7936Z" fill="white"/>
<defs>
<linearGradient id="paint0_linear_2081_77652" x1="10" y1="0" x2="10" y2="20" gradientUnits="userSpaceOnUse">
<stop stop-color="#FF835D"/>
<stop offset="1" stop-color="#FFAE5D"/>
</linearGradient>
</defs>
</svg>
