<svg width="24" height="24" viewBox="0 0 24 24" fill="none" xmlns="http://www.w3.org/2000/svg">
<path d="M12.5436 2.64095C12.3817 2.53747 12.185 2.49608 12 2.50642C11.815 2.49608 11.6183 2.53747 11.4564 2.64095C10.7278 3.10661 8.87734 5.07274 7.39696 6.85261C5.40771 9.23267 4.41309 11.7162 4.41309 13.7444C4.41309 18.0285 7.77862 21.4951 11.9422 21.4951C16.1057 21.4951 19.5869 18.0285 19.5869 13.7444C19.5869 11.7162 18.5923 9.22232 16.603 6.85261C15.1111 5.0624 13.2722 3.10661 12.5436 2.64095Z" fill="#F87171"/>
<rect x="10.8252" y="10.4062" width="2.34158" height="6.50439" rx="1.17079" fill="white"/>
<path d="M9.33887 12.3584L12.0497 9.57129L14.5424 12.3584" stroke="white" stroke-width="1.95132" stroke-linecap="round" stroke-linejoin="round"/>
</svg>
