<svg width="30" height="30" viewBox="0 0 30 30" fill="none" xmlns="http://www.w3.org/2000/svg">
<g clip-path="url(#clip0_2235_46805)">
<path d="M11.9033 2.42627C16.0963 1.92389 19.8064 2.07775 22.5547 3.44971C25.157 4.74892 26.9974 7.19409 27.499 11.5376L27.5439 11.9634C27.9214 16.0787 27.606 19.6193 26.1738 22.2134C24.7697 24.7567 22.2327 26.4924 17.8955 26.896C13.4277 27.3117 9.85261 26.9784 7.32812 25.4478C4.8546 23.9479 3.25587 21.2106 2.93945 16.4644C2.69147 12.6816 2.96821 9.40616 4.26758 6.97021C5.53837 4.588 7.84138 2.91298 11.9033 2.42627Z" fill="white" stroke="#E2E6ED" stroke-width="1.25"/>
<g clip-path="url(#clip1_2235_46805)">
<path d="M23.7239 10.3689C23.6902 9.64667 23.4028 8.93445 22.864 8.3836C22.2872 7.79379 21.5318 7.5 20.7775 7.5C20.0232 7.5 19.2668 7.79379 18.691 8.3836L18.125 8.96116L17.559 8.3836C16.9833 7.79379 16.2279 7.5 15.4725 7.5C14.7172 7.5 13.9629 7.79379 13.386 8.3836C12.8472 8.93445 12.5599 9.64667 12.5261 10.3689C12.5261 10.3689 11.7904 13.7942 18.125 17.5C24.4597 13.7942 23.7239 10.3689 23.7239 10.3689Z" fill="url(#paint0_linear_2235_46805)"/>
</g>
</g>
<defs>
<linearGradient id="paint0_linear_2235_46805" x1="18.125" y1="7.5" x2="18.125" y2="17.5" gradientUnits="userSpaceOnUse">
<stop stop-color="#FF4BA1"/>
<stop offset="1" stop-color="#FF0003"/>
</linearGradient>
<clipPath id="clip0_2235_46805">
<rect width="30" height="30" fill="white"/>
</clipPath>
<clipPath id="clip1_2235_46805">
<rect width="11.25" height="10" fill="white" transform="translate(12.5 7.5)"/>
</clipPath>
</defs>
</svg>
