<svg width="24" height="24" viewBox="0 0 24 24" fill="none" xmlns="http://www.w3.org/2000/svg">
<g clip-path="url(#clip0_1896_68724)">
<path d="M1.85411 13.2045C1.45411 7.10446 2.70411 2.25446 9.46411 1.44446C16.2241 0.634459 21.8241 1.87446 22.5341 9.52446C23.1441 16.1745 21.5641 21.3445 14.3641 22.0145C7.16411 22.6845 2.37411 21.0045 1.85411 13.2045Z" fill="url(#paint0_linear_1896_68724)"/>
<path d="M14.5543 18.6621C15.2946 18.5387 17.1112 16.5034 17.9269 15.5012C17.993 15.4205 17.9961 15.3847 18.0156 15.2998C18.094 14.9592 18.1055 14.1013 17.9912 13.7265C17.8164 13.1529 16.9694 13.5908 16.7344 13.7897C16.4993 13.9887 16.4631 14.2057 16.4812 14.3594C16.4956 14.4824 16.5776 15.0375 16.6168 15.2998L14.7994 16.6742C14.8144 15.9659 14.8247 14.3431 14.7451 13.5185C14.6655 12.6939 13.8618 11.879 13.4699 11.5746L13.7535 9.9019C13.8384 9.94242 14.1054 9.99914 14.4944 9.9019C14.9805 9.78036 15.0268 8.33918 14.9863 8.2813C14.9458 8.22342 14.8238 8.46604 14.7274 6.9241C14.6311 5.38215 12.3181 4.72675 11.0846 5.80611C10.0977 6.66961 10.4164 8.042 10.6991 8.62026C10.6991 8.62026 9.07892 8.3017 7.82722 9.85382C7.44173 10.3318 7.08837 10.2971 6.95987 10.22C7.03054 10.4963 7.39932 11.045 8.30908 11.0296C9.21883 11.0141 10.4228 9.63541 10.9111 8.94798C11.2838 9.6226 11.3889 10.8161 11.3159 10.7984C10.6027 10.6249 9.83175 10.9331 9.54263 11.1644C9.25352 11.3957 6.16981 14.4797 6.09271 14.923C6.01562 15.3663 6.07359 15.8867 6.30488 16.0795C6.53617 16.2722 9.42712 18.3153 10.1981 18.7586C10.9691 19.2019 13.6289 18.8164 14.5543 18.6621Z" fill="#FAFAFA"/>
</g>
<defs>
<linearGradient id="paint0_linear_1896_68724" x1="18.7625" y1="7.1098" x2="5.22759" y2="19.0618" gradientUnits="userSpaceOnUse">
<stop stop-color="#00DD8F"/>
<stop offset="1" stop-color="#789DFB"/>
</linearGradient>
<clipPath id="clip0_1896_68724">
<rect width="24" height="24" fill="white"/>
</clipPath>
</defs>
</svg>
