<svg width="50" height="50" viewBox="0 0 50 50" fill="none" xmlns="http://www.w3.org/2000/svg">
<rect width="50" height="50" rx="17.5" fill="#F6F7F9"/>
<path d="M38.4694 22.9118C38.4694 29.7765 28.5674 16.875 21.4129 16.875C14.2584 16.875 12.5605 29.7765 12.5605 22.9118C12.5605 16.0471 18.3604 10.4822 25.5149 10.4822C32.6695 10.4822 38.1889 14.1889 38.4694 22.9118Z" fill="#C3B3B3"/>
<path d="M14.1201 25.9868H36.987V28.1571C36.987 33.9048 32.3277 38.5641 26.58 38.5641H24.5271C18.7795 38.5641 14.1201 33.9048 14.1201 28.1571V25.9868Z" fill="#FBCBBC"/>
<path d="M37.8044 23.6654C35.1894 23.0506 36.9709 22.5738 36.9709 22.5738C29.641 17.6161 21.0429 13.242 13.163 22.3279C13.163 22.3279 14.1415 23.7445 12.2064 23.6767C10.9851 23.6767 10.0579 24.3778 10.0013 25.7687C9.94479 27.1709 11.6975 29.5795 13.9931 28.9915C14.0157 29.0141 14.0383 29.048 14.0609 29.0706C15.4505 39.3934 35.5813 39.3934 36.9709 29.0706C37.0049 29.0367 37.0388 28.9915 37.0727 28.9575C39.4361 29.6813 41.2567 27.2048 41.1888 25.7687C41.121 24.3213 40.1259 23.5975 38.8141 23.6654H37.8044Z" fill="#FBCBBC"/>
<path d="M21.1406 29.0398C20.724 29.1863 19.7656 29.7432 19.2656 30.7982" stroke="#CD9D8E" stroke-width="0.625" stroke-linecap="round"/>
<path d="M30.7385 29.0398C31.1552 29.1863 32.1135 29.7432 32.6135 30.7982" stroke="#CD9D8E" stroke-width="0.625" stroke-linecap="round"/>
<path d="M16.1218 16.1824L25.8552 15.7117L33.0648 16.1823L38.2315 20.7739L38.3306 23.6474C38.3306 23.6474 37.6364 23.516 37.2221 23.8699C36.5876 24.4119 36.125 25.4659 36.0262 24.9718C35.8628 24.155 35.5676 22.0339 34.4299 19.9076C33.2921 17.7813 18.6613 19.9337 17.2316 18.8867C16.1301 19.2684 14.8005 23.125 14.8005 25.625C13.9947 26.6313 14.1994 23.125 12.685 23.6515L12.551 22.6544L12.685 21.3026L16.1218 16.1824Z" fill="#C3B3B3"/>
<ellipse cx="22.3376" cy="25.923" rx="0.899658" ry="1.39599" fill="#373737"/>
<ellipse cx="29.2249" cy="25.923" rx="0.899658" ry="1.39599" fill="#373737"/>
<path d="M23.2373 29.646C23.2373 29.646 23.9454 30.6506 25.8391 30.6506C27.7327 30.6506 28.4408 29.646 28.4408 29.646" stroke="#BC6458" stroke-width="1.0407" stroke-linecap="round"/>
<path d="M23.916 22.5H27.959" stroke="#CD9D8E" stroke-width="0.625" stroke-linecap="round"/>
<path d="M23.916 21.25H27.959" stroke="#CD9D8E" stroke-width="0.625" stroke-linecap="round"/>
<path d="M16.4966 11.8096C18.8078 9.67833 26.4921 9.84774 30.1139 11.3145C33.7357 12.7814 30.9672 18.1709 30.9672 18.1709C29.3524 18.2521 24.0641 21.0511 18.8071 19.4438C12.2359 17.4347 14.4124 13.7314 16.4966 11.8096Z" fill="#C3B3B3"/>
</svg>
