<svg width="34" height="34" viewBox="0 0 34 34" fill="none" xmlns="http://www.w3.org/2000/svg">
<circle cx="21.911" cy="9.02493" r="1.75863" fill="#39B695"/>
<path d="M21.8781 19.938L16.4188 14.8989L15.6654 16.3857C15.4089 16.8917 15.5235 17.5068 15.9448 17.8866L20.3138 21.8244L20.3996 22.1448L21.2737 25.4068C21.4195 25.951 21.9789 26.274 22.5231 26.1281C23.0557 25.9854 23.3786 25.4454 23.2521 24.9087L22.2179 20.5202C22.1652 20.2966 22.0469 20.0938 21.8781 19.938Z" fill="#39B695"/>
<path d="M14.8869 21.4066L19.1761 15.2975L17.5929 14.8378C17.0399 14.6773 16.4486 14.9132 16.1581 15.4104L13.5984 19.7904L9.83383 19.7904C9.3969 19.7904 9.01951 20.0959 8.92864 20.5233C8.80901 21.086 9.22625 21.6203 9.80112 21.6406L14.1101 21.793C14.4178 21.8039 14.71 21.6585 14.8869 21.4066Z" fill="#39B695"/>
<path d="M19.3767 16.1571L23.3177 15.4311C23.7661 15.3485 24.0488 14.901 23.9307 14.4606C23.832 14.0919 23.4812 13.8486 23.1012 13.8852L20.3819 14.1471L19.3767 16.1571Z" fill="#39B695"/>
<path d="M15.9154 14.5921L15.527 13.1425L18.0307 12.3888L16.3369 15.0522L19.105 17.6386L21.0768 13.8777C21.4602 13.1464 21.3695 12.2567 20.8465 11.6178L20.0271 10.6167C19.7835 10.319 19.3878 10.1922 19.0165 10.2928L14.506 11.5148C14.0034 11.651 13.7058 12.1681 13.8405 12.671L14.4593 14.9821C14.567 15.3842 14.9803 15.6229 15.3824 15.5151C15.7845 15.4074 16.0231 14.9942 15.9154 14.5921Z" fill="#39B695"/>
</svg>
