<svg width="34" height="34" viewBox="0 0 34 34" fill="none" xmlns="http://www.w3.org/2000/svg">
<circle cx="20.4056" cy="10.8183" r="1.75863" transform="rotate(15 20.4056 10.8183)" fill="#39B695"/>
<path d="M16.3472 12.2764C16.7084 11.9102 17.2879 11.8759 17.6898 12.197L19.8726 13.9406L15.4705 18.4115L13.4662 15.1968L16.3472 12.2764Z" fill="#39B695"/>
<path d="M18.1217 18.1306L13.5855 15.0709L12.8472 15.8945C12.3203 16.4822 12.4596 17.4045 13.1365 17.8103L16.6029 19.8887L16.6029 20.2204L16.6029 23.6128C16.6029 24.1678 17.0528 24.6177 17.6078 24.6177C18.1628 24.6177 18.6127 24.1678 18.6127 23.6128L18.6127 19.054C18.6127 18.6838 18.4287 18.3377 18.1217 18.1306Z" fill="#39B695"/>
<circle cx="10.8259" cy="21.7282" r="2.76356" stroke="#39B695" stroke-width="1.5074"/>
<circle cx="23.6364" cy="21.7282" r="2.76356" stroke="#39B695" stroke-width="1.5074"/>
<path d="M21.6371 15.2149L23.9316 15.4061C24.3385 15.44 24.6515 15.7801 24.6515 16.1884C24.6515 16.622 24.3 16.9735 23.8664 16.9735L21.6371 16.9735L21.6372 16.9735L21.6367 16.9735L21.6371 16.9735L18.4883 15.1962L19.8701 13.9401L21.6371 15.2149Z" fill="#39B695"/>
</svg>
