<svg width="50" height="50" viewBox="0 0 50 50" fill="none" xmlns="http://www.w3.org/2000/svg">
<rect width="50" height="50" rx="17.5" fill="#F6F7F9"/>
<path d="M37.7332 25.9138C37.7332 32.7785 30.8211 31.8769 23.3823 31.8769C15.9435 31.8769 10.7949 32.7785 10.7949 25.9138C10.7949 19.0491 16.8253 13.4842 24.264 13.4842C31.7028 13.4842 37.7332 19.0491 37.7332 25.9138Z" fill="#A17D7D"/>
<path d="M12.8701 28.9885H35.737V31.1588C35.737 36.9064 31.0777 41.5658 25.33 41.5658H23.2771C17.5295 41.5658 12.8701 36.9064 12.8701 31.1588V28.9885Z" fill="#FBCBBC"/>
<path d="M37.5755 26.6784C37.3098 25.2194 37.5032 24.1982 37.5032 24.1982C30.1733 19.2405 18.2017 20.2626 10.8701 25.2124C10.8701 25.2124 10.7755 25.2197 10.9564 26.6784C9.73513 26.6784 8.80787 27.3795 8.75133 28.7704C8.69479 30.1726 10.4475 32.5812 12.7431 31.9932C12.7657 32.0158 12.7883 32.0497 12.8109 32.0724C14.2005 42.3951 34.3313 42.3951 35.7209 32.0724C35.7549 32.0384 35.7888 31.9932 35.8227 31.9593C38.1861 32.683 40.0067 30.2065 39.9388 28.7704C39.871 27.323 38.8759 26.5993 37.5641 26.6671L37.5755 26.6784Z" fill="#FBCBBC"/>
<line x1="0.625" y1="-0.625" x2="3.55602" y2="-0.625" transform="matrix(-0.970485 0.241161 0.241161 0.970485 31.1357 29.774)" stroke="black" stroke-width="1.25" stroke-linecap="round"/>
<path d="M21.7017 34.5148L24.3034 33.5102L26.9052 34.5148" stroke="#BC6458" stroke-width="1.0407" stroke-linecap="round"/>
<path d="M19.6097 22.5706C14.8767 27.9873 12.8835 26.9533 10.9259 26.6529L10.7866 25.6558L10.9259 24.304L14.4992 19.1838L24.6194 18.7131L32.1155 19.1837L37.4875 23.7753L37.6195 25.5874V26.6583C29.9964 26.7128 21.6607 25.9889 19.6097 22.5706Z" fill="#A17D7D"/>
<path d="M35.6403 28.3181C35.3633 27.3494 34.3183 26.618 33.9604 26.3568C34.8225 25.7271 36.5763 24.7163 36.6956 25.7106C36.7898 26.4955 36.477 27.6523 36.0558 28.4226C35.9595 28.5986 35.6955 28.5109 35.6403 28.3181Z" fill="#A17D7D"/>
<path d="M13.3509 28.3181C13.6279 27.3494 14.673 26.618 15.0308 26.3568C14.1688 25.7271 12.4149 24.7163 12.2956 25.7106C12.2014 26.4955 12.5142 27.6523 12.9355 28.4226C13.0317 28.5986 13.2957 28.5109 13.3509 28.3181Z" fill="#A17D7D"/>
<path d="M17.9915 29.2426L20.836 29.9494" stroke="black" stroke-width="1.25" stroke-linecap="round"/>
<path d="M37.2802 15.5534L43.1341 14.1089C43.5608 14.0036 43.8255 14.5585 43.4753 14.824L41.3397 16.4425L43.055 18.3393C43.1645 18.4603 43.105 18.6544 42.9465 18.6934L36.2018 20.3524C35.7547 20.4624 35.5006 19.859 35.8918 19.616L38.859 17.7732L37.1719 15.9076C37.0624 15.7866 37.1218 15.5925 37.2802 15.5534Z" fill="#C95243"/>
<path d="M33.3293 12.2815L36.6116 8.54706C36.8508 8.27488 37.2914 8.52579 37.1793 8.8704L36.4959 10.9717L38.5502 11.4479C38.6813 11.4782 38.7324 11.6376 38.6435 11.7387L34.8592 16.0378C34.6083 16.3228 34.1522 16.034 34.3026 15.6853L35.4434 13.0406L33.4227 12.5722C33.2917 12.5419 33.2405 12.3826 33.3293 12.2815Z" fill="#C95243"/>
</svg>
