<svg width="30" height="30" viewBox="0 0 30 30" fill="none" xmlns="http://www.w3.org/2000/svg">
<path d="M11.9053 2.42676C16.0982 1.92438 19.8083 2.07824 22.5566 3.4502C25.1589 4.74941 26.9994 7.19458 27.501 11.5381L27.5459 11.9639C27.9234 16.0792 27.608 19.6198 26.1758 22.2139C24.7716 24.7572 22.2346 26.4929 17.8975 26.8965C13.4297 27.3122 9.85456 26.9789 7.33008 25.4482C4.85656 23.9484 3.25783 21.2111 2.94141 16.4648C2.69343 12.6821 2.97016 9.40665 4.26953 6.9707C5.54032 4.58849 7.84334 2.91347 11.9053 2.42676Z" fill="white" stroke="#E2E6ED" stroke-width="1.25"/>
<rect y="1.614" width="8.17911" height="12.9344" rx="4.08956" transform="matrix(-0.707107 0.707107 0.707107 0.707107 11.1576 6.97273)" stroke="#003144" stroke-width="2.28254"/>
<rect x="19.0566" y="8.114" width="8.17911" height="12.9344" rx="4.08956" transform="rotate(45 19.0566 8.114)" fill="white" stroke="#4285F4" stroke-width="2.28254"/>
<circle cx="19.0879" cy="13.8668" r="1.42659" transform="rotate(45 19.0879 13.8668)" fill="#4285F4" stroke="#4285F4" stroke-width="0.951059"/>
</svg>
