<svg width="22" height="22" viewBox="0 0 22 22" fill="none" xmlns="http://www.w3.org/2000/svg">
<g clip-path="url(#clip0_2135_62921)">
<path d="M8.73047 1.77979C11.8053 1.41136 14.5256 1.52379 16.541 2.52979C18.3879 3.45174 19.712 5.16069 20.1289 8.15674L20.2002 8.77393C20.4769 11.7915 20.2454 14.3874 19.1953 16.2896C18.1656 18.1546 16.3056 19.4282 13.125 19.7241C9.84859 20.029 7.2263 19.7851 5.375 18.6626C3.56108 17.5627 2.38927 15.5543 2.15723 12.0737C1.97541 9.29985 2.17806 6.89811 3.13086 5.11182C4.06276 3.36477 5.75162 2.13672 8.73047 1.77979Z" fill="white" stroke="#E2E6ED" stroke-width="0.916667"/>
<g clip-path="url(#clip1_2135_62921)">
<path d="M17.3969 7.60387C17.3721 7.07423 17.1614 6.55193 16.7663 6.14797C16.3433 5.71545 15.7893 5.5 15.2362 5.5C14.6831 5.5 14.1283 5.71545 13.7061 6.14797L13.291 6.57152L12.876 6.14797C12.4537 5.71545 11.8998 5.5 11.3459 5.5C10.7919 5.5 10.2388 5.71545 9.81575 6.14797C9.42065 6.55193 9.20993 7.07423 9.18519 7.60387C9.18519 7.60387 8.64562 10.1158 13.291 12.8333C17.9364 10.1158 17.3969 7.60387 17.3969 7.60387Z" fill="#CACACA"/>
</g>
</g>
<defs>
<clipPath id="clip0_2135_62921">
<rect width="22" height="22" fill="white"/>
</clipPath>
<clipPath id="clip1_2135_62921">
<rect width="8.25" height="7.33333" fill="white" transform="translate(9.16602 5.5)"/>
</clipPath>
</defs>
</svg>
