<svg width="30" height="26" viewBox="0 0 30 26" fill="none" xmlns="http://www.w3.org/2000/svg">
<path d="M23.8713 2.85596C25.1822 2.85596 26.3945 3.55198 27.0554 4.68405L28.5724 7.28226C29.4143 8.72433 29.182 10.5522 28.0061 11.7378L17.9525 21.8743C16.3878 23.4519 13.8405 23.462 12.2633 21.8969L2.01627 11.7283C0.827964 10.5491 0.58323 8.7173 1.4203 7.26749L2.90296 4.6995C3.56161 3.55871 4.77883 2.85596 6.09611 2.85596H23.8713Z" fill="url(#paint0_linear_3222_52822)"/>
<path d="M16.8965 10.1929C16.7793 9.79053 16.5625 9.47607 16.2461 9.24951C15.9336 9.01904 15.5488 8.90381 15.0918 8.90381C14.6543 8.90381 14.2695 9.01318 13.9375 9.23193C13.6055 9.45068 13.3477 9.771 13.1641 10.1929C12.9805 10.6108 12.8887 11.1108 12.8887 11.6929C12.8887 12.2827 12.9785 12.7886 13.1582 13.2104C13.3418 13.6323 13.5996 13.9546 13.9316 14.1772C14.2637 14.396 14.6543 14.5054 15.1035 14.5054C15.502 14.5054 15.8457 14.4351 16.1348 14.2944C16.4277 14.1499 16.6523 13.9448 16.8086 13.6792C16.9688 13.4136 17.0527 13.103 17.0605 12.7476H15.2207V11.4233H18.7598V12.478C18.7598 13.2085 18.6035 13.8452 18.291 14.3882C17.9824 14.9272 17.5508 15.3413 16.9961 15.6304C16.4414 15.9194 15.8066 16.064 15.0918 16.064C14.3027 16.064 13.6055 15.8882 13 15.5366C12.3984 15.1812 11.9297 14.6772 11.5938 14.0249C11.2617 13.3687 11.0957 12.5991 11.0957 11.7163C11.0957 10.8218 11.2676 10.0444 11.6113 9.38428C11.9551 8.72412 12.4277 8.22021 13.0293 7.87256C13.6309 7.521 14.3066 7.34521 15.0566 7.34521C15.6855 7.34521 16.2598 7.46631 16.7793 7.7085C17.3027 7.94678 17.7305 8.28271 18.0625 8.71631C18.3945 9.146 18.5996 9.63818 18.6777 10.1929H16.8965Z" fill="#EAEAEA"/>
<defs>
<linearGradient id="paint0_linear_3222_52822" x1="15" y1="2.85596" x2="15" y2="23.9733" gradientUnits="userSpaceOnUse">
<stop stop-color="#D3D4D6"/>
<stop offset="1" stop-color="#B7B8BA"/>
</linearGradient>
</defs>
</svg>
