<svg width="24" height="24" viewBox="0 0 24 24" fill="none" xmlns="http://www.w3.org/2000/svg">
<rect x="3.5" y="2.5" width="17" height="20" rx="1.5" fill="#D4E3F5"/>
<path d="M15.1844 2.46247H13.7305C13.5745 1.63185 12.8511 1 11.9787 1C11.1064 1 10.3759 1.63185 10.227 2.46247H8.77305C8.34752 2.46247 8 2.81034 8 3.23631V4.69878C8 5.12475 8.34752 5.47262 8.77305 5.47262H15.1915C15.617 5.47262 15.9645 5.12475 15.9645 4.69878V3.23631C15.9645 2.81034 15.617 2.46247 15.1915 2.46247H15.1844Z" fill="#5E9EE8"/>
<path d="M12.8467 9.15723C13.1801 9.15723 13.451 9.4274 13.4512 9.76074V11.6719H15.3613C15.6947 11.672 15.9648 11.943 15.9648 12.2764V13.9668C15.9648 14.3002 15.6947 14.5711 15.3613 14.5713H13.4512V16.4814C13.451 16.8148 13.1801 17.085 12.8467 17.085H11.1562C10.8229 17.085 10.5519 16.8148 10.5518 16.4814V14.5713H8.64062C8.30728 14.5711 8.03711 14.3002 8.03711 13.9668V12.2764C8.03711 11.943 8.30728 11.672 8.64062 11.6719H10.5518V9.76074C10.5519 9.4274 10.8229 9.15723 11.1562 9.15723H12.8467Z" fill="#EE8585"/>
</svg>
