<svg width="22" height="22" viewBox="0 0 22 22" fill="none" xmlns="http://www.w3.org/2000/svg">
<g clip-path="url(#clip0_1350_32228)">
<path d="M1.69814 12.1051C1.33147 6.5134 2.4773 2.06756 8.67397 1.32506C14.8706 0.582564 20.004 1.71923 20.6548 8.73173C21.214 14.8276 19.7656 19.5667 13.1656 20.1809C6.56564 20.7951 2.1748 19.2551 1.69814 12.1051Z" fill="#CACACA"/>
<path d="M13.3407 17.1069C14.0193 16.9938 15.6844 15.1281 16.4322 14.2094C16.4928 14.1354 16.4956 14.1026 16.5135 14.0248C16.5853 13.7126 16.5959 12.9262 16.4911 12.5826C16.3308 12.0569 15.5545 12.4583 15.339 12.6406C15.1235 12.823 15.0904 13.0219 15.1069 13.1628C15.1202 13.2755 15.1953 13.7844 15.2313 14.0248L13.5653 15.2846C13.5791 14.6354 13.5885 13.1479 13.5155 12.3919C13.4426 11.636 12.7058 10.8891 12.3466 10.6101L12.6066 9.07675C12.6844 9.11388 12.9291 9.16588 13.2857 9.07675C13.7313 8.96533 13.7738 7.64424 13.7366 7.59119C13.6995 7.53813 13.5877 7.76054 13.4993 6.34709C13.411 4.93363 11.2908 4.33285 10.1601 5.32227C9.25545 6.11381 9.54756 7.37183 9.80669 7.9019C9.80669 7.9019 8.32153 7.60989 7.17413 9.03267C6.82077 9.47084 6.49685 9.43903 6.37907 9.36836C6.44385 9.6216 6.7819 10.1246 7.61584 10.1104C8.44978 10.0963 9.55345 8.83246 10.001 8.20231C10.3426 8.82071 10.439 9.91478 10.3721 9.8985C9.71835 9.73949 9.01162 10.022 8.7466 10.234C8.48158 10.446 5.65485 13.273 5.58417 13.6794C5.5135 14.0858 5.56664 14.5628 5.77866 14.7395C5.99068 14.9162 8.64071 16.789 9.34744 17.1954C10.0542 17.6017 12.4924 17.2484 13.3407 17.1069Z" fill="white"/>
</g>
<defs>
<clipPath id="clip0_1350_32228">
<rect width="22" height="22" fill="white"/>
</clipPath>
</defs>
</svg>
