<svg width="24" height="24" viewBox="0 0 24 24" fill="none" xmlns="http://www.w3.org/2000/svg">
<g clip-path="url(#clip0_2775_54439)">
<g clip-path="url(#clip1_2775_54439)">
<path fill-rule="evenodd" clip-rule="evenodd" d="M1.42283 14.9366C0.691436 15.3588 0.440836 16.2941 0.863115 17.0255L2.08057 19.1342C2.50287 19.8655 3.43805 20.1161 4.16944 19.6939L5.22379 19.0852C5.53724 18.9041 5.64464 18.5033 5.46368 18.1899L3.37239 14.5678C3.19144 14.2543 2.79063 14.1469 2.47717 14.3279L1.42283 14.9366Z" fill="#D1D6D8"/>
<path fill-rule="evenodd" clip-rule="evenodd" d="M18.7764 4.91738C18.4629 5.09832 18.3555 5.49913 18.5365 5.81259L20.6277 9.43477C20.8087 9.7482 21.2095 9.8556 21.523 9.67464L22.5773 9.06591C23.3087 8.64363 23.5593 7.70845 23.137 6.97704L21.9196 4.86834C21.4973 4.13695 20.5621 3.88635 19.8308 4.30865L18.7764 4.91738Z" fill="#D1D6D8"/>
<path fill-rule="evenodd" clip-rule="evenodd" d="M15.6662 8.67675C15.4853 8.36331 15.0844 8.25592 14.771 8.43688L7.52669 12.6194C7.21326 12.8003 7.10586 13.2012 7.28681 13.5147L8.33246 15.3257C8.51341 15.6392 8.91422 15.7466 9.22767 15.5656L16.472 11.3831C16.7854 11.2021 16.8928 10.8013 16.7119 10.4878L15.6662 8.67675Z" fill="#D1D6D8"/>
<path fill-rule="evenodd" clip-rule="evenodd" d="M2.18851 12.0796C1.4571 12.5019 1.20652 13.4371 1.6288 14.1685L4.93753 19.8994C5.35983 20.6307 6.29501 20.8813 7.02641 20.4591L10.0406 18.7188C10.772 18.2965 11.0226 17.3613 10.6003 16.6299L7.29163 10.8991C6.86935 10.1677 5.93417 9.91707 5.20276 10.3393L2.18851 12.0796Z" fill="#5CA2F3"/>
<mask id="mask0_2775_54439" style="mask-type:alpha" maskUnits="userSpaceOnUse" x="1" y="10" width="10" height="11">
<path fill-rule="evenodd" clip-rule="evenodd" d="M2.18851 12.0796C1.4571 12.5019 1.20652 13.4371 1.6288 14.1685L4.93753 19.8994C5.35983 20.6307 6.29501 20.8813 7.02641 20.4591L10.0406 18.7188C10.772 18.2965 11.0226 17.3613 10.6003 16.6299L7.29163 10.8991C6.86935 10.1677 5.93417 9.91707 5.20276 10.3393L2.18851 12.0796Z" fill="#057BC2"/>
</mask>
<g mask="url(#mask0_2775_54439)">
<path fill-rule="evenodd" clip-rule="evenodd" d="M1.51957 10.9258C0.78816 11.3481 0.537578 12.2833 0.959856 13.0147L4.26859 18.7456C4.69088 19.4769 5.62607 19.7275 6.35746 19.3053L9.37164 17.565C10.103 17.1427 10.3536 16.2075 9.93135 15.4761L6.62268 9.74525C6.20041 9.01384 5.26522 8.76326 4.53381 9.18554L1.51957 10.9258Z" fill="#5CA2F3"/>
</g>
<path fill-rule="evenodd" clip-rule="evenodd" d="M13.9561 5.28324C13.2247 5.70552 12.9741 6.6407 13.3964 7.37211L16.7051 13.103C17.1274 13.8343 18.0626 14.0849 18.794 13.6627L21.8082 11.9224C22.5396 11.5001 22.7902 10.5649 22.3679 9.83355L19.0592 4.10267C18.6369 3.37127 17.7017 3.12068 16.9703 3.54296L13.9561 5.28324Z" fill="#5CA2F3"/>
<mask id="mask1_2775_54439" style="mask-type:alpha" maskUnits="userSpaceOnUse" x="13" y="3" width="10" height="11">
<path fill-rule="evenodd" clip-rule="evenodd" d="M13.9561 5.28324C13.2247 5.70552 12.9741 6.6407 13.3964 7.37211L16.7051 13.103C17.1274 13.8343 18.0626 14.0849 18.794 13.6627L21.8082 11.9224C22.5396 11.5001 22.7902 10.5649 22.3679 9.83355L19.0592 4.10267C18.6369 3.37127 17.7017 3.12068 16.9703 3.54296L13.9561 5.28324Z" fill="#057BC2"/>
</mask>
<g mask="url(#mask1_2775_54439)">
<path fill-rule="evenodd" clip-rule="evenodd" d="M13.2871 4.12943C12.5557 4.55171 12.3052 5.48689 12.7274 6.2183L16.0362 11.9492C16.4585 12.6805 17.3936 12.9311 18.125 12.5089L21.1392 10.7686C21.8706 10.3463 22.1212 9.41108 21.6989 8.67974L18.3903 2.94887C17.968 2.21746 17.0328 1.96688 16.3014 2.38915L13.2871 4.12943Z" fill="#5CA2F3"/>
</g>
</g>
</g>
<defs>
<clipPath id="clip0_2775_54439">
<rect width="24" height="24" fill="white"/>
</clipPath>
<clipPath id="clip1_2775_54439">
<rect width="20.9713" height="20.9713" fill="white" transform="translate(4.58496 -0.84082) rotate(15)"/>
</clipPath>
</defs>
</svg>
