<svg width="24" height="24" viewBox="0 0 24 24" fill="none" xmlns="http://www.w3.org/2000/svg">
<path d="M9.52344 1.94092C12.8779 1.53898 15.8462 1.66266 18.0449 2.76025C20.1267 3.79963 21.5997 5.75534 22.001 9.22998L22.0361 9.5708C22.3381 12.8631 22.0862 15.6957 20.9404 17.771C19.8171 19.8056 17.7871 21.1942 14.3174 21.5171C10.7432 21.8496 7.88283 21.5834 5.86328 20.3589C3.88459 19.1591 2.60676 16.969 2.35352 13.1724C2.15506 10.146 2.37556 7.52554 3.41504 5.57666C4.43164 3.67081 6.27385 2.33031 9.52344 1.94092Z" fill="white" stroke="#E2E6ED"/>
<rect y="1.2912" width="6.54329" height="10.3475" rx="3.27164" transform="matrix(-0.707107 0.707107 0.707107 0.707107 8.72663 5.37818)" stroke="#003144" stroke-width="1.82603"/>
<rect x="15.0459" y="6.2912" width="6.54329" height="10.3475" rx="3.27164" transform="rotate(45 15.0459 6.2912)" fill="white" stroke="#4285F4" stroke-width="1.82603"/>
<circle cx="15.0713" cy="10.8932" r="1.14127" transform="rotate(45 15.0713 10.8932)" fill="#4285F4" stroke="#4285F4" stroke-width="0.760848"/>
</svg>
