<svg width="12" height="12" viewBox="0 0 12 12" fill="none" xmlns="http://www.w3.org/2000/svg">
<path d="M3.7998 1.01172C4.79404 1.01172 5.60053 2.08648 5.60059 3.41211C5.60059 4.48169 5.07549 5.38705 4.35059 5.69727L4.71777 10.1016C4.76247 10.6379 4.33893 11.0984 3.80078 11.0986C3.26247 11.0986 2.83908 10.638 2.88379 10.1016L3.25 5.69824C2.52491 5.38818 2 4.48187 2 3.41211C2.00005 2.08669 2.80579 1.01206 3.7998 1.01172Z" fill="#A2A9B4"/>
<path d="M9.56543 1.01172C9.80468 1.01172 9.99887 1.20609 9.99902 1.44531V3.42676C9.99429 4.48978 9.47036 5.3873 8.74902 5.69629L9.11621 10.1016C9.16091 10.6379 8.73736 11.0984 8.19922 11.0986C7.6609 11.0986 7.23752 10.638 7.28223 10.1016L7.64844 5.69727C6.92683 5.38845 6.40317 4.49 6.39844 3.42676V1.44531C6.39859 1.20619 6.5929 1.01187 6.83203 1.01172C7.07108 1.01196 7.26547 1.20624 7.26562 1.44531V3.51074C7.26587 3.64864 7.37767 3.76074 7.51562 3.76074C7.65349 3.76064 7.76538 3.64858 7.76562 3.51074V1.44531C7.76578 1.2063 7.95928 1.01206 8.19824 1.01172C8.4375 1.01172 8.63266 1.20609 8.63281 1.44531V3.51074C8.63305 3.64864 8.74486 3.76074 8.88281 3.76074C9.0206 3.76055 9.13257 3.64852 9.13281 3.51074V1.44531C9.13296 1.20625 9.32638 1.01196 9.56543 1.01172Z" fill="#A2A9B4"/>
</svg>
