<svg width="50" height="50" viewBox="0 0 50 50" fill="none" xmlns="http://www.w3.org/2000/svg">
<rect width="50" height="50" rx="17.5" fill="#F6F7F9"/>
<path d="M17.904 38.5112L15.9858 34.6749L23.6584 30.8386L25.5766 35.1545L17.904 38.5112Z" fill="#FBCBBC"/>
<path d="M8.41213 29.4399C9.76169 28.4345 10.5163 25.8718 10.7975 24.8944C14.8741 26.1511 22.943 29.167 22.6056 31.1777C22.2682 33.1883 19.3723 34.2495 17.9665 34.5287C16.1389 35.2269 12.4952 36.025 11.8204 35.6899C11.1456 35.3548 10.5161 33.2721 10.3757 32.0154C9.11053 31.4569 7.06257 30.4452 8.41213 29.4399Z" fill="#FBCBBC"/>
<circle cx="18.07" cy="26.0307" r="7.95455" fill="#FBCBBC"/>
<path d="M22.7205 15.9157C18.7647 15.0612 13.771 16.9401 13.771 18.7577C9.13847 21.9408 14.9461 27.5455 19.3329 30.0083C25.1236 35.692 33.9133 39.1011 40.2304 33.4174C44.5925 29.4926 43.5435 21.2799 41.5949 17.7656C41.2125 17.076 40.3919 17.2958 40.0045 17.9827C39.3693 19.1086 38.0808 20.3492 35.1167 20.3492C30.0815 20.3492 30.6167 17.6213 22.7205 15.9157Z" fill="#3B3F53"/>
<ellipse cx="17.0613" cy="22.1348" rx="6.98726" ry="3.88821" transform="rotate(23.2581 17.0613 22.1348)" fill="#3B3F53"/>
<circle cx="18.0698" cy="28.3035" r="2.27273" fill="#FBCBBC"/>
<path d="M25.5756 35.1546C25.8571 35.8975 24.4587 37.5435 22.3184 38.3546C20.1781 39.1657 18.2148 39.2209 17.9333 38.4779C17.6517 37.7349 18.161 35.0064 20.3013 34.1953C22.4416 33.3843 25.294 34.4116 25.5756 35.1546Z" fill="#FBCBBC"/>
<path d="M33.1836 12.3944C33.6315 12.3945 34.0114 13.1367 34.1611 14.1805C35.2059 14.3302 35.9492 14.7118 35.9492 15.16C35.9488 15.608 35.2055 15.988 34.1611 16.1376C34.0114 17.1817 33.6316 17.9246 33.1836 17.9247C32.7355 17.9247 32.3538 17.1819 32.2041 16.1376C31.161 15.9878 30.4194 15.6077 30.4189 15.16C30.4189 14.7122 31.1606 14.3304 32.2041 14.1805C32.3538 13.1365 32.7356 12.3944 33.1836 12.3944Z" fill="#F0BF36"/>
<path d="M25.6255 7.849C26.0735 7.849 26.4543 8.5919 26.604 9.63611C27.6484 9.78579 28.3911 10.1665 28.3911 10.6146C28.3911 11.0627 27.6484 11.4435 26.604 11.5931C26.4542 12.6371 26.0735 13.3793 25.6255 13.3793C25.1776 13.379 24.7967 12.6369 24.647 11.5931C23.6031 11.4434 22.8608 11.0626 22.8608 10.6146C22.8609 10.1667 23.6032 9.78589 24.647 9.63611C24.7966 8.59205 25.1775 7.84927 25.6255 7.849Z" fill="#F0BF36"/>
<path d="M26.8353 20.893C27.2599 20.4311 27.9787 20.4005 28.4408 20.8246C29.2175 21.5385 31.4387 23.0165 33.8344 23.1166C34.4613 23.1428 34.9484 23.6722 34.9223 24.2992C34.896 24.9261 34.3666 25.4132 33.7396 25.3871C30.6106 25.2564 27.9013 23.4153 26.9037 22.4984C26.4421 22.0739 26.4113 21.3549 26.8353 20.893ZM37.4994 22.6566C38.2074 22.6566 38.7816 23.2309 38.7816 23.9388C38.7816 24.6469 38.2074 25.2211 37.4994 25.2211C36.7915 25.2209 36.2172 24.6468 36.2172 23.9388C36.2172 23.2309 36.7915 22.6568 37.4994 22.6566Z" fill="#7F86A8"/>
</svg>
