<svg width="22" height="22" viewBox="0 0 22 22" fill="none" xmlns="http://www.w3.org/2000/svg">
<path d="M8.72852 1.77979C11.8033 1.41136 14.5236 1.52379 16.5391 2.52979C18.3859 3.45174 19.71 5.16069 20.127 8.15674L20.1982 8.77393C20.475 11.7915 20.2435 14.3874 19.1934 16.2896C18.1637 18.1546 16.3036 19.4282 13.123 19.7241C9.84664 20.029 7.22434 19.7851 5.37305 18.6626C3.55913 17.5627 2.38731 15.5543 2.15527 12.0737C1.97345 9.29985 2.17611 6.89811 3.12891 5.11182C4.0608 3.36477 5.74967 2.13672 8.72852 1.77979Z" fill="white" stroke="#E2E6ED" stroke-width="0.916667"/>
<rect y="1.1836" width="5.99801" height="9.48523" rx="2.99901" transform="matrix(-0.707107 0.707107 0.707107 0.707107 7.91502 4.84667)" stroke="#DADEE4" stroke-width="1.67386"/>
<rect x="13.707" y="5.6836" width="5.99801" height="9.48523" rx="2.99901" transform="rotate(45 13.707 5.6836)" fill="white" stroke="#CACACA" stroke-width="1.67386"/>
<circle cx="13.7305" cy="9.90211" r="1.04617" transform="rotate(45 13.7305 9.90211)" fill="#CACACA" stroke="#CACACA" stroke-width="0.697444"/>
</svg>
