<svg width="24" height="24" viewBox="0 0 24 24" fill="none" xmlns="http://www.w3.org/2000/svg">
<g clip-path="url(#clip0_2560_6256)">
<path d="M16.5161 20.5588H7.48936C4.8371 20.5588 2.64552 18.4907 2.49029 15.8435L2.07468 8.74629C1.90609 5.87037 4.19281 3.44678 7.07374 3.44678H16.93C19.8109 3.44678 22.0977 5.87037 21.9291 8.74629L21.5135 15.8435C21.3582 18.4907 19.1666 20.5588 16.5144 20.5588H16.5161Z" fill="#82A2E7"/>
<path d="M14.4049 5.01709H9.22389C8.94733 5.01709 8.72314 5.22334 8.72314 5.47776V7.83181C8.72314 8.08623 8.94733 8.29248 9.22389 8.29248H14.4049C14.6814 8.29248 14.9056 8.08623 14.9056 7.83181V5.47776C14.9056 5.22334 14.6814 5.01709 14.4049 5.01709Z" fill="white"/>
<path d="M5.46659 11.9444C5.46659 11.9444 5.58021 10.629 6.65817 10.1964C7.73613 9.76375 8.74562 10.1745 9.04861 11.1243C9.35161 12.0741 9.27877 12.9816 9.04861 14.1892C8.70338 16.0013 9.82504 16.3903 9.22196 17.34C8.61889 18.2898 6.41636 18.2898 5.76958 15.2249C5.40832 12.782 5.46804 11.9444 5.46804 11.9444H5.46659Z" fill="#D8E4FF"/>
<path d="M18.1621 11.9444C18.1621 11.9444 18.0484 10.629 16.9705 10.1964C15.8925 9.76375 14.883 10.1745 14.58 11.1243C14.2785 12.0741 14.3499 12.9816 14.58 14.1892C14.9253 16.0013 13.8036 16.3903 14.4067 17.34C15.0098 18.2898 17.2123 18.2898 17.8591 15.2249C18.2203 12.782 18.1606 11.9444 18.1606 11.9444H18.1621Z" fill="#D8E4FF"/>
<path d="M11.7036 6.20408L10.9731 8.29273C10.9731 8.29273 12.4639 8.29273 12.6308 8.29273C12.5855 8.13276 11.9257 6.20408 11.9257 6.20408C11.9045 6.11687 11.7283 6.11687 11.7036 6.20408Z" fill="#434343"/>
</g>
<defs>
<clipPath id="clip0_2560_6256">
<rect width="19.8711" height="17.112" fill="white" transform="translate(2.06494 3.44434)"/>
</clipPath>
</defs>
</svg>
