<svg width="24" height="24" viewBox="0 0 24 24" fill="none" xmlns="http://www.w3.org/2000/svg">
<path d="M17.4648 2.2627C21.0787 2.26298 24.7575 7.3485 22.0849 12.9316C19.1526 19.0667 11.9999 21.75 11.9999 21.75C11.95 21.7312 4.83804 19.045 1.91596 12.9316C-0.75666 7.34835 2.92209 2.2627 6.53608 2.2627C10.8107 2.26278 11.9944 6.44122 11.9999 6.46094C11.9999 6.46094 13.1799 2.2627 17.4648 2.2627ZM11.4921 9.45801C11.2713 9.45816 11.0917 9.63758 11.0917 9.8584V11.958H8.99213C8.77135 11.9582 8.59174 12.1376 8.59174 12.3584V13.958H11.0917V16.0576C11.0917 16.2784 11.2713 16.4579 11.4921 16.458H13.0917V13.958H15.5917V12.3584C15.5917 12.1375 15.4123 11.958 15.1914 11.958H13.0917V9.45801H11.4921Z" fill="#CACACA"/>
</svg>
