<svg width="50" height="50" viewBox="0 0 50 50" fill="none" xmlns="http://www.w3.org/2000/svg">
<rect width="50" height="50" rx="17.5" fill="#F6F7F9"/>
<path d="M24.6165 12.5517C24.3851 12.4039 24.1043 12.3447 23.8399 12.3595C23.5756 12.3447 23.2947 12.4039 23.0634 12.5517C22.0225 13.2169 19.379 16.0257 17.2641 18.5683C14.4224 21.9684 13.0015 25.5163 13.0015 28.4138C13.0015 34.5339 17.8094 39.4862 23.7573 39.4862C29.7052 39.4862 34.6784 34.5339 34.6784 28.4138C34.6784 25.5163 33.2575 21.9536 30.4157 18.5683C28.2843 16.0109 25.6573 13.2169 24.6165 12.5517Z" fill="#F87171"/>
<rect x="22.1604" y="22.537" width="3.34512" height="9.29199" rx="1.67256" fill="white"/>
<path d="M20.0386 25.3257L23.9111 21.3441L27.4722 25.3257" stroke="white" stroke-width="2.7876" stroke-linecap="round" stroke-linejoin="round"/>
</svg>
