<svg width="28" height="28" viewBox="0 0 28 28" fill="none" xmlns="http://www.w3.org/2000/svg">
<path d="M22.75 6.12504H19.7203L18.2328 3.89379C18.1537 3.77179 18.045 3.67175 17.9169 3.60292C17.7888 3.53409 17.6454 3.4987 17.5 3.50004H10.5C10.3546 3.4987 10.2112 3.53409 10.0831 3.60292C9.95499 3.67175 9.84633 3.77179 9.76719 3.89379L8.27969 6.12504H5.25C4.55469 6.12792 3.88869 6.4054 3.39703 6.89706C2.90537 7.38872 2.62788 8.05473 2.625 8.75004V21C2.62788 21.6953 2.90537 22.3614 3.39703 22.853C3.88869 23.3447 4.55469 23.6222 5.25 23.625H22.75C23.4453 23.6222 24.1113 23.3447 24.603 22.853C25.0946 22.3614 25.3721 21.6953 25.375 21V8.75004C25.3721 8.05473 25.0946 7.38872 24.603 6.89706C24.1113 6.4054 23.4453 6.12792 22.75 6.12504ZM17.9375 14.4375C17.9375 15.2163 17.7066 15.9776 17.2739 16.6251C16.8413 17.2726 16.2263 17.7773 15.5068 18.0753C14.7873 18.3733 13.9956 18.4513 13.2318 18.2994C12.468 18.1475 11.7664 17.7724 11.2158 17.2218C10.6651 16.6711 10.2901 15.9695 10.1382 15.2057C9.98623 14.4419 10.0642 13.6502 10.3622 12.9307C10.6602 12.2112 11.1649 11.5963 11.8124 11.1636C12.46 10.731 13.2212 10.5 14 10.5C15.0443 10.5 16.0458 10.9149 16.7842 11.6533C17.5227 12.3917 17.9375 13.3932 17.9375 14.4375Z" fill="#39B695"/>
</svg>
