<svg width="50" height="50" viewBox="0 0 50 50" fill="none" xmlns="http://www.w3.org/2000/svg">
<rect width="50" height="50" rx="17.5" fill="#F6F7F9"/>
<path d="M32.4337 8.83936C33.5957 8.83936 34.5381 9.7817 34.5381 10.9438V12.3813C34.5381 16.1261 31.4926 19.1668 27.7526 19.1668H16.8236C16.6782 19.1668 16.5506 19.2142 16.4493 19.2845L16.3572 19.3615C16.2466 19.4721 16.1625 19.6341 16.1625 19.8278V19.8896L16.18 19.9724L16.1917 20.0272L16.2127 20.0773C16.2445 20.1547 16.2911 20.2271 16.3526 20.2895L16.3561 20.293C16.4725 20.4092 16.6374 20.4877 16.8236 20.4877H33.8805C36.5657 20.4877 38.7492 22.6713 38.7493 25.3565V25.529L38.7423 25.7925C38.6052 28.3554 36.4772 30.3978 33.8805 30.3978H21.9873C21.6274 30.3999 21.3337 30.6926 21.3309 31.053V31.2734C21.3309 31.4606 21.4102 31.6252 21.5256 31.7409L21.5279 31.7444C21.6467 31.8616 21.8094 31.9334 21.9873 31.9344H26.0306L26.3839 31.9438C30.0163 32.1283 32.9139 35.1402 32.914 38.8178L32.9128 39.8928C32.9107 41.0541 31.9685 41.9949 30.8072 41.9949C29.7174 41.9948 28.8203 41.1663 28.7121 40.105L28.7016 39.8893V38.8097C28.7016 37.335 27.5006 36.134 26.0259 36.134H21.9873C19.3863 36.134 17.2554 34.0849 17.1244 31.5159L17.1186 31.2652V31.0495C17.1186 28.3643 19.3021 26.1808 21.9873 26.1808H33.9388L34.0216 26.1633L34.0764 26.1516L34.1265 26.1306C34.2039 26.0987 34.2763 26.0521 34.3387 25.9907L34.3422 25.9872C34.4584 25.8708 34.5369 25.7059 34.5369 25.5197V25.3483C34.5369 25.1621 34.4584 24.9973 34.3422 24.8808L34.3387 24.8773C34.2763 24.8159 34.2039 24.7693 34.1265 24.7374L34.0764 24.7164L34.0216 24.7048L33.9388 24.6873H16.8236C14.1384 24.6873 11.9548 22.5037 11.9548 19.8185C11.955 17.1334 14.1385 14.9498 16.8236 14.9498H27.7526C29.175 14.9498 30.3292 13.7924 30.3292 12.3732V10.9438C30.3292 9.78182 31.2717 8.83951 32.4337 8.83936Z" fill="#FFB8A7"/>
</svg>
