<svg width="34" height="34" viewBox="0 0 34 34" fill="none" xmlns="http://www.w3.org/2000/svg">
<circle cx="17.4808" cy="8.71151" r="1.75863" transform="rotate(-21.0945 17.4808 8.71151)" fill="#39B695"/>
<path d="M20.1469 19.8353L16.6967 16.236L15.8208 17.7486C15.5252 18.2592 15.6247 18.9067 16.0599 19.3049L18.5176 21.5535L20.7198 25.9216C20.9381 26.3547 21.4274 26.5787 21.898 26.4611C22.5257 26.3042 22.8582 25.6173 22.5921 25.0276L20.4532 20.2887C20.3776 20.1212 20.274 19.9679 20.1469 19.8353Z" fill="#39B695"/>
<path d="M15.7599 22.2336L17.3222 16.9896L14.6023 15.5694L13.4671 21.5019L11.3978 24.4124C10.9837 24.9948 11.1627 25.8075 11.7832 26.162C12.3293 26.4741 13.0235 26.3151 13.3793 25.7965L15.6127 22.5419C15.6776 22.4475 15.7272 22.3434 15.7599 22.2336Z" fill="#39B695"/>
<path d="M22.0236 15.7907L19.6188 14.0239L18.7629 12.2224C18.5806 11.8386 18.2448 11.5496 17.8382 11.4265L15.8628 10.8284C15.388 10.6847 14.873 10.8338 14.5486 11.2091L12.1148 14.0239L10.9491 16.015C10.7023 16.4367 10.8634 16.9793 11.3005 17.1978C11.6955 17.3953 12.1759 17.2554 12.4031 16.8768L13.5078 15.0355L15.0731 13.2459L14.4514 16.3404L17.9648 17.7573L18.3642 15.2945L20.9725 17.2185C21.3544 17.5002 21.8904 17.4312 22.1885 17.0619C22.506 16.6687 22.4309 16.09 22.0236 15.7907Z" fill="#39B695"/>
</svg>
