<svg width="18" height="18" viewBox="0 0 18 18" fill="none" xmlns="http://www.w3.org/2000/svg">
<path d="M7.25994 9.1097C7.6481 9.3307 8.06586 9.46918 8.4912 9.52882V17C8.22673 16.9437 7.96874 16.8437 7.728 16.6986L3.272 14.0127C2.485 13.5382 2.00001 12.6614 2 11.7127V6.34127C2 6.2671 2.0041 6.19342 2.00994 6.12029L7.25994 9.1097ZM15.9707 5.94859C15.9891 6.07752 16 6.20862 16 6.34127V11.7127C16 12.6614 15.515 13.5382 14.728 14.0127L10.272 16.6986C10.0313 16.8437 9.77326 16.9437 9.5088 17V9.51845C9.93318 9.45011 10.3485 9.30304 10.7326 9.0739L15.9707 5.94859ZM11.9693 7.11209L10.2278 8.15161C9.46133 8.60884 8.52238 8.61875 7.74737 8.17755L2.30657 5.07921C2.52676 4.65382 2.85704 4.29138 3.272 4.04125L5.00859 2.99446L11.9693 7.11209ZM7.728 1.35582C8.51511 0.881397 9.48489 0.881393 10.272 1.35582L14.728 4.04125C15.0962 4.26318 15.3972 4.57394 15.6144 4.93812L12.9919 6.50207C12.9741 6.48803 12.9557 6.47444 12.9358 6.46265L6.03116 2.3777L7.728 1.35582Z" fill="#CACACA"/>
</svg>
