<svg width="24" height="24" viewBox="0 0 24 24" fill="none" xmlns="http://www.w3.org/2000/svg">
<path d="M7.6 14.6004C9.03594 14.6004 10.2 13.4363 10.2 12.0004C10.2 10.5645 9.03594 9.40039 7.6 9.40039C6.16406 9.40039 5 10.5645 5 12.0004C5 13.4363 6.16406 14.6004 7.6 14.6004Z" fill="#282828"/>
<path d="M14.8363 19.1238C16.2723 19.1238 17.4363 17.9598 17.4363 16.5238C17.4363 15.0879 16.2723 13.9238 14.8363 13.9238C13.4004 13.9238 12.2363 15.0879 12.2363 16.5238C12.2363 17.9598 13.4004 19.1238 14.8363 19.1238Z" fill="#282828"/>
<path d="M14.8363 9.85039C16.2723 9.85039 17.4363 8.68633 17.4363 7.25039C17.4363 5.81445 16.2723 4.65039 14.8363 4.65039C13.4004 4.65039 12.2363 5.81445 12.2363 7.25039C12.2363 8.68633 13.4004 9.85039 14.8363 9.85039Z" fill="#282828"/>
<path d="M13.1908 8.4873L8.15527 11.3944" stroke="#282828" stroke-width="1.41818" stroke-linejoin="round"/>
<path d="M9.3057 13.2234L14.3709 16.1473" stroke="#282828" stroke-width="1.41818" stroke-linejoin="round"/>
</svg>
