<svg width="18" height="18" viewBox="0 0 18 18" fill="none" xmlns="http://www.w3.org/2000/svg">
<path d="M7.36364 0H0.818182C0.366312 0 0 0.366312 0 0.818182V7.36364C0 7.81551 0.366312 8.18182 0.818182 8.18182H7.36364C7.81551 8.18182 8.18182 7.81551 8.18182 7.36364V0.818182C8.18182 0.366312 7.81551 0 7.36364 0Z" fill="#CACACA"/>
<path d="M17.182 0H10.6365C10.1847 0 9.81836 0.366312 9.81836 0.818182V7.36364C9.81836 7.81551 10.1847 8.18182 10.6365 8.18182H17.182C17.6339 8.18182 18.0002 7.81551 18.0002 7.36364V0.818182C18.0002 0.366312 17.6339 0 17.182 0Z" fill="#CACACA"/>
<path d="M7.36364 9.81824H0.818182C0.366312 9.81824 0 10.1845 0 10.6364V17.1819C0 17.6337 0.366312 18.0001 0.818182 18.0001H7.36364C7.81551 18.0001 8.18182 17.6337 8.18182 17.1819V10.6364C8.18182 10.1845 7.81551 9.81824 7.36364 9.81824Z" fill="#CACACA"/>
<path d="M17.182 9.81824H10.6365C10.1847 9.81824 9.81836 10.1845 9.81836 10.6364V17.1819C9.81836 17.6337 10.1847 18.0001 10.6365 18.0001H17.182C17.6339 18.0001 18.0002 17.6337 18.0002 17.1819V10.6364C18.0002 10.1845 17.6339 9.81824 17.182 9.81824Z" fill="#CACACA"/>
</svg>
