<svg width="22" height="22" viewBox="0 0 22 22" fill="none" xmlns="http://www.w3.org/2000/svg">
<g clip-path="url(#clip0_1312_63775)">
<path d="M11.0137 5C15.4396 5 19.0281 8.5878 19.0283 13.0137C19.0283 17.4397 15.4397 21.0283 11.0137 21.0283C6.5878 21.0281 3 17.4396 3 13.0137C3.00024 8.58795 6.58795 5.00024 11.0137 5Z" fill="#CACACA"/>
<rect x="7" y="2" width="8" height="2" rx="0.2" fill="#CACACA"/>
<rect x="13" y="9.24219" width="6" height="2" rx="0.2" transform="rotate(-45 13 9.24219)" fill="#CACACA"/>
<path d="M8.13662 13.3889L10.9501 8.29684C11.1136 8.00104 11.565 8.13915 11.5349 8.47576L11.2943 11.1713H13.7173C13.8442 11.1713 13.9246 11.3076 13.8631 11.4187L10.6008 17.3124C10.4291 17.6226 9.9552 17.4523 10.0202 17.1037L10.6667 13.6362H8.2825C8.15559 13.6362 8.07525 13.5 8.13662 13.3889Z" fill="white"/>
</g>
<defs>
<clipPath id="clip0_1312_63775">
<rect width="16" height="19" fill="white" transform="translate(3 2)"/>
</clipPath>
</defs>
</svg>
