<svg width="18" height="18" viewBox="0 0 18 18" fill="none" xmlns="http://www.w3.org/2000/svg">
<path d="M15.0872 6.55905C14.4766 5.5124 13.6465 4.6834 12.6002 4.06885C11.9641 3.69435 11.2708 3.43829 10.5234 3.29426C10.3612 3.26225 10.2403 3.12461 10.2403 2.95817V1.34498C10.2403 1.10492 10.005 0.938481 9.78237 1.0217L7.98864 1.67786C7.85189 1.72587 7.76284 1.85711 7.76284 2.00114V2.95817C7.76284 3.12461 7.64198 3.26225 7.47978 3.29426C6.73239 3.44149 6.03907 3.69755 5.403 4.06885C4.35348 4.6834 3.52658 5.5124 2.91595 6.55905C2.30532 7.60571 2 8.77719 2 10.0735C2 11.3698 2.30532 12.5413 2.91595 13.588C3.52658 14.6346 4.35666 15.4636 5.403 16.0782C6.45252 16.6927 7.6547 17 9.01272 17C10.3707 17 11.5475 16.6927 12.597 16.0782C13.6465 15.4636 14.4734 14.6346 15.0841 13.588C15.6947 12.5413 16 11.3698 16 10.0735C16 8.77719 15.6947 7.60571 15.0841 6.55905H15.0872Z" fill="#CACACA"/>
</svg>
