<svg width="22" height="18" viewBox="0 0 22 18" fill="none" xmlns="http://www.w3.org/2000/svg">
<path d="M17.5056 1.83252C18.4669 1.83252 19.356 2.34293 19.8407 3.17312L20.9531 5.07848C21.5705 6.13599 21.4001 7.47643 20.5378 8.34587L13.1652 15.7793C12.0178 16.9362 10.1497 16.9436 8.99311 15.7959L1.4786 8.33891C0.607173 7.47415 0.427702 6.13084 1.04155 5.06765L2.12884 3.18445C2.61185 2.34787 3.50447 1.83252 4.47048 1.83252H17.5056Z" fill="url(#paint0_linear_2235_54455)"/>
<path d="M12.8223 6.8916C12.7148 6.52279 12.5161 6.23454 12.2261 6.02686C11.9396 5.81559 11.5869 5.70996 11.168 5.70996C10.7669 5.70996 10.4142 5.81022 10.1099 6.01074C9.8055 6.21126 9.56917 6.50488 9.40088 6.8916C9.23258 7.27474 9.14844 7.73307 9.14844 8.2666C9.14844 8.80729 9.23079 9.271 9.39551 9.65771C9.5638 10.0444 9.80013 10.3398 10.1045 10.5439C10.4089 10.7445 10.7669 10.8447 11.1787 10.8447C11.5439 10.8447 11.859 10.7803 12.124 10.6514C12.3926 10.5189 12.5985 10.3309 12.7417 10.0874C12.8885 9.84391 12.9655 9.55924 12.9727 9.2334H11.2861V8.01953H14.5303V8.98633C14.5303 9.65592 14.387 10.2396 14.1006 10.7373C13.8177 11.2314 13.422 11.611 12.9136 11.876C12.4051 12.141 11.8232 12.2734 11.168 12.2734C10.4447 12.2734 9.8055 12.1123 9.25049 11.79C8.69906 11.4642 8.26937 11.0023 7.96143 10.4043C7.65706 9.80273 7.50488 9.09733 7.50488 8.28809C7.50488 7.4681 7.66243 6.75553 7.97754 6.15039C8.29264 5.54525 8.72591 5.08333 9.27734 4.76465C9.82878 4.44238 10.4482 4.28125 11.1357 4.28125C11.7122 4.28125 12.2386 4.39225 12.7148 4.61426C13.1947 4.83268 13.5868 5.14062 13.8911 5.53809C14.1955 5.93197 14.3835 6.38314 14.4551 6.8916H12.8223Z" fill="white"/>
<defs>
<linearGradient id="paint0_linear_2235_54455" x1="11" y1="1.83252" x2="11" y2="17.3186" gradientUnits="userSpaceOnUse">
<stop stop-color="#7FEFBB"/>
<stop offset="1" stop-color="#3DBBB2"/>
</linearGradient>
</defs>
</svg>
