<svg width="28" height="28" viewBox="0 0 28 28" fill="none" xmlns="http://www.w3.org/2000/svg">
<path d="M24.1749 4H3.82509C3.34105 4 2.87683 4.19395 2.53456 4.53918C2.19229 4.88442 2 5.35265 2 5.84089V22.1591C2 22.6473 2.19229 23.1156 2.53456 23.4608C2.87683 23.8061 3.34105 24 3.82509 24H24.1749C24.659 24 25.1232 23.8061 25.4654 23.4608C25.8077 23.1156 26 22.6473 26 22.1591V5.84089C26 5.35265 25.8077 4.88442 25.4654 4.53918C25.1232 4.19395 24.659 4 24.1749 4ZM24 22H4.08582L4 6H24V22Z" fill="#1A1A1A"/>
<path d="M9 9C9 8.44772 9.44772 8 10 8C10.5523 8 11 8.44772 11 9C11 9.67477 11.3474 10.4333 11.957 11.043C12.5667 11.6526 13.3252 12 14 12C14.6748 12 15.4333 11.6526 16.043 11.043C16.6526 10.4333 17 9.67477 17 9C17 8.44772 17.4477 8 18 8C18.5523 8 19 8.44772 19 9C19 10.3252 18.3474 11.5667 17.457 12.457C16.5667 13.3474 15.3252 14 14 14C12.6748 14 11.4333 13.3474 10.543 12.457C9.65262 11.5667 9 10.3252 9 9Z" fill="black"/>
</svg>
