<svg width="17" height="19" viewBox="0 0 17 19" fill="none" xmlns="http://www.w3.org/2000/svg">
<path d="M5.58478 4.96263C5.47356 4.88559 5.33851 4.85477 5.2114 4.86248C5.0843 4.85477 4.94924 4.88559 4.83802 4.96263C4.33754 5.30931 3.06647 6.77307 2.04961 8.09815C0.683202 9.87007 0 11.719 0 13.229C0 16.4185 2.31177 18.9993 5.17168 18.9993C8.0316 18.9993 10.4228 16.4185 10.4228 13.229C10.4228 11.719 9.7396 9.86236 8.3732 8.09815C7.3484 6.76536 6.08527 5.30931 5.58478 4.96263Z" fill="#313131"/>
<path d="M13.6069 0.773438C13.7245 0.886352 13.8967 1.06374 14.1108 1.30566C14.3504 1.57638 14.6123 1.8954 14.8667 2.21582L15.1108 2.53223C15.935 3.60273 16.3002 4.6582 16.3003 5.44824C16.3003 7.19986 14.9923 8.50781 13.5757 8.50781C12.1732 8.5077 10.9077 7.2153 10.9077 5.44824C10.9078 4.65715 11.2733 3.59464 12.0952 2.53418L12.0962 2.5332C12.4219 2.11207 12.7857 1.66926 13.105 1.30762C13.319 1.06516 13.4898 0.886588 13.6069 0.773438Z" fill="white" stroke="#313131" stroke-width="1.4"/>
</svg>
