<svg width="50" height="50" viewBox="0 0 50 50" fill="none" xmlns="http://www.w3.org/2000/svg">
<rect width="50" height="50" rx="17.5" fill="#F6F7F9"/>
<path d="M32.7465 15.7749C35.0024 15.7749 36.4041 18.2266 35.2598 20.1713L33.5412 24.1286C32.6104 26.0673 32.3805 27.5667 30.2314 27.6556L28.0102 27.5703C27.3724 27.5458 26.7643 27.8115 26.2786 28.2256C23.6738 30.4467 19.594 31.5643 17.1489 33.9297C16.1351 34.9103 14.563 34.6894 13.8943 33.1756C12.5726 30.1821 11.4296 22.7943 13.3891 19.5453C15.6734 15.7576 20.6784 15.7515 24.7581 15.7845L24.757 15.7749H32.7465Z" fill="#FFA4A1"/>
<path d="M24.0616 15.811C24.8715 15.8321 25.2974 16.4183 25.5457 17.2577L25.5881 17.4293L25.7103 18.0908C25.8431 18.8637 26.0043 19.9815 26.1639 21.5358C26.3698 23.542 26.3499 25.0849 26.2881 26.079C26.2244 27.1033 25.774 28.0775 24.9916 28.7766C24.1073 29.5667 23.5364 30.0528 22.1449 30.7708C20.349 31.6975 18.523 32.6148 17.1797 33.9012L16.2539 34.7885C15.7818 35.241 15.0107 35.1322 14.6823 34.5667L14.0375 33.4566C13.9989 33.3902 13.9462 33.2957 13.8935 33.1765C13.2325 31.6794 12.6175 29.0825 12.4116 26.4563C12.3088 25.1443 12.3071 23.8212 12.455 22.6239C12.6031 21.4258 12.9008 20.3565 13.3897 19.5457C14.5303 17.6545 16.35 16.7039 18.4003 16.232C19.489 15.9814 20.9381 15.8752 22.2711 15.8248C23.2371 15.7882 23.5825 15.7985 24.0616 15.811Z" fill="#F87171"/>
<path d="M34.4895 15.7614L34.6295 15.7664H34.6456L34.6627 15.7674C36.8429 15.917 38.1531 18.3249 37.0215 20.2502L37.0205 20.2512L35.2952 24.2204L35.2962 24.2214L35.2882 24.2405L35.2791 24.2617L35.269 24.2818L35.26 24.301L35.257 24.309C34.3137 26.2596 32.8006 27.5397 30.6393 27.6548L30.6403 27.6558L29.761 27.6658C28.8827 27.6658 28.0552 27.098 27.8162 26.1843C27.5745 25.2598 27.2107 23.5662 27.2109 21.7116C27.2112 19.9761 27.4174 18.3829 27.5665 17.4554L27.6047 17.2711C27.8371 16.3682 28.6593 15.7682 29.5656 15.7674L34.4704 15.7604L34.4895 15.7614Z" fill="#F87171"/>
</svg>
