<svg width="19" height="19" viewBox="0 0 19 19" fill="none" xmlns="http://www.w3.org/2000/svg">
<path fill-rule="evenodd" clip-rule="evenodd" d="M11.3602 6.07959C11.0894 5.80876 10.6503 5.80876 10.3794 6.07959L4.11963 12.3394C3.84879 12.6102 3.84879 13.0494 4.11963 13.3203L5.6846 14.8852C5.95544 15.1561 6.39458 15.1561 6.66542 14.8852L12.9252 8.62538C13.196 8.35454 13.196 7.9154 12.9252 7.64456L11.3602 6.07959Z" stroke="#282828" stroke-width="1.55357"/>
<path fill-rule="evenodd" clip-rule="evenodd" d="M0.474494 11.2864C-0.157513 11.9184 -0.157513 12.943 0.474494 13.575L5.42654 18.527C6.05854 19.159 7.08316 19.159 7.71517 18.527L10.3197 15.9224C10.9517 15.2904 10.9517 14.2657 10.3197 13.6338L5.36772 8.68177C4.73571 8.04976 3.7111 8.04976 3.07909 8.68177L0.474494 11.2864Z" fill="#282828"/>
<path fill-rule="evenodd" clip-rule="evenodd" d="M8.68104 3.0786C8.04903 3.71061 8.04903 4.73523 8.68104 5.36723L13.6331 10.3193C14.2651 10.9512 15.2897 10.9512 15.9217 10.3193L18.5262 7.71468C19.1582 7.08267 19.1582 6.05798 18.5262 5.42605L13.5743 0.474005C12.9423 -0.158002 11.9176 -0.158002 11.2856 0.474005L8.68104 3.0786Z" fill="#282828"/>
</svg>
