<svg width="24" height="24" viewBox="0 0 24 24" fill="none" xmlns="http://www.w3.org/2000/svg">
<g clip-path="url(#clip0_2081_80100)">
<path d="M9.52344 1.94092C12.8779 1.53898 15.8462 1.66266 18.0449 2.76025C20.1267 3.79963 21.5997 5.75534 22.001 9.22998L22.0361 9.5708C22.3381 12.8631 22.0862 15.6957 20.9404 17.771C19.8171 19.8056 17.7871 21.1942 14.3174 21.5171C10.7432 21.8496 7.88283 21.5834 5.86328 20.3589C3.88459 19.1591 2.60676 16.969 2.35352 13.1724C2.15506 10.146 2.37556 7.52554 3.41504 5.57666C4.43164 3.67081 6.27385 2.33031 9.52344 1.94092Z" fill="white" stroke="#E2E6ED"/>
<g clip-path="url(#clip1_2081_80100)">
<path d="M18.9791 8.29513C18.9521 7.71734 18.7223 7.14756 18.2912 6.70688C17.8297 6.23503 17.2254 6 16.622 6C16.0186 6 15.4134 6.23503 14.9528 6.70688L14.5 7.16893L14.0472 6.70688C13.5866 6.23503 12.9823 6 12.378 6C11.7737 6 11.1703 6.23503 10.7088 6.70688C10.2778 7.14756 10.0479 7.71734 10.0209 8.29513C10.0209 8.29513 9.4323 11.0354 14.5 14C19.5677 11.0354 18.9791 8.29513 18.9791 8.29513Z" fill="url(#paint0_linear_2081_80100)"/>
</g>
</g>
<defs>
<linearGradient id="paint0_linear_2081_80100" x1="14.5" y1="6" x2="14.5" y2="14" gradientUnits="userSpaceOnUse">
<stop stop-color="#FF4BA1"/>
<stop offset="1" stop-color="#FF0003"/>
</linearGradient>
<clipPath id="clip0_2081_80100">
<rect width="24" height="24" fill="white"/>
</clipPath>
<clipPath id="clip1_2081_80100">
<rect width="9" height="8" fill="white" transform="translate(10 6)"/>
</clipPath>
</defs>
</svg>
