<svg width="50" height="50" viewBox="0 0 50 50" fill="none" xmlns="http://www.w3.org/2000/svg">
<rect width="50" height="50" rx="17.5" fill="#F6F7F9"/>
<path d="M21.5527 19.2881C21.3973 19.1805 21.2087 19.1374 21.0311 19.1482C20.8536 19.1374 20.6649 19.1805 20.5095 19.2881C19.8104 19.7724 18.0347 21.8172 16.6142 23.6683C14.7054 26.1436 13.751 28.7266 13.751 30.8359C13.751 35.2915 16.9804 38.8968 20.9756 38.8968C24.9708 38.8968 28.3113 35.2915 28.3113 30.8359C28.3113 28.7266 27.3568 26.1329 25.448 23.6683C24.0164 21.8065 22.2519 19.7724 21.5527 19.2881Z" fill="#F87171"/>
<path d="M35.6467 15.295C34.7145 14.0789 33.5604 12.7552 33.1054 12.4431C33.0055 12.3677 32.8834 12.3462 32.7613 12.357C32.6392 12.357 32.5283 12.3785 32.4173 12.4431C31.9623 12.7552 30.8081 14.0897 29.8759 15.295C28.633 16.8986 28.0115 18.5883 28.0115 19.9658C28.0115 22.8716 30.1201 25.2178 32.7169 25.2178C35.3138 25.2178 37.5001 22.8716 37.5001 19.9658C37.5001 18.5883 36.8786 16.9094 35.6356 15.295H35.6467Z" fill="#FCA5A5"/>
</svg>
