<svg width="50" height="50" viewBox="0 0 50 50" fill="none" xmlns="http://www.w3.org/2000/svg">
<rect width="50" height="50" rx="17.5" fill="#F6F7F9"/>
<path d="M26.6849 30.9488C23.0446 33.5283 19.8168 30.4947 19.8168 30.4947C19.8168 30.4947 17.0813 32.3807 14.1933 30.9176C11.3053 29.4546 9.80062 25.4467 13.4236 22.0178C13.4236 22.0178 12.7302 16.0477 19.588 15.701C19.588 15.701 21.5919 10.9234 27.4858 13.4682C27.4858 13.4682 35.8829 10.8472 36.9993 19.8232C36.9993 19.8232 41.0834 23.0961 39.3499 27.4888C37.6164 31.8815 33.9171 31.9959 33.9171 31.9959L35.7303 35.5877C35.921 35.9621 35.765 36.4232 35.3871 36.607L34.7249 36.9294C34.4094 37.0854 34.028 37.0022 33.8061 36.7283L30.9355 33.2162C30.9355 33.2162 28.5016 33.2995 26.6884 30.9454L26.6849 30.9488Z" fill="#F5C0D9"/>
<mask id="mask0_3199_9729" style="mask-type:alpha" maskUnits="userSpaceOnUse" x="11" y="12" width="29" height="26">
<path d="M26.6849 30.9488C23.0446 33.5283 19.8168 30.4947 19.8168 30.4947C19.8168 30.4947 17.0813 32.3807 14.1933 30.9176C11.3053 29.4546 9.80062 25.4467 13.4236 22.0178C13.4236 22.0178 12.7302 16.0477 19.588 15.701C19.588 15.701 21.5919 10.9234 27.4858 13.4682C27.4858 13.4682 35.8829 10.8472 36.9993 19.8232C36.9993 19.8232 41.0834 23.0961 39.3499 27.4888C37.6164 31.8815 33.9171 31.9959 33.9171 31.9959L35.7303 35.5877C35.921 35.9621 35.765 36.4232 35.3871 36.607L34.7249 36.9294C34.4094 37.0854 34.028 37.0022 33.8061 36.7283L30.9355 33.2162C30.9355 33.2162 28.5016 33.2995 26.6884 30.9454L26.6849 30.9488Z" fill="#FF7E7E"/>
</mask>
<g mask="url(#mask0_3199_9729)">
<path d="M27.9489 12.7217C27.9489 12.7217 22.3254 14.2888 24.5062 20.4774" stroke="#F2A6C0" stroke-width="1.15809" stroke-linecap="round" stroke-linejoin="round"/>
<path d="M16.3747 32.0255C16.3747 32.0255 21.076 32.6427 20.8159 28.8151C20.5559 24.9875 15.6536 25.4521 15.6536 25.4521" stroke="#F2A6C0" stroke-width="1.15809" stroke-linecap="round" stroke-linejoin="round"/>
<path d="M37.693 30.8861C37.693 30.8861 41.8915 27.7657 37.8871 24.375C33.8793 20.9843 29.9512 23.3349 29.9512 23.3349" stroke="#F2A6C0" stroke-width="1.15809" stroke-linecap="round" stroke-linejoin="round"/>
<path d="M34.2264 19.4836C34.2264 19.4836 33.3805 21.1409 34.6494 22.6802" stroke="#F2A6C0" stroke-width="1.15809" stroke-linecap="round" stroke-linejoin="round"/>
<path d="M25.0769 32.381C25.0769 32.381 28.1729 31.5073 30.6969 28.2102" stroke="#F2A6C0" stroke-width="1.15809" stroke-linecap="round" stroke-linejoin="round"/>
</g>
</svg>
