<svg width="12" height="12" viewBox="0 0 12 12" fill="none" xmlns="http://www.w3.org/2000/svg">
<path d="M4.75153 2.09874C4.88969 2.05176 5.01272 2.19179 4.96941 2.33115C4.8598 2.68388 4.80097 3.05899 4.80097 3.44779C4.80097 5.52001 6.48084 7.19987 8.55306 7.19987C8.94173 7.19987 9.31649 7.1405 9.66901 7.03066C9.80831 6.98726 9.9483 7.11022 9.90136 7.24838C9.35763 8.84898 7.84317 10.0008 6.05871 10.0008C3.81714 10.0008 2 8.1837 2 5.94214C2 4.15793 3.15132 2.64279 4.75153 2.09874Z" fill="#A2A9B4"/>
<path d="M8.12003 2.13864C8.1803 2.01234 8.36007 2.01234 8.42033 2.13864L8.72988 2.78735C8.75414 2.83818 8.80246 2.87329 8.85829 2.88065L9.57091 2.97458C9.70965 2.99287 9.7652 3.16385 9.66371 3.26019L9.1424 3.75505C9.10156 3.79382 9.0831 3.85063 9.09336 3.906L9.22423 4.61277C9.24971 4.75037 9.10427 4.85604 8.98128 4.78929L8.34954 4.44642C8.30005 4.41955 8.24032 4.41955 8.19082 4.44642L7.55909 4.78929C7.4361 4.85604 7.29066 4.75037 7.31614 4.61277L7.44701 3.906C7.45726 3.85063 7.43881 3.79382 7.39796 3.75505L6.87665 3.26019C6.77516 3.16385 6.83072 2.99287 6.96945 2.97458L7.68207 2.88065C7.73791 2.87329 7.78623 2.83818 7.81048 2.78735L8.12003 2.13864Z" fill="#A2A9B4"/>
</svg>
