<svg width="25" height="23" viewBox="0 0 25 23" fill="none" xmlns="http://www.w3.org/2000/svg">
<path d="M20.006 20.6875C22.1553 18.7216 23.5034 15.8941 23.5034 12.7517C23.5034 6.81371 18.6897 2 12.7517 2C6.81371 2 2 6.81371 2 12.7517C2 15.8941 3.34808 18.7216 5.49747 20.6875" stroke="#ECECEC" stroke-width="2.4375" stroke-linecap="round"/>
<path d="M5.49747 20.6875C3.34808 18.7216 2 15.8941 2 12.7517C2 9.8337 3.16245 7.18719 5.04952 5.25C7.00254 3.24512 9.73172 2 12.7517 2C15.7717 2 18.5009 3.24512 20.4539 5.25" stroke="#FFC31C" stroke-width="3" stroke-linecap="round"/>
<path d="M16.838 11.2061C16.8972 11.2299 16.948 11.2906 16.9598 11.3701C16.964 11.441 16.9453 11.5112 16.9106 11.5674C15.5503 13.4915 14.185 15.4128 12.81 17.3271C12.5953 17.6223 12.2675 17.795 11.9244 17.8057L11.8278 17.8086C11.3199 17.7922 10.8539 17.4704 10.6524 16.9639L10.6505 16.96C10.4452 16.4528 10.5863 15.8681 10.9889 15.5225C11.5609 15.06 12.1403 14.6071 12.7246 14.1582L14.4886 12.8164C15.1857 12.288 15.9023 11.7772 16.6211 11.2686L16.6426 11.2529L16.6622 11.2363C16.71 11.1943 16.7774 11.1818 16.838 11.2061Z" fill="#FFC31C" stroke="#FFC31C" stroke-width="0.993364"/>
</svg>
