<svg width="24" height="24" viewBox="0 0 24 24" fill="none" xmlns="http://www.w3.org/2000/svg">
<path d="M9.58478 7.9636C9.47356 7.88656 9.33851 7.85575 9.2114 7.86345C9.0843 7.85575 8.94924 7.88656 8.83802 7.9636C8.33754 8.31028 7.06647 9.77404 6.04961 11.0991C4.6832 12.871 4 14.72 4 16.23C4 19.4194 6.31177 22.0003 9.17168 22.0003C12.0316 22.0003 14.4228 19.4194 14.4228 16.23C14.4228 14.72 13.7396 12.8633 12.3732 11.0991C11.3484 9.76634 10.0853 8.31028 9.58478 7.9636Z" fill="#F87171"/>
<path d="M19.6736 5.10505C19.0063 4.2345 18.1801 3.28691 17.8544 3.06349C17.7829 3.00956 17.6955 2.99416 17.6081 3.00186C17.5207 3.00186 17.4413 3.01727 17.3619 3.06349C17.0361 3.28691 16.2099 4.2422 15.5426 5.10505C14.6529 6.25294 14.208 7.46247 14.208 8.44858C14.208 10.5287 15.7174 12.2081 17.5764 12.2081C19.4353 12.2081 21.0003 10.5287 21.0003 8.44858C21.0003 7.46247 20.5554 6.26065 19.6657 5.10505H19.6736Z" fill="#FCA5A5"/>
</svg>
