<svg width="26" height="23" viewBox="0 0 26 23" fill="none" xmlns="http://www.w3.org/2000/svg">
<path d="M20.006 20.6875C22.1553 18.7216 23.5034 15.8941 23.5034 12.7517C23.5034 6.81371 18.6897 2 12.7517 2C6.81371 2 2 6.81371 2 12.7517C2 15.8941 3.34808 18.7216 5.49747 20.6875" stroke="#ECECEC" stroke-width="2.4375" stroke-linecap="round"/>
<path d="M23.5034 12.7517C23.5034 9.8337 22.341 7.18719 20.4539 5.25C18.5009 3.24512 15.7717 2 12.7517 2C9.73172 2 7.00254 3.24512 5.04952 5.25C3.16245 7.18719 2 9.8337 2 12.7517C2 15.8941 3.34808 18.7216 5.49747 20.6875" stroke="#F99075" stroke-width="3" stroke-linecap="round"/>
<path d="M10.283 16.8837C10.7247 17.1208 11.2559 17.1372 11.7259 16.9284C13.8812 15.9546 16.0318 14.9709 18.1787 13.9815C18.3428 13.8971 18.4769 13.756 18.5546 13.5858C18.6535 13.349 18.6186 13.0781 18.464 12.8813C18.3094 12.6846 18.0576 12.5894 17.8089 12.6393C16.9315 12.7204 16.0484 12.8054 15.1717 12.9156C13.704 13.1002 12.2353 13.2807 10.7725 13.5112C10.0289 13.6444 9.45071 14.2567 9.34578 15.0095C9.23257 15.7827 9.60714 16.5329 10.2814 16.8863L10.283 16.8837Z" fill="#F99075"/>
</svg>
