<svg width="28" height="28" viewBox="0 0 28 28" fill="none" xmlns="http://www.w3.org/2000/svg">
<path d="M23.4922 9.21344L22.986 8.33488C22.6031 7.67044 22.4117 7.33822 22.086 7.20574C21.7603 7.07326 21.3919 7.1778 20.6551 7.38687L19.4036 7.73938C18.9333 7.84785 18.4398 7.78632 18.0103 7.56565L17.6648 7.36629C17.2965 7.13041 17.0132 6.78262 16.8564 6.37381L16.5139 5.35085C16.2887 4.67391 16.1761 4.33544 15.908 4.14184C15.6399 3.94824 15.2838 3.94824 14.5717 3.94824H13.4283C12.7162 3.94824 12.3601 3.94824 12.092 4.14184C11.8239 4.33544 11.7113 4.67391 11.4861 5.35085L11.1436 6.37381C10.9868 6.78262 10.7035 7.13041 10.3352 7.36629L9.98971 7.56565C9.56023 7.78632 9.06675 7.84785 8.59638 7.73938L7.34486 7.38687C6.60811 7.1778 6.23973 7.07326 5.91402 7.20574C5.5883 7.33822 5.39687 7.67044 5.014 8.33488L4.50776 9.21344C4.14888 9.83626 3.96944 10.1477 4.00426 10.4792C4.03909 10.8107 4.27931 11.0778 4.75975 11.6121L5.81723 12.7944C6.07569 13.1216 6.25918 13.6918 6.25918 14.2045C6.25918 14.7174 6.07575 15.2875 5.81725 15.6148L4.75976 16.797L4.75975 16.797C4.27931 17.3313 4.03909 17.5985 4.00427 17.93C3.96944 18.2615 4.14888 18.5729 4.50776 19.1957L5.01399 20.0743C5.39684 20.7387 5.5883 21.0709 5.91402 21.2034C6.23974 21.3359 6.60812 21.2313 7.34488 21.0223L8.59634 20.6697C9.06678 20.5613 9.56036 20.6228 9.9899 20.8436L10.3354 21.0429C10.7036 21.2788 10.9868 21.6266 11.1436 22.0353L11.4861 23.0584C11.7113 23.7353 11.8239 24.0738 12.092 24.2674C12.3601 24.461 12.7162 24.461 13.4283 24.461H14.5717C15.2838 24.461 15.6399 24.461 15.908 24.2674C16.1761 24.0738 16.2887 23.7353 16.5139 23.0584L16.8564 22.0353C17.0132 21.6266 17.2964 21.2788 17.6646 21.0429L18.0101 20.8436C18.4396 20.6228 18.9332 20.5613 19.4037 20.6697L20.6551 21.0223C21.3919 21.2313 21.7603 21.3359 22.086 21.2034C22.4117 21.0709 22.6032 20.7387 22.986 20.0743L23.4922 19.1957C23.8511 18.5729 24.0306 18.2615 23.9957 17.93C23.9609 17.5985 23.7207 17.3313 23.2402 16.797L22.1827 15.6148C21.9243 15.2875 21.7408 14.7174 21.7408 14.2045C21.7408 13.6918 21.9243 13.1216 22.1828 12.7944L23.2402 11.6121C23.7207 11.0778 23.9609 10.8107 23.9957 10.4792C24.0306 10.1477 23.8511 9.83626 23.4922 9.21344Z" stroke="#282828" stroke-width="2" stroke-linecap="round"/>
<path d="M17.5467 14.1962C17.5467 16.1787 15.9395 17.7859 13.9569 17.7859C11.9744 17.7859 10.3672 16.1787 10.3672 14.1962C10.3672 12.2136 11.9744 10.6064 13.9569 10.6064C15.9395 10.6064 17.5467 12.2136 17.5467 14.1962Z" stroke="#282828" stroke-width="2"/>
</svg>
