<svg width="21" height="20" viewBox="0 0 21 20" fill="none" xmlns="http://www.w3.org/2000/svg">
<path d="M9.56646 0.517527C9.94654 -0.172534 10.9382 -0.172533 11.3183 0.517528L13.9753 5.34145C14.1188 5.60202 14.3709 5.78516 14.6631 5.84113L20.0719 6.87742C20.8457 7.02566 21.1521 7.9688 20.6133 8.54352L16.8465 12.5611C16.6431 12.7782 16.5468 13.0745 16.5838 13.3697L17.2697 18.834C17.3678 19.6157 16.5655 20.1986 15.8524 19.8637L10.8674 17.5228C10.5982 17.3964 10.2866 17.3964 10.0173 17.5228L5.03234 19.8637C4.31924 20.1986 3.51695 19.6157 3.61507 18.834L4.30094 13.3697C4.33799 13.0745 4.24171 12.7782 4.03824 12.5611L0.271477 8.54352C-0.267358 7.96879 0.0390882 7.02565 0.812828 6.87742L6.22171 5.84113C6.51387 5.78516 6.76594 5.60202 6.90946 5.34145L9.56646 0.517527Z" fill="#D9D9D9"/>
</svg>
