<svg width="28" height="28" viewBox="0 0 28 28" fill="none" xmlns="http://www.w3.org/2000/svg">
<path d="M20.1788 10.5248C20.1788 8.80584 19.5276 7.1571 18.369 5.94158C17.2103 4.72606 15.6387 4.04302 14 4.04302C12.3613 4.04302 10.7897 4.72606 9.63102 5.94158C8.47238 7.1571 7.8212 8.80584 7.8212 10.5248V15.3458L7.81055 15.6611C7.7685 16.2899 7.60141 16.9026 7.3191 17.4591L7.16848 17.732L5.96725 19.7471C5.95497 19.7677 5.94815 19.7914 5.94747 19.8157C5.94686 19.8402 5.95292 19.8646 5.96421 19.886C5.97546 19.9072 5.99142 19.9254 6.01138 19.9378C6.03145 19.9502 6.05503 19.957 6.07832 19.957H21.9217C21.945 19.957 21.9686 19.9502 21.9886 19.9378C22.0086 19.9255 22.0245 19.9072 22.0358 19.886C22.0471 19.8646 22.0531 19.8402 22.0525 19.8157C22.0522 19.8038 22.0504 19.792 22.0472 19.7806L22.0327 19.7471L20.8315 17.732C20.4053 17.0176 20.1793 16.1918 20.1788 15.349V10.5248ZM22.1263 15.3474L22.1316 15.5198C22.1586 15.9195 22.2788 16.3071 22.4823 16.6483L23.6843 18.6641C23.8809 18.9941 23.9895 19.3733 23.9993 19.7623C24.009 20.1512 23.9196 20.5361 23.7399 20.8763C23.56 21.2167 23.2964 21.5008 22.9768 21.6983C22.6572 21.8958 22.2926 22 21.9217 22H6.07832C5.70742 22 5.34275 21.8958 5.02316 21.6983C4.70356 21.5008 4.43995 21.2167 4.26013 20.8763C4.0804 20.5361 3.99098 20.1512 4.00072 19.7623C4.01049 19.3733 4.11911 18.9941 4.31567 18.6641L5.51765 16.6483L5.59981 16.499C5.77946 16.1448 5.87373 15.7488 5.87368 15.3458V10.5248C5.87368 8.264 6.73019 6.09576 8.25406 4.49711C9.778 2.89844 11.8448 2 14 2C16.1552 2 18.222 2.89844 19.7459 4.49711C21.2698 6.09576 22.1263 8.264 22.1263 10.5248V15.3474Z" fill="#1A1A1A"/>
<path d="M16.1967 23.0332C16.6404 23.0332 17 23.4809 17 24.0332C17 24.5855 16.6404 25.0332 16.1967 25.0332H11.8033C11.3596 25.0332 11 24.5855 11 24.0332C11 23.4809 11.3596 23.0332 11.8033 23.0332H16.1967Z" fill="#1A1A1A"/>
</svg>
