<svg width="16" height="16" viewBox="0 0 16 16" fill="none" xmlns="http://www.w3.org/2000/svg">
<path d="M3.64933 13.5327L3.248 14.1607C3.11093 14.3936 2.88756 14.563 2.62634 14.6323C2.36512 14.7016 2.08713 14.665 1.85267 14.5307C1.73686 14.465 1.63524 14.377 1.55368 14.2717C1.47212 14.1665 1.41225 14.0461 1.37752 13.9176C1.3428 13.7891 1.33392 13.6549 1.3514 13.5229C1.36887 13.3909 1.41236 13.2637 1.47933 13.1487L1.73333 12.7767C1.83133 12.638 2.072 12.398 2.55333 12.4433C2.55333 12.4433 3.68667 12.5653 3.76867 13.1487C3.76867 13.1487 3.78 13.3407 3.64933 13.5327ZM14.9787 9.44733H12.5687C12.4047 9.43666 12.3333 9.37867 12.3047 9.34467L12.3033 9.34133L10 5.608C9.74667 5.224 9.344 6.206 9.344 6.206C8.86333 7.30066 9.412 8.54533 9.604 8.92133L12.752 14.1593C12.8891 14.3922 13.1124 14.5617 13.3737 14.631C13.6349 14.7002 13.9129 14.6637 14.1473 14.5293C14.2631 14.4636 14.3648 14.3756 14.4463 14.2704C14.5279 14.1652 14.5878 14.0448 14.6225 13.9163C14.6572 13.7877 14.6661 13.6536 14.6486 13.5216C14.6311 13.3896 14.5876 13.2624 14.5207 13.1473L13.6253 11.61C13.608 11.5727 13.5773 11.472 13.7613 11.4713H14.9787C15.5427 11.4713 16 11.018 16 10.4593C16 9.90067 15.5427 9.44733 14.9787 9.44733ZM9.176 10.8233C9.176 10.8233 9.30467 11.4713 8.80667 11.4713H1.02133C0.457333 11.4713 0 11.018 0 10.4593C0 9.90067 0.457333 9.44733 1.02133 9.44733H3.31133C3.68133 9.426 3.76867 9.21466 3.76867 9.21466L3.77067 9.216L6.76 4.08666C6.7766 4.05451 6.78527 4.01885 6.78527 3.98266C6.78527 3.94648 6.7766 3.91082 6.76 3.87866L5.77333 2.18466C5.70636 2.0696 5.66287 1.94239 5.6454 1.8104C5.62792 1.67841 5.6368 1.54427 5.67152 1.41574C5.70625 1.2872 5.76612 1.16684 5.84768 1.0616C5.92924 0.956366 6.03086 0.868356 6.14667 0.802665C6.38119 0.668071 6.65935 0.631435 6.92072 0.700711C7.1821 0.769987 7.40559 0.939582 7.54267 1.17266L8 1.95866L8.45667 1.174C8.59374 0.941095 8.81711 0.771628 9.07833 0.702361C9.33954 0.633094 9.61754 0.669614 9.852 0.803998C9.96786 0.869633 10.0695 0.957602 10.1512 1.06281C10.2328 1.16802 10.2927 1.28838 10.3275 1.41692C10.3623 1.54545 10.3712 1.67961 10.3538 1.81163C10.3364 1.94364 10.2929 2.07089 10.226 2.186L6.06667 9.324C6.04867 9.36733 6.04333 9.43533 6.17867 9.44733H7.54267C7.54267 9.44733 8.98 9.494 9.176 10.8233Z" fill="white"/>
</svg>
