<svg width="50" height="50" viewBox="0 0 50 50" fill="none" xmlns="http://www.w3.org/2000/svg">
<rect width="50" height="50" rx="17.5" fill="#F6F7F9"/>
<path d="M38.7332 25.6728C38.7332 32.5375 31.8211 31.6359 24.3823 31.6359C16.9435 31.6359 11.7949 32.5375 11.7949 25.6728C11.7949 18.8081 17.8253 13.2432 25.264 13.2432C32.7028 13.2432 38.7332 18.8081 38.7332 25.6728Z" fill="#A17D7D"/>
<path d="M13.8701 28.7476H36.737V30.9179C36.737 36.6655 32.0777 41.3249 26.33 41.3249H24.2771C18.5295 41.3249 13.8701 36.6655 13.8701 30.9179V28.7476Z" fill="#FBCBBC"/>
<path d="M38.5755 26.4375C38.3098 24.9785 38.5032 23.9573 38.5032 23.9573C31.1733 18.9996 19.2017 20.0217 11.8701 24.9715C11.8701 24.9715 11.7755 24.9788 11.9564 26.4375C10.7351 26.4375 9.80787 27.1386 9.75133 28.5295C9.69479 29.9317 11.4475 32.3403 13.7431 31.7523C13.7657 31.7749 13.7883 31.8088 13.8109 31.8315C15.2005 42.1542 35.3313 42.1542 36.7209 31.8315C36.7549 31.7975 36.7888 31.7523 36.8227 31.7184C39.1861 32.4421 41.0067 29.9656 40.9388 28.5295C40.871 27.0821 39.8759 26.3584 38.5641 26.4262L38.5755 26.4375Z" fill="#FBCBBC"/>
<ellipse cx="22.0876" cy="28.923" rx="0.899658" ry="1.39599" fill="#373737"/>
<ellipse cx="28.9736" cy="28.923" rx="0.899658" ry="1.39599" fill="#373737"/>
<path d="M18.0041 23.0672C15.7283 23.6536 14.8914 26.8322 14.7049 28.7861C14.6841 29.0036 14.4173 29.1024 14.2759 28.9358C11.0941 25.1844 14.2361 20.4827 16.287 18.5387L33.0179 20.6837L37.7948 24.9314L36.7239 28.0194C36.6322 28.2837 36.1686 28.2254 36.1244 27.9492C35.9374 26.7802 35.529 25.3102 34.7339 24.2587C33.5518 22.6952 26.7736 20.6838 23.5323 19.8736C22.7379 20.668 20.52 22.419 18.0041 23.0672Z" fill="#A17D7D"/>
<path d="M22.9873 32.646C22.9873 32.646 23.6954 33.6506 25.5891 33.6506C27.4827 33.6506 28.1908 32.646 28.1908 32.646" stroke="#BC6458" stroke-width="1.0407" stroke-linecap="round"/>
<path d="M12.0547 25.8834C11.195 16.658 18.9493 13.2953 23.0371 12.53C20.966 15.6573 23.4868 18.1205 25.0498 19.6352C16.6547 21.9572 14.2433 23.7881 12.0547 25.8834Z" fill="white" stroke="#E8E8E8" stroke-width="1.29724" stroke-linecap="round"/>
<path d="M25.5425 8.54553C28.9082 8.54553 31.0008 12.6276 31.0977 13.0671C36.8821 16.7022 38.316 23.093 38.4471 25.9761C38.4471 25.9761 34.8387 22.1366 29.65 21.1087C25.3518 20.2571 21.7985 22.577 19.3065 18.0328C16.8146 13.4886 19.3072 8.54553 25.5425 8.54553Z" fill="white" stroke="#E8E8E8" stroke-width="1.29724" stroke-linecap="round"/>
<path d="M31.0488 13.0183C29.6328 12.3505 26.4291 11.4155 24.9429 13.0183" stroke="#E8E8E8" stroke-width="1.29724" stroke-linecap="round"/>
<path d="M8.75488 33.1483C9.24743 33.1488 9.66636 33.9652 9.83105 35.1132C10.9792 35.2779 11.7959 35.6976 11.7959 36.1903C11.7956 36.683 10.9785 37.1018 9.83008 37.2665C9.66541 38.4145 9.24746 39.2308 8.75488 39.2313C8.26208 39.2313 7.84245 38.415 7.67773 37.2665C6.52935 37.1018 5.71225 36.683 5.71191 36.1903C5.71191 35.6975 6.52909 35.2778 7.67773 35.1132C7.84248 33.9649 8.26213 33.1483 8.75488 33.1483Z" fill="#F0BF36"/>
<path d="M43.043 18.9526C43.5355 18.9532 43.9544 19.7696 44.1191 20.9175C45.2673 21.0823 46.084 21.5019 46.084 21.9946C46.0836 22.4873 45.2665 22.9062 44.1182 23.0708C43.9535 24.2188 43.5355 25.0351 43.043 25.0356C42.5502 25.0356 42.1305 24.2193 41.9658 23.0708C40.8174 22.9062 40.0003 22.4873 40 21.9946C40 21.5018 40.8172 21.0822 41.9658 20.9175C42.1306 19.7692 42.5502 18.9526 43.043 18.9526Z" fill="#F0BF36"/>
</svg>
