<svg width="20" height="20" viewBox="0 0 20 20" fill="none" xmlns="http://www.w3.org/2000/svg">
<path d="M13.8889 3.71582H6.11111C5.81643 3.71582 5.53381 3.83288 5.32544 4.04126C5.11706 4.24963 5 4.53225 5 4.82693V17.0492C5.00053 17.1481 5.02713 17.2451 5.07712 17.3304C5.12711 17.4158 5.19872 17.4864 5.28472 17.5353C5.36712 17.5823 5.46068 17.6063 5.55556 17.6047C5.65868 17.6049 5.75976 17.576 5.84722 17.5214L9.55775 15.2007C9.82827 15.0316 10.1716 15.0317 10.442 15.2011L14.1458 17.5214C14.2314 17.5728 14.3289 17.6011 14.4287 17.6036C14.5285 17.606 14.6273 17.5825 14.7153 17.5353C14.8013 17.4864 14.8729 17.4158 14.9229 17.3304C14.9729 17.2451 14.9995 17.1481 15 17.0492V4.82693C15 4.53225 14.8829 4.24963 14.6746 4.04126C14.4662 3.83288 14.1836 3.71582 13.8889 3.71582Z" fill="#39B695"/>
</svg>
