<svg width="18" height="18" viewBox="0 0 18 18" fill="none" xmlns="http://www.w3.org/2000/svg">
<path d="M3.32734 14.0392C2.90652 13.6185 2.57271 13.119 2.34497 12.5692C2.11722 12.0195 2 11.4303 2 10.8352C2 10.2401 2.11722 9.65092 2.34497 9.10117C2.57271 8.55143 2.90652 8.05193 3.32734 7.6312L5.03667 5.92254L5.36667 5.98587L5.37667 5.98787L5.426 5.99987C5.47178 6.01054 5.54178 6.03076 5.636 6.06054C5.824 6.12054 6.10067 6.22254 6.44267 6.3872C7.12534 6.71587 8.068 7.29654 9.06867 8.29787C10.0693 9.29854 10.65 10.2412 10.9793 10.9239C11.144 11.2652 11.246 11.5425 11.306 11.7305C11.3337 11.816 11.358 11.9025 11.3787 11.9899L11.3807 11.9992L11.444 12.3299L9.73534 14.0385C9.31462 14.4592 8.81517 14.793 8.26548 15.0207C7.7158 15.2484 7.12665 15.3655 6.53167 15.3655C5.93669 15.3655 5.34754 15.2484 4.79786 15.0207C4.24817 14.793 3.74805 14.4599 3.32734 14.0392ZM12.28 11.4945L12.2587 11.4259C12.1853 11.1972 12.0667 10.8765 11.88 10.4899C11.5067 9.7152 10.8633 8.67787 9.776 7.59054C8.68867 6.5032 7.65134 5.8592 6.87667 5.48587C6.55206 5.32822 6.21626 5.19475 5.872 5.08654L7.59934 3.35987C8.01844 2.93212 8.51819 2.5917 9.06968 2.3583C9.62117 2.1249 10.2135 2.00314 10.8123 2.00007C11.4111 1.997 12.0046 2.11267 12.5585 2.34041C13.1123 2.56814 13.6156 2.90342 14.039 3.32684C14.4625 3.75027 14.7978 4.25345 15.0256 4.80728C15.2534 5.36111 15.3691 5.9546 15.3661 6.55344C15.3631 7.15228 15.2414 7.74458 15.0081 8.29609C14.7747 8.84761 14.4344 9.34739 14.0067 9.76654L12.28 11.4945Z" fill="#CACACA"/>
</svg>
