<svg width="20" height="17" viewBox="0 0 20 17" fill="none" xmlns="http://www.w3.org/2000/svg">
<path d="M13.7145 16.1257H5.53776C3.13524 16.1257 1.15003 14.2524 1.00941 11.8544L0.632933 5.4255C0.480224 2.82038 2.55162 0.625 5.16128 0.625H14.0895C16.6991 0.625 18.7705 2.82038 18.6178 5.4255L18.2413 11.8544C18.1007 14.2524 16.1155 16.1257 13.713 16.1257H13.7145Z" stroke="#A2A9B4" stroke-width="1.25"/>
<path d="M11.6465 3.31982V5.26514H7.60547V3.31982H11.6465Z" stroke="#A2A9B4" stroke-width="0.9"/>
<path d="M3.60681 8.05658C3.60681 8.05658 3.72474 6.69127 4.8436 6.24222C5.96246 5.79316 7.01025 6.21954 7.32474 7.20534C7.63923 8.19115 7.56363 9.1331 7.32474 10.3865C6.9664 12.2674 8.13062 12.6711 7.50467 13.6569C6.87871 14.6427 4.59261 14.6427 3.9213 11.4615C3.54633 8.92596 3.60832 8.05658 3.60832 8.05658H3.60681Z" fill="#A2A9B4"/>
<path d="M15.557 8.05658C15.557 8.05658 15.4391 6.69127 14.3202 6.24222C13.2014 5.79316 12.1536 6.21954 11.8391 7.20534C11.5261 8.19115 11.6002 9.1331 11.8391 10.3865C12.1974 12.2674 11.0332 12.6711 11.6592 13.6569C12.2851 14.6427 14.5712 14.6427 15.2425 11.4615C15.6175 8.92596 15.5555 8.05658 15.5555 8.05658H15.557Z" fill="#A2A9B4"/>
</svg>
