<svg width="12" height="9" viewBox="0 0 12 9" fill="none" xmlns="http://www.w3.org/2000/svg">
<path d="M12 1.75758C12 1.9596 11.9277 2.13131 11.7832 2.27273L6.17806 7.75758L5.12516 8.78788C4.98065 8.92929 4.80516 9 4.59871 9C4.39226 9 4.21677 8.92929 4.07226 8.78788L3.01935 7.75758L0.216774 5.01515C0.0722581 4.87374 0 4.70202 0 4.5C0 4.29798 0.0722581 4.12626 0.216774 3.98485L1.26968 2.95455C1.41419 2.81313 1.58968 2.74242 1.79613 2.74242C2.00258 2.74242 2.17806 2.81313 2.32258 2.95455L4.59871 5.18939L9.67742 0.212121C9.82194 0.0707071 9.99742 0 10.2039 0C10.4103 0 10.5858 0.0707071 10.7303 0.212121L11.7832 1.24242C11.9277 1.38384 12 1.55556 12 1.75758Z" fill="white"/>
</svg>
