<svg width="24" height="24" viewBox="0 0 24 24" fill="none" xmlns="http://www.w3.org/2000/svg">
<path fill-rule="evenodd" clip-rule="evenodd" d="M6.35348 4.09937C6.35348 4.09937 7.65901 2.79308 9.33297 3.98511C9.52651 4.12279 9.64029 4.34592 9.6816 4.57984C9.78684 5.18569 10.3773 5.76709 10.5957 5.93921C11.6628 6.7879 13.7401 6.57408 14.4521 6.42066C14.9861 6.30477 15.5001 6.63968 15.6201 7.1648L15.8252 8.06909L16.2617 9.99976L16.5127 11.1052L16.9492 13.0349L17.2353 14.2986L18.8232 14.9402C21.1653 16.1321 21.1352 17.8457 21.1132 18.1296L21.1191 19.5984C21.12 19.8416 21.0238 20.0749 20.8525 20.2468C20.6822 20.4186 20.4502 20.5153 20.208 20.5154H15.7461C13.0711 20.5154 11.1429 18.6142 11.1123 18.5837L3.09176 8.92847C2.80478 8.58195 2.81134 8.07734 3.10738 7.73902L4.20601 6.48609L4.22848 6.51343L6.35348 4.09937Z" fill="#5BD6A4"/>
<path d="M15.5842 21.1436H20.1802C20.4299 21.1436 20.6693 21.0466 20.8448 20.8747C21.0213 20.7028 21.1199 20.4696 21.1189 20.2264V19.4437H15.5842C13.4063 19.4437 12.022 17.9668 11.9112 17.825L3.14434 7.73047L2.56587 8.36708C2.26078 8.70542 2.25327 9.21019 2.54897 9.55676L10.8107 19.2114C10.8107 19.2114 12.8065 21.1436 15.5842 21.1436Z" fill="#4B6359"/>
<rect x="13.0049" y="8.58203" width="3.66113" height="1.68292" rx="0.841462" transform="rotate(-5.93135 13.0049 8.58203)" fill="white"/>
<rect x="13.5039" y="11.0557" width="3.66113" height="1.68292" rx="0.841462" transform="rotate(-5.93135 13.5039 11.0557)" fill="white"/>
</svg>
