<svg width="50" height="50" viewBox="0 0 50 50" fill="none" xmlns="http://www.w3.org/2000/svg">
<rect width="50" height="50" rx="17.5" fill="#F6F7F9"/>
<path d="M12.9069 19.7171C13.149 17.9753 14.8227 17.0961 15.6293 16.8743C18.7275 16.8743 19.9836 29.7373 20.2244 36.1689C19.801 36.7334 18.2892 37.9108 15.6293 38.1044C12.9694 38.2979 12.3435 36.0882 12.3631 34.9592C10.9715 34.9189 8.27294 33.8946 8.61165 30.1204C9.03505 25.4026 14.1164 26.2493 13.3301 24.4348C12.5438 22.6203 12.6043 21.8944 12.9069 19.7171Z" fill="#C3B3B3"/>
<path d="M38.6605 19.7171C38.4184 17.9753 36.7447 17.0961 35.9381 16.8743C32.8398 16.8743 31.5837 29.7373 31.343 36.1689C31.7664 36.7334 33.2781 37.9108 35.9381 38.1044C38.598 38.2979 39.2239 36.0882 39.2043 34.9592C40.5959 34.9189 43.2944 33.8946 42.9557 30.1204C42.5323 25.4026 37.451 26.2493 38.2373 24.4348C39.0236 22.6203 38.9631 21.8944 38.6605 19.7171Z" fill="#C3B3B3"/>
<path d="M37.6411 23.0463C37.6411 29.4681 28.378 17.399 21.6851 17.399C14.9921 17.399 13.4038 29.4681 13.4038 23.0463C13.4038 16.6245 18.8295 11.4186 25.5224 11.4186C32.2154 11.4186 37.3788 14.8862 37.6411 23.0463Z" fill="#C3B3B3"/>
<path d="M14.8633 25.923H36.2549V27.9533C36.2549 33.3301 31.8962 37.6888 26.5193 37.6888H24.5988C19.222 37.6888 14.8633 33.3301 14.8633 27.9533V25.923Z" fill="#FBCBBC"/>
<path d="M37.0186 23.7512C34.5724 23.176 36.2389 22.7301 36.2389 22.7301C29.3819 18.0922 21.3385 14.0003 13.967 22.5C13.967 22.5 14.8823 23.8252 13.0721 23.7618C11.9296 23.7618 11.0622 24.4176 11.0093 25.7188C10.9564 27.0305 12.5961 29.2837 14.7435 28.7337C14.7647 28.7548 14.7858 28.7865 14.807 28.8077C16.1069 38.4645 34.939 38.4645 36.2389 28.8077C36.2707 28.776 36.3024 28.7337 36.3341 28.7019C38.545 29.3789 40.2482 27.0622 40.1847 25.7188C40.1212 24.3647 39.1903 23.6877 37.9632 23.7512H37.0186Z" fill="#FBCBBC"/>
<path d="M21.4308 28.7788C21.041 28.9159 20.1445 29.4368 19.6768 30.4238" stroke="#CD9D8E" stroke-width="0.584677" stroke-linecap="round"/>
<path d="M30.4088 28.7788C30.7986 28.9159 31.6951 29.4368 32.1628 30.4238" stroke="#CD9D8E" stroke-width="0.584677" stroke-linecap="round"/>
<path d="M16.7351 16.751L25.8406 16.3107L32.5851 16.7509L37.4185 21.0463L37.5111 23.7345C37.5111 23.7345 36.8617 23.6115 36.4742 23.9425C35.8806 24.4496 35.4479 25.4356 35.3554 24.9734C35.2025 24.2093 34.9264 22.225 33.8621 20.2359C32.7977 18.2468 19.1109 20.2603 17.7734 19.2808C16.743 19.638 15.4991 23.2457 15.4991 25.5844C14.7454 26.5258 14.9368 23.2457 13.5201 23.7383L13.3948 22.8055L13.5201 21.5409L16.7351 16.751Z" fill="#C3B3B3"/>
<ellipse cx="22.5496" cy="25.8632" rx="0.841616" ry="1.30593" fill="#373737"/>
<ellipse cx="28.9925" cy="25.8632" rx="0.841616" ry="1.30593" fill="#373737"/>
<path d="M23.3914 29.3461C23.3914 29.3461 24.0538 30.2859 25.8252 30.2859C27.5967 30.2859 28.2591 29.3461 28.2591 29.3461" stroke="#BC6458" stroke-width="0.973557" stroke-linecap="round"/>
<path d="M24.0264 22.661H27.8085" stroke="#CD9D8E" stroke-width="0.584677" stroke-linecap="round"/>
<path d="M24.0264 21.4917H27.8085" stroke="#CD9D8E" stroke-width="0.584677" stroke-linecap="round"/>
<path d="M16.4449 20.7753C22.011 22.3516 29.1054 19.1985 32.6758 17.7611L16.4449 17.0193L15.1008 24.1138L16.4449 20.7753Z" fill="#C3B3B3"/>
<path d="M34.5773 21.7023C29.8299 21.0717 28.9206 19.1831 29.0595 18.3176C28.8986 17.5687 32.671 17.7891 34.5773 17.9928C36.5555 19.4921 39.3248 22.333 34.5773 21.7023Z" fill="#C3B3B3"/>
</svg>
