<svg width="32" height="32" viewBox="0 0 32 32" fill="none" xmlns="http://www.w3.org/2000/svg">
<path d="M16 3C13.7423 2.99983 11.5234 3.58766 9.56187 4.70562C7.60035 5.82357 5.9638 7.43311 4.81335 9.37576C3.6629 11.3184 3.03822 13.5272 3.00081 15.7846C2.9634 18.042 3.51456 20.2703 4.60001 22.25L3.53751 25.9875C3.43758 26.3314 3.43124 26.6958 3.51913 27.0429C3.60703 27.3901 3.78598 27.7076 4.03751 27.9625C4.28903 28.2152 4.60427 28.3952 4.9498 28.4832C5.29532 28.5712 5.65822 28.5641 6.00001 28.4625L9.75001 27.4C11.4879 28.3525 13.4205 28.8951 15.4002 28.9862C17.3798 29.0774 19.3541 28.7148 21.1722 27.926C22.9902 27.1373 24.6039 25.9433 25.8898 24.4354C27.1757 22.9275 28.0999 21.1456 28.5916 19.2258C29.0834 17.306 29.1297 15.2992 28.7271 13.3588C28.3244 11.4183 27.4835 9.59563 26.2685 8.02999C25.0535 6.46435 23.4967 5.19721 21.717 4.32542C19.9373 3.45363 17.9818 3.00027 16 3ZM10 17.5C9.70334 17.5 9.41333 17.412 9.16666 17.2472C8.91998 17.0824 8.72772 16.8481 8.61419 16.574C8.50066 16.2999 8.47095 15.9983 8.52883 15.7074C8.58671 15.4164 8.72957 15.1491 8.93935 14.9393C9.14913 14.7296 9.4164 14.5867 9.70738 14.5288C9.99835 14.4709 10.2999 14.5007 10.574 14.6142C10.8481 14.7277 11.0824 14.92 11.2472 15.1666C11.412 15.4133 11.5 15.7033 11.5 16C11.5 16.3978 11.342 16.7794 11.0607 17.0607C10.7794 17.342 10.3978 17.5 10 17.5ZM16 17.5C15.7033 17.5 15.4133 17.412 15.1667 17.2472C14.92 17.0824 14.7277 16.8481 14.6142 16.574C14.5007 16.2999 14.471 15.9983 14.5288 15.7074C14.5867 15.4164 14.7296 15.1491 14.9394 14.9393C15.1491 14.7296 15.4164 14.5867 15.7074 14.5288C15.9983 14.4709 16.2999 14.5007 16.574 14.6142C16.8481 14.7277 17.0824 14.92 17.2472 15.1666C17.412 15.4133 17.5 15.7033 17.5 16C17.5 16.3978 17.342 16.7794 17.0607 17.0607C16.7794 17.342 16.3978 17.5 16 17.5ZM22 17.5C21.7033 17.5 21.4133 17.412 21.1667 17.2472C20.92 17.0824 20.7277 16.8481 20.6142 16.574C20.5007 16.2999 20.471 15.9983 20.5288 15.7074C20.5867 15.4164 20.7296 15.1491 20.9394 14.9393C21.1491 14.7296 21.4164 14.5867 21.7074 14.5288C21.9983 14.4709 22.2999 14.5007 22.574 14.6142C22.8481 14.7277 23.0824 14.92 23.2472 15.1666C23.412 15.4133 23.5 15.7033 23.5 16C23.5 16.3978 23.342 16.7794 23.0607 17.0607C22.7794 17.342 22.3978 17.5 22 17.5Z" fill="#CACACA"/>
</svg>
