<svg width="24" height="24" viewBox="0 0 24 24" fill="none" xmlns="http://www.w3.org/2000/svg">
<path d="M12.0215 2.25C13.6586 2.25019 14.9912 3.59721 14.9912 5.26562C14.991 6.93386 13.6584 8.28009 12.0215 8.28027C10.3844 8.28027 9.051 6.93397 9.05078 5.26562C9.05078 3.59709 10.3842 2.25 12.0215 2.25Z" fill="#7CC4FF" stroke="white" stroke-width="0.5" stroke-linejoin="round"/>
<path d="M9.87305 8.78125H14.168C14.4635 8.78033 14.7571 8.83937 15.0303 8.9541C15.2351 9.04016 15.426 9.15619 15.5967 9.29883L15.7598 9.4502L15.7939 9.49023V9.49121L19.3184 14.0801C19.3231 14.0862 19.3287 14.092 19.334 14.0977C19.6042 14.3892 19.7534 14.7764 19.75 15.1777V15.1816C19.7514 15.3862 19.7124 15.5893 19.6357 15.7783C19.5591 15.9672 19.4461 16.1384 19.3037 16.2822L19.3027 16.2832C19.0193 16.5711 18.637 16.7353 18.2373 16.7412C17.8374 16.747 17.4498 16.5941 17.1582 16.3145L17.1406 16.2988L15.8789 15.3008C15.7929 15.2329 15.6723 15.229 15.582 15.291C15.4919 15.3531 15.4528 15.4668 15.4854 15.5713L17.2568 21.2588C17.2595 21.2673 17.262 21.276 17.2656 21.2842C17.4241 21.6473 17.4382 22.0583 17.3047 22.4316C17.162 22.8229 16.8738 23.1407 16.5029 23.3164L16.5 23.3174C16.3002 23.4152 16.0809 23.466 15.8594 23.4648L15.7236 23.458C15.588 23.4459 15.4539 23.4164 15.3252 23.3701C14.9606 23.2304 14.6593 22.9579 14.4805 22.6045C14.477 22.5977 14.4728 22.5904 14.4688 22.584L12.2324 19.0107C12.1867 18.9377 12.1067 18.8936 12.0205 18.8936C11.9557 18.8936 11.8945 18.9184 11.8486 18.9619L11.8086 19.0107L9.57227 22.584L9.56055 22.6045C9.38067 22.9614 9.07485 23.2351 8.70508 23.3711H8.7041C8.51645 23.4411 8.31676 23.4731 8.11719 23.4639C7.91746 23.4545 7.72077 23.4047 7.54004 23.3174L7.53711 23.3154C7.35315 23.2297 7.18725 23.1075 7.0498 22.9561C6.91254 22.8047 6.80563 22.6273 6.73633 22.4336H6.7373C6.62098 22.1058 6.6142 21.7495 6.7168 21.4199L6.77539 21.2588L8.55566 15.5713C8.5882 15.4667 8.54921 15.3531 8.45898 15.291C8.36864 15.2289 8.24813 15.2328 8.16211 15.3008L6.90039 16.2988L6.87793 16.3193C6.58884 16.6124 6.19736 16.7764 5.79004 16.7764C5.38272 16.7764 4.99123 16.6124 4.70215 16.3193C4.41295 16.0261 4.25 15.6271 4.25 15.2109C4.25011 14.795 4.41309 14.3966 4.70215 14.1035C4.70942 14.0961 4.71635 14.0883 4.72266 14.0801L8.22852 9.50195L8.28027 9.4502H8.28125C8.49009 9.23721 8.73851 9.06882 9.01172 8.9541C9.28489 8.83942 9.57759 8.78034 9.87305 8.78125Z" fill="#7CC4FF" stroke="white" stroke-width="0.5" stroke-linejoin="round"/>
<path d="M14.5 10L18 6H23.5" stroke="#91A7EE" stroke-linecap="round" stroke-linejoin="round"/>
<path d="M19 8H23.5" stroke="#798AC3" stroke-linecap="round" stroke-linejoin="round"/>
<path d="M19 10H23.5" stroke="#798AC3" stroke-linecap="round" stroke-linejoin="round"/>
<path d="M21.5 12L23.5 12" stroke="#798AC3" stroke-linecap="round" stroke-linejoin="round"/>
</svg>
