<svg width="25" height="23" viewBox="0 0 25 23" fill="none" xmlns="http://www.w3.org/2000/svg">
<path d="M20.006 20.6875C22.1553 18.7216 23.5034 15.8941 23.5034 12.7517C23.5034 6.81371 18.6897 2 12.7517 2C6.81371 2 2 6.81371 2 12.7517C2 15.8941 3.34808 18.7216 5.49747 20.6875" stroke="#ECECEC" stroke-width="2.4375" stroke-linecap="round"/>
<path d="M2 12.752C2 15.8943 3.34808 18.7219 5.49747 20.6877" stroke="#39B695" stroke-width="3" stroke-linecap="round"/>
<path d="M15.4083 13.1019C15.043 12.7585 14.5342 12.6051 14.0262 12.6852C11.6923 13.068 9.36039 13.4615 7.03057 13.8615C6.85023 13.9006 6.68413 14.0022 6.56505 14.1465C6.40828 14.3496 6.3718 14.6203 6.4702 14.8504C6.5686 15.0805 6.7872 15.2376 7.04036 15.2538C7.90883 15.4025 8.78383 15.549 9.65921 15.6695C11.1247 15.871 12.5901 16.0768 14.0627 16.2328C14.8155 16.2965 15.5324 15.8548 15.8286 15.1547C16.138 14.4372 15.9704 13.6156 15.4105 13.0997L15.4083 13.1019Z" fill="#39B695"/>
</svg>
