<svg width="28" height="28" viewBox="0 0 28 28" fill="none" xmlns="http://www.w3.org/2000/svg">
<path d="M19.9404 12.4982C19.8671 8.46138 16.5351 5.24828 12.4982 5.32157C8.46138 5.39487 5.24828 8.72682 5.32157 12.7637C5.39487 16.8005 8.72682 20.0137 12.7637 19.9404L12.8027 22.0902C7.57854 22.185 3.26661 18.0269 3.17175 12.8027C3.0769 7.57854 7.23503 3.26661 12.4592 3.17175C17.6834 3.0769 21.9953 7.23503 22.0902 12.4592C22.185 17.6834 18.0269 21.9953 12.8027 22.0902L12.7637 19.9404C16.8005 19.8671 20.0137 16.5351 19.9404 12.4982Z" fill="#1A1A1A"/>
<path d="M18.4568 18.184C18.8872 17.775 19.5681 17.7924 19.9772 18.2227L24.8005 23.2964C25.2094 23.7267 25.192 24.4077 24.7617 24.8168C24.3314 25.2257 23.6504 25.2083 23.2413 24.778L18.4181 19.7043C18.0091 19.274 18.0265 18.593 18.4568 18.184Z" fill="#1A1A1A"/>
</svg>
