<svg width="24" height="24" viewBox="0 0 24 24" fill="none" xmlns="http://www.w3.org/2000/svg">
<g clip-path="url(#clip0_1896_68672)">
<path d="M16.5146 20.5593H7.48789C4.83563 20.5593 2.64406 18.4912 2.48883 15.844L2.07321 8.74678C1.90463 5.87085 4.19135 3.44727 7.07228 3.44727H16.9285C19.8095 3.44727 22.0962 5.87085 21.9276 8.74678L21.512 15.844C21.3568 18.4912 19.1652 20.5593 16.5129 20.5593H16.5146Z" fill="#82A2E7"/>
<path d="M14.4044 5.01758H9.2234C8.94685 5.01758 8.72266 5.22383 8.72266 5.47825V7.83229C8.72266 8.08672 8.94685 8.29297 9.2234 8.29297H14.4044C14.681 8.29297 14.9051 8.08672 14.9051 7.83229V5.47825C14.9051 5.22383 14.681 5.01758 14.4044 5.01758Z" fill="white"/>
<path d="M5.46512 11.9444C5.46512 11.9444 5.57874 10.629 6.6567 10.1964C7.73466 9.76375 8.74416 10.1745 9.04715 11.1243C9.35014 12.0741 9.27731 12.9816 9.04715 14.1892C8.70191 16.0013 9.82357 16.3903 9.2205 17.34C8.61742 18.2898 6.41489 18.2898 5.76812 15.2249C5.40685 12.782 5.46658 11.9444 5.46658 11.9444H5.46512Z" fill="#D8E4FF"/>
<path d="M18.1616 11.9444C18.1616 11.9444 18.0479 10.629 16.97 10.1964C15.892 9.76375 14.8825 10.1745 14.5795 11.1243C14.278 12.0741 14.3494 12.9816 14.5795 14.1892C14.9248 16.0013 13.8031 16.3903 14.4062 17.34C15.0093 18.2898 17.2118 18.2898 17.8586 15.2249C18.2198 12.782 18.1601 11.9444 18.1601 11.9444H18.1616Z" fill="#D8E4FF"/>
<path d="M11.7031 6.20408L10.9727 8.29273C10.9727 8.29273 12.4634 8.29273 12.6303 8.29273C12.585 8.13276 11.9252 6.20408 11.9252 6.20408C11.9041 6.11687 11.7278 6.11687 11.7031 6.20408Z" fill="#434343"/>
</g>
<defs>
<clipPath id="clip0_1896_68672">
<rect width="19.8711" height="17.112" fill="white" transform="translate(2.06445 3.44434)"/>
</clipPath>
</defs>
</svg>
