<svg width="22" height="22" viewBox="0 0 22 22" fill="none" xmlns="http://www.w3.org/2000/svg">
<path d="M15.4639 2.5C18.3767 2.5 20.6592 5.02378 20.4912 7.9834L20.1152 14.6191C19.9604 17.3447 17.7695 19.4983 15.0889 19.499V19.5H6.91211C4.23104 19.4998 2.03961 17.345 1.88477 14.6191L1.50879 7.9834C1.34076 5.02378 3.62334 2.5 6.53613 2.5H15.4639Z" fill="#CACACA" stroke="#CACACA"/>
<path d="M13.2993 4.88086H8.69857C8.45299 4.88086 8.25391 5.07994 8.25391 5.32552V7.59773C8.25391 7.84331 8.45299 8.0424 8.69857 8.0424H13.2993C13.5449 8.0424 13.744 7.84331 13.744 7.59773V5.32552C13.744 5.07994 13.5449 4.88086 13.2993 4.88086Z" fill="white"/>
<path d="M4.85393 11.393C4.85393 11.393 4.97427 9.99976 6.116 9.54152C7.25773 9.08329 8.32695 9.51838 8.64787 10.5243C8.96879 11.5303 8.89165 12.4915 8.64787 13.7706C8.28221 15.6899 9.47023 16.1019 8.83147 17.1078C8.19272 18.1138 5.85988 18.1138 5.17485 14.8675C4.79221 12.2801 4.85547 11.393 4.85547 11.393H4.85393Z" fill="white"/>
<path d="M17.0488 11.393C17.0488 11.393 16.9284 9.99976 15.7867 9.54152C14.645 9.08329 13.5758 9.51838 13.2548 10.5243C12.9355 11.5303 13.0111 12.4915 13.2548 13.7706C13.6205 15.6899 12.4325 16.1019 13.0712 17.1078C13.71 18.1138 16.0428 18.1138 16.7279 14.8675C17.1105 12.2801 17.0472 11.393 17.0472 11.393H17.0488Z" fill="white"/>
</svg>
