<svg width="34" height="34" viewBox="0 0 34 34" fill="none" xmlns="http://www.w3.org/2000/svg">
<circle cx="16.4078" cy="8.55219" r="1.75863" transform="rotate(-15 16.4078 8.55219)" fill="#39B695"/>
<path d="M19.0207 18.4429L12.6306 15.6462L12.3013 17.2122C12.1783 17.7973 12.4848 18.388 13.034 18.6245L17.4972 20.5458L17.4972 22.2979C17.4972 22.8565 17.9501 23.3093 18.5087 23.3093C19.0673 23.3093 19.5201 22.8565 19.5201 22.2979L19.5201 19.2067C19.5201 18.8755 19.3241 18.5757 19.0207 18.4429Z" fill="#39B695"/>
<path d="M15.4118 15.5782L19.3529 14.8521C19.8013 14.7695 20.0839 14.322 19.9659 13.8816C19.8671 13.5129 19.5164 13.2696 19.1364 13.3062L16.417 13.5681L15.4118 15.5782Z" fill="#39B695"/>
<path d="M13.6249 10.5495C13.9575 10.3562 14.3731 10.3758 14.6855 10.6003L15.7353 11.3551C16.4058 11.8369 16.7238 12.6727 16.5429 13.4782L15.6123 17.6217L14.5126 17.0358L12.9218 21.8659C12.8927 21.9542 12.8519 22.0382 12.8007 22.1159L10.6074 25.4489C10.2768 25.9509 9.60912 26.1028 9.0937 25.7936C8.56247 25.4749 8.39 24.7857 8.70893 24.2545L10.7421 20.8688L12.2714 15.8405L12.2685 15.8395L12.3955 15.4333L12.5009 15.0895H12.5039L13.2158 12.8288L10.9921 14.2047L11.7421 15.5045C11.9502 15.8649 11.827 16.3257 11.4667 16.5338C11.1063 16.742 10.6446 16.6189 10.4365 16.2585L9.24116 14.1862C8.9809 13.7352 9.13473 13.1587 9.58491 12.8971L13.6249 10.5495Z" fill="#39B695"/>
<path d="M25.759 21.8688H20.8874V24.4482H15.0462L15.0462 27.396H9.20508" stroke="#39B695" stroke-width="1.25616"/>
</svg>
