<svg width="18" height="18" viewBox="0 0 18 18" fill="none" xmlns="http://www.w3.org/2000/svg">
<g clip-path="url(#clip0_3459_29819)">
<path d="M10.7556 2.05886C11.289 2.2018 11.6056 2.75014 11.4627 3.2836C11.3197 3.81707 10.7714 4.13365 10.2379 3.99071C7.30385 3.20453 4.288 4.94573 3.50182 7.8798C2.71564 10.8139 4.45685 13.8297 7.39091 14.6159C8.89762 15.0196 10.4242 14.7577 11.6624 14.0084C12.8354 13.2986 13.7444 12.1547 14.127 10.7268C14.2699 10.1933 14.8183 9.87676 15.3518 10.0197C15.8852 10.1626 16.2018 10.711 16.0589 11.2444C15.5374 13.1905 14.295 14.7532 12.6982 15.7195C11.0132 16.7392 8.92762 17.0982 6.87327 16.5477C2.87227 15.4757 0.497906 11.3632 1.56997 7.36216C2.64203 3.36116 6.75456 0.986793 10.7556 2.05886Z" fill="#CACACA"/>
<path d="M12.8594 6.23144C13.2836 5.8779 13.915 5.93518 14.2685 6.35937C14.6221 6.78362 14.5648 7.41497 14.1406 7.76855L10.4385 10.8525L8.29295 8.70703C7.90243 8.3165 7.90243 7.68349 8.29295 7.29297C8.68348 6.90244 9.31649 6.90244 9.70702 7.29297L10.5605 8.14648L12.8594 6.23144Z" fill="#CACACA"/>
</g>
<defs>
<clipPath id="clip0_3459_29819">
<rect width="18" height="18" fill="white"/>
</clipPath>
</defs>
</svg>
