<svg width="24" height="24" viewBox="0 0 24 24" fill="none" xmlns="http://www.w3.org/2000/svg">
<path fill-rule="evenodd" clip-rule="evenodd" d="M8.25 8C8.53408 8 8.79378 8.1605 8.92082 8.41459L11.25 13.0729L13.5792 8.41459C13.7062 8.1605 13.9659 8 14.25 8C14.5341 8 14.7938 8.1605 14.9208 8.41459L16.2135 11H21.25C21.6642 11 22 11.3358 22 11.75C22 12.1642 21.6642 12.5 21.25 12.5H15.75C15.4659 12.5 15.2062 12.3395 15.0792 12.0854L14.25 10.4271L11.9208 15.0854C11.7938 15.3395 11.5341 15.5 11.25 15.5C10.9659 15.5 10.7062 15.3395 10.5792 15.0854L8.25 10.4271L7.42082 12.0854C7.29378 12.3395 7.03408 12.5 6.75 12.5H2.75C2.33579 12.5 2 12.1642 2 11.75C2 11.3358 2.33579 11 2.75 11H6.28647L7.57918 8.41459C7.70622 8.1605 7.96592 8 8.25 8Z" fill="#F87171"/>
<path d="M14.25 7.59961C14.6854 7.59961 15.0834 7.84598 15.2783 8.23535L16.46 10.5996H21.25C21.8851 10.5996 22.4004 11.1149 22.4004 11.75C22.4004 12.3851 21.8851 12.9004 21.25 12.9004H15.75C15.3146 12.9004 14.9166 12.654 14.7217 12.2646L14.249 11.3203L12.2783 15.2646C12.0834 15.654 11.6854 15.9004 11.25 15.9004C10.8146 15.9004 10.4166 15.654 10.2217 15.2646L8.25 11.3203L7.77832 12.2646C7.58345 12.654 7.18544 12.9004 6.75 12.9004H2.75C2.11487 12.9004 1.59961 12.3851 1.59961 11.75C1.59961 11.1149 2.11487 10.5996 2.75 10.5996H6.04004L7.22168 8.23535C7.41655 7.84598 7.81456 7.59961 8.25 7.59961C8.68544 7.59961 9.08345 7.84598 9.27832 8.23535L11.25 12.1787L13.2217 8.23535C13.4166 7.84598 13.8146 7.59961 14.25 7.59961Z" fill="#F87171"/>
</svg>
