<svg width="24" height="24" viewBox="0 0 24 24" fill="none" xmlns="http://www.w3.org/2000/svg">
<rect x="4" y="2" width="17" height="20" rx="1.5" fill="#D4E3F5"/>
<path d="M6 14.3008C6 13.8866 6.33579 13.5508 6.75 13.5508H10.75C11.1642 13.5508 11.5 13.8866 11.5 14.3008C11.5 14.715 11.1642 15.0508 10.75 15.0508H6.75C6.33579 15.0508 6 14.715 6 14.3008Z" fill="#84B6EF"/>
<path d="M6 16.8008C6 16.3866 6.33579 16.0508 6.75 16.0508H10.75C11.1642 16.0508 11.5 16.3866 11.5 16.8008C11.5 17.215 11.1642 17.5508 10.75 17.5508H6.75C6.33579 17.5508 6 17.215 6 16.8008Z" fill="#84B6EF"/>
<rect x="6" y="5" width="13" height="6" rx="1" fill="#84B6EF"/>
<rect x="13" y="12.5518" width="6" height="6" rx="1" fill="#84B6EF"/>
</svg>
