<svg width="50" height="50" viewBox="0 0 50 50" fill="none" xmlns="http://www.w3.org/2000/svg">
<rect width="50" height="50" rx="17.5" fill="#F6F7F9"/>
<g clip-path="url(#clip0_3199_9771)">
<path d="M23.5053 11.5653C21.2342 13.7949 18.2803 15.3297 14.982 15.8255C13.9162 15.9858 13.1235 16.8942 13.1235 17.9749V20.905C13.1235 30.4139 20.7384 36.5385 23.7724 38.6017C24.5146 39.1064 25.4854 39.1064 26.2246 38.6017C29.2587 36.5385 36.8735 30.4139 36.8735 20.905V17.9749C36.8735 16.8972 36.0809 15.9888 35.0151 15.8255C31.7198 15.3297 28.7629 13.7949 26.4918 11.5653C25.6695 10.7578 24.3276 10.7578 23.5053 11.5653Z" fill="#5ACCAE"/>
<path d="M26.155 19.2732C26.6301 19.2734 27.0154 19.6584 27.0154 20.1335V22.8562H29.7371C30.212 22.8565 30.5973 23.2416 30.5974 23.7166V26.1267C30.5974 26.6018 30.2121 26.9868 29.7371 26.9871H27.0154V29.7097C27.0152 30.1847 26.63 30.5699 26.155 30.5701H23.7449C23.2697 30.5701 22.8847 30.1848 22.8845 29.7097V26.9871H20.1609C19.6857 26.9871 19.2996 26.6019 19.2996 26.1267V23.7166C19.2997 23.2414 19.6857 22.8562 20.1609 22.8562H22.8845V20.1335C22.8845 19.6583 23.2696 19.2732 23.7449 19.2732H26.155Z" fill="white"/>
</g>
<defs>
<clipPath id="clip0_3199_9771">
<rect width="23.75" height="28.022" fill="white" transform="translate(13.125 10.9623)"/>
</clipPath>
</defs>
</svg>
