<svg width="11" height="11" viewBox="0 0 11 11" fill="none" xmlns="http://www.w3.org/2000/svg">
<g clip-path="url(#clip0_2830_7342)">
<path d="M5.01563 7.57715C6.39634 7.57715 7.51562 6.45786 7.51562 5.07715C7.51562 3.69644 6.39634 2.57715 5.01563 2.57715C3.63491 2.57715 2.51562 3.69644 2.51562 5.07715C2.51562 6.45786 3.63491 7.57715 5.01563 7.57715Z" fill="#39B695"/>
<path d="M5.51562 0.5C5.51562 0.223858 5.29177 0 5.01562 0C4.73948 0 4.51562 0.223858 4.51562 0.5V1.5C4.51562 1.77614 4.73948 2 5.01562 2C5.29177 2 5.51562 1.77614 5.51562 1.5V0.5Z" fill="#39B695"/>
<path d="M8.59574 2.1632C8.791 1.96794 8.791 1.65135 8.59574 1.45609C8.40048 1.26083 8.0839 1.26083 7.88863 1.45609L7.18153 2.1632C6.98627 2.35846 6.98627 2.67504 7.18153 2.87031C7.37679 3.06557 7.69337 3.06557 7.88863 2.87031L8.59574 2.1632Z" fill="#39B695"/>
<path d="M9.60162 5.51758C9.87777 5.51758 10.1016 5.29372 10.1016 5.01758C10.1016 4.74144 9.87777 4.51758 9.60162 4.51758H8.60162C8.32548 4.51758 8.10162 4.74144 8.10162 5.01758C8.10162 5.29372 8.32548 5.51758 8.60162 5.51758H9.60162Z" fill="#39B695"/>
<path d="M7.93543 8.59769C8.1307 8.79296 8.44728 8.79296 8.64254 8.59769C8.8378 8.40243 8.8378 8.08585 8.64254 7.89059L7.93543 7.18348C7.74017 6.98822 7.42359 6.98822 7.22833 7.18348C7.03306 7.37874 7.03306 7.69533 7.22833 7.89059L7.93543 8.59769Z" fill="#39B695"/>
<path d="M4.58203 9.59863C4.58203 9.87478 4.80589 10.0986 5.08203 10.0986C5.35817 10.0986 5.58203 9.87478 5.58203 9.59863V8.59863C5.58203 8.32249 5.35817 8.09863 5.08203 8.09863C4.80589 8.09863 4.58203 8.32249 4.58203 8.59863V9.59863Z" fill="#39B695"/>
<path d="M1.50192 7.93543C1.30665 8.1307 1.30665 8.44728 1.50192 8.64254C1.69718 8.8378 2.01376 8.8378 2.20902 8.64254L2.91613 7.93543C3.11139 7.74017 3.11139 7.42359 2.91613 7.22833C2.72087 7.03306 2.40428 7.03306 2.20902 7.22833L1.50192 7.93543Z" fill="#39B695"/>
<path d="M0.5 4.58105C0.223858 4.58105 0 4.80491 0 5.08105C0 5.3572 0.223858 5.58105 0.5 5.58105H1.5C1.77614 5.58105 2 5.3572 2 5.08105C2 4.80491 1.77614 4.58105 1.5 4.58105H0.5Z" fill="#39B695"/>
<path d="M2.16222 1.50094C1.96696 1.30568 1.65038 1.30568 1.45512 1.50094C1.25985 1.6962 1.25985 2.01278 1.45512 2.20805L2.16222 2.91515C2.35748 3.11041 2.67407 3.11041 2.86933 2.91515C3.06459 2.71989 3.06459 2.40331 2.86933 2.20805L2.16222 1.50094Z" fill="#39B695"/>
</g>
<defs>
<clipPath id="clip0_2830_7342">
<rect width="11" height="11" fill="white"/>
</clipPath>
</defs>
</svg>
