<svg width="24" height="24" viewBox="0 0 24 24" fill="none" xmlns="http://www.w3.org/2000/svg">
<rect width="24" height="24" fill="white"/>
<rect x="3.25195" y="16.2051" width="4" height="5.28711" rx="1" fill="#3ACFA0"/>
<rect x="15.5488" y="7.26953" width="4" height="14.2227" rx="1" fill="#3ACFA0"/>
<rect x="9.06055" y="11.8164" width="4" height="9.67578" rx="1" fill="#3ACFA0"/>
<path d="M4.69727 5.73438C4.20009 5.73486 3.77738 6.54598 3.60938 7.6875C2.46826 7.85559 1.65772 8.2793 1.65723 8.77637C1.65723 9.27361 2.46799 9.69708 3.60938 9.86523C3.77748 11.0062 4.20023 11.8169 4.69727 11.8174C5.19452 11.8174 5.61897 11.0067 5.78711 9.86523C6.92893 9.69717 7.74023 9.27373 7.74023 8.77637C7.73975 8.27918 6.92866 7.8555 5.78711 7.6875C5.61906 6.54556 5.19466 5.73438 4.69727 5.73438Z" fill="#FFAE00"/>
<path d="M10.0889 3C9.70455 3 9.37792 3.62649 9.24805 4.50879C8.36631 4.63873 7.74037 4.96645 7.74023 5.35059C7.74023 5.73475 8.36631 6.06143 9.24805 6.19141C9.37798 7.0734 9.70463 7.7002 10.0889 7.7002C10.473 7.69992 10.8008 7.07331 10.9307 6.19141C11.8132 6.06159 12.4404 5.73498 12.4404 5.35059C12.4403 4.96622 11.8132 4.63858 10.9307 4.50879C10.8008 3.62657 10.4731 3.00028 10.0889 3Z" fill="#FFAE00"/>
</svg>
