<svg width="21" height="21" viewBox="0 0 21 21" fill="none" xmlns="http://www.w3.org/2000/svg">
<rect width="20.25" height="20.25" rx="10.125" fill="black" fill-opacity="0.2"/>
<path d="M8.38367 12.2434C8.3985 10.4043 8.88794 9.82587 9.77783 9.2771C10.4156 8.86182 10.905 8.40204 10.905 7.71979C10.905 6.97821 10.3266 6.48877 9.61469 6.48877C8.9176 6.48877 8.27985 6.94855 8.25018 7.82361H6.1441C6.1886 5.73236 7.73108 4.73865 9.62952 4.73865C11.6911 4.73865 13.1594 5.82135 13.1594 7.64563C13.1594 8.86182 12.5365 9.64789 11.5576 10.2263C10.7271 10.7306 10.3563 11.2052 10.3414 12.2434V12.4066H8.38367V12.2434ZM9.40704 15.7585C8.70996 15.7585 8.14636 15.1949 8.16119 14.5126C8.14636 13.8304 8.70996 13.2816 9.40704 13.2816C10.0596 13.2816 10.6381 13.8304 10.6381 14.5126C10.6381 15.1949 10.0596 15.7585 9.40704 15.7585Z" fill="white"/>
</svg>
