<svg width="18" height="18" viewBox="0 0 18 18" fill="none" xmlns="http://www.w3.org/2000/svg">
<path d="M7.72724 2H2.63636C2.28491 2 2 2.28491 2 2.63636V7.72727C2 8.07872 2.28491 8.36363 2.63636 8.36363H7.72724C8.07869 8.36363 8.3636 8.07872 8.3636 7.72727V2.63636C8.3636 2.28491 8.07869 2 7.72724 2Z" fill="#CACACA"/>
<path d="M15.3637 2H10.2728C9.92132 2 9.63641 2.28491 9.63641 2.63636V7.72727C9.63641 8.07872 9.92132 8.36363 10.2728 8.36363H15.3637C15.7151 8.36363 16 8.07872 16 7.72727V2.63636C16 2.28491 15.7151 2 15.3637 2Z" fill="#CACACA"/>
<path d="M7.72724 9.63635H2.63636C2.28491 9.63635 2 9.92126 2 10.2727V15.3636C2 15.7151 2.28491 16 2.63636 16H7.72724C8.07869 16 8.3636 15.7151 8.3636 15.3636V10.2727C8.3636 9.92126 8.07869 9.63635 7.72724 9.63635Z" fill="#CACACA"/>
<path d="M15.3637 9.63635H10.2728C9.92132 9.63635 9.63641 9.92126 9.63641 10.2727V15.3636C9.63641 15.7151 9.92132 16 10.2728 16H15.3637C15.7151 16 16 15.7151 16 15.3636V10.2727C16 9.92126 15.7151 9.63635 15.3637 9.63635Z" fill="#CACACA"/>
</svg>
