<svg width="24" height="24" viewBox="0 0 24 24" fill="none" xmlns="http://www.w3.org/2000/svg">
<path d="M20.9906 6.13125L19.8469 12.4031C19.7525 12.9212 19.4794 13.3898 19.0751 13.7273C18.6709 14.0648 18.161 14.2497 17.6344 14.25H6.75938L7.17188 16.5H17.25C17.695 16.5 18.13 16.632 18.5 16.8792C18.87 17.1264 19.1584 17.4778 19.3287 17.889C19.499 18.3001 19.5436 18.7525 19.4568 19.189C19.37 19.6254 19.1557 20.0263 18.841 20.341C18.5263 20.6557 18.1254 20.87 17.689 20.9568C17.2525 21.0436 16.8001 20.999 16.389 20.8287C15.9778 20.6584 15.6264 20.37 15.3792 20C15.132 19.63 15 19.195 15 18.75C15.0001 18.4943 15.0445 18.2405 15.1313 18H9.61875C9.70551 18.2405 9.74992 18.4943 9.75 18.75C9.75068 19.113 9.66351 19.4708 9.49593 19.7928C9.32835 20.1149 9.08534 20.3916 8.78764 20.5993C8.48994 20.8071 8.1464 20.9397 7.78632 20.9859C7.42625 21.0321 7.06035 20.9905 6.71985 20.8646C6.37935 20.7387 6.07436 20.5323 5.83092 20.2631C5.58747 19.9938 5.4128 19.6696 5.32182 19.3181C5.23083 18.9667 5.22623 18.5985 5.30841 18.2449C5.39059 17.8913 5.55711 17.5628 5.79375 17.2875L3.19688 3H1.5C1.30109 3 1.11032 2.92098 0.96967 2.78033C0.829018 2.63968 0.75 2.44891 0.75 2.25C0.75 2.05109 0.829018 1.86032 0.96967 1.71967C1.11032 1.57902 1.30109 1.5 1.5 1.5H3.19688C3.54697 1.50077 3.88578 1.62397 4.15459 1.84827C4.42341 2.07256 4.6053 2.38382 4.66875 2.72813L5.12813 5.25H20.25C20.3595 5.25023 20.4676 5.27473 20.5665 5.32174C20.6653 5.36875 20.7526 5.4371 20.8219 5.52188C20.8944 5.60399 20.9473 5.70152 20.9765 5.8071C21.0058 5.91268 21.0106 6.02353 20.9906 6.13125Z" fill="#CACACA"/>
</svg>
