<svg width="16" height="16" viewBox="0 0 16 16" fill="none" xmlns="http://www.w3.org/2000/svg">
<path d="M7.5 13C4.46235 13 2 10.5377 2 7.5C2 4.46235 4.46235 2 7.5 2C10.5377 2 13 4.46235 13 7.5C13 10.5377 10.5377 13 7.5 13ZM7.5 11.9C8.66695 11.9 9.78611 11.4364 10.6113 10.6113C11.4364 9.78611 11.9 8.66695 11.9 7.5C11.9 6.33305 11.4364 5.21389 10.6113 4.38873C9.78611 3.56357 8.66695 3.1 7.5 3.1C6.33305 3.1 5.21389 3.56357 4.38873 4.38873C3.56357 5.21389 3.1 6.33305 3.1 7.5C3.1 8.66695 3.56357 9.78611 4.38873 10.6113C5.21389 11.4364 6.33305 11.9 7.5 11.9ZM8.05 7.5H10.25V8.6H6.95V4.75H8.05V7.5Z" fill="#39B695"/>
</svg>
