<svg width="343" height="67" viewBox="0 0 343 67" fill="none" xmlns="http://www.w3.org/2000/svg">
<rect width="343" height="45" transform="translate(0 22)" fill="white"/>
<g clip-path="url(#clip0_3070_9849)">
<rect y="22" width="343" height="26" rx="13" fill="white"/>
<path d="M0 35C0 27.8203 5.8203 22 13 22H85.75V48H13C5.8203 48 0 42.1797 0 35V35Z" fill="#F2F4F9"/>
<path d="M15.7852 31.0156H21.2227V32.293H17.3086V34.6133H20.8477V35.8906H17.3086V39.5H15.7852V31.0156ZM21.5898 37.707C21.5898 37.0508 21.8105 36.5781 22.252 36.2891C22.6973 35.9961 23.2656 35.8281 23.957 35.7852C24.6328 35.7383 25.1758 35.707 25.5859 35.6914V35.1875C25.5859 34.8711 25.4863 34.627 25.2871 34.4551C25.0879 34.2793 24.8047 34.1914 24.4375 34.1914C24.1133 34.1914 23.8477 34.2598 23.6406 34.3965C23.4336 34.5332 23.3008 34.7188 23.2422 34.9531H21.8008C21.8359 34.5898 21.9648 34.2656 22.1875 33.9805C22.4102 33.6914 22.7168 33.4648 23.1074 33.3008C23.498 33.1367 23.9531 33.0547 24.4727 33.0547C24.918 33.0547 25.3359 33.125 25.7266 33.2656C26.1211 33.4023 26.4434 33.6348 26.6934 33.9629C26.9473 34.2871 27.0742 34.7148 27.0742 35.2461V39.5H25.6445V38.6211H25.5977C25.4414 38.918 25.207 39.1602 24.8945 39.3477C24.582 39.5352 24.1914 39.6289 23.7227 39.6289C23.3125 39.6289 22.9453 39.5547 22.6211 39.4062C22.3008 39.2578 22.0488 39.0391 21.8652 38.75C21.6816 38.4609 21.5898 38.1133 21.5898 37.707ZM23.0312 37.6953C23.0312 37.9648 23.1289 38.1719 23.3242 38.3164C23.5195 38.457 23.7812 38.5273 24.1094 38.5273C24.4023 38.5273 24.6621 38.4688 24.8887 38.3516C25.1152 38.2344 25.2891 38.0762 25.4102 37.877C25.5352 37.6738 25.5977 37.4531 25.5977 37.2148L25.5918 36.6934L24.1914 36.7812C23.8242 36.8125 23.5391 36.9043 23.3359 37.0566C23.1328 37.209 23.0312 37.4219 23.0312 37.6953ZM27.9805 33.1367H29.4102V34.2148H29.4922C29.6211 33.8516 29.8379 33.5684 30.1426 33.3652C30.4512 33.1582 30.8164 33.0547 31.2383 33.0547C31.668 33.0547 32.0312 33.1562 32.3281 33.3594C32.625 33.5625 32.8359 33.8477 32.9609 34.2148H33.0312C33.1719 33.8594 33.4102 33.5781 33.7461 33.3711C34.0859 33.1602 34.4844 33.0547 34.9414 33.0547C35.332 33.0547 35.6758 33.1387 35.9727 33.3066C36.2734 33.4707 36.5059 33.7168 36.6699 34.0449C36.8379 34.3691 36.9219 34.7617 36.9219 35.2227V39.5H35.4336V35.457C35.4336 35.0781 35.332 34.793 35.1289 34.6016C34.9297 34.4062 34.668 34.3086 34.3438 34.3086C33.9805 34.3086 33.6953 34.4219 33.4883 34.6484C33.2852 34.8711 33.1836 35.1641 33.1836 35.5273V39.5H31.7305V35.3984C31.7305 35.1836 31.6836 34.9941 31.5898 34.8301C31.5 34.6621 31.373 34.5332 31.209 34.4434C31.0488 34.3535 30.8633 34.3086 30.6523 34.3086C30.4375 34.3086 30.2402 34.3652 30.0605 34.4785C29.8848 34.5879 29.7441 34.7441 29.6387 34.9473C29.5332 35.1465 29.4805 35.375 29.4805 35.6328V39.5H27.9805V33.1367ZM37.8516 33.1367H39.3516V39.5H37.8516V33.1367ZM38.6133 32.2344C38.4609 32.2344 38.3164 32.1992 38.1797 32.1289C38.0469 32.0547 37.9414 31.9551 37.8633 31.8301C37.7852 31.7012 37.7461 31.5625 37.7461 31.4141C37.7461 31.2695 37.7852 31.1348 37.8633 31.0098C37.9414 30.8848 38.0469 30.7871 38.1797 30.7168C38.3164 30.6426 38.4609 30.6055 38.6133 30.6055C38.7695 30.6055 38.9141 30.6426 39.0469 30.7168C39.1797 30.7871 39.2852 30.8848 39.3633 31.0098C39.4414 31.1348 39.4805 31.2695 39.4805 31.4141C39.4805 31.5625 39.4414 31.7012 39.3633 31.8301C39.2852 31.9551 39.1797 32.0547 39.0469 32.1289C38.9141 32.1992 38.7695 32.2344 38.6133 32.2344ZM41.7812 39.5H40.2812V31.0156H41.7812V39.5ZM43.6133 41.8906C43.2852 41.8906 43.0273 41.8789 42.8398 41.8555V40.6602C43.0898 40.6758 43.3008 40.6836 43.4727 40.6836C43.6211 40.6836 43.7441 40.6699 43.8418 40.6426C43.9434 40.6152 44.041 40.5488 44.1348 40.4434C44.2285 40.3418 44.3164 40.1836 44.3984 39.9688L44.5273 39.6289L42.207 33.1367H43.7891L45.2656 37.9414H45.3359L46.8125 33.1367H48.3945L45.8398 40.2734C45.6523 40.8047 45.3789 41.207 45.0195 41.4805C44.6602 41.7539 44.1914 41.8906 43.6133 41.8906Z" fill="#A2A9B4"/>
<rect width="85.75" height="26" transform="translate(85.75 22)" fill="#F2F4F9"/>
<path d="M103.152 33.3477C103.117 32.9883 102.955 32.707 102.666 32.5039C102.381 32.3008 102.008 32.1992 101.547 32.1992C101.234 32.1992 100.961 32.2461 100.727 32.3398C100.492 32.4336 100.312 32.5645 100.188 32.7324C100.062 32.9004 100 33.0898 100 33.3008C100 33.625 100.135 33.877 100.404 34.0566C100.674 34.2324 101.023 34.3711 101.453 34.4727L102.25 34.6836C102.98 34.8516 103.576 35.1309 104.037 35.5215C104.502 35.9082 104.734 36.4414 104.734 37.1211C104.734 37.6172 104.607 38.0547 104.354 38.4336C104.1 38.8125 103.73 39.1074 103.246 39.3184C102.766 39.5254 102.191 39.6289 101.523 39.6289C100.863 39.6289 100.291 39.5273 99.8066 39.3242C99.3223 39.1172 98.9434 38.8184 98.6699 38.4277C98.4004 38.0332 98.2539 37.5586 98.2305 37.0039H99.7305C99.7656 37.4336 99.9453 37.7617 100.27 37.9883C100.598 38.2148 101.012 38.3281 101.512 38.3281C101.844 38.3281 102.139 38.2773 102.396 38.1758C102.654 38.0742 102.854 37.9316 102.994 37.748C103.139 37.5605 103.211 37.3477 103.211 37.1094C103.211 36.8008 103.082 36.5605 102.824 36.3887C102.57 36.2129 102.188 36.0586 101.676 35.9258L100.715 35.6797C99.207 35.2852 98.4531 34.5234 98.4531 33.3945C98.4531 32.9023 98.5879 32.4688 98.8574 32.0938C99.127 31.7148 99.498 31.4219 99.9707 31.2148C100.447 31.0039 100.98 30.8984 101.57 30.8984C102.164 30.8984 102.689 31.0039 103.146 31.2148C103.607 31.4219 103.965 31.7109 104.219 32.082C104.477 32.4531 104.609 32.875 104.617 33.3477H103.152ZM105.43 33.1367H106.93V39.5H105.43V33.1367ZM106.191 32.2344C106.039 32.2344 105.895 32.1992 105.758 32.1289C105.625 32.0547 105.52 31.9551 105.441 31.8301C105.363 31.7012 105.324 31.5625 105.324 31.4141C105.324 31.2695 105.363 31.1348 105.441 31.0098C105.52 30.8848 105.625 30.7871 105.758 30.7168C105.895 30.6426 106.039 30.6055 106.191 30.6055C106.348 30.6055 106.492 30.6426 106.625 30.7168C106.758 30.7871 106.863 30.8848 106.941 31.0098C107.02 31.1348 107.059 31.2695 107.059 31.4141C107.059 31.5625 107.02 31.7012 106.941 31.8301C106.863 31.9551 106.758 32.0547 106.625 32.1289C106.492 32.1992 106.348 32.2344 106.191 32.2344ZM109.359 39.5H107.859V31.0156H109.359V39.5ZM113.699 39.5H112.059L109.785 33.1367H111.379L112.844 37.8711H112.914L114.391 33.1367H115.973L113.699 39.5ZM119.012 39.6289C118.379 39.6289 117.828 39.4961 117.359 39.2305C116.895 38.9609 116.537 38.5801 116.287 38.0879C116.041 37.5957 115.918 37.0195 115.918 36.3594C115.918 35.707 116.043 35.1328 116.293 34.6367C116.543 34.1367 116.895 33.748 117.348 33.4707C117.805 33.1934 118.332 33.0547 118.93 33.0547C119.469 33.0547 119.957 33.1699 120.395 33.4004C120.836 33.6309 121.186 33.9883 121.443 34.4727C121.705 34.9531 121.836 35.5508 121.836 36.2656V36.7344H117.395C117.398 37.0898 117.469 37.3984 117.605 37.6602C117.742 37.918 117.932 38.1152 118.174 38.252C118.416 38.3887 118.699 38.457 119.023 38.457C119.34 38.457 119.609 38.3965 119.832 38.2754C120.055 38.1543 120.215 37.9961 120.312 37.8008H121.777C121.688 38.168 121.518 38.4902 121.268 38.7676C121.018 39.041 120.699 39.2539 120.312 39.4062C119.93 39.5547 119.496 39.6289 119.012 39.6289ZM120.406 35.7148C120.402 35.4258 120.34 35.168 120.219 34.9414C120.098 34.7148 119.928 34.5371 119.709 34.4082C119.49 34.2793 119.238 34.2148 118.953 34.2148C118.66 34.2148 118.398 34.2832 118.168 34.4199C117.941 34.5527 117.762 34.7344 117.629 34.9648C117.496 35.1914 117.42 35.4414 117.4 35.7148H120.406ZM122.496 33.1367H123.949V34.1914H124.02C124.129 33.832 124.326 33.5508 124.611 33.3477C124.896 33.1445 125.223 33.043 125.59 33.043C125.809 33.043 125.988 33.0547 126.129 33.0781V34.4609C126.062 34.4375 125.961 34.416 125.824 34.3965C125.688 34.377 125.559 34.3672 125.438 34.3672C125.164 34.3672 124.918 34.4258 124.699 34.543C124.48 34.6602 124.309 34.8242 124.184 35.0352C124.059 35.2461 123.996 35.4844 123.996 35.75V39.5H122.496V33.1367Z" fill="#A2A9B4"/>
<rect width="85.75" height="26" transform="translate(171.5 22)" fill="#F2F4F9"/>
<path d="M189.969 33.7227C189.832 33.2656 189.59 32.9102 189.242 32.6562C188.898 32.3984 188.473 32.2695 187.965 32.2695C187.504 32.2695 187.096 32.3867 186.74 32.6211C186.385 32.8516 186.107 33.1914 185.908 33.6406C185.709 34.0898 185.609 34.625 185.609 35.2461C185.609 35.8789 185.709 36.4219 185.908 36.875C186.107 37.3242 186.387 37.666 186.746 37.9004C187.105 38.1309 187.523 38.2461 188 38.2461C188.422 38.2461 188.791 38.166 189.107 38.0059C189.424 37.8418 189.67 37.6113 189.846 37.3145C190.021 37.0137 190.113 36.6641 190.121 36.2656H188.152V35.0586H191.598V36.0781C191.598 36.793 191.443 37.418 191.135 37.9531C190.83 38.4844 190.406 38.8945 189.863 39.1836C189.32 39.4727 188.699 39.6172 188 39.6172C187.223 39.6172 186.537 39.4414 185.943 39.0898C185.35 38.7344 184.889 38.2285 184.561 37.5723C184.236 36.916 184.074 36.1445 184.074 35.2578C184.074 34.3711 184.24 33.5996 184.572 32.9434C184.908 32.2832 185.369 31.7773 185.955 31.4258C186.545 31.0742 187.211 30.8984 187.953 30.8984C188.57 30.8984 189.135 31.0176 189.646 31.2559C190.158 31.4941 190.578 31.8281 190.906 32.2578C191.234 32.6836 191.441 33.1719 191.527 33.7227H189.969ZM195.188 39.6289C194.578 39.6289 194.043 39.4922 193.582 39.2188C193.121 38.9453 192.766 38.5625 192.516 38.0703C192.266 37.5742 192.141 37 192.141 36.3477C192.141 35.6914 192.266 35.1152 192.516 34.6191C192.766 34.123 193.121 33.7383 193.582 33.4648C194.043 33.1914 194.578 33.0547 195.188 33.0547C195.801 33.0547 196.338 33.1914 196.799 33.4648C197.26 33.7383 197.613 34.123 197.859 34.6191C198.109 35.1152 198.234 35.6914 198.234 36.3477C198.234 37 198.109 37.5742 197.859 38.0703C197.609 38.5664 197.254 38.9512 196.793 39.2246C196.336 39.4941 195.801 39.6289 195.188 39.6289ZM195.199 38.4336C195.527 38.4336 195.805 38.3418 196.031 38.1582C196.262 37.9746 196.434 37.7246 196.547 37.4082C196.664 37.0918 196.723 36.7344 196.723 36.3359C196.723 35.9414 196.664 35.5859 196.547 35.2695C196.434 34.9492 196.262 34.6973 196.031 34.5137C195.805 34.3301 195.527 34.2383 195.199 34.2383C194.863 34.2383 194.578 34.3301 194.344 34.5137C194.113 34.6973 193.939 34.9473 193.822 35.2637C193.709 35.5801 193.652 35.9375 193.652 36.3359C193.652 36.7344 193.709 37.0918 193.822 37.4082C193.939 37.7246 194.113 37.9746 194.344 38.1582C194.578 38.3418 194.863 38.4336 195.199 38.4336ZM200.395 39.5H198.895V31.0156H200.395V39.5ZM203.691 39.6172C203.188 39.6172 202.736 39.4883 202.338 39.2305C201.943 38.9688 201.633 38.5898 201.406 38.0938C201.18 37.5977 201.066 37.0078 201.066 36.3242C201.066 35.6367 201.182 35.0469 201.412 34.5547C201.643 34.0625 201.957 33.6895 202.355 33.4355C202.754 33.1816 203.203 33.0547 203.703 33.0547C204.547 33.0547 205.152 33.4297 205.52 34.1797H205.578V31.0156H207.066V39.5H205.602V38.4922H205.52C205.145 39.2422 204.535 39.6172 203.691 39.6172ZM204.102 38.3867C204.418 38.3867 204.689 38.3008 204.916 38.1289C205.143 37.957 205.314 37.7148 205.432 37.4023C205.553 37.0898 205.613 36.7266 205.613 36.3125C205.613 35.9023 205.555 35.5449 205.438 35.2402C205.32 34.9316 205.148 34.6934 204.922 34.5254C204.695 34.3574 204.422 34.2734 204.102 34.2734C203.777 34.2734 203.502 34.3594 203.275 34.5312C203.049 34.7031 202.877 34.9434 202.76 35.252C202.646 35.5605 202.59 35.9141 202.59 36.3125C202.59 36.7188 202.648 37.0781 202.766 37.3906C202.883 37.7031 203.055 37.9473 203.281 38.123C203.508 38.2988 203.781 38.3867 204.102 38.3867Z" fill="#A2A9B4"/>
<rect width="85.75" height="26" transform="translate(257.25 22)" fill="url(#paint0_linear_3070_9849)"/>
<path d="M273.363 37.707H273.457L275.672 31.0156H277.348L274.348 39.5H272.473L269.484 31.0156H271.16L273.363 37.707ZM279.379 39.5H277.855V31.0156H279.379V39.5ZM280.461 31.0156H283.648C284.281 31.0156 284.822 31.1348 285.271 31.373C285.721 31.6113 286.061 31.9434 286.291 32.3691C286.521 32.791 286.637 33.2773 286.637 33.8281C286.637 34.375 286.52 34.8613 286.285 35.2871C286.055 35.709 285.713 36.0391 285.26 36.2773C284.807 36.5117 284.262 36.6289 283.625 36.6289H281.984V39.5H280.461V31.0156ZM283.414 35.375C283.969 35.375 284.385 35.2363 284.662 34.959C284.939 34.6777 285.078 34.3008 285.078 33.8281C285.078 33.3516 284.939 32.9766 284.662 32.7031C284.385 32.4297 283.969 32.293 283.414 32.293H281.984V35.375H283.414Z" fill="white"/>
</g>
<g clip-path="url(#clip1_3070_9849)">
<rect width="11" height="26" transform="translate(74.75 22)" fill="#E2E6ED"/>
<rect width="11" height="26" transform="translate(160.5 22)" fill="#E2E6ED"/>
<rect width="11" height="26" transform="translate(246.25 22)" fill="#5669AF"/>
</g>
<path d="M3.39453 63.1074C2.79655 63.1074 2.28271 62.9517 1.85303 62.6401C1.42692 62.3286 1.10107 61.8739 0.875488 61.2759C0.649902 60.6743 0.537109 59.9528 0.537109 59.1113C0.537109 58.277 0.649902 57.5609 0.875488 56.9629C1.10465 56.3613 1.43408 55.903 1.86377 55.5879C2.29346 55.2728 2.80371 55.1152 3.39453 55.1152C3.98535 55.1152 4.49561 55.2728 4.92529 55.5879C5.35498 55.903 5.68262 56.3613 5.9082 56.9629C6.13737 57.5609 6.25195 58.277 6.25195 59.1113C6.25195 59.9528 6.13916 60.6725 5.91357 61.2705C5.68799 61.8685 5.36035 62.325 4.93066 62.6401C4.50098 62.9517 3.98893 63.1074 3.39453 63.1074ZM3.39453 62.0869C3.74544 62.0869 4.04622 61.9741 4.29688 61.7485C4.54753 61.5194 4.7391 61.1828 4.87158 60.7388C5.00407 60.2948 5.07031 59.7523 5.07031 59.1113C5.07031 58.474 5.00228 57.9315 4.86621 57.4839C4.73372 57.0327 4.54215 56.6925 4.2915 56.4634C4.04085 56.2306 3.74186 56.1143 3.39453 56.1143C3.0472 56.1143 2.74821 56.2306 2.49756 56.4634C2.24691 56.6925 2.05355 57.0327 1.91748 57.4839C1.78499 57.9315 1.71875 58.474 1.71875 59.1113C1.71875 59.7523 1.78499 60.2948 1.91748 60.7388C2.04997 61.1828 2.24154 61.5194 2.49219 61.7485C2.74284 61.9741 3.04362 62.0869 3.39453 62.0869Z" fill="#CACACA"/>
<path d="M86.4375 62.1406L89.1338 59.4229C89.4596 59.0791 89.7085 58.8034 89.8804 58.5957C90.0522 58.388 90.1829 58.1857 90.2725 57.9888C90.3656 57.7882 90.4121 57.5788 90.4121 57.3604C90.4121 57.1097 90.3494 56.8895 90.2241 56.6997C90.0988 56.5099 89.9269 56.3631 89.7085 56.2593C89.4901 56.1554 89.2448 56.1035 88.9727 56.1035C88.6898 56.1035 88.4409 56.1608 88.2261 56.2754C88.0112 56.39 87.8447 56.5511 87.7266 56.7588C87.612 56.9665 87.5547 57.2064 87.5547 57.4785H86.4375C86.4339 57.013 86.5413 56.6012 86.7598 56.2432C86.9782 55.8851 87.2826 55.6076 87.6729 55.4106C88.0632 55.2137 88.5036 55.1152 88.9941 55.1152C89.4883 55.1152 89.9269 55.2119 90.3101 55.4053C90.6968 55.5951 90.9976 55.8582 91.2124 56.1948C91.4272 56.5314 91.5365 56.9092 91.54 57.3281C91.5365 57.6253 91.4792 57.9118 91.3682 58.1875C91.2572 58.4596 91.0674 58.764 90.7988 59.1006C90.5303 59.4336 90.1507 59.8418 89.6602 60.3252L88.0811 61.9258V61.9902H91.6689V63H86.4375V62.1406ZM95.1221 63.1074C94.6387 63.1074 94.2 63.0161 93.8062 62.8335C93.4123 62.6473 93.099 62.3931 92.8662 62.0708C92.6335 61.745 92.5081 61.3779 92.4902 60.9697H93.6396C93.6611 61.1882 93.7399 61.3851 93.876 61.5605C94.012 61.736 94.1893 61.8739 94.4077 61.9741C94.6261 62.0708 94.8643 62.1191 95.1221 62.1191C95.4336 62.1191 95.7111 62.0493 95.9546 61.9097C96.2017 61.77 96.395 61.5785 96.5347 61.335C96.6743 61.0879 96.7441 60.8122 96.7441 60.5078C96.7441 60.1963 96.6725 59.917 96.5293 59.6699C96.3861 59.4193 96.1873 59.2241 95.9331 59.0845C95.6789 58.9412 95.3906 58.8678 95.0684 58.8643C94.4131 58.8643 93.9583 59.0934 93.7041 59.5518H92.5869L93.0918 55.2227H97.4961V56.2324H94.0693L93.8115 58.4131H93.8867C94.0514 58.2555 94.2627 58.1284 94.5205 58.0317C94.7819 57.9351 95.0576 57.8867 95.3477 57.8867C95.8275 57.8867 96.2607 57.9977 96.6475 58.2197C97.0378 58.4417 97.3421 58.7497 97.5605 59.1436C97.7826 59.5374 97.8936 59.9814 97.8936 60.4756C97.8936 60.9805 97.7754 61.4334 97.5391 61.8345C97.3027 62.2355 96.9733 62.5488 96.5508 62.7744C96.1318 62.9964 95.6556 63.1074 95.1221 63.1074ZM101.357 63.1074C100.759 63.1074 100.246 62.9517 99.8159 62.6401C99.3898 62.3286 99.064 61.8739 98.8384 61.2759C98.6128 60.6743 98.5 59.9528 98.5 59.1113C98.5 58.277 98.6128 57.5609 98.8384 56.9629C99.0675 56.3613 99.397 55.903 99.8267 55.5879C100.256 55.2728 100.767 55.1152 101.357 55.1152C101.948 55.1152 102.458 55.2728 102.888 55.5879C103.318 55.903 103.646 56.3613 103.871 56.9629C104.1 57.5609 104.215 58.277 104.215 59.1113C104.215 59.9528 104.102 60.6725 103.876 61.2705C103.651 61.8685 103.323 62.325 102.894 62.6401C102.464 62.9517 101.952 63.1074 101.357 63.1074ZM101.357 62.0869C101.708 62.0869 102.009 61.9741 102.26 61.7485C102.51 61.5194 102.702 61.1828 102.834 60.7388C102.967 60.2948 103.033 59.7523 103.033 59.1113C103.033 58.474 102.965 57.9315 102.829 57.4839C102.697 57.0327 102.505 56.6925 102.254 56.4634C102.004 56.2306 101.705 56.1143 101.357 56.1143C101.01 56.1143 100.711 56.2306 100.46 56.4634C100.21 56.6925 100.016 57.0327 99.8804 57.4839C99.7479 57.9315 99.6816 58.474 99.6816 59.1113C99.6816 59.7523 99.7479 60.2948 99.8804 60.7388C100.013 61.1828 100.204 61.5194 100.455 61.7485C100.706 61.9741 101.007 62.0869 101.357 62.0869Z" fill="#CACACA"/>
<path d="M172.016 60.5293L175.453 55.2227H176.914V60.4863H177.978V61.4854H176.914V63H175.797V61.4854H172.016V60.5293ZM175.797 60.4863V56.6299H175.711L173.262 60.4219V60.4863H175.797ZM181.377 63.1074C180.779 63.1074 180.265 62.9517 179.835 62.6401C179.409 62.3286 179.083 61.8739 178.858 61.2759C178.632 60.6743 178.52 59.9528 178.52 59.1113C178.52 58.277 178.632 57.5609 178.858 56.9629C179.087 56.3613 179.417 55.903 179.846 55.5879C180.276 55.2728 180.786 55.1152 181.377 55.1152C181.968 55.1152 182.478 55.2728 182.908 55.5879C183.337 55.903 183.665 56.3613 183.891 56.9629C184.12 57.5609 184.234 58.277 184.234 59.1113C184.234 59.9528 184.122 60.6725 183.896 61.2705C183.67 61.8685 183.343 62.325 182.913 62.6401C182.483 62.9517 181.971 63.1074 181.377 63.1074ZM181.377 62.0869C181.728 62.0869 182.029 61.9741 182.279 61.7485C182.53 61.5194 182.722 61.1828 182.854 60.7388C182.986 60.2948 183.053 59.7523 183.053 59.1113C183.053 58.474 182.985 57.9315 182.849 57.4839C182.716 57.0327 182.525 56.6925 182.274 56.4634C182.023 56.2306 181.724 56.1143 181.377 56.1143C181.03 56.1143 180.731 56.2306 180.48 56.4634C180.229 56.6925 180.036 57.0327 179.9 57.4839C179.767 57.9315 179.701 58.474 179.701 59.1113C179.701 59.7523 179.767 60.2948 179.9 60.7388C180.032 61.1828 180.224 61.5194 180.475 61.7485C180.725 61.9741 181.026 62.0869 181.377 62.0869ZM187.666 63.1074C187.068 63.1074 186.554 62.9517 186.125 62.6401C185.698 62.3286 185.373 61.8739 185.147 61.2759C184.921 60.6743 184.809 59.9528 184.809 59.1113C184.809 58.277 184.921 57.5609 185.147 56.9629C185.376 56.3613 185.706 55.903 186.135 55.5879C186.565 55.2728 187.075 55.1152 187.666 55.1152C188.257 55.1152 188.767 55.2728 189.197 55.5879C189.626 55.903 189.954 56.3613 190.18 56.9629C190.409 57.5609 190.523 58.277 190.523 59.1113C190.523 59.9528 190.411 60.6725 190.185 61.2705C189.959 61.8685 189.632 62.325 189.202 62.6401C188.772 62.9517 188.26 63.1074 187.666 63.1074ZM187.666 62.0869C188.017 62.0869 188.318 61.9741 188.568 61.7485C188.819 61.5194 189.011 61.1828 189.143 60.7388C189.276 60.2948 189.342 59.7523 189.342 59.1113C189.342 58.474 189.274 57.9315 189.138 57.4839C189.005 57.0327 188.814 56.6925 188.563 56.4634C188.312 56.2306 188.013 56.1143 187.666 56.1143C187.319 56.1143 187.02 56.2306 186.769 56.4634C186.518 56.6925 186.325 57.0327 186.189 57.4839C186.056 57.9315 185.99 58.474 185.99 59.1113C185.99 59.7523 186.056 60.2948 186.189 60.7388C186.321 61.1828 186.513 61.5194 186.764 61.7485C187.014 61.9741 187.315 62.0869 187.666 62.0869Z" fill="#CACACA"/>
<path d="M260.58 63.1074C260.097 63.1074 259.658 63.0161 259.264 62.8335C258.87 62.6473 258.557 62.3931 258.324 62.0708C258.091 61.745 257.966 61.3779 257.948 60.9697H259.098C259.119 61.1882 259.198 61.3851 259.334 61.5605C259.47 61.736 259.647 61.8739 259.866 61.9741C260.084 62.0708 260.322 62.1191 260.58 62.1191C260.892 62.1191 261.169 62.0493 261.413 61.9097C261.66 61.77 261.853 61.5785 261.993 61.335C262.132 61.0879 262.202 60.8122 262.202 60.5078C262.202 60.1963 262.131 59.917 261.987 59.6699C261.844 59.4193 261.645 59.2241 261.391 59.0845C261.137 58.9412 260.849 58.8678 260.526 58.8643C259.871 58.8643 259.416 59.0934 259.162 59.5518H258.045L258.55 55.2227H262.954V56.2324H259.527L259.27 58.4131H259.345C259.509 58.2555 259.721 58.1284 259.979 58.0317C260.24 57.9351 260.516 57.8867 260.806 57.8867C261.285 57.8867 261.719 57.9977 262.105 58.2197C262.496 58.4417 262.8 58.7497 263.019 59.1436C263.241 59.5374 263.352 59.9814 263.352 60.4756C263.352 60.9805 263.233 61.4334 262.997 61.8345C262.761 62.2355 262.431 62.5488 262.009 62.7744C261.59 62.9964 261.114 63.1074 260.58 63.1074ZM266.815 63.1074C266.217 63.1074 265.704 62.9517 265.274 62.6401C264.848 62.3286 264.522 61.8739 264.296 61.2759C264.071 60.6743 263.958 59.9528 263.958 59.1113C263.958 58.277 264.071 57.5609 264.296 56.9629C264.526 56.3613 264.855 55.903 265.285 55.5879C265.714 55.2728 266.225 55.1152 266.815 55.1152C267.406 55.1152 267.917 55.2728 268.346 55.5879C268.776 55.903 269.104 56.3613 269.329 56.9629C269.558 57.5609 269.673 58.277 269.673 59.1113C269.673 59.9528 269.56 60.6725 269.334 61.2705C269.109 61.8685 268.781 62.325 268.352 62.6401C267.922 62.9517 267.41 63.1074 266.815 63.1074ZM266.815 62.0869C267.166 62.0869 267.467 61.9741 267.718 61.7485C267.968 61.5194 268.16 61.1828 268.292 60.7388C268.425 60.2948 268.491 59.7523 268.491 59.1113C268.491 58.474 268.423 57.9315 268.287 57.4839C268.155 57.0327 267.963 56.6925 267.712 56.4634C267.462 56.2306 267.163 56.1143 266.815 56.1143C266.468 56.1143 266.169 56.2306 265.918 56.4634C265.668 56.6925 265.474 57.0327 265.338 57.4839C265.206 57.9315 265.14 58.474 265.14 59.1113C265.14 59.7523 265.206 60.2948 265.338 60.7388C265.471 61.1828 265.662 61.5194 265.913 61.7485C266.164 61.9741 266.465 62.0869 266.815 62.0869ZM273.104 63.1074C272.507 63.1074 271.993 62.9517 271.563 62.6401C271.137 62.3286 270.811 61.8739 270.585 61.2759C270.36 60.6743 270.247 59.9528 270.247 59.1113C270.247 58.277 270.36 57.5609 270.585 56.9629C270.815 56.3613 271.144 55.903 271.574 55.5879C272.003 55.2728 272.514 55.1152 273.104 55.1152C273.695 55.1152 274.206 55.2728 274.635 55.5879C275.065 55.903 275.393 56.3613 275.618 56.9629C275.847 57.5609 275.962 58.277 275.962 59.1113C275.962 59.9528 275.849 60.6725 275.624 61.2705C275.398 61.8685 275.07 62.325 274.641 62.6401C274.211 62.9517 273.699 63.1074 273.104 63.1074ZM273.104 62.0869C273.455 62.0869 273.756 61.9741 274.007 61.7485C274.257 61.5194 274.449 61.1828 274.582 60.7388C274.714 60.2948 274.78 59.7523 274.78 59.1113C274.78 58.474 274.712 57.9315 274.576 57.4839C274.444 57.0327 274.252 56.6925 274.001 56.4634C273.751 56.2306 273.452 56.1143 273.104 56.1143C272.757 56.1143 272.458 56.2306 272.208 56.4634C271.957 56.6925 271.764 57.0327 271.627 57.4839C271.495 57.9315 271.429 58.474 271.429 59.1113C271.429 59.7523 271.495 60.2948 271.627 60.7388C271.76 61.1828 271.951 61.5194 272.202 61.7485C272.453 61.9741 272.754 62.0869 273.104 62.0869Z" fill="#CACACA"/>
<rect x="328" y="52" width="15" height="15" rx="7.5" fill="#DADEE4"/>
<path d="M333.596 56.4297H336.369C336.896 56.4297 337.351 56.5306 337.731 56.7324C338.112 56.931 338.402 57.2109 338.601 57.5723C338.799 57.9303 338.898 58.3438 338.898 58.8125C338.898 59.2845 338.796 59.7012 338.591 60.0625C338.389 60.4206 338.094 60.6989 337.707 60.8975C337.323 61.096 336.864 61.1953 336.33 61.1953H335.061V63.5H333.596V56.4297ZM336.096 60.0137C336.519 60.0137 336.84 59.9062 337.058 59.6914C337.276 59.4733 337.385 59.1803 337.385 58.8125C337.385 58.4479 337.276 58.1598 337.058 57.9482C336.84 57.7367 336.519 57.6309 336.096 57.6309H335.061V60.0137H336.096Z" fill="white"/>
<path d="M252.002 5.5V5H251.502L251.502 5.49996L252.002 5.5ZM257 6H257.5V5H257V5.5V6ZM252.502 11.1L252.502 10.6L251.502 10.6L251.502 11.1L252.002 11.1L252.502 11.1ZM251.502 7.89996L251.502 8.39996L252.502 8.40004L252.502 7.90004L252.002 7.9L251.502 7.89996ZM253.502 6H254.002V5H253.502V5.5V6ZM255.501 5H255.001V6H255.501V5.5V5ZM252.002 13.5L252.502 13.5L252.502 11.1L252.002 11.1L251.502 11.1L251.502 13.5L252.002 13.5ZM252.002 7.9L252.502 7.90004L252.502 5.50004L252.002 5.5L251.502 5.49996L251.502 7.89996L252.002 7.9ZM252.002 5.5V6H253.502V5.5V5H252.002V5.5ZM255.501 5.5V6H257V5.5V5H255.501V5.5Z" fill="#DADEE4"/>
<circle cx="252" cy="17" r="2" fill="#DADEE4"/>
<path d="M267.082 6.74609H264.644V8.72266C265.249 8.71908 265.802 8.70117 266.303 8.66895C266.808 8.63314 267.333 8.5651 267.877 8.46484L267.963 9.30273C267.358 9.41016 266.779 9.48177 266.228 9.51758C265.68 9.55339 265.045 9.57487 264.321 9.58203H263.655V5.92969H266.104V4.14648H263.645V3.31934H267.082V6.74609ZM271.615 11.9131H270.638V2.28809H271.615V11.9131ZM269.639 11.4189H268.672V6.52051H267.533V5.69336H268.672V2.50293H269.639V11.4189ZM280.568 7.32617H279.602V2.29883H280.568V7.32617ZM278.635 7.27246H277.679V5.25293H276.54V6.91797H272.77V2.84668H273.736V4.0498H275.595V2.84668H276.54V4.41504H277.679V2.48145H278.635V7.27246ZM280.568 10.1191H275.154V11.0215H280.934V11.8164H274.134V9.35645H279.559V8.56152H274.112V7.75586H280.568V10.1191ZM275.595 6.1123V4.82324H273.736V6.1123H275.595ZM292.352 8.56152H290.117V11.9131H289.086V8.56152H286.787V11.9131H285.734V8.56152H283.543V7.72363H292.352V8.56152ZM287.926 2.65332C288.599 2.65332 289.193 2.74105 289.709 2.9165C290.228 3.08838 290.631 3.33545 290.917 3.65771C291.208 3.97998 291.353 4.35417 291.353 4.78027C291.353 5.19922 291.208 5.56803 290.917 5.88672C290.631 6.20182 290.228 6.44531 289.709 6.61719C289.193 6.78548 288.599 6.86784 287.926 6.86426C287.249 6.86784 286.651 6.78548 286.132 6.61719C285.616 6.44531 285.215 6.20182 284.929 5.88672C284.642 5.56803 284.499 5.19922 284.499 4.78027C284.499 4.35417 284.642 3.97998 284.929 3.65771C285.215 3.33545 285.616 3.08838 286.132 2.9165C286.651 2.74105 287.249 2.65332 287.926 2.65332ZM287.926 3.46973C287.45 3.47331 287.032 3.52881 286.674 3.63623C286.316 3.74365 286.039 3.89583 285.842 4.09277C285.645 4.28613 285.548 4.5153 285.552 4.78027C285.548 5.03809 285.645 5.26367 285.842 5.45703C286.039 5.65039 286.316 5.79899 286.674 5.90283C287.036 6.00667 287.453 6.05859 287.926 6.05859C288.398 6.05859 288.814 6.00667 289.172 5.90283C289.534 5.79899 289.813 5.65039 290.01 5.45703C290.21 5.26367 290.311 5.03809 290.311 4.78027C290.311 4.5153 290.212 4.28434 290.015 4.0874C289.818 3.89046 289.539 3.74007 289.177 3.63623C288.819 3.52881 288.402 3.47331 287.926 3.46973ZM296.105 5.12402C296.105 5.65755 296.213 6.18571 296.428 6.7085C296.646 7.23128 296.947 7.69857 297.33 8.11035C297.717 8.51855 298.154 8.8265 298.641 9.03418L298.082 9.8291C297.52 9.58203 297.022 9.20964 296.589 8.71191C296.156 8.21061 295.826 7.6359 295.601 6.98779C295.375 7.67887 295.044 8.29834 294.607 8.84619C294.174 9.39404 293.681 9.80404 293.13 10.0762L292.539 9.27051C293.012 9.0485 293.441 8.71729 293.828 8.27686C294.215 7.83285 294.517 7.33333 294.736 6.77832C294.958 6.21973 295.071 5.66829 295.074 5.12402V4.10352H292.872V3.25488H298.297V4.10352H296.105V5.12402ZM300.531 11.9131H299.511V2.28809H300.531V11.9131ZM305.235 4.28613H307.642V2.83594H308.651V4.67285H310.757V2.28809H311.777V7.86328H310.757V5.52148H308.651V7.36914H304.215V2.83594H305.235V4.28613ZM307.642 6.55273V5.0918H305.235V6.55273H307.642ZM311.777 11.7949H305.429V8.31445H311.777V11.7949ZM306.438 10.9678H310.778V9.13086H306.438V10.9678ZM315.918 2.72852C316.398 2.72852 316.827 2.81266 317.207 2.98096C317.587 3.14925 317.884 3.38558 318.099 3.68994C318.313 3.99072 318.421 4.33626 318.421 4.72656C318.421 5.11328 318.313 5.45882 318.099 5.76318C317.884 6.06755 317.587 6.30387 317.207 6.47217C316.827 6.63688 316.398 6.71745 315.918 6.71387C315.438 6.71745 315.01 6.63688 314.634 6.47217C314.258 6.30387 313.965 6.06934 313.753 5.76855C313.542 5.46419 313.437 5.11686 313.437 4.72656C313.437 4.33626 313.542 3.98893 313.753 3.68457C313.965 3.38021 314.258 3.14567 314.634 2.98096C315.01 2.81266 315.438 2.72852 315.918 2.72852ZM315.918 3.55566C315.628 3.55566 315.368 3.604 315.139 3.70068C314.914 3.79736 314.736 3.93522 314.607 4.11426C314.482 4.28971 314.421 4.49382 314.425 4.72656C314.421 4.95573 314.482 5.15804 314.607 5.3335C314.736 5.50895 314.915 5.64502 315.145 5.7417C315.374 5.8348 315.632 5.87956 315.918 5.87598C316.212 5.87956 316.475 5.8348 316.708 5.7417C316.94 5.64502 317.121 5.50895 317.25 5.3335C317.379 5.15804 317.443 4.95573 317.443 4.72656C317.443 4.49382 317.379 4.28971 317.25 4.11426C317.121 3.93522 316.94 3.79736 316.708 3.70068C316.478 3.604 316.215 3.55566 315.918 3.55566ZM320.763 11.9131H319.753V2.29883H320.763V11.9131ZM312.749 7.46582C313.888 7.46582 314.992 7.44255 316.063 7.396C317.137 7.34587 318.145 7.25098 319.087 7.11133L319.162 7.87402C318.374 8.02441 317.483 8.13542 316.487 8.20703V11.6123H315.467V8.26074C314.858 8.28939 313.999 8.30729 312.889 8.31445L312.749 7.46582Z" fill="#A2A9B4"/>
<defs>
<linearGradient id="paint0_linear_3070_9849" x1="85.75" y1="13" x2="0" y2="13" gradientUnits="userSpaceOnUse">
<stop stop-color="#B483F9"/>
<stop offset="1" stop-color="#5E81DC"/>
</linearGradient>
<clipPath id="clip0_3070_9849">
<rect y="22" width="343" height="26" rx="13" fill="white"/>
</clipPath>
<clipPath id="clip1_3070_9849">
<rect y="22" width="343" height="26" rx="13" fill="white"/>
</clipPath>
</defs>
</svg>
