<svg width="48" height="48" viewBox="0 0 48 48" fill="none" xmlns="http://www.w3.org/2000/svg">
<rect width="48" height="48" rx="14" fill="#254E9F"/>
<path d="M23.0469 21.5021V22.3106C22.5208 21.8077 21.8194 21.5 21.0488 21.5C19.4186 21.5 18.0977 22.8769 18.0977 24.5747C18.0977 26.2725 19.4186 27.6494 21.0488 27.6494C21.8188 27.6494 22.5202 27.3417 23.0469 26.8387V27.6494H24.4808V21.5021H23.0469ZM22.5624 25.7943C22.2395 26.1115 21.8088 26.2704 21.2705 26.2704C20.7322 26.2704 20.3306 26.1115 20.0155 25.7943C19.701 25.4771 19.5437 25.0708 19.5437 24.5747C19.5437 24.0786 19.701 23.6722 20.0155 23.3551C20.3301 23.0379 20.7486 22.879 21.2705 22.879C21.7925 22.879 22.24 23.0379 22.5624 23.3551C22.886 23.6722 23.0469 24.0786 23.0469 24.5747C23.0469 25.0708 22.886 25.4771 22.5624 25.7943Z" fill="white"/>
<path d="M15.0591 20H12.5V27.6492H13.9693V25.4316H15.0591C16.6059 25.4316 17.8599 24.2162 17.8599 22.7158C17.8599 21.2154 16.6054 20 15.0591 20ZM14.9414 24.1107H13.9751V21.3843H14.9414C15.752 21.3843 16.4085 21.9949 16.4085 22.748C16.4085 23.5011 15.752 24.1107 14.9414 24.1107Z" fill="white"/>
<path d="M29.9448 22.7914L28.7468 23.3719C28.7468 23.3719 28.2787 22.7164 27.4739 22.7164C26.6691 22.7164 26.5002 23.0911 26.5002 23.3254C26.5002 23.5598 26.8089 23.8215 27.998 23.9762C29.187 24.1303 30.0198 24.7203 30.0198 25.7874C30.0198 26.8545 28.8967 27.6499 27.5393 27.6499C26.182 27.6499 25.0943 26.9289 24.7871 26.1616L26.1255 25.5811C26.1255 25.5811 26.5656 26.4049 27.5013 26.4049C28.4371 26.4049 28.6244 25.9463 28.6244 25.7779C28.6244 25.6096 28.54 25.2628 27.3045 25.076C26.069 24.8887 25.0484 24.3461 25.0484 23.4569C25.0484 22.5676 25.6289 21.7158 27.0422 21.5474C28.4555 21.3791 29.2324 21.8472 29.9438 22.7924L29.9448 22.7914Z" fill="white"/>
<path d="M35.4253 22.7914L34.2273 23.3719C34.2273 23.3719 33.7592 22.7164 32.9544 22.7164C32.1495 22.7164 31.9807 23.0911 31.9807 23.3254C31.9807 23.5598 32.2894 23.8215 33.4784 23.9762C34.6675 24.1303 35.5002 24.7203 35.5002 25.7874C35.5002 26.8545 34.3772 27.6499 33.0198 27.6499C31.6624 27.6499 30.5747 26.9289 30.2676 26.1616L31.606 25.5811C31.606 25.5811 32.0461 26.4049 32.9818 26.4049C33.9175 26.4049 34.1049 25.9463 34.1049 25.7779C34.1049 25.6096 34.0204 25.2628 32.785 25.076C31.5495 24.8887 30.5288 24.3461 30.5288 23.4569C30.5288 22.5676 31.1093 21.7158 32.5227 21.5474C33.936 21.3791 34.7128 21.8472 35.4242 22.7924L35.4253 22.7914Z" fill="white"/>
</svg>
