<svg width="48" height="48" viewBox="0 0 48 48" fill="none" xmlns="http://www.w3.org/2000/svg">
<rect width="48" height="48" rx="14" fill="#8951FF"/>
<path d="M15.4724 20.0762C13.7138 20.0762 13 20.0891 13 20.0891V28.9178H14.4179V26.2218H15.6902C15.6902 26.2218 17.6625 26.2039 17.6625 24.3097V21.9927C17.6625 21.9927 17.8716 20.0762 15.4724 20.0762ZM16.2995 24.0101C16.2995 24.8646 15.4904 24.7945 15.4904 24.7945H14.4179V21.4289C14.4179 21.4289 14.6905 21.4418 15.495 21.4418C16.2995 21.4418 16.2995 22.2217 16.2995 22.2217V24.0101Z" fill="white"/>
<path d="M22.2029 20.0762H20.0353L18.4355 28.9178H19.9626L20.2531 27.3494H21.9846L22.2751 28.9178H23.8021L22.2029 20.0762ZM20.3986 26.028L21.1191 21.9028L21.8396 26.028H20.3991H20.3986Z" fill="white"/>
<path d="M28.2457 22.7149H29.7409C29.6574 22.1297 30.1657 20.1863 27.5596 20.001C24.4948 19.9389 24.3569 22.848 25.6872 24.16C26.3052 24.847 28.196 25.5872 28.2139 26.627C28.3461 28.1307 26.4804 27.9548 26.4507 26.8813V26.2921H24.9237C24.9416 26.778 24.8499 27.387 25.1184 27.8172C25.2942 28.0979 25.7236 28.9176 26.8688 28.9707C28.5593 29.1789 29.826 28.2604 29.7415 26.7343C29.6784 26.1108 29.9884 25.9205 28.7048 24.6707C27.6503 23.772 26.4328 23.2961 26.4328 22.2742C26.4292 20.9314 28.1688 20.9453 28.2324 22.0805L28.2462 22.7149H28.2457Z" fill="white"/>
<path d="M34.4996 22.7149H35.9949C35.9113 22.1297 36.4196 20.1863 33.8135 20.001C30.7487 19.9389 30.6108 22.848 31.9411 24.16C32.5591 24.847 34.4499 25.5872 34.4678 26.627C34.6 28.1307 32.7343 27.9548 32.7046 26.8813V26.2921H31.1776C31.1955 26.778 31.1038 27.387 31.3723 27.8172C31.5481 28.0979 31.9775 28.9176 33.1227 28.9707C34.8132 29.1789 36.0799 28.2604 35.9954 26.7343C35.9323 26.1108 36.2424 25.9205 34.9587 24.6707C33.9042 23.772 32.6867 23.2961 32.6867 22.2742C32.6831 20.9314 34.4227 20.9453 34.4863 22.0805L34.5001 22.7149H34.4996Z" fill="white"/>
</svg>
