<svg width="48" height="48" viewBox="0 0 48 48" fill="none" xmlns="http://www.w3.org/2000/svg">
<rect width="48" height="48" rx="14" fill="#131313"/>
<g clip-path="url(#clip0_3522_45658)">
<path d="M29.1986 24.1556C29.1748 21.4985 31.356 20.2228 31.4523 20.1637C30.2266 18.3583 28.3156 18.1067 27.6378 18.0765C26.0107 17.9117 24.4624 19.0414 23.6395 19.0414C22.8166 19.0414 21.5409 18.1042 20.1952 18.1306C18.4193 18.1545 16.7885 19.1685 15.8742 20.76C14.0333 23.9731 15.4015 28.7363 17.1987 31.3418C18.0741 32.6175 19.1184 34.0504 20.4904 33.9988C21.8148 33.9473 22.3151 33.1396 23.9134 33.1396C25.5117 33.1396 25.9607 33.9988 27.3601 33.9775C28.7821 33.9473 29.6838 32.6716 30.5518 31.3959C31.5573 29.9151 31.975 28.4821 31.9988 28.4066C31.9675 28.3953 29.2249 27.336 29.1973 24.1556H29.1986Z" fill="white"/>
<path d="M26.5693 16.3515C27.2997 15.4646 27.7912 14.2292 27.6561 13C26.6069 13.0403 25.335 13.7058 24.5833 14.589C23.9067 15.3778 23.3127 16.6384 23.474 17.8411C24.6433 17.9304 25.8427 17.241 26.5693 16.3515Z" fill="white"/>
</g>
<defs>
<clipPath id="clip0_3522_45658">
<rect width="17" height="21" fill="white" transform="translate(15 13)"/>
</clipPath>
</defs>
</svg>
