<svg width="48" height="48" viewBox="0 0 48 48" fill="none" xmlns="http://www.w3.org/2000/svg">
<rect width="48" height="48" rx="14" fill="#FF2233"/>
<path d="M27.29 23.835C26.95 23.995 26.385 24.185 25.59 24.185H21.365V18.725H25.36C26.045 18.725 26.7 18.83 27.08 18.995C27.615 19.225 27.99 19.555 28.23 19.995C28.44 20.38 28.54 20.84 28.54 21.41C28.54 22.64 28.13 23.435 27.285 23.845L27.29 23.835ZM31.55 16.97C30.875 16.115 30.015 15.455 28.95 15.005C28.14 14.655 26.895 14.5 25.945 14.5H17V33.5H21.615V28.36H25.94C27.075 28.36 28.445 28.1 29.435 27.62C30.765 26.98 31.755 25.86 32.35 24.535C32.765 23.58 33 22.52 33 21.405C33 19.735 32.48 18.195 31.545 16.975L31.55 16.97Z" fill="white"/>
</svg>
