<svg width="158" height="158" viewBox="0 0 158 158" fill="none" xmlns="http://www.w3.org/2000/svg">
<g clip-path="url(#clip0_3035_37933)">
<path d="M148.538 123.226C141.915 119.919 139.644 113.882 137.238 107.489C134.507 100.227 131.682 92.7245 122.39 89.7319L120.789 94.7126C127.685 96.9309 129.84 102.675 132.341 109.33C134.873 116.058 137.74 123.686 146.195 127.913C150.411 130.027 154.367 131.032 157.997 131.304V126.072C155.099 125.779 151.929 124.931 148.538 123.236V123.226Z" fill="url(#paint0_linear_3035_37933)"/>
<path d="M98.2814 38.1982C100.639 34.4313 106.532 34.4313 108.889 38.1982L119.497 55.1492C121.855 58.9161 118.908 63.6247 114.193 63.6247H92.9774C88.2628 63.6247 85.3161 58.9161 87.6734 55.1492L98.2814 38.1982Z" fill="#F46F6F"/>
<path fill-rule="evenodd" clip-rule="evenodd" d="M103.588 42.3374C104.777 42.3374 105.741 43.3011 105.741 44.4899V51.6649C105.741 52.8537 104.777 53.8174 103.588 53.8174C102.399 53.8174 101.436 52.8537 101.436 51.6649V44.4899C101.436 43.3011 102.399 42.3374 103.588 42.3374Z" fill="white"/>
<circle cx="103.577" cy="57.6461" r="2.39167" fill="white"/>
<path d="M74.8454 57.8584H59.7569C58.5838 57.8584 57.6328 58.8094 57.6328 59.9825V61.0602C57.6328 62.2334 58.5838 63.1844 59.7569 63.1844H74.8454C76.0185 63.1844 76.9695 62.2334 76.9695 61.0602V59.9825C76.9695 58.8094 76.0185 57.8584 74.8454 57.8584Z" fill="#E2E6ED"/>
<path d="M74.8454 70.2808H59.7569C58.5838 70.2808 57.6328 71.2318 57.6328 72.4049V73.4826C57.6328 74.6557 58.5838 75.6067 59.7569 75.6067H74.8454C76.0185 75.6067 76.9695 74.6557 76.9695 73.4826V72.4049C76.9695 71.2318 76.0185 70.2808 74.8454 70.2808Z" fill="#E2E6ED"/>
<path d="M10.8507 76.7662C7.77443 82.7513 5.04344 87.2611 0 89.8143V95.4855C7.91045 92.5452 11.7506 86.4764 15.507 79.1623C19.7761 70.8543 27.4459 67.4641 38.2862 69.0859L39.0605 63.9065C26.1171 61.9707 16.093 66.5328 10.8403 76.7662H10.8507Z" fill="url(#paint1_linear_3035_37933)"/>
<path d="M44.6037 51.6021H62.1616C63.4276 51.6021 64.4426 52.6275 64.4426 53.8831V79.5816C64.4426 80.8477 63.4172 81.8627 62.1616 81.8627H44.6037C37.9279 81.8627 32.5078 76.4426 32.5078 69.7668V63.6979C32.5078 57.0222 37.9279 51.6021 44.6037 51.6021Z" fill="#DFDFDF"/>
<path d="M112.334 105.357L99.7523 100.125C98.845 99.7473 98.5114 98.498 98.9936 97.3386L108.861 73.61C109.347 72.4409 110.472 71.8093 111.371 72.1835L123.953 77.4158C128.737 79.4052 130.54 86.025 127.977 92.1891L125.646 97.7927C123.083 103.957 117.118 107.346 112.334 105.357Z" fill="#DFDFDF"/>
<path d="M44.9912 65.7152C46.1469 65.7152 47.0839 64.7783 47.0839 63.6225C47.0839 62.4667 46.1469 61.5298 44.9912 61.5298C43.8354 61.5298 42.8984 62.4667 42.8984 63.6225C42.8984 64.7783 43.8354 65.7152 44.9912 65.7152Z" fill="#767C88"/>
<path d="M54.4111 65.7152C55.5668 65.7152 56.5038 64.7783 56.5038 63.6225C56.5038 62.4667 55.5668 61.5298 54.4111 61.5298C53.2553 61.5298 52.3184 62.4667 52.3184 63.6225C52.3184 64.7783 53.2553 65.7152 54.4111 65.7152Z" fill="#767C88"/>
<path d="M43.4297 71.997C43.9877 70.9506 46.0247 68.8579 49.7078 68.8579C53.391 68.8579 55.4279 70.9506 55.986 71.997" stroke="#767C88" stroke-width="2.11677" stroke-linecap="round"/>
<ellipse cx="74.8749" cy="134.37" rx="29.8808" ry="2.73215" fill="#E8E8E8"/>
</g>
<defs>
<linearGradient id="paint0_linear_3035_37933" x1="131.314" y1="97.1085" x2="151.195" y2="128.499" gradientUnits="userSpaceOnUse">
<stop stop-color="#C3C3C3"/>
<stop offset="1" stop-color="white" stop-opacity="0"/>
</linearGradient>
<linearGradient id="paint1_linear_3035_37933" x1="19.8808" y1="79.3188" x2="4.7086" y2="91.8751" gradientUnits="userSpaceOnUse">
<stop stop-color="#C3C3C3"/>
<stop offset="1" stop-color="white" stop-opacity="0"/>
</linearGradient>
<clipPath id="clip0_3035_37933">
<rect width="158" height="158" fill="white"/>
</clipPath>
</defs>
</svg>
