<svg width="132" height="35" viewBox="0 0 132 35" fill="none" xmlns="http://www.w3.org/2000/svg">
<path d="M66 33L61.5 29H11.5C5.14873 29 0 23.8513 0 17.5C0 11.1487 5.14873 6 11.5 6H120.5C126.851 6 132 11.1487 132 17.5C132 23.8513 126.851 29 120.5 29H70.5L66 33Z" fill="url(#paint0_linear_2235_48303)"/>
<path d="M17.8521 21.1074C17.3221 21.1074 16.8459 21.0179 16.4233 20.8389C16.0044 20.6598 15.6732 20.4092 15.4297 20.0869C15.1898 19.7611 15.0627 19.3887 15.0483 18.9697H16.2515C16.2658 19.1953 16.3428 19.3923 16.4824 19.5605C16.6257 19.7288 16.8154 19.8595 17.0518 19.9526C17.2881 20.0422 17.5513 20.0869 17.8413 20.0869C18.1493 20.0869 18.4268 20.0332 18.6738 19.9258C18.9209 19.8184 19.1143 19.6698 19.2539 19.48C19.3936 19.2866 19.4634 19.0664 19.4634 18.8193C19.4634 18.5651 19.3936 18.3377 19.2539 18.1372C19.1143 17.9367 18.9119 17.7809 18.647 17.6699C18.3856 17.5553 18.0741 17.498 17.7124 17.498H17.0464V16.5312H17.7124C18.0024 16.5312 18.262 16.4793 18.4912 16.3755C18.7204 16.2716 18.8976 16.1266 19.0229 15.9404C19.1519 15.7542 19.2163 15.5394 19.2163 15.2959C19.2163 15.0596 19.1608 14.8519 19.0498 14.6729C18.9388 14.4938 18.7812 14.3542 18.5771 14.2539C18.373 14.1536 18.1349 14.1035 17.8628 14.1035C17.5978 14.1035 17.3525 14.1501 17.127 14.2432C16.9014 14.3363 16.7188 14.4688 16.5791 14.6406C16.443 14.8125 16.3696 15.013 16.3589 15.2422H15.2202C15.231 14.8304 15.3545 14.4634 15.5908 14.1411C15.8307 13.8153 16.1512 13.5628 16.5522 13.3838C16.9533 13.2048 17.3937 13.1152 17.8735 13.1152C18.3677 13.1152 18.8027 13.2101 19.1787 13.3999C19.5583 13.5897 19.8501 13.8475 20.0542 14.1733C20.2583 14.4956 20.3586 14.8483 20.355 15.2314C20.3586 15.6683 20.235 16.0407 19.9844 16.3486C19.7373 16.653 19.4025 16.8571 18.98 16.9609V17.0146C19.5063 17.0898 19.9163 17.2922 20.21 17.6216C20.5072 17.951 20.6558 18.3646 20.6558 18.8623C20.6558 19.2884 20.534 19.6733 20.2905 20.0171C20.047 20.3573 19.7122 20.624 19.2861 20.8174C18.86 21.0107 18.382 21.1074 17.8521 21.1074ZM24.1626 21.1074C23.5646 21.1074 23.0508 20.9517 22.6211 20.6401C22.195 20.3286 21.8691 19.8739 21.6436 19.2759C21.418 18.6743 21.3052 17.9528 21.3052 17.1113C21.3052 16.277 21.418 15.5609 21.6436 14.9629C21.8727 14.3613 22.2021 13.903 22.6318 13.5879C23.0615 13.2728 23.5718 13.1152 24.1626 13.1152C24.7534 13.1152 25.2637 13.2728 25.6934 13.5879C26.123 13.903 26.4507 14.3613 26.6763 14.9629C26.9054 15.5609 27.02 16.277 27.02 17.1113C27.02 17.9528 26.9072 18.6725 26.6816 19.2705C26.4561 19.8685 26.1284 20.325 25.6987 20.6401C25.269 20.9517 24.757 21.1074 24.1626 21.1074ZM24.1626 20.0869C24.5135 20.0869 24.8143 19.9741 25.0649 19.7485C25.3156 19.5194 25.5072 19.1828 25.6396 18.7388C25.7721 18.2948 25.8384 17.7523 25.8384 17.1113C25.8384 16.474 25.7703 15.9315 25.6343 15.4839C25.5018 15.0327 25.3102 14.6925 25.0596 14.4634C24.8089 14.2306 24.5099 14.1143 24.1626 14.1143C23.8153 14.1143 23.5163 14.2306 23.2656 14.4634C23.015 14.6925 22.8216 15.0327 22.6855 15.4839C22.5531 15.9315 22.4868 16.474 22.4868 17.1113C22.4868 17.7523 22.5531 18.2948 22.6855 18.7388C22.818 19.1828 23.0096 19.5194 23.2603 19.7485C23.5109 19.9741 23.8117 20.0869 24.1626 20.0869ZM30.1401 12.6104C30.62 12.6139 31.0496 12.7088 31.4292 12.895C31.8123 13.0776 32.1131 13.3337 32.3315 13.6631C32.55 13.9889 32.661 14.3577 32.6646 14.7695C32.661 15.1849 32.55 15.5555 32.3315 15.8813C32.1131 16.2072 31.8123 16.4614 31.4292 16.644C31.0496 16.8267 30.62 16.918 30.1401 16.918C29.6567 16.918 29.2217 16.8267 28.835 16.644C28.4518 16.4614 28.151 16.2072 27.9326 15.8813C27.7142 15.5555 27.605 15.1849 27.605 14.7695C27.605 14.3577 27.7142 13.9889 27.9326 13.6631C28.151 13.3337 28.4518 13.0776 28.835 12.895C29.2217 12.7088 29.6567 12.6139 30.1401 12.6104ZM30.1401 13.4697C29.8465 13.4661 29.5815 13.5181 29.3452 13.6255C29.1125 13.7329 28.9299 13.8869 28.7974 14.0874C28.6649 14.2843 28.6004 14.5117 28.604 14.7695C28.6004 15.0309 28.6631 15.2619 28.792 15.4624C28.9245 15.6629 29.1071 15.8187 29.3398 15.9297C29.5762 16.0371 29.8429 16.0908 30.1401 16.0908C30.4338 16.0908 30.6969 16.0353 30.9297 15.9243C31.1624 15.8133 31.3451 15.6593 31.4775 15.4624C31.61 15.2619 31.6763 15.0309 31.6763 14.7695C31.6763 14.5117 31.61 14.2843 31.4775 14.0874C31.3451 13.8869 31.1606 13.7329 30.9243 13.6255C30.6916 13.5181 30.4302 13.4661 30.1401 13.4697ZM35.3931 17.1865H34.3726V12.2881H35.3931V17.1865ZM35.3931 20.0547H30.0864V20.9785H35.7153V21.7949H29.0981V19.292H34.3833V18.4434H29.0659V17.627H35.3931V20.0547ZM46.8433 21.9131H45.8657V16.9824H44.6304V21.4189H43.6743V12.4814H44.6304V16.1445H45.8657V12.2881H46.8433V21.9131ZM40.0757 18.5669C41.1105 18.5562 42.0952 18.4577 43.0298 18.2715L43.1372 19.1631C42.5177 19.2741 41.9269 19.3529 41.3647 19.3994C40.8062 19.4424 40.244 19.4639 39.6782 19.4639H39.0552V13.4268H40.0757V18.5669ZM58.605 20.6885H49.7964V19.8506H53.6528V17.5625H54.6626V19.8506H58.605V20.6885ZM54.6841 13.6309C54.6841 14.125 54.847 14.6048 55.1729 15.0703C55.5023 15.5322 55.9373 15.9261 56.478 16.252C57.0223 16.5778 57.6024 16.7926 58.2183 16.8965L57.7778 17.7344C57.255 17.6305 56.7555 17.4587 56.2793 17.2188C55.8066 16.9753 55.3841 16.6763 55.0117 16.3218C54.6429 15.9673 54.3547 15.5734 54.147 15.1401C53.9393 15.5734 53.651 15.9691 53.2822 16.3271C52.917 16.6816 52.498 16.9806 52.0254 17.2241C51.5563 17.464 51.064 17.6341 50.5483 17.7344L50.0972 16.8965C50.7095 16.7926 51.2842 16.5778 51.8213 16.252C52.362 15.9261 52.7952 15.5322 53.1211 15.0703C53.4469 14.6048 53.6099 14.125 53.6099 13.6309V12.9004H54.6841V13.6309ZM63.7554 13.5234H65.8071V12.2881H66.8169V17.1865H65.8071V16.0479H63.7554V16.7568H59.2329V12.7822H63.7554V13.5234ZM60.2427 15.9404H62.7456V13.5879H60.2427V15.9404ZM66.8169 20.0547H61.564V20.9785H67.1606V21.7949H60.5435V19.292H65.8071V18.4541H60.522V17.6592H66.8169V20.0547ZM65.8071 15.2529V14.2969H63.7554V15.2529H65.8071ZM78.2778 21.9131H77.3003V12.2881H78.2778V21.9131ZM76.3442 21.4404H75.3774V18.3359H73.981C73.8091 18.8193 73.5674 19.1917 73.2559 19.4531C72.9443 19.7145 72.5845 19.8434 72.1763 19.8398C71.7609 19.8434 71.3957 19.7074 71.0806 19.4316C70.769 19.1559 70.5273 18.762 70.3555 18.25C70.1872 17.7344 70.103 17.1328 70.103 16.4453C70.103 15.7578 70.1872 15.158 70.3555 14.646C70.5273 14.134 70.769 13.7419 71.0806 13.4697C71.3957 13.194 71.7609 13.0579 72.1763 13.0615C72.5845 13.0579 72.9425 13.1868 73.2505 13.4482C73.562 13.7061 73.8055 14.0749 73.981 14.5547H75.3774V12.4707H76.3442V21.4404ZM72.1763 14.0176C71.9399 14.0176 71.7358 14.1143 71.564 14.3076C71.3957 14.4974 71.265 14.7749 71.1719 15.1401C71.0824 15.5018 71.0376 15.9368 71.0376 16.4453C71.0376 16.9538 71.0824 17.3906 71.1719 17.7559C71.265 18.1175 71.3957 18.395 71.564 18.5884C71.7358 18.7782 71.9399 18.873 72.1763 18.873C72.4126 18.873 72.6167 18.7782 72.7886 18.5884C72.964 18.395 73.0983 18.1157 73.1914 17.7505C73.2881 17.3853 73.3364 16.9502 73.3364 16.4453C73.3364 15.9404 73.2881 15.5054 73.1914 15.1401C73.0983 14.7749 72.964 14.4974 72.7886 14.3076C72.6167 14.1143 72.4126 14.0176 72.1763 14.0176ZM74.1904 15.3818C74.2441 15.7077 74.271 16.0622 74.271 16.4453C74.271 16.8249 74.2441 17.1758 74.1904 17.498H75.3774V15.3818H74.1904ZM87.0269 18.0137H86.0063V15.5752H84.2124V14.7373H86.0063V12.2881H87.0269V18.0137ZM83.8042 18.2822C84.4738 18.2822 85.0521 18.3538 85.5391 18.4971C86.0296 18.6403 86.4056 18.848 86.667 19.1201C86.9284 19.3923 87.0591 19.7181 87.0591 20.0977C87.0591 20.4772 86.9284 20.8013 86.667 21.0698C86.4056 21.342 86.0314 21.5496 85.5444 21.6929C85.0575 21.8361 84.4774 21.9095 83.8042 21.9131C83.131 21.9095 82.5492 21.8361 82.0586 21.6929C81.5716 21.5496 81.1974 21.342 80.936 21.0698C80.6746 20.8013 80.5457 20.4772 80.5493 20.0977C80.5457 19.7181 80.6746 19.3923 80.936 19.1201C81.1974 18.848 81.5716 18.6403 82.0586 18.4971C82.5492 18.3538 83.131 18.2822 83.8042 18.2822ZM83.8042 19.0771C83.0952 19.0771 82.5438 19.1667 82.1499 19.3457C81.756 19.5212 81.5591 19.7718 81.5591 20.0977C81.5591 20.3125 81.6486 20.4969 81.8276 20.6509C82.0067 20.8013 82.2645 20.9159 82.6011 20.9946C82.9377 21.0734 83.3387 21.111 83.8042 21.1074C84.2697 21.111 84.6707 21.0734 85.0073 20.9946C85.3439 20.9159 85.6017 20.8013 85.7808 20.6509C85.9598 20.4969 86.0493 20.3125 86.0493 20.0977C86.0493 19.7718 85.8524 19.5212 85.4585 19.3457C85.0646 19.1667 84.5132 19.0771 83.8042 19.0771ZM82.4507 13.9854C82.4507 14.3936 82.5438 14.7892 82.73 15.1724C82.9162 15.5555 83.1847 15.8975 83.5356 16.1982C83.8866 16.4954 84.2983 16.7246 84.771 16.8857L84.2446 17.6914C83.7147 17.5052 83.2528 17.2313 82.8589 16.8696C82.4686 16.5044 82.166 16.0801 81.9512 15.5967C81.7399 16.1445 81.4266 16.6243 81.0112 17.0361C80.5959 17.4443 80.1053 17.7523 79.5396 17.96L79.0024 17.1436C79.4894 16.9753 79.9137 16.73 80.2754 16.4077C80.6406 16.0819 80.9199 15.7095 81.1133 15.2905C81.3102 14.8716 81.4087 14.4401 81.4087 13.9961V13.7812H79.3247V12.9541H84.5132V13.7812H82.4507V13.9854Z" fill="white"/>
<path d="M93.1704 21.1074C92.687 21.1074 92.2484 21.0161 91.8545 20.8335C91.4606 20.6473 91.1473 20.3931 90.9146 20.0708C90.6818 19.745 90.5565 19.3779 90.5386 18.9697H91.688C91.7095 19.1882 91.7882 19.3851 91.9243 19.5605C92.0604 19.736 92.2376 19.8739 92.4561 19.9741C92.6745 20.0708 92.9126 20.1191 93.1704 20.1191C93.4819 20.1191 93.7594 20.0493 94.0029 19.9097C94.25 19.77 94.4434 19.5785 94.583 19.335C94.7227 19.0879 94.7925 18.8122 94.7925 18.5078C94.7925 18.1963 94.7209 17.917 94.5776 17.6699C94.4344 17.4193 94.2357 17.2241 93.9814 17.0845C93.7272 16.9412 93.439 16.8678 93.1167 16.8643C92.4614 16.8643 92.0067 17.0934 91.7524 17.5518H90.6353L91.1401 13.2227H95.5444V14.2324H92.1177L91.8599 16.4131H91.9351C92.0998 16.2555 92.311 16.1284 92.5688 16.0317C92.8302 15.9351 93.106 15.8867 93.396 15.8867C93.8758 15.8867 94.3091 15.9977 94.6958 16.2197C95.0861 16.4417 95.3905 16.7497 95.6089 17.1436C95.8309 17.5374 95.9419 17.9814 95.9419 18.4756C95.9419 18.9805 95.8237 19.4334 95.5874 19.8345C95.3511 20.2355 95.0216 20.5488 94.5991 20.7744C94.1802 20.9964 93.7039 21.1074 93.1704 21.1074ZM99.4058 21.1074C98.8078 21.1074 98.2939 20.9517 97.8643 20.6401C97.4382 20.3286 97.1123 19.8739 96.8867 19.2759C96.6611 18.6743 96.5483 17.9528 96.5483 17.1113C96.5483 16.277 96.6611 15.5609 96.8867 14.9629C97.1159 14.3613 97.4453 13.903 97.875 13.5879C98.3047 13.2728 98.8149 13.1152 99.4058 13.1152C99.9966 13.1152 100.507 13.2728 100.937 13.5879C101.366 13.903 101.694 14.3613 101.919 14.9629C102.149 15.5609 102.263 16.277 102.263 17.1113C102.263 17.9528 102.15 18.6725 101.925 19.2705C101.699 19.8685 101.372 20.325 100.942 20.6401C100.512 20.9517 100 21.1074 99.4058 21.1074ZM99.4058 20.0869C99.7567 20.0869 100.057 19.9741 100.308 19.7485C100.559 19.5194 100.75 19.1828 100.883 18.7388C101.015 18.2948 101.082 17.7523 101.082 17.1113C101.082 16.474 101.014 15.9315 100.877 15.4839C100.745 15.0327 100.553 14.6925 100.303 14.4634C100.052 14.2306 99.7531 14.1143 99.4058 14.1143C99.0584 14.1143 98.7594 14.2306 98.5088 14.4634C98.2581 14.6925 98.0648 15.0327 97.9287 15.4839C97.7962 15.9315 97.73 16.474 97.73 17.1113C97.73 17.7523 97.7962 18.2948 97.9287 18.7388C98.0612 19.1828 98.2528 19.5194 98.5034 19.7485C98.7541 19.9741 99.0549 20.0869 99.4058 20.0869ZM105.695 21.1074C105.097 21.1074 104.583 20.9517 104.153 20.6401C103.727 20.3286 103.401 19.8739 103.176 19.2759C102.95 18.6743 102.837 17.9528 102.837 17.1113C102.837 16.277 102.95 15.5609 103.176 14.9629C103.405 14.3613 103.734 13.903 104.164 13.5879C104.594 13.2728 105.104 13.1152 105.695 13.1152C106.286 13.1152 106.796 13.2728 107.226 13.5879C107.655 13.903 107.983 14.3613 108.208 14.9629C108.438 15.5609 108.552 16.277 108.552 17.1113C108.552 17.9528 108.439 18.6725 108.214 19.2705C107.988 19.8685 107.661 20.325 107.231 20.6401C106.801 20.9517 106.289 21.1074 105.695 21.1074ZM105.695 20.0869C106.046 20.0869 106.347 19.9741 106.597 19.7485C106.848 19.5194 107.039 19.1828 107.172 18.7388C107.304 18.2948 107.371 17.7523 107.371 17.1113C107.371 16.474 107.303 15.9315 107.167 15.4839C107.034 15.0327 106.842 14.6925 106.592 14.4634C106.341 14.2306 106.042 14.1143 105.695 14.1143C105.347 14.1143 105.049 14.2306 104.798 14.4634C104.547 14.6925 104.354 15.0327 104.218 15.4839C104.085 15.9315 104.019 16.474 104.019 17.1113C104.019 17.7523 104.085 18.2948 104.218 18.7388C104.35 19.1828 104.542 19.5194 104.792 19.7485C105.043 19.9741 105.344 20.0869 105.695 20.0869ZM117.151 17.9922H116.184V12.2881H117.151V17.9922ZM115.26 17.9062H114.293V15.4678H112.983V14.6191H114.293V12.4492H115.26V17.9062ZM117.151 21.7949H110.716V18.4111H117.151V21.7949ZM111.737 20.9678H116.152V19.2168H111.737V20.9678ZM111.855 14.2109C111.855 14.569 111.925 14.9199 112.064 15.2637C112.208 15.6038 112.419 15.9118 112.698 16.1875C112.978 16.4632 113.316 16.6816 113.713 16.8428L113.198 17.6377C112.772 17.4658 112.405 17.2241 112.097 16.9126C111.792 16.5975 111.554 16.234 111.382 15.8223C111.203 16.2806 110.953 16.6852 110.63 17.0361C110.308 17.3835 109.921 17.652 109.47 17.8418L108.922 17.0684C109.334 16.8965 109.687 16.6584 109.98 16.354C110.274 16.0496 110.494 15.7113 110.641 15.3389C110.792 14.9665 110.867 14.5905 110.867 14.2109V13.792H109.159V12.9648H113.466V13.792H111.855V14.2109Z" fill="#FAFF5D"/>
<defs>
<linearGradient id="paint0_linear_2235_48303" x1="0" y1="19.5" x2="132" y2="19.5" gradientUnits="userSpaceOnUse">
<stop stop-color="#00DD9E"/>
<stop offset="1" stop-color="#22BDFF"/>
</linearGradient>
</defs>
</svg>
