<svg width="48" height="48" viewBox="0 0 48 48" fill="none" xmlns="http://www.w3.org/2000/svg">
<rect width="48" height="48" rx="14" fill="#60584C"/>
<path d="M35.6106 24.2021L35.4018 24.078C34.6935 23.4178 33.7086 23.1299 32.3908 23.2039C31.2931 23.2673 30.424 23.674 29.758 24.0516C29.758 24.041 29.758 24.0331 29.758 24.0225C29.758 23.7004 29.7975 23.3518 29.8342 23.0137C29.8709 22.6704 29.9132 22.3192 29.9132 21.9891C29.9132 21.659 29.8737 21.3289 29.7467 21.0543C29.7157 20.983 29.6451 20.9434 29.5577 20.9434C29.2021 20.9513 28.5108 21.1784 28.3414 21.3157L28.2511 21.5032C28.2455 21.8703 28.158 22.8976 28.0705 23.0217C28.0734 23.0164 28.0254 23.1458 28.0254 23.1458C27.8758 24.6114 27.873 25.8975 28.0113 27.004C28.0282 27.1149 28.254 27.2813 28.4317 27.342C28.6236 27.408 29.2275 27.2575 29.5746 27.136C29.569 27.136 29.7044 27.1176 29.7044 27.1176C29.8145 27.107 29.8794 27.0199 29.8737 26.9037L29.8822 26.5868C30.1333 25.6334 31.1492 24.4926 32.3485 24.3209C33.0286 24.2206 33.5647 24.3843 33.988 24.8148C34.0444 24.8914 34.1686 25.5806 33.7227 26.3676C33.3898 26.9512 32.7238 27.445 31.8462 27.7514C31.0166 28.0471 30.1023 28.166 28.9764 28.129C28.9284 28.0999 27.921 27.4609 27.921 27.4609C27.0265 26.872 25.9146 26.1405 24.9072 25.784C24.7295 25.7206 24.4134 25.4723 24.2215 25.3271L24.1171 25.2479C23.5358 24.8121 22.4296 24.1229 21.5436 23.5683C21.5436 23.5683 21.1429 23.3174 21.0667 23.2673C21.0667 23.2356 21.0667 23.1722 21.0667 23.1722C21.0921 23.1458 21.6508 22.8342 21.6508 22.8342C22.4325 22.4064 22.7936 22.1977 22.8698 22.0895C22.8529 22.108 22.9742 22.0314 22.9742 22.0314C22.9827 22.0287 24.9101 21.0067 24.9101 21.0067C26.7697 20.0508 28.8748 18.9654 29.981 17.8959L30.0346 17.7321L30.06 17.5869C30.1333 17.3571 30.1362 17.1829 30.0769 16.9795C30.06 16.9214 30.0035 16.8528 29.9273 16.8422C29.0638 16.7603 27.9492 17.2462 26.9362 18.1362C26.7076 18.3369 26.5157 18.4346 26.3125 18.5376L26.1573 18.6194C25.0399 19.2136 22.5228 20.6766 21.2021 21.4662C21.2896 20.1406 21.552 18.2524 21.8737 16.6811L21.837 16.4936L21.7016 16.2559L21.6 16.0869L21.5718 16.079C21.3093 15.9549 21.0949 16.0051 20.9369 16.042L20.6744 16.1318L20.3217 16.2506C20.2511 16.2639 20.2032 16.3035 20.1778 16.3668C19.5485 17.7902 19.0236 20.1326 18.8995 22.005C17.6409 21.2576 16.4783 20.7189 15.9083 20.4574L15.8914 20.4495L15.8236 20.4363C15.6176 20.4126 15.3693 20.27 15.1295 20.1326C15.1041 20.1194 14.6497 19.8421 14.6497 19.8421L13.9189 19.4038L13.727 19.3615C13.4138 19.4117 12.8099 19.792 12.6321 20.0508C12.6095 20.0851 12.5982 20.1221 12.5982 20.159C12.5982 20.2145 12.6152 20.2673 12.6321 20.3228L12.6631 20.4627L12.697 20.5472C13.0469 20.8826 13.933 21.4425 14.7993 21.8782L15.8039 22.3773L17.3418 23.1643L17.6042 23.3597L17.7848 23.4574C17.7848 23.4574 17.8046 23.468 17.8187 23.4759C17.4095 23.732 15.0194 25.2241 15.0194 25.2241L13.5492 26.1378C13.4109 26.2276 12.8296 26.4706 12.6998 26.5181C12.381 26.6396 12.1383 26.8271 12.0395 27.0278L12 27.107L12.0395 27.1598L12.1524 27.239L12.3019 27.3315L12.4656 27.4345L12.618 27.4582C12.8776 27.4661 13.2586 27.3288 13.9753 27.0357C14.6328 26.7637 16.419 25.7549 17.1838 25.3245L17.5083 25.1422C17.6437 25.1528 17.7905 25.0472 17.9231 24.9521C18.0755 24.8385 18.4085 24.6458 18.6116 24.5613C18.6173 24.5613 18.733 24.4979 18.843 24.4424C18.843 24.4741 18.843 24.5243 18.843 24.5243C18.8769 26.7109 19.0095 28.3006 19.2663 29.526V29.5471L19.2945 29.5973C19.4187 29.7689 19.5626 30.2892 19.6896 30.746L19.9802 31.6597L20.0621 31.7443C20.2286 31.8499 20.7337 32.0321 21.0723 31.9951L21.157 31.9846L21.2106 31.8737C21.2388 31.7363 21.2501 31.6016 21.2501 31.4538C21.2501 31.2874 21.236 31.1025 21.2219 30.8781L21.1993 30.548C21.0921 29.0216 20.9848 26.8165 20.9848 25.3509V25.2347C21.2642 25.3958 22.4748 26.1114 22.4748 26.1114C24.5376 27.3632 27.6557 29.2566 29.5379 29.7557C29.6367 29.7821 29.7383 29.761 29.8116 29.6976C29.8116 29.695 30.1023 29.5233 30.1023 29.5233L30.1559 29.5022C30.2631 29.4547 30.3365 29.283 30.3478 29.0982C31.9365 29.0242 34.1489 28.4512 35.334 27.0568C35.7912 26.5155 36 25.8553 36 25.2901C36 24.8253 35.8617 24.4239 35.6134 24.2048" fill="#F8B500"/>
</svg>
