<svg width="134" height="134" viewBox="0 0 134 134" fill="none" xmlns="http://www.w3.org/2000/svg">
<g clip-path="url(#clip0_3633_42154)">
<mask id="mask0_3633_42154" style="mask-type:luminance" maskUnits="userSpaceOnUse" x="0" y="0" width="134" height="134">
<path d="M134 0H0V134H134V0Z" fill="white"/>
</mask>
<g mask="url(#mask0_3633_42154)">
<g opacity="0.45">
<path d="M111.027 79.6534C105.867 70.4765 98.8636 63.2062 90.0045 57.817C84.5136 54.4869 78.5397 52.2117 72.1083 50.9534C70.9389 50.7246 70.0874 49.6824 70.0874 48.4495V39.4632C70.0874 37.7601 68.4986 36.5271 66.9352 37.0356L50.8566 42.1706C49.827 42.501 49.128 43.4797 49.128 44.5982V48.4622C49.128 49.6951 48.2764 50.7373 47.107 50.9661C40.6502 52.2372 34.6763 54.4996 29.2108 57.817C20.3517 63.2062 13.3483 70.4765 8.18788 79.6534C3.02747 88.8303 0.447266 99.0876 0.447266 110.463C0.447266 121.839 3.02747 132.109 8.18788 141.273C13.3483 150.45 20.3517 157.72 29.2108 163.11C38.07 168.486 48.2382 171.181 59.7157 171.181C71.1932 171.181 81.1327 168.486 90.0045 163.11C98.8636 157.733 105.867 150.45 111.027 141.273C116.175 132.096 118.755 121.826 118.755 110.463C118.755 99.1003 116.175 88.8303 111.027 79.6534Z" fill="#C9C9C9"/>
<path d="M56.3741 94.793C56.3741 94.793 58.1789 95.276 59.6788 95.276C61.1786 95.276 62.9834 94.793 62.9834 94.793C63.3393 94.793 63.5427 95.2124 63.3012 95.492L60.7083 96.9283C60.0728 97.2842 59.2974 97.2842 58.6492 96.9283L56.0563 95.492C55.8148 95.2251 56.0182 94.793 56.3741 94.793Z" fill="#B2B2B2"/>
<path d="M51.3564 78.7148C52.7037 78.7148 53.7968 77.6217 53.7968 76.2744C53.7968 74.9271 52.7037 73.834 51.3564 73.834C50.0091 73.834 48.916 74.9271 48.916 76.2744C48.916 77.6217 50.0091 78.7148 51.3564 78.7148Z" fill="#454554"/>
<path d="M69.6755 76.5404C71.366 76.5404 72.726 75.1677 72.726 73.4899C72.726 71.8122 71.3533 70.4395 69.6755 70.4395C67.9977 70.4395 66.625 71.8122 66.625 73.4899C66.625 75.1677 67.9977 76.5404 69.6755 76.5404Z" fill="#2D2D37"/>
<path d="M37.421 85.6165C40.2173 85.6165 42.4925 83.9133 42.4925 81.8033C42.4925 79.6934 40.2173 77.9902 37.421 77.9902C34.6248 77.9902 32.3496 79.6934 32.3496 81.8033C32.3496 83.9133 34.6248 85.6165 37.421 85.6165Z" fill="#EDEDED"/>
<path d="M59.6022 155.372C72.6449 155.372 83.2181 144.799 83.2181 131.756C83.2181 118.714 72.6449 108.141 59.6022 108.141C46.5595 108.141 35.9863 118.714 35.9863 131.756C35.9863 144.799 46.5595 155.372 59.6022 155.372Z" fill="#E2E2E2"/>
<path d="M27.1031 109.029C29.3783 112.054 37.8052 116.783 41.3387 118.143C42.6225 118.638 43.9698 119.007 45.1645 119.681C46.3593 120.354 47.4397 121.396 47.7575 122.744C48.1642 124.447 47.1982 126.252 45.7873 127.281C44.3638 128.298 42.5716 128.654 40.8303 128.743C35.1106 129.061 24.0145 125.578 20.0234 121.473" fill="#C9C9C9"/>
<path d="M26.2018 109.916C28.0829 112.319 31.0063 114.035 33.5865 115.585C36.3701 117.25 39.2426 118.737 42.2931 119.831C44.1361 120.491 47.0976 121.661 46.4875 124.165C45.941 126.465 43.3227 127.253 41.2509 127.431C37.8953 127.724 34.4127 126.872 31.2224 125.893C27.6126 124.788 23.6216 123.275 20.9016 120.568C19.7449 119.411 17.9401 121.203 19.1094 122.36C21.8803 125.118 25.7823 126.745 29.4302 127.978C33.0781 129.211 37.1581 130.24 41.0348 129.986C43.2845 129.834 45.6487 129.274 47.2883 127.635C48.839 126.097 49.5762 123.758 48.7246 121.699C47.784 119.437 45.5597 118.331 43.3862 117.53C41.6449 116.894 39.9925 116.195 38.3402 115.344C36.332 114.302 34.3746 113.158 32.4934 111.899C30.8792 110.819 29.2014 109.662 27.9812 108.124C26.9771 106.841 25.185 108.645 26.1891 109.916H26.2018Z" fill="#B7B7B7"/>
<path d="M114.231 112.741C121.565 108.635 127.692 102.433 131.721 95.0608C133.093 92.5441 134.25 89.5699 133.297 86.8626C132.293 84.0155 129.077 82.3377 126.065 82.5284C123.052 82.7317 120.32 84.4985 118.311 86.7482C116.303 89.0106 114.93 91.7434 113.57 94.438" fill="#C9C9C9"/>
<path d="M103.732 78.3555L101.139 82.982L112.527 89.4389L115.12 84.8123L103.732 78.3555Z" fill="#474747" stroke="#474747" stroke-width="0.953278" stroke-miterlimit="10"/>
<path d="M59.6783 89.057C63.5672 89.057 66.7198 87.5148 66.7198 85.6125C66.7198 83.7101 63.5672 82.168 59.6783 82.168C55.7893 82.168 52.6367 83.7101 52.6367 85.6125C52.6367 87.5148 55.7893 89.057 59.6783 89.057Z" fill="#616161"/>
<path d="M111.5 82.5794L108.958 87.1297C108.386 88.1466 108.742 89.4557 109.759 90.0277L124.376 98.3149C125.393 98.8868 126.677 98.5309 127.261 97.5141L129.803 92.9638C130.375 91.947 130.019 90.6378 129.003 90.0658L114.386 81.7787C113.369 81.2067 112.085 81.5626 111.5 82.5794Z" fill="#666666"/>
<path d="M104.698 63.2433C108.117 75.5342 100.973 88.2446 88.7968 91.651C76.6076 95.0573 63.9481 87.8887 60.529 75.6105C57.1099 63.3323 64.2531 50.6092 76.4297 47.2028C88.6189 43.7964 101.278 50.9651 104.698 63.2433Z" stroke="#474747" stroke-width="6.35518" stroke-miterlimit="10"/>
<path d="M121.733 84.166C120.424 84.7126 117.539 87.1148 119.445 91.2965C120.361 93.3175 122.407 94.1945 124.377 94.6139C126.97 95.1732 130.313 94.5504 131.419 91.2076" fill="#C9C9C9"/>
<path d="M89.4979 83.4387C93.5016 83.4387 96.7555 80.9983 96.7555 77.986C96.7555 74.9736 93.5143 72.5332 89.4979 72.5332C85.4814 72.5332 82.2402 74.9736 82.2402 77.986C82.2402 80.9983 85.4814 83.4387 89.4979 83.4387Z" fill="#EDEDED"/>
<mask id="mask1_3633_42154" style="mask-type:luminance" maskUnits="userSpaceOnUse" x="52" y="82" width="15" height="8">
<g opacity="0.45">
<path d="M59.6783 89.057C63.5672 89.057 66.7198 87.5148 66.7198 85.6125C66.7198 83.7101 63.5672 82.168 59.6783 82.168C55.7893 82.168 52.6367 83.7101 52.6367 85.6125C52.6367 87.5148 55.7893 89.057 59.6783 89.057Z" fill="white"/>
</g>
</mask>
<g mask="url(#mask1_3633_42154)">
<path d="M59.6781 91.242C62.5843 91.242 64.9402 90.1665 64.9402 88.8398C64.9402 87.513 62.5843 86.4375 59.6781 86.4375C56.7719 86.4375 54.416 87.513 54.416 88.8398C54.416 90.1665 56.7719 91.242 59.6781 91.242Z" fill="#A3A3A3"/>
</g>
<path d="M105.182 43.4908C105.593 42.7842 105.978 42.248 106.339 41.8822C106.7 41.5164 107.059 41.2652 107.418 41.1285C107.787 40.9893 108.22 40.9083 108.718 40.8855C109.402 40.8552 109.933 40.782 110.313 40.6657C110.699 40.5531 110.992 40.3247 111.192 39.9806C111.389 39.6427 111.428 39.2997 111.309 38.9515C111.201 38.6008 110.972 38.3236 110.621 38.1201C110.382 37.9808 110.125 37.9058 109.852 37.895C109.585 37.8877 109.328 37.948 109.081 38.0758C108.841 38.2071 108.642 38.4 108.486 38.6545L105.242 36.7692C105.783 35.867 106.434 35.2344 107.195 34.8715C107.961 34.5025 108.769 34.3766 109.622 34.4939C110.484 34.6086 111.348 34.9177 112.214 35.4212C113.148 35.964 113.894 36.5825 114.453 37.2767C115.017 37.9746 115.341 38.7178 115.425 39.5065C115.519 40.2926 115.336 41.0819 114.875 41.8745C114.443 42.6179 113.898 43.1393 113.239 43.4386C112.58 43.7379 111.79 43.8873 110.87 43.8867C110.185 43.8914 109.636 43.9875 109.223 44.1748C108.816 44.3658 108.465 44.7162 108.168 45.2262L107.997 45.5211L105.011 43.7858L105.182 43.4908ZM104.013 49.025C103.687 48.8357 103.432 48.5809 103.249 48.2604C103.065 47.94 102.972 47.5982 102.969 47.235C102.97 46.8657 103.068 46.52 103.264 46.1979C103.443 45.8748 103.692 45.6246 104.008 45.4471C104.325 45.2695 104.668 45.1813 105.038 45.1822C105.407 45.1831 105.754 45.2782 106.08 45.4675C106.387 45.646 106.633 45.8955 106.816 46.2159C107 46.5364 107.096 46.88 107.105 47.2467C107.114 47.6135 107.025 47.9566 106.84 48.2761C106.65 48.6017 106.393 48.8546 106.066 49.0347C105.743 49.2086 105.397 49.2951 105.027 49.2942C104.658 49.2932 104.32 49.2035 104.013 49.025Z" fill="#606060"/>
</g>
</g>
</g>
<defs>
<clipPath id="clip0_3633_42154">
<rect width="134" height="134" fill="white"/>
</clipPath>
</defs>
</svg>
