<svg width="26" height="26" viewBox="0 0 26 26" fill="none" xmlns="http://www.w3.org/2000/svg">
<rect width="26" height="26" rx="13" fill="white"/>
<path d="M16.3711 7.14453C17.1993 7.14453 18.0296 7.46647 18.666 8.11719C19.2609 8.72547 19.5797 9.5129 19.6172 10.3145L19.6191 10.3555L19.627 10.3945V10.3936C19.6275 10.3967 19.6283 10.4036 19.6299 10.4141C19.6331 10.4359 19.6386 10.4735 19.6426 10.5254C19.6506 10.6294 19.6556 10.7924 19.6387 11.0059C19.605 11.4317 19.4835 12.0651 19.123 12.8477C18.4188 14.3763 16.7789 16.5088 12.999 18.7705C9.21968 16.509 7.58012 14.3762 6.87598 12.8477C6.51552 12.0652 6.39506 11.4317 6.36133 11.0059C6.34444 10.7924 6.34846 10.6294 6.35645 10.5254C6.36043 10.4735 6.36591 10.4359 6.36914 10.4141C6.37032 10.4061 6.37142 10.4002 6.37207 10.3965L6.38086 10.3555L6.38184 10.3145C6.4193 9.51293 6.73812 8.72546 7.33301 8.11719C7.9695 7.46642 8.79844 7.14455 9.62793 7.14453C10.4058 7.14453 11.1835 7.42789 11.8008 7.99902L11.9229 8.11719L12.6426 8.85156L13 9.21582L13.3564 8.85156L14.0762 8.11719H14.0771C14.7119 7.46705 15.5426 7.14455 16.3711 7.14453Z" fill="#F2F4F9" stroke="#CACACA"/>
</svg>
