<svg width="26" height="26" viewBox="0 0 26 26" fill="none" xmlns="http://www.w3.org/2000/svg">
<rect width="26" height="26" rx="13" fill="white"/>
<path d="M20.1163 10.2912C20.0734 9.37317 19.7082 8.46787 19.0234 7.76767C18.2901 7.01797 17.33 6.64453 16.3712 6.64453C15.4124 6.64453 14.4509 7.01797 13.719 7.76767L12.9996 8.50182L12.2802 7.76767C11.5483 7.01797 10.5881 6.64453 9.62799 6.64453C8.66784 6.64453 7.70907 7.01797 6.97581 7.76767C6.29098 8.46787 5.92573 9.37317 5.88284 10.2912C5.88284 10.2912 4.9476 14.6451 12.9996 19.3555C21.0516 14.6451 20.1163 10.2912 20.1163 10.2912Z" fill="black" fill-opacity="0.05"/>
<path d="M20.1163 10.2912C20.0734 9.37317 19.7082 8.46787 19.0234 7.76767C18.2901 7.01797 17.33 6.64453 16.3712 6.64453C15.4124 6.64453 14.4509 7.01797 13.719 7.76767L12.9996 8.50182L12.2802 7.76767C11.5483 7.01797 10.5881 6.64453 9.62799 6.64453C8.66784 6.64453 7.70907 7.01797 6.97581 7.76767C6.29098 8.46787 5.92573 9.37317 5.88284 10.2912C5.88284 10.2912 4.9476 14.6451 12.9996 19.3555C21.0516 14.6451 20.1163 10.2912 20.1163 10.2912Z" fill="#39B695"/>
</svg>
