<svg width="129" height="24" viewBox="0 0 129 24" fill="none" xmlns="http://www.w3.org/2000/svg">
<path d="M52.4549 7.30239C53.947 7.30239 55.1565 6.07924 55.1565 4.57041C55.1565 3.06157 53.947 1.83842 52.4549 1.83842C50.9628 1.83842 49.7533 3.06157 49.7533 4.57041C49.7533 6.07924 50.9628 7.30239 52.4549 7.30239Z" fill="#39B695" fill-opacity="0.5"/>
<path d="M53.914 9.29083L50.6455 10.4838C50.4413 10.5561 50.3085 10.7524 50.3085 10.9641V22.1709C50.3085 22.4549 50.5383 22.6822 50.8192 22.6822H54.0877C54.3686 22.6822 54.5984 22.4549 54.5984 22.1709V9.77112C54.5984 9.41477 54.246 9.16688 53.914 9.29083Z" fill="#39B695"/>
<path d="M40.6682 22.6876C40.3873 22.6876 40.1575 22.4552 40.1575 22.1712V11.9921C40.1575 10.9437 39.9124 10.009 39.4323 9.21366C38.9522 8.41834 38.3139 7.79344 37.5274 7.34414C36.7409 6.9 35.8676 6.67276 34.9381 6.67276C34.0086 6.67276 33.1762 6.9 32.3897 7.34414C31.6032 7.78828 30.9699 8.41834 30.5052 9.21366C30.0404 10.009 29.8004 10.9437 29.8004 11.9921V22.1712C29.8004 22.4552 29.5706 22.6876 29.2897 22.6876H25.9037C25.6229 22.6876 25.393 22.4552 25.393 22.1712V11.9508C25.393 10.2104 25.7914 8.64041 26.5677 7.28217C27.349 5.92392 28.4726 4.84456 29.9026 4.06989C31.3376 3.29523 33.0434 2.89757 34.9738 2.89757C36.9043 2.89757 38.605 3.29006 40.0247 4.06989C41.4445 4.84456 42.5578 5.92909 43.3392 7.28217C44.1206 8.64041 44.5138 10.2104 44.5138 11.9508V22.1712C44.5138 22.4552 44.284 22.6876 44.0031 22.6876H40.658H40.6682Z" fill="#39B695"/>
<path d="M99.9461 22.6875C99.6652 22.6875 99.4354 22.4551 99.4354 22.1711V11.77C99.4354 10.7216 99.1902 9.78681 98.7102 8.99149C98.2301 8.19617 97.5917 7.57128 96.8052 7.12197C96.0187 6.67783 95.1454 6.45059 94.216 6.45059C93.2865 6.45059 92.454 6.67783 91.6675 7.12197C90.8811 7.56611 90.2478 8.19617 89.783 8.99149C89.3183 9.78681 89.0783 10.7216 89.0783 11.77V22.1711C89.0783 22.4551 88.8485 22.6875 88.5676 22.6875H85.1816C84.9007 22.6875 84.6709 22.4551 84.6709 22.1711V11.7286C84.6709 9.98823 85.0692 8.41824 85.8455 7.06C86.6269 5.70692 87.7504 4.62239 89.1804 3.84772C90.6155 3.07306 92.3212 2.6754 94.2517 2.6754C96.1822 2.6754 97.8828 3.0679 99.3026 3.84772C100.722 4.62239 101.836 5.70692 102.617 7.06C103.398 8.41824 103.792 9.98823 103.792 11.7286V22.1711C103.792 22.4551 103.562 22.6875 103.281 22.6875H99.9359H99.9461Z" fill="#39B695"/>
<path d="M80.397 13.6084C80.397 11.6614 79.9425 9.9055 79.0335 8.33551C78.1244 6.76553 76.8834 5.5209 75.3206 4.60163C75.0704 4.45187 74.8099 4.32276 74.5495 4.19881C74.5086 4.17815 74.4678 4.16266 74.4269 4.142C74.1818 4.02838 73.9315 3.93026 73.6762 3.8373C73.6558 3.83213 73.6404 3.82181 73.62 3.81664C73.0429 3.61523 72.4403 3.46546 71.8121 3.36734C71.8121 3.36734 71.807 3.36734 71.8019 3.36734C71.2044 3.27438 70.5813 3.22273 69.9378 3.22273C68.2934 3.22273 66.8021 3.53776 65.4538 4.15749C65.4283 4.16782 65.4028 4.17815 65.3772 4.19364C65.1117 4.31759 64.8461 4.45187 64.5907 4.60163C63.028 5.5209 61.787 6.76553 60.8779 8.33551C59.9689 9.9055 59.5143 11.6614 59.5143 13.6084C59.5143 15.5554 59.9689 17.3113 60.8779 18.8813C61.787 20.4513 63.028 21.6959 64.5907 22.6152C64.841 22.7649 65.1014 22.894 65.3619 23.018C65.4028 23.0386 65.4436 23.0541 65.4845 23.0748C65.7296 23.1884 65.9799 23.2865 66.2352 23.3795C66.2556 23.3846 66.271 23.395 66.2914 23.4001C66.8685 23.6016 67.4711 23.7513 68.0993 23.8494C68.0993 23.8494 68.1044 23.8494 68.1095 23.8494C68.707 23.9424 69.3301 23.9941 69.9736 23.9941C71.618 23.9941 73.1093 23.679 74.4576 23.0593C74.4831 23.049 74.5086 23.0386 74.5342 23.0231C74.7997 22.8992 75.0653 22.7649 75.3206 22.6152C76.8834 21.6959 78.1244 20.4513 79.0335 18.8813C79.9425 17.3113 80.397 15.5554 80.397 13.6084ZM75.5045 16.9859C74.9785 17.9775 74.2328 18.778 73.3034 19.3667C72.3688 19.9555 71.235 20.255 69.9378 20.255C69.9021 20.255 69.8663 20.255 69.8306 20.2498H69.7438C69.4986 20.2395 69.2586 20.2292 69.0237 20.2034C68.1197 20.0949 67.3026 19.8109 66.6029 19.3719C65.6683 18.7831 64.9278 17.9775 64.3967 16.9704C63.8707 15.9685 63.6 14.8375 63.6 13.6136C63.6 12.3896 63.8655 11.2276 64.3967 10.236C64.9227 9.24445 65.6683 8.44397 66.6029 7.85522C67.5375 7.26648 68.6713 6.96694 69.9685 6.96694C69.9991 6.96694 70.0297 6.96694 70.0604 6.96694H70.1319C70.3566 6.97727 70.6222 6.98243 70.8775 7.01342C71.7815 7.12187 72.5935 7.40592 73.2983 7.84489C74.2328 8.43364 74.9734 9.23929 75.4994 10.2464C76.0254 11.2534 76.2961 12.3793 76.2961 13.6084C76.2961 14.8375 76.0305 15.9944 75.4994 16.9859H75.5045Z" fill="#39B695"/>
<path d="M125.014 16.6352C124.784 16.5267 124.508 16.599 124.371 16.8159C123.916 17.5234 122.731 19.0263 120.479 19.7286C119.35 20.0798 118.232 20.1315 117.267 19.8319C116.041 19.4549 114.892 18.7319 114.111 17.6267C113.916 17.353 114.044 16.9605 114.356 16.8469L127.792 11.8271C128.037 11.7341 128.175 11.4759 128.114 11.2177C128.043 10.9233 127.946 10.5463 127.864 10.3036C127.271 8.51668 126.327 7.04481 125.024 5.88798C123.722 4.73115 122.221 3.97715 120.525 3.62596C118.824 3.27478 117.073 3.40906 115.26 4.04428C113.421 4.68467 111.935 5.67108 110.796 7.01383C109.657 8.35658 108.917 9.89041 108.564 11.6205C108.217 13.3506 108.34 15.1116 108.927 16.8985C109.514 18.6854 110.464 20.1625 111.766 21.3141C113.069 22.471 114.57 23.225 116.266 23.5761C117.961 23.9273 119.713 23.8292 121.562 23.2301C123.957 22.4503 125.709 21.1334 126.888 19.7286C127.307 19.2329 127.532 18.9282 127.746 18.5512C127.894 18.2878 127.792 17.9521 127.522 17.823L125.014 16.6403V16.6352ZM112.635 12.1731C112.788 11.1092 113.176 10.1693 113.804 9.35331C114.427 8.53733 115.3 7.93826 116.414 7.54576C117.507 7.1636 118.549 7.10162 119.539 7.35468C120.53 7.60774 121.398 8.11901 122.144 8.88335C122.343 9.08993 122.532 9.312 122.706 9.5444C122.91 9.82327 122.782 10.2261 122.455 10.3397L113.247 13.5417C112.915 13.6553 112.568 13.4125 112.568 13.0562C112.568 12.7567 112.594 12.4623 112.635 12.1679V12.1731Z" fill="#39B695" fill-opacity="0.5"/>
<path d="M19.5191 8.34146C18.6101 6.77148 17.3691 5.52685 15.8063 4.60758C14.8564 4.04982 13.8197 3.66249 12.7063 3.44559C12.4663 3.39911 12.2875 3.19253 12.2875 2.93947V0.517358C12.2875 0.161013 11.9352 -0.0920443 11.6032 0.0319019L8.92711 1.01831C8.72283 1.09061 8.59005 1.28686 8.59005 1.50376V2.93947C8.59005 3.18737 8.4113 3.39394 8.17127 3.44559C7.05283 3.66249 6.0212 4.04982 5.0764 4.60758C3.51365 5.52685 2.27263 6.77148 1.36358 8.34146C0.454527 9.91145 0 11.6674 0 13.6143C0 15.5613 0.454527 17.3172 1.36358 18.8872C2.27263 20.4572 3.51365 21.7018 5.0764 22.6211C6.63916 23.5404 8.43684 24 10.4643 24C12.4918 24 14.2487 23.5404 15.8114 22.6211C17.3742 21.7018 18.6152 20.4572 19.5242 18.8872C20.4333 17.3172 20.8878 15.5613 20.8878 13.6143C20.8878 11.6674 20.4333 9.91145 19.5242 8.34146H19.5191ZM15.7348 16.9867C15.2292 17.9783 14.5244 18.7788 13.6307 19.3675C12.737 19.9563 11.6594 20.2558 10.4184 20.2558C10.3826 20.2558 10.352 20.2558 10.3162 20.2506H10.2345C9.99959 20.2403 9.76977 20.23 9.55017 20.2041C8.68708 20.0957 7.91081 19.8116 7.24179 19.3727C6.34805 18.7839 5.64328 17.9783 5.13769 16.9712C4.63209 15.9693 4.38184 14.8383 4.38184 13.6143C4.38184 12.3904 4.6372 11.2284 5.13769 10.2368C5.64328 9.24524 6.34805 8.44475 7.24179 7.85601C8.13552 7.26726 9.21311 6.96772 10.4541 6.96772C10.4848 6.96772 10.5154 6.96772 10.5409 6.96772H10.6073C10.8218 6.97805 11.0721 6.98322 11.3223 7.0142C12.1854 7.12266 12.9617 7.4067 13.6307 7.84568C14.5244 8.43442 15.2292 9.24007 15.7348 10.2471C16.2404 11.2542 16.4958 12.38 16.4958 13.6092C16.4958 14.8383 16.2404 15.9951 15.7348 16.9867Z" fill="#39B695"/>
</svg>
