<svg width="30" height="30" viewBox="0 0 30 30" fill="none" xmlns="http://www.w3.org/2000/svg">
<path d="M9.49902 2.5296C11.9845 2.5298 13.9989 5.21661 13.999 8.53058C13.999 11.3926 12.4962 13.7851 10.4854 14.3851L11.1904 25.6673C11.2512 26.6437 10.4754 27.4691 9.49707 27.4691C8.51881 27.4689 7.74296 26.6436 7.80371 25.6673L8.50879 14.3841C6.49966 13.7824 4.99805 11.391 4.99805 8.53058C4.99817 5.21649 7.01343 2.5296 9.49902 2.5296Z" fill="#79AFFF"/>
<path d="M23.9163 2.5296C24.5144 2.52963 24.9999 3.01459 25.0002 3.61261L24.9993 8.56573C24.987 11.4111 23.4888 13.7854 21.4875 14.3841L22.1926 25.6673C22.2534 26.6436 21.4784 27.4688 20.5002 27.4691C19.5219 27.4691 18.7461 26.6437 18.8069 25.6673L19.511 14.3841C17.5093 13.7857 16.0106 11.4114 15.9983 8.56573V3.61261C15.9987 3.0148 16.4835 2.52998 17.0813 2.5296C17.6794 2.52968 18.1649 3.01462 18.1653 3.61261V8.7757C18.1653 9.12095 18.446 9.4007 18.7913 9.4007C19.1363 9.40045 19.4163 9.1208 19.4163 8.7757V3.61261C19.4167 3.01494 19.9007 2.5302 20.4983 2.5296C21.0964 2.5296 21.5829 3.01457 21.5833 3.61261V8.7757C21.5833 9.12092 21.863 9.40065 22.2083 9.4007C22.5535 9.4007 22.8333 9.12095 22.8333 8.7757V3.61261C22.8336 3.01481 23.3185 2.52998 23.9163 2.5296Z" fill="#79AFFF"/>
<path d="M6.5 7C6.5 6.5 6.9 5.3 8.5 4.5" stroke="white" stroke-linecap="round"/>
</svg>
