<svg width="24" height="24" viewBox="0 0 24 24" fill="none" xmlns="http://www.w3.org/2000/svg">
<path d="M9.50703 19.029L7 13.7563L10.0249 13.7563L11.2849 18.4589C11.3564 18.7256 11.1981 18.9998 10.9314 19.0713L10.088 19.2972C9.85499 19.3597 9.61062 19.2468 9.50703 19.029Z" fill="#489D7A"/>
<path d="M10 6.99976L17.0559 3.57238C18.0521 3.08844 19.2112 3.81405 19.2112 4.92162V16.1977C19.2112 17.3142 18.0351 18.0394 17.0375 17.5379L10 14V6.99976Z" fill="#5BD6A4"/>
<path d="M5 8.78947C5 7.80117 5.80117 7 6.78947 7H10V14H6.78947C5.80117 14 5 13.1988 5 12.2105V8.78947Z" fill="#489D7A"/>
<path d="M19.2104 9.28857H19.9999C20.5522 9.28857 20.9999 9.73629 20.9999 10.2886V11.8675C20.9999 12.4198 20.5522 12.8675 19.9999 12.8675H19.2104V9.28857Z" fill="#489D7A"/>
</svg>
