<svg width="38" height="38" viewBox="0 0 38 38" fill="none" xmlns="http://www.w3.org/2000/svg">
<path d="M32.164 11.9192C30.663 9.36241 28.6259 7.3295 26.0491 5.82787C24.452 4.89812 22.7144 4.26352 20.8437 3.91302C20.5036 3.8503 20.2559 3.55883 20.2559 3.2157V0.710534C20.2559 0.234588 19.7938 -0.108535 19.3391 0.0316656L14.6623 1.46319C14.3629 1.55543 14.1595 1.82845 14.1595 2.14206V3.22308C14.1595 3.5699 13.9118 3.85768 13.5717 3.9204C11.6936 4.27459 9.95605 4.9055 8.36633 5.83156C5.78952 7.33319 3.75246 9.36241 2.25148 11.9229C0.750493 14.4834 0 17.3465 0 20.5158C0 23.6851 0.750493 26.5518 2.25148 29.1123C3.75246 31.6728 5.78952 33.702 8.36633 35.2037C10.9431 36.7053 13.9008 37.4543 17.2392 37.4543C20.5776 37.4543 23.4686 36.7016 26.0491 35.2037C28.6259 33.702 30.663 31.6728 32.164 29.1123C33.6613 26.5555 34.4118 23.6887 34.4118 20.5158C34.4118 17.3428 33.6613 14.4798 32.164 11.9229V11.9192Z" fill="url(#paint0_linear_1855_4387)"/>
<path d="M11.6109 17.2488C12.3622 17.2488 12.9718 16.6393 12.9718 15.8882C12.9718 15.137 12.3622 14.5276 11.6109 14.5276C10.8596 14.5276 10.25 15.137 10.25 15.8882C10.25 16.6393 10.8596 17.2488 11.6109 17.2488Z" fill="#282828"/>
<path d="M20.8194 17.2488C21.5708 17.2488 22.1803 16.6393 22.1803 15.8882C22.1803 15.137 21.5708 14.5276 20.8194 14.5276C20.0681 14.5276 19.4585 15.137 19.4585 15.8882C19.4585 16.6393 20.0681 17.2488 20.8194 17.2488Z" fill="#282828"/>
<path d="M20.2584 22.2459C20.2584 20.1247 18.5384 18.4051 16.4167 18.4051C14.2949 18.4051 12.575 20.1247 12.575 22.2459V24.2656C12.575 26.3868 14.2949 28.1064 16.4167 28.1064C18.5384 28.1064 20.2584 26.3868 20.2584 24.2656V22.2459Z" fill="#AC3D38"/>
<mask id="mask0_1855_4387" style="mask-type:luminance" maskUnits="userSpaceOnUse" x="12" y="18" width="9" height="11">
<path d="M20.2621 22.2467C20.2621 20.1254 18.5421 18.4058 16.4204 18.4058C14.2986 18.4058 12.5786 20.1254 12.5786 22.2467V24.2663C12.5786 26.3876 14.2986 28.1072 16.4204 28.1072C18.5421 28.1072 20.2621 26.3876 20.2621 24.2663V22.2467Z" fill="white"/>
</mask>
<g mask="url(#mask0_1855_4387)">
<path fill-rule="evenodd" clip-rule="evenodd" d="M20.5641 23.2524C20.5641 23.2524 17.8281 23.5004 16.3325 25.1515C14.8369 26.8027 15.4678 28.8011 15.4678 28.8011L20.8193 28.8294L20.5641 23.2524Z" fill="#E56A65"/>
</g>
<path d="M29.9705 5.29488C30.4154 4.61407 30.8335 3.4222 31.0417 2.88434C31.09 2.75951 31.1605 2.64668 31.2204 2.63016C31.994 2.41654 31.4295 4.75792 31.5331 4.92142C31.6585 5.11925 31.9352 5.17516 32.1282 5.26451C32.2269 5.31024 32.3506 5.29488 32.4409 5.25066C32.8661 5.04223 33.1851 4.55153 33.5872 3.95738C34.0788 3.23086 34.4663 2.94331 34.5271 2.91204C34.9548 2.69188 33.7846 3.98061 33.4424 4.73826C33.1322 5.42521 33.2164 6.09631 33.4822 6.66053C33.8748 7.49399 34.7933 7.67684 35.1793 7.76618C35.6138 7.86676 36.2506 7.73759 36.5807 7.79566C38.2461 8.08863 34.142 9.07599 33.8293 9.31364C33.622 9.47118 33.7525 9.79075 33.8414 10.0137C34.1098 10.3867 34.2581 10.5958 34.4364 10.6552C34.5262 10.6851 34.6146 10.7146 34.7951 10.745" stroke="#F9B1AD" stroke-width="1.07537" stroke-linecap="round"/>
<defs>
<linearGradient id="paint0_linear_1855_4387" x1="17.2059" y1="0" x2="17.2059" y2="37.4543" gradientUnits="userSpaceOnUse">
<stop stop-color="#FFC68D"/>
<stop offset="1" stop-color="#FF7272"/>
</linearGradient>
</defs>
</svg>
