<svg width="35" height="39" viewBox="0 0 35 39" fill="none" xmlns="http://www.w3.org/2000/svg">
<path d="M32.6811 12.1109C31.156 9.51293 29.0862 7.44733 26.4679 5.92157C24.8451 4.97686 23.0796 4.33207 21.1788 3.97593C20.8333 3.9122 20.5816 3.61604 20.5816 3.2674V0.721957C20.5816 0.23836 20.112 -0.11028 19.65 0.0321747L14.8981 1.48672C14.5938 1.58044 14.3872 1.85785 14.3872 2.1765V3.2749C14.3872 3.62729 14.1355 3.9197 13.7899 3.98343C11.8816 4.34331 10.1161 4.98436 8.50084 5.92531C5.8826 7.45108 3.81279 9.51293 2.28768 12.1146C0.762559 14.7163 0 17.6254 0 20.8456C0 24.0658 0.762559 26.9787 2.28768 29.5803C3.81279 32.182 5.8826 34.2439 8.50084 35.7696C11.1191 37.2954 14.1242 38.0564 17.5163 38.0564C20.9084 38.0564 23.8459 37.2917 26.4679 35.7696C29.0862 34.2439 31.156 32.182 32.6811 29.5803C34.2024 26.9824 34.965 24.0696 34.965 20.8456C34.965 17.6216 34.2024 14.7125 32.6811 12.1146V12.1109Z" fill="url(#paint0_linear_2036_483)"/>
<path d="M13.6616 22.791H21.1005" stroke="black" stroke-width="1.09266" stroke-linecap="round"/>
<rect x="9.35132" y="14.91" width="5.2649" height="5.2649" rx="2.63245" fill="white"/>
<rect x="10.0945" y="15.4479" width="2.63245" height="2.63245" rx="1.31623" fill="black"/>
<rect x="18.709" y="14.91" width="5.2649" height="5.2649" rx="2.63245" fill="white"/>
<rect x="19.4529" y="15.4479" width="2.63245" height="2.63245" rx="1.31623" fill="black"/>
<path d="M29.1715 13.1185C29.1715 13.9702 28.481 14.6607 27.6293 14.6607C26.7776 14.6607 26.0872 13.9702 26.0872 13.1185C26.0872 12.2668 26.8401 9.74695 27.6293 9.74695C28.4185 9.74695 29.1715 12.2668 29.1715 13.1185Z" fill="#638AAE"/>
<path d="M31.9077 18.5377C31.9077 19.2933 31.2952 19.9058 30.5396 19.9058C29.7841 19.9058 29.1716 19.2933 29.1716 18.5377C29.1716 17.7822 29.8395 15.5469 30.5396 15.5469C31.2398 15.5469 31.9077 17.7822 31.9077 18.5377Z" fill="#638AAE"/>
<defs>
<linearGradient id="paint0_linear_2036_483" x1="17.4825" y1="0" x2="17.4825" y2="38.0564" gradientUnits="userSpaceOnUse">
<stop stop-color="#BFF3EE"/>
<stop offset="1" stop-color="#76B6FF"/>
</linearGradient>
</defs>
</svg>
