<svg width="35" height="38" viewBox="0 0 35 38" fill="none" xmlns="http://www.w3.org/2000/svg">
<path d="M32.164 11.9192C30.663 9.36241 28.6259 7.3295 26.0491 5.82787C24.452 4.89812 22.7144 4.26352 20.8437 3.91302C20.5036 3.8503 20.2559 3.55883 20.2559 3.2157V0.710534C20.2559 0.234588 19.7938 -0.108535 19.3391 0.0316656L14.6623 1.46319C14.3629 1.55543 14.1595 1.82845 14.1595 2.14206V3.22308C14.1595 3.5699 13.9118 3.85768 13.5717 3.9204C11.6936 4.27459 9.95605 4.9055 8.36633 5.83156C5.78952 7.33319 3.75247 9.36241 2.25148 11.9229C0.750493 14.4834 0 17.3465 0 20.5158C0 23.6851 0.750493 26.5518 2.25148 29.1123C3.75247 31.6728 5.78952 33.702 8.36633 35.2037C10.9432 36.7053 13.9008 37.4543 17.2392 37.4543C20.5776 37.4543 23.4686 36.7016 26.0491 35.2037C28.6259 33.702 30.663 31.6728 32.164 29.1123C33.6613 26.5555 34.4118 23.6887 34.4118 20.5158C34.4118 17.3428 33.6613 14.4798 32.164 11.9229V11.9192Z" fill="url(#paint0_linear_1855_4374)"/>
<path d="M10.1736 16.3473C10.1736 16.3473 10.9614 15.4221 12.2913 15.4221C13.6213 15.4221 14.2398 16.3473 14.2398 16.3473" stroke="black" stroke-width="1.07537" stroke-linecap="round"/>
<path d="M20.1726 16.3478C20.1726 16.3478 20.9604 15.4226 22.2903 15.4226C23.6203 15.4226 24.2388 16.3478 24.2388 16.3478" stroke="black" stroke-width="1.07537" stroke-linecap="round"/>
<path fill-rule="evenodd" clip-rule="evenodd" d="M12.2408 20.6336L12.2521 19.7713C12.254 19.395 12.7023 19.1705 13.0476 19.379C13.7925 19.825 15.1055 20.3565 17.1548 20.3732C19.2049 20.397 20.5284 19.8928 21.2837 19.4695C21.6343 19.2722 22.0767 19.5042 22.0677 19.8815L22.0564 20.7437C22.0284 23.0404 19.9911 24.9028 17.521 24.8756L16.6739 24.8696C14.2038 24.8423 12.2066 22.9382 12.2346 20.6416L12.2408 20.6336Z" fill="#AC3D38"/>
<mask id="mask0_1855_4374" style="mask-type:luminance" maskUnits="userSpaceOnUse" x="12" y="19" width="11" height="6">
<path d="M12.2413 20.6345L12.2526 19.7723C12.2545 19.3959 12.7028 19.1714 13.0481 19.3799C13.793 19.8259 15.106 20.3575 17.1553 20.3741C19.2054 20.3979 20.5289 19.8937 21.2842 19.4704C21.6348 19.2731 22.0772 19.5051 22.0682 19.8824L22.0569 20.7446C22.0289 23.0413 19.9916 24.9038 17.5215 24.8765L16.6744 24.8705C14.2042 24.8433 12.2071 22.9392 12.2351 20.6425L12.2413 20.6345Z" fill="white"/>
</mask>
<g mask="url(#mask0_1855_4374)">
<path fill-rule="evenodd" clip-rule="evenodd" d="M21.8552 25.8337C21.8342 27.9051 19.7275 29.5669 17.1559 29.5383C14.5844 29.5097 12.5187 27.8026 12.5397 25.7311C12.5607 23.6596 14.6674 21.9979 17.239 22.0265C19.8106 22.055 21.8762 23.7622 21.8552 25.8337Z" fill="#FF9A96"/>
</g>
<path d="M15.8622 25.9771C15.8622 25.9771 16.6864 26.1833 17.3698 26.1627C18.0525 26.1478 18.8666 25.9163 18.8666 25.9163C19.0299 25.9131 19.1227 26.1049 19.0141 26.2312L17.8484 26.9083C17.56 27.0765 17.2104 27.08 16.9149 26.9272L15.7238 26.2976C15.6111 26.1732 15.6989 25.9803 15.8622 25.9771Z" fill="#41AF63"/>
<defs>
<linearGradient id="paint0_linear_1855_4374" x1="17.2059" y1="0" x2="17.2059" y2="37.4543" gradientUnits="userSpaceOnUse">
<stop stop-color="#A8E265"/>
<stop offset="1" stop-color="#39B695"/>
</linearGradient>
</defs>
</svg>
