<svg width="38" height="41" viewBox="0 0 38 41" fill="none" xmlns="http://www.w3.org/2000/svg">
<path d="M19.623 1.05273L20.1797 0.882812L21.1309 0.591797L21.1318 0.59082C21.1548 0.58376 21.1763 0.581994 21.1953 0.583008L21.3174 0.588867L21.3604 0.706055C21.3671 0.724442 21.3711 0.746055 21.3711 0.770508V1.8623H21.9541V2.39355H21.3711V3.48535C21.3711 3.60573 21.3875 3.72332 21.418 3.83594L21.5693 4.39844L21.666 4.37207L21.625 4.46191L22.1533 4.70801C22.2575 4.75658 22.369 4.793 22.4854 4.81445V4.81348C22.8472 4.88131 23.2039 4.95986 23.5557 5.04785L24.1211 5.18945L24.2598 4.63379C25.1036 4.87368 25.92 5.17139 26.708 5.5293L26.4541 6.04199L26.9766 6.30176C27.3026 6.46356 27.6238 6.63654 27.9395 6.82031C28.4406 7.11235 28.9223 7.42336 29.3838 7.75293L29.8574 8.09082L30.1904 7.62402C31.4578 8.59087 32.5751 9.70518 33.5439 10.9648L33.0791 11.2998L33.4199 11.7725C33.7218 12.1918 34.0072 12.6275 34.2773 13.0791V13.502H34.5195C34.7548 13.9219 34.9716 14.3491 35.1689 14.7842L35.4102 15.3154L35.9307 15.0781C36.55 16.5758 36.9575 18.1599 37.1553 19.8311L36.585 19.8818L36.6367 20.4619C36.6879 21.0417 36.7129 21.6328 36.7129 22.2354C36.7129 22.838 36.6879 23.4297 36.6367 24.0098L36.585 24.5898L37.1553 24.6396C36.9576 26.3113 36.5498 27.8963 35.9307 29.3945L35.4102 29.1592L35.1689 29.6895C34.9874 30.0901 34.7899 30.4844 34.5762 30.8721L34.3574 31.2578C34.0643 31.7578 33.7513 32.2376 33.4199 32.6982L33.0801 33.1719L33.5439 33.5059C32.5751 34.7661 31.4579 35.8793 30.1904 36.8457L29.8584 36.3799L29.3838 36.7178C29.0376 36.9649 28.68 37.2016 28.3115 37.4277L27.9395 37.6504C27.4155 37.9545 26.8798 38.2294 26.3311 38.4746L25.7988 38.7119L26.0322 39.2344C24.504 39.8567 22.8773 40.2644 21.1318 40.459L21.085 39.8887L20.5039 39.9365C19.9124 39.9857 19.3057 40.0107 18.6836 40.0107C18.0594 40.0107 17.4488 39.9859 16.8516 39.9365L16.2705 39.8887L16.2227 40.459C14.4664 40.265 12.8186 39.859 11.2793 39.2373L11.5117 38.7148L10.9795 38.4785L10.5664 38.2881C10.1562 38.0924 9.75464 37.8796 9.36133 37.6504L8.98828 37.4277C8.61983 37.2017 8.26215 36.9648 7.91602 36.7178L7.44238 36.3799L7.10938 36.8457C5.84178 35.8792 4.72382 34.7663 3.75488 33.5059L4.21973 33.1719L3.87988 32.6982L3.63477 32.3496C3.39342 31.9968 3.16317 31.6328 2.94336 31.2578L2.72363 30.8721C2.50959 30.4843 2.31169 30.09 2.12988 29.6895L1.88867 29.1592L1.36719 29.3945C0.746731 27.8953 0.337606 26.3102 0.139648 24.6396L0.710938 24.5898L0.660156 24.0098L0.625977 23.5723C0.606733 23.2795 0.59432 22.9839 0.587891 22.6855L0.583008 22.2354C0.583008 21.7834 0.597093 21.3377 0.625977 20.8984L0.660156 20.4619L0.710938 19.8809L0.139648 19.8301C0.337757 18.16 0.746455 16.5758 1.36719 15.0771L1.88867 15.3145L2.12988 14.7842C2.31164 14.3839 2.50965 13.9901 2.72363 13.6025L2.94336 13.2168C3.16317 12.8418 3.39342 12.4778 3.63477 12.125L3.87988 11.7764L4.21973 11.3027L3.75488 10.9678C4.72383 9.70744 5.84179 8.59433 7.10938 7.62793L7.44238 8.09473L7.91602 7.75684C8.26215 7.50976 8.61983 7.27296 8.98828 7.04688L9.36133 6.82422C9.51889 6.73244 9.67754 6.6429 9.83789 6.55664L10.3232 6.30566L10.8457 6.04785L10.5908 5.53516C11.3778 5.17876 12.1943 4.88143 13.04 4.6416L13.1787 5.19727L13.7441 5.05664C14.0953 4.96888 14.4518 4.88957 14.8135 4.82129L14.8145 4.82227C14.9302 4.80093 15.0415 4.76501 15.1455 4.7168L15.6748 4.47168L15.6318 4.37891L15.7324 4.40625L15.8828 3.84277C15.9129 3.73034 15.9287 3.61305 15.9287 3.49316V2.32129L15.9346 2.27637L15.9521 2.20117L16.0205 2.16113C16.0331 2.15377 16.047 2.14736 16.0625 2.14258L16.0615 2.1416L17.0127 1.85254L17.5693 1.68164L17.3984 1.12402L19.4521 0.495117L19.623 1.05273Z" fill="#F4F4F4" stroke="#CACACA" stroke-width="1.1655" stroke-linecap="square" stroke-dasharray="3.5 5.83"/>
</svg>
