<svg width="35" height="39" viewBox="0 0 35 39" fill="none" xmlns="http://www.w3.org/2000/svg">
<path d="M32.6811 12.1109C31.156 9.51293 29.0862 7.44733 26.4679 5.92157C24.8451 4.97686 23.0796 4.33207 21.1788 3.97593C20.8333 3.9122 20.5816 3.61604 20.5816 3.2674V0.721957C20.5816 0.23836 20.112 -0.11028 19.65 0.0321747L14.8981 1.48672C14.5938 1.58044 14.3872 1.85785 14.3872 2.1765V3.2749C14.3872 3.62729 14.1355 3.9197 13.7899 3.98343C11.8816 4.34331 10.1161 4.98436 8.50084 5.92531C5.8826 7.45108 3.81279 9.51293 2.28768 12.1146C0.762559 14.7163 0 17.6254 0 20.8456C0 24.0658 0.762559 26.9787 2.28768 29.5803C3.81279 32.182 5.8826 34.2439 8.50084 35.7696C11.1191 37.2954 14.1242 38.0564 17.5163 38.0564C20.9084 38.0564 23.8459 37.2917 26.4679 35.7696C29.0862 34.2439 31.156 32.182 32.6811 29.5803C34.2024 26.9824 34.965 24.0696 34.965 20.8456C34.965 17.6216 34.2024 14.7125 32.6811 12.1146V12.1109Z" fill="url(#paint0_linear_2383_2075)"/>
<path d="M14.791 19.067C14.3989 19.6979 13.551 20.1346 12.5682 20.1346C11.5656 20.1346 10.7034 19.6801 10.3223 19.0288" stroke="black" stroke-width="0.754685" stroke-linecap="round"/>
<path d="M13.5542 23.7759C14.5897 23.0441 15.9804 22.5963 17.5095 22.5963C19.0386 22.5963 20.4294 23.0441 21.4649 23.7759" stroke="black" stroke-width="0.754685" stroke-linecap="round"/>
<path d="M24.6436 19.067C24.2515 19.6979 23.4036 20.1346 22.4207 20.1346C21.4182 20.1346 20.556 19.6801 20.1748 19.0288" stroke="black" stroke-width="0.754685" stroke-linecap="round"/>
<path d="M26.9652 25.2202C26.9652 26.0719 26.2747 26.7624 25.423 26.7624C24.5713 26.7624 23.8809 26.0719 23.8809 25.2202C23.8809 24.3685 24.6338 21.8486 25.423 21.8486C26.2122 21.8486 26.9652 24.3685 26.9652 25.2202Z" fill="#E8F4FF"/>
<defs>
<linearGradient id="paint0_linear_2383_2075" x1="17.4825" y1="0" x2="17.4825" y2="38.0564" gradientUnits="userSpaceOnUse">
<stop stop-color="#D3DAFF"/>
<stop offset="1" stop-color="#7285FF"/>
</linearGradient>
</defs>
</svg>
