<svg width="36" height="38" viewBox="0 0 36 38" fill="none" xmlns="http://www.w3.org/2000/svg">
<path d="M32.7016 11.9192C31.2006 9.36241 29.1635 7.3295 26.5867 5.82787C24.9896 4.89812 23.252 4.26352 21.3813 3.91302C21.0412 3.8503 20.7935 3.55883 20.7935 3.2157V0.710534C20.7935 0.234588 20.3314 -0.108535 19.8767 0.0316656L15.1999 1.46319C14.9005 1.55543 14.6971 1.82845 14.6971 2.14206V3.22308C14.6971 3.5699 14.4494 3.85768 14.1093 3.9204C12.2312 4.27459 10.4936 4.9055 8.90393 5.83156C6.32712 7.33319 4.29006 9.36241 2.78908 11.9229C1.28809 14.4834 0.537598 17.3465 0.537598 20.5158C0.537598 23.6851 1.28809 26.5518 2.78908 29.1123C4.29006 31.6728 6.32712 33.702 8.90393 35.2037C11.4807 36.7053 14.4384 37.4543 17.7768 37.4543C21.1152 37.4543 24.0062 36.7016 26.5867 35.2037C29.1635 33.702 31.2006 31.6728 32.7016 29.1123C34.1989 26.5555 34.9494 23.6887 34.9494 20.5158C34.9494 17.3428 34.1989 14.4798 32.7016 11.9229V11.9192Z" fill="url(#paint0_linear_1900_6059)"/>
<path d="M12.1485 17.2488C12.8998 17.2488 13.5094 16.6393 13.5094 15.8882C13.5094 15.137 12.8998 14.5276 12.1485 14.5276C11.3972 14.5276 10.7876 15.137 10.7876 15.8882C10.7876 16.6393 11.3972 17.2488 12.1485 17.2488Z" fill="#282828"/>
<path d="M21.357 17.2488C22.1084 17.2488 22.7179 16.6393 22.7179 15.8882C22.7179 15.137 22.1084 14.5276 21.357 14.5276C20.6057 14.5276 19.9961 15.137 19.9961 15.8882C19.9961 16.6393 20.6057 17.2488 21.357 17.2488Z" fill="#282828"/>
<path d="M4.68506 23.0092C4.68506 21.9796 5.41467 21.0945 6.42528 20.898L17.3842 18.7671C17.5198 18.7407 17.6592 18.7407 17.7947 18.7671L28.7537 20.898C29.7643 21.0945 30.4939 21.9796 30.4939 23.0092V29.5003C30.4939 30.5299 29.7643 31.415 28.7537 31.6115L17.7947 33.7424C17.6592 33.7688 17.5198 33.7688 17.3842 33.7424L6.42529 31.6115C5.41467 31.415 4.68506 30.5299 4.68506 29.5003V23.0092Z" fill="white"/>
<path d="M0.268869 19.7714C0.011693 19.623 -0.0764332 19.2941 0.0720339 19.037C0.220501 18.7798 0.54934 18.6917 0.806516 18.8401L0.537693 19.3058L0.268869 19.7714ZM5.22266 22.0104L4.95383 22.4761L0.268869 19.7714L0.537693 19.3058L0.806516 18.8401L5.49148 21.5447L5.22266 22.0104Z" fill="white"/>
<path d="M34.8014 19.7714C35.0586 19.623 35.1467 19.2941 34.9983 19.037C34.8498 18.7798 34.521 18.6917 34.2638 18.8401L34.5326 19.3058L34.8014 19.7714ZM29.8477 22.0104L30.1165 22.4761L34.8014 19.7714L34.5326 19.3058L34.2638 18.8401L29.5788 21.5447L29.8477 22.0104Z" fill="white"/>
<path d="M31.8956 31.0219C32.1528 31.1704 32.2408 31.4992 32.0923 31.7564C31.9438 32.0135 31.615 32.1016 31.3578 31.9531L31.6267 31.4875L31.8956 31.0219ZM30.0137 30.5559L30.2826 30.0902L31.8956 31.0219L31.6267 31.4875L31.3578 31.9531L29.7448 31.0215L30.0137 30.5559Z" fill="white"/>
<path d="M3.34069 31.0219C3.08355 31.1704 2.99548 31.4992 3.144 31.7564C3.29251 32.0135 3.62137 32.1016 3.87852 31.9531L3.6096 31.4875L3.34069 31.0219ZM5.22266 30.5559L4.95374 30.0902L3.34069 31.0219L3.6096 31.4875L3.87852 31.9531L5.49157 31.0215L5.22266 30.5559Z" fill="white"/>
<rect x="12.2124" y="22.3987" width="2.15074" height="12.9044" rx="1.07537" transform="rotate(-45 12.2124 22.3987)" fill="#E35B5B"/>
<rect x="21.3374" y="20.8781" width="2.15074" height="12.9044" rx="1.07537" transform="rotate(45 21.3374 20.8781)" fill="#E35B5B"/>
<defs>
<linearGradient id="paint0_linear_1900_6059" x1="17.7435" y1="0" x2="17.7435" y2="37.4543" gradientUnits="userSpaceOnUse">
<stop stop-color="#FFC68D"/>
<stop offset="1" stop-color="#FF7272"/>
</linearGradient>
</defs>
</svg>
