<svg width="44" height="44" viewBox="0 0 44 44" fill="none" xmlns="http://www.w3.org/2000/svg">
<path d="M37.8515 15.4924C36.3162 12.877 34.2325 10.7976 31.5966 9.26153C29.9629 8.31048 28.1855 7.66135 26.272 7.30282C25.9241 7.23866 25.6707 6.94052 25.6707 6.58953V4.02698C25.6707 3.54013 25.198 3.18915 24.7328 3.33256L19.949 4.79688C19.6427 4.89123 19.4347 5.17051 19.4347 5.4913V6.59708C19.4347 6.95184 19.1813 7.24621 18.8334 7.31037C16.9123 7.67268 15.1349 8.31803 13.5088 9.26531C10.8729 10.8013 8.78922 12.877 7.25386 15.4962C5.71849 18.1154 4.95081 21.044 4.95081 24.2859C4.95081 27.5278 5.71849 30.4602 7.25386 33.0793C8.78922 35.6985 10.8729 37.7742 13.5088 39.3102C16.1446 40.8462 19.17 41.6124 22.5848 41.6124C25.9997 41.6124 28.957 40.8425 31.5966 39.3102C34.2325 37.7742 36.3162 35.6985 37.8515 33.0793C39.3831 30.4639 40.1508 27.5315 40.1508 24.2859C40.1508 21.0402 39.3831 18.1116 37.8515 15.4962V15.4924Z" fill="url(#paint0_linear_3179_9729)"/>
<path d="M15.6638 18.3288C16.6709 18.8495 17.678 19.3702 18.6851 19.8908L19.113 20.1092L19.1148 19.0953C18.0986 19.5895 17.0741 20.0773 16.0578 20.5715L15.6265 20.7828C15.3622 20.9132 15.2097 21.2215 15.3348 21.5013C15.4434 21.7684 15.789 21.9234 16.0533 21.793C17.0695 21.2988 18.094 20.8109 19.1103 20.3167L19.5416 20.1055C19.9876 19.8923 19.9641 19.3108 19.5435 19.0915C18.5364 18.5709 17.5292 18.0502 16.5221 17.5295L16.0943 17.3112C15.8324 17.1749 15.4846 17.3458 15.3702 17.6048C15.245 17.8947 15.401 18.1853 15.6638 18.3288Z" fill="#282828"/>
<path d="M29.0464 17.4685C28.0311 17.97 27.0076 18.4651 25.9923 18.9666C25.8461 19.0374 25.7071 19.1071 25.5609 19.1779C25.1223 19.3901 25.1312 19.9734 25.5591 20.1918C26.5652 20.7052 27.5714 21.2186 28.5776 21.732L29.0127 21.9494C29.2746 22.0856 29.6224 21.9148 29.7368 21.6558C29.862 21.3658 29.7123 21.067 29.4433 20.9317C28.4371 20.4183 27.4309 19.9049 26.4247 19.3916L25.9896 19.1741L25.9877 20.1881C27.003 19.6866 28.0266 19.1915 29.0419 18.69C29.1881 18.6192 29.327 18.5495 29.4733 18.4787C29.7375 18.3483 29.89 18.04 29.765 17.7602C29.6573 17.5004 29.3107 17.3381 29.0464 17.4685Z" fill="#282828"/>
<path fill-rule="evenodd" clip-rule="evenodd" d="M17.4723 24.4064L17.4839 23.5244C17.4858 23.1394 17.9444 22.9098 18.2976 23.123C19.0596 23.5792 20.4027 24.123 22.4988 24.14C24.5959 24.1643 25.9497 23.6486 26.7224 23.2156C27.081 23.0137 27.5335 23.2511 27.5243 23.637L27.5127 24.519C27.4841 26.8683 25.4001 28.7734 22.8734 28.7455L22.0069 28.7394C19.4802 28.7115 17.4373 26.7638 17.466 24.4146L17.4723 24.4064Z" fill="#AC3D38"/>
<mask id="mask0_3179_9729" style="mask-type:luminance" maskUnits="userSpaceOnUse" x="17" y="23" width="11" height="6">
<path d="M17.47 24.4076L17.4815 23.5256C17.4835 23.1406 17.9421 22.9111 18.2953 23.1243C19.0573 23.5805 20.4003 24.1242 22.4965 24.1413C24.5936 24.1656 25.9474 23.6499 26.72 23.2168C27.0786 23.015 27.5311 23.2524 27.5219 23.6383L27.5104 24.5203C27.4817 26.8695 25.3978 28.7747 22.8711 28.7468L22.0046 28.7407C19.4779 28.7128 17.435 26.7651 17.4637 24.4159L17.47 24.4076Z" fill="white"/>
</mask>
<g mask="url(#mask0_3179_9729)">
<path fill-rule="evenodd" clip-rule="evenodd" d="M27.3081 29.7256C27.2866 31.8445 25.1317 33.5443 22.5012 33.515C19.8708 33.4858 17.7578 31.7396 17.7793 29.6206C17.8008 27.5017 19.9557 25.8019 22.5862 25.8312C25.2167 25.8604 27.3296 27.6066 27.3081 29.7256Z" fill="#FF9A96"/>
</g>
<path d="M21.1743 29.8722C21.1743 29.8722 22.0174 30.0831 22.7165 30.062C23.4148 30.0468 24.2475 29.8099 24.2475 29.8099C24.4146 29.8067 24.5095 30.0029 24.3984 30.1321L23.206 30.8247C22.911 30.9967 22.5534 31.0003 22.2512 30.844L21.0328 30.2C20.9175 30.0727 21.0072 29.8754 21.1743 29.8722Z" fill="#41AF63"/>
<defs>
<linearGradient id="paint0_linear_3179_9729" x1="22.5508" y1="3.30017" x2="22.5508" y2="41.6124" gradientUnits="userSpaceOnUse">
<stop stop-color="#BFF3EE"/>
<stop offset="1" stop-color="#76B6FF"/>
</linearGradient>
</defs>
</svg>
