<svg width="44" height="44" viewBox="0 0 44 44" fill="none" xmlns="http://www.w3.org/2000/svg">
<path d="M37.121 15.4924C35.5857 12.877 33.502 10.7976 30.8661 9.26153C29.2324 8.31048 27.455 7.66135 25.5415 7.30282C25.1936 7.23866 24.9402 6.94052 24.9402 6.58953V4.02698C24.9402 3.54013 24.4675 3.18915 24.0023 3.33256L19.2185 4.79688C18.9122 4.89123 18.7042 5.17051 18.7042 5.4913V6.59708C18.7042 6.95184 18.4508 7.24621 18.1029 7.31037C16.1818 7.67268 14.4044 8.31803 12.7783 9.26531C10.1424 10.8013 8.05872 12.877 6.52336 15.4962C4.98799 18.1154 4.22031 21.044 4.22031 24.2859C4.22031 27.5278 4.98799 30.4602 6.52336 33.0793C8.05872 35.6985 10.1424 37.7742 12.7783 39.3102C15.4141 40.8462 18.4395 41.6124 21.8543 41.6124C25.2692 41.6124 28.2265 40.8425 30.8661 39.3102C33.502 37.7742 35.5857 35.6985 37.121 33.0793C38.6526 30.4639 39.4203 27.5315 39.4203 24.2859C39.4203 21.0402 38.6526 18.1116 37.121 15.4962V15.4924Z" fill="url(#paint0_linear_3179_9767)"/>
<path d="M31.3492 28.8357C31.3492 29.6931 30.6541 30.3882 29.7967 30.3882C28.9392 30.3882 28.2441 29.6931 28.2441 28.8357C28.2441 27.9783 29.0021 25.4415 29.7967 25.4415C30.5912 25.4415 31.3492 27.9783 31.3492 28.8357Z" fill="#E8F4FF"/>
<path d="M19.109 22.4952C18.7142 23.1303 17.8606 23.57 16.8712 23.57C15.8619 23.57 14.9939 23.1124 14.6102 22.4567" stroke="black" stroke-width="1.1" stroke-linecap="round"/>
<path d="M17.8629 27.2359C18.9053 26.4992 20.3054 26.0483 21.8448 26.0483C23.3842 26.0483 24.7843 26.4992 25.8267 27.2359" stroke="black" stroke-width="1.1" stroke-linecap="round"/>
<path d="M29.0261 22.4952C28.6314 23.1303 27.7778 23.57 26.7883 23.57C25.779 23.57 24.9111 23.1124 24.5273 22.4567" stroke="black" stroke-width="1.1" stroke-linecap="round"/>
<defs>
<linearGradient id="paint0_linear_3179_9767" x1="21.8203" y1="3.30017" x2="21.8203" y2="41.6124" gradientUnits="userSpaceOnUse">
<stop stop-color="#FFC68D"/>
<stop offset="1" stop-color="#FF7272"/>
</linearGradient>
</defs>
</svg>
