<svg width="44" height="44" viewBox="0 0 44 44" fill="none" xmlns="http://www.w3.org/2000/svg">
<path d="M37.8515 15.4924C36.3161 12.877 34.2324 10.7976 31.5966 9.26153C29.9629 8.31048 28.1855 7.66135 26.272 7.30282C25.924 7.23866 25.6707 6.94052 25.6707 6.58953V4.02698C25.6707 3.54013 25.198 3.18915 24.7328 3.33256L19.949 4.79688C19.6427 4.89123 19.4347 5.17051 19.4347 5.4913V6.59708C19.4347 6.95184 19.1813 7.24621 18.8334 7.31037C16.9123 7.67268 15.1349 8.31803 13.5087 9.26531C10.8729 10.8013 8.78919 12.877 7.25383 15.4962C5.71846 18.1154 4.95078 21.044 4.95078 24.2859C4.95078 27.5278 5.71846 30.4602 7.25383 33.0793C8.78919 35.6985 10.8729 37.7742 13.5087 39.3102C16.1446 40.8462 19.1699 41.6124 22.5848 41.6124C25.9997 41.6124 28.957 40.8425 31.5966 39.3102C34.2324 37.7742 36.3161 35.6985 37.8515 33.0793C39.3831 30.4639 40.1508 27.5315 40.1508 24.2859C40.1508 21.0402 39.3831 18.1116 37.8515 15.4962V15.4924Z" fill="url(#paint0_linear_3179_9750)"/>
<circle cx="18.1418" cy="18.5775" r="1.46913" fill="#282828"/>
<circle cx="26.9547" cy="18.5775" r="1.46913" fill="#282828"/>
<path d="M16.6727 22.6916C16.6727 22.0425 17.1989 21.5163 17.848 21.5163H27.2504C27.8995 21.5163 28.4257 22.0425 28.4257 22.6916V22.6916C28.4257 25.288 26.3209 27.3928 23.7245 27.3928H21.3739C18.7775 27.3928 16.6727 25.288 16.6727 22.6916V22.6916Z" fill="#AC3D38"/>
<mask id="mask0_3179_9750" style="mask-type:alpha" maskUnits="userSpaceOnUse" x="16" y="21" width="13" height="7">
<path d="M16.6727 22.6916C16.6727 22.0425 17.1989 21.5163 17.848 21.5163H27.2504C27.8995 21.5163 28.4257 22.0425 28.4257 22.6916V22.6916C28.4257 25.288 26.3209 27.3928 23.7245 27.3928H21.3739C18.7775 27.3928 16.6727 25.288 16.6727 22.6916V22.6916Z" fill="#CF706D"/>
</mask>
<g mask="url(#mask0_3179_9750)">
<rect x="13.4414" y="23.5197" width="11.753" height="11.753" rx="5.87651" fill="#FF9A96"/>
</g>
<path d="M21.0411 28.2615C21.0411 28.2615 21.8842 28.4725 22.5832 28.4513C23.2816 28.4361 24.1143 28.1993 24.1143 28.1993C24.2814 28.196 24.3763 28.3923 24.2651 28.5214L23.0727 29.214C22.7777 29.386 22.4201 29.3896 22.1179 29.2334L20.8995 28.5894C20.7842 28.4621 20.874 28.2648 21.0411 28.2615Z" fill="#41AF63"/>
<defs>
<linearGradient id="paint0_linear_3179_9750" x1="22.5508" y1="3.30017" x2="22.5508" y2="41.6124" gradientUnits="userSpaceOnUse">
<stop stop-color="#A8E265"/>
<stop offset="1" stop-color="#39B695"/>
</linearGradient>
</defs>
</svg>
