<svg width="28" height="33" viewBox="0 0 28 33" fill="none" xmlns="http://www.w3.org/2000/svg">
<g clip-path="url(#clip0_2049_12134)">
<path d="M27.9914 18.5084C27.997 18.059 27.7359 17.6495 27.3086 17.5102C25.7561 17.0041 21.9066 16.1681 19.0294 19.0454C19.0294 19.0454 14.4913 17.3436 11.3714 19.329L14.4913 9.40191C14.4913 9.40191 18.2239 11.3448 19.6193 10.6556C21.0148 9.96634 23.3065 7.40799 24.0043 5.56723C24.702 3.72647 21.6104 -0.289739 19.8945 0.0165821C18.6808 0.233234 15.1729 1.56082 13.2232 2.3195C12.3342 2.66542 11.5475 3.21378 10.925 3.93653C8.23512 7.05919 0.723407 16.1471 0.02615 21.0279C-0.787809 26.7256 17.6044 32.9424 26.6509 32.23C27.3354 32.1761 27.8282 31.5899 27.8367 30.9034L27.9914 18.5084Z" fill="#FBCBBC"/>
<mask id="mask0_2049_12134" style="mask-type:alpha" maskUnits="userSpaceOnUse" x="0" y="0" width="28" height="33">
<path d="M27.9914 18.5084C27.997 18.059 27.7359 17.6495 27.3086 17.5102C25.7561 17.0041 21.9066 16.1681 19.0294 19.0454C19.0294 19.0454 14.4913 17.3436 11.3714 19.329L14.4913 9.40191C14.4913 9.40191 18.2239 11.3448 19.6193 10.6556C21.0148 9.96634 23.3065 7.40799 24.0043 5.56723C24.702 3.72647 21.6104 -0.289739 19.8945 0.0165821C18.1785 0.322903 11.8762 2.85005 11.8762 2.85005C11.8762 2.85005 0.877041 15.0717 0.02615 21.0279C-0.787809 26.7256 17.6044 32.9424 26.6509 32.23C27.3354 32.1761 27.8282 31.5899 27.8367 30.9034L27.9914 18.5084Z" fill="#FBCBBC"/>
</mask>
<g mask="url(#mask0_2049_12134)">
<path d="M8.31961 20.6382C9.03088 19.5447 9.95204 18.7261 10.4284 18.5258C12.3299 17.6456 14.546 18.2002 13.2664 18.5257C12.0514 18.8348 9.98451 20.1005 8.7088 20.9768C8.46336 21.1453 8.15725 20.8878 8.31961 20.6382Z" fill="#EEB19E"/>
</g>
</g>
<defs>
<clipPath id="clip0_2049_12134">
<rect width="28" height="32.2857" fill="white"/>
</clipPath>
</defs>
</svg>
