<svg width="36" height="36" viewBox="0 0 36 36" fill="none" xmlns="http://www.w3.org/2000/svg">
<g clip-path="url(#clip0_2049_12150)">
<path d="M36 0H0V36H36V0Z" fill="white"/>
<mask id="mask0_2049_12150" style="mask-type:luminance" maskUnits="userSpaceOnUse" x="3" y="0" width="30" height="36">
<path d="M32.01 0.990234H3.98999V35.0102H32.01V0.990234Z" fill="white"/>
</mask>
<g mask="url(#mask0_2049_12150)">
<path d="M28.3796 3.86035V7.66992C28.3796 11.6577 26.1255 15.1123 22.8318 16.8496C26.1337 18.5884 28.3795 22.0525 28.3796 26.04V30.7402H7.61987V26.04C7.61999 22.0526 9.87344 18.5885 13.1677 16.8496C9.87414 15.1122 7.61987 11.6577 7.61987 7.66992V3.86035H28.3796Z" fill="#E4EAEF" stroke="#D8E3EF"/>
<path d="M18.7999 18.22V15.52C18.7999 15.18 19.0499 14.91 19.3799 14.84C21.9599 14.32 23.9399 12.4 24.2599 10H11.7299C12.0499 12.4 14.0299 14.32 16.6099 14.84C16.9399 14.91 17.1899 15.18 17.1899 15.52V18.22C17.1899 18.56 16.9399 18.83 16.6099 18.9C13.3399 19.55 10.8799 22.42 10.8799 25.88V27.68C10.8799 28.01 11.1499 28.28 11.4799 28.28H24.5199C24.8499 28.28 25.1199 28.01 25.1199 27.68V25.88C25.1199 22.42 22.6499 19.54 19.3899 18.9C19.0599 18.83 18.8099 18.56 18.8099 18.22H18.7999Z" fill="#FFAF83"/>
<path d="M28.5847 1.99023H7.41515C6.22548 1.99023 5.26929 3.05023 5.26929 4.35023C5.26929 5.65023 6.23659 6.71023 7.41515 6.71023H28.5847C29.7744 6.71023 30.7306 5.65023 30.7306 4.35023C30.7306 3.05023 29.7633 1.99023 28.5847 1.99023Z" fill="#8BC7E5"/>
<path d="M28.5847 29.2793H7.41515C6.22548 29.2793 5.26929 30.3393 5.26929 31.6393C5.26929 32.9393 6.23659 33.9993 7.41515 33.9993H28.5847C29.7744 33.9993 30.7306 32.9393 30.7306 31.6393C30.7306 30.3393 29.7633 29.2793 28.5847 29.2793Z" fill="#8BC7E5"/>
</g>
</g>
<defs>
<clipPath id="clip0_2049_12150">
<rect width="36" height="36" fill="white"/>
</clipPath>
</defs>
</svg>
