<svg width="40" height="45" viewBox="0 0 40 45" fill="none" xmlns="http://www.w3.org/2000/svg">
<rect y="4.37305" width="40" height="40" rx="20" fill="#39B695"/>
<path fill-rule="evenodd" clip-rule="evenodd" d="M22.4258 0.0402288C23.0034 -0.137869 23.5908 0.29794 23.5908 0.902533V4.08515C23.5909 4.34881 23.7069 4.58734 23.8936 4.75312C33.0754 6.56491 39.9999 14.66 40 24.3732C40 35.4189 31.0457 44.3732 20 44.3732C8.9543 44.3732 0 35.4189 0 24.3732C8.68978e-05 15.0149 6.42798 7.15877 15.1094 4.97675C15.5363 4.89331 15.8467 4.53108 15.8467 4.09394V2.72089C15.8467 2.32254 16.105 1.97575 16.4854 1.85859L22.4258 0.0402288Z" fill="url(#paint0_linear_2720_804)"/>
<circle cx="15.35" cy="16.8402" r="1.66443" fill="#282828"/>
<circle cx="25.3368" cy="16.8397" r="1.66443" fill="#282828"/>
<path d="M13.6865 21.5005C13.6865 20.7651 14.2827 20.1689 15.0181 20.1689H25.6704C26.4058 20.1689 27.002 20.7651 27.002 21.5005C27.002 24.4421 24.6173 26.8267 21.6758 26.8267H19.0127C16.0711 26.8267 13.6865 24.4421 13.6865 21.5005Z" fill="#DD4B45"/>
<mask id="mask0_2720_804" style="mask-type:alpha" maskUnits="userSpaceOnUse" x="13" y="20" width="15" height="7">
<path d="M13.6865 21.5005C13.6865 20.7651 14.2827 20.1689 15.0181 20.1689H25.6704C26.4058 20.1689 27.002 20.7651 27.002 21.5005C27.002 24.4421 24.6173 26.8267 21.6758 26.8267H19.0127C16.0711 26.8267 13.6865 24.4421 13.6865 21.5005Z" fill="#CF706D"/>
</mask>
<g mask="url(#mask0_2720_804)">
<rect x="10.0259" y="22.4385" width="13.3154" height="13.3154" rx="6.65771" fill="#FF8D88"/>
</g>
<defs>
<linearGradient id="paint0_linear_2720_804" x1="20" y1="0" x2="20" y2="44.3732" gradientUnits="userSpaceOnUse">
<stop stop-color="#C8EE6F"/>
<stop offset="0.65" stop-color="#2ED3A7"/>
</linearGradient>
</defs>
</svg>
