<svg width="40" height="40" viewBox="0 0 40 40" fill="none" xmlns="http://www.w3.org/2000/svg">
<rect width="40" height="40" rx="14" fill="#F6F7F9"/>
<path d="M21.3483 24.759C18.436 26.8225 15.8538 24.3956 15.8538 24.3956C15.8538 24.3956 13.6654 25.9045 11.355 24.734C9.04463 23.5635 7.84088 20.3573 10.7393 17.6142C10.7393 17.6142 10.1846 12.838 15.6708 12.5607C15.6708 12.5607 17.2739 8.73864 21.989 10.7745C21.989 10.7745 28.7067 8.67763 29.5998 15.8585C29.5998 15.8585 32.8671 18.4768 31.4803 21.9909C30.0935 25.5051 27.1341 25.5966 27.1341 25.5966L28.5847 28.47C28.7372 28.7696 28.6124 29.1385 28.3101 29.2855L27.7803 29.5434C27.5279 29.6682 27.2228 29.6017 27.0453 29.3826L24.7488 26.5729C24.7488 26.5729 22.8017 26.6395 21.3511 24.7562L21.3483 24.759Z" fill="#F5C0D9"/>
<mask id="mask0_2833_15348" style="mask-type:alpha" maskUnits="userSpaceOnUse" x="9" y="10" width="23" height="20">
<path d="M21.3483 24.759C18.436 26.8225 15.8538 24.3956 15.8538 24.3956C15.8538 24.3956 13.6654 25.9045 11.355 24.734C9.04463 23.5635 7.84088 20.3573 10.7393 17.6142C10.7393 17.6142 10.1846 12.838 15.6708 12.5607C15.6708 12.5607 17.2739 8.73864 21.989 10.7745C21.989 10.7745 28.7067 8.67763 29.5998 15.8585C29.5998 15.8585 32.8671 18.4768 31.4803 21.9909C30.0935 25.5051 27.1341 25.5966 27.1341 25.5966L28.5847 28.47C28.7372 28.7696 28.6124 29.1385 28.3101 29.2855L27.7803 29.5434C27.5279 29.6682 27.2228 29.6017 27.0453 29.3826L24.7488 26.5729C24.7488 26.5729 22.8017 26.6395 21.3511 24.7562L21.3483 24.759Z" fill="#FF7E7E"/>
</mask>
<g mask="url(#mask0_2833_15348)">
<path d="M22.3593 10.1772C22.3593 10.1772 17.8605 11.4309 19.6051 16.3818" stroke="#F2A6C0" stroke-width="0.926471" stroke-linecap="round" stroke-linejoin="round"/>
<path d="M13.1003 25.6201C13.1003 25.6201 16.8614 26.1138 16.6533 23.0517C16.4453 19.9897 12.5234 20.3613 12.5234 20.3613" stroke="#F2A6C0" stroke-width="0.926471" stroke-linecap="round" stroke-linejoin="round"/>
<path d="M30.1544 24.7088C30.1544 24.7088 33.5132 22.2126 30.3097 19.5C27.1034 16.7874 23.9609 18.6679 23.9609 18.6679" stroke="#F2A6C0" stroke-width="0.926471" stroke-linecap="round" stroke-linejoin="round"/>
<path d="M27.3811 15.5869C27.3811 15.5869 26.7044 16.9127 27.7195 18.1442" stroke="#F2A6C0" stroke-width="0.926471" stroke-linecap="round" stroke-linejoin="round"/>
<path d="M20.0615 25.9045C20.0615 25.9045 22.5384 25.2056 24.5575 22.5679" stroke="#F2A6C0" stroke-width="0.926471" stroke-linecap="round" stroke-linejoin="round"/>
</g>
</svg>
