<svg width="40" height="40" viewBox="0 0 40 40" fill="none" xmlns="http://www.w3.org/2000/svg">
<rect width="40" height="40" rx="14" fill="#F6F7F9"/>
<path d="M20.5 14.7202C25.4702 14.7203 29.8118 17.8371 31.9082 19.6489C32.4434 20.1117 32.4433 20.8883 31.9082 21.3511C29.8118 23.1629 25.4702 26.2797 20.5 26.2798C15.5297 26.2798 11.1882 23.163 9.0918 21.3511C8.55644 20.8883 8.55638 20.1117 9.0918 19.6489C11.1882 17.837 15.5297 14.7202 20.5 14.7202Z" fill="white" stroke="#E2E2E2"/>
<path d="M32.5772 20.5001C32.5772 20.5001 27.7039 14.2202 20.5005 14.2202C13.2972 14.2202 8.42383 20.017 8.42383 20.017" stroke="#434A51" stroke-width="1.4492" stroke-linecap="round"/>
<circle cx="20.5" cy="20.5" r="4.01693" fill="#434A51" stroke="#434A51" stroke-width="0.966135"/>
<ellipse cx="22.0963" cy="17.7418" rx="1.00001" ry="0.500006" transform="rotate(15 22.0963 17.7418)" fill="#F0F0F0"/>
<path d="M34.3066 18.387L32.5992 20.2581L28.1334 15.7725C28.1334 15.7725 29.7714 16.5491 30.7337 16.6385C31.696 16.7279 32.7892 16.4651 32.7892 16.4651L31.7986 18.0007C31.7986 18.0007 31.9719 18.5455 32.7892 18.5455C33.6064 18.5455 34.3066 18.387 34.3066 18.387Z" fill="#434A51"/>
</svg>
