<svg width="40" height="40" viewBox="0 0 40 40" fill="none" xmlns="http://www.w3.org/2000/svg">
<rect width="40" height="40" rx="14" fill="#F6F7F9"/>
<path d="M11.0114 12.6821L8.30276 12.6821C7.3411 12.6821 6.56152 13.4617 6.56152 14.4234L6.56152 22.0055C6.56152 22.9672 7.3411 23.7467 8.30276 23.7467L11.0114 23.7467C11.973 23.7467 12.7526 22.9672 12.7526 22.0055L12.7526 14.4234C12.7526 13.4617 11.973 12.6821 11.0114 12.6821Z" fill="#598BC9"/>
<mask id="mask0_2833_15270" style="mask-type:luminance" maskUnits="userSpaceOnUse" x="6" y="12" width="7" height="12">
<path d="M11.0114 12.6816L8.30276 12.6816C7.3411 12.6816 6.56152 13.4612 6.56152 14.4229L6.56152 22.005C6.56152 22.9667 7.3411 23.7463 8.30276 23.7463L11.0114 23.7463C11.973 23.7463 12.7526 22.9667 12.7526 22.005L12.7526 14.4229C12.7526 13.4612 11.973 12.6816 11.0114 12.6816Z" fill="white"/>
</mask>
<g mask="url(#mask0_2833_15270)">
<path d="M11.0114 11.854L8.30276 11.854C7.3411 11.854 6.56152 12.6336 6.56152 13.5952L6.56152 21.1774C6.56152 22.139 7.3411 22.9186 8.30276 22.9186L11.0114 22.9186C11.973 22.9186 12.7526 22.139 12.7526 21.1774L12.7526 13.5952C12.7526 12.6336 11.973 11.854 11.0114 11.854Z" fill="#62A9FF"/>
</g>
<path d="M15.0586 21.8027L13.6211 17.1865L15.1689 15.4414L24.7418 15.4569C23.7106 22.6134 24.113 21.6228 23.1205 22.8165C22.128 24.0102 23.3798 27.6901 23.3798 27.6901L15.7261 27.6901L16.5057 23.306L15.0566 21.8027H15.0586Z" fill="#FCBEB4"/>
<path d="M12.7529 20.5048C12.7529 20.5048 17.8509 17.4093 26.2785 20.2746L26.2785 15.9757C17.8509 13.1104 12.7529 16.2059 12.7529 16.2059L12.7529 20.5048Z" fill="#B2B2B2"/>
<path d="M16.7861 12.5186H16.6778C15.9437 12.5186 15.3486 13.1136 15.3486 13.8477L15.3486 15.055C15.3486 15.789 15.9437 16.3841 16.6778 16.3841H16.7861C17.5202 16.3841 18.1153 15.789 18.1153 15.055L18.1153 13.8477C18.1153 13.1136 17.5202 12.5186 16.7861 12.5186Z" fill="#FCBEB4"/>
<mask id="mask1_2833_15270" style="mask-type:luminance" maskUnits="userSpaceOnUse" x="15" y="12" width="4" height="5">
<path d="M16.7861 12.5186H16.6778C15.9437 12.5186 15.3486 13.1136 15.3486 13.8477L15.3486 15.055C15.3486 15.789 15.9437 16.3841 16.6778 16.3841H16.7861C17.5202 16.3841 18.1153 15.789 18.1153 15.055L18.1153 13.8477C18.1153 13.1136 17.5202 12.5186 16.7861 12.5186Z" fill="white"/>
</mask>
<g mask="url(#mask1_2833_15270)">
<path d="M16.7861 12.2734H16.6778C15.9437 12.2734 15.3486 12.8685 15.3486 13.6026L15.3486 14.8098C15.3486 15.5439 15.9437 16.139 16.6778 16.139H16.7861C17.5202 16.139 18.1153 15.5439 18.1153 14.8098L18.1153 13.6026C18.1153 12.8685 17.5202 12.2734 16.7861 12.2734Z" fill="#FFD8D4"/>
</g>
<path d="M19.7689 12.4632L19.767 12.4629C19.0705 12.3669 18.428 12.8537 18.332 13.5502L18.1314 15.0049C18.0354 15.7013 18.5222 16.3438 19.2187 16.4398L19.2206 16.4401C19.9171 16.5361 20.5595 16.0494 20.6556 15.3529L20.8561 13.8982C20.9522 13.2017 20.4654 12.5592 19.7689 12.4632Z" fill="#FCBEB4"/>
<mask id="mask2_2833_15270" style="mask-type:luminance" maskUnits="userSpaceOnUse" x="18" y="12" width="3" height="5">
<path d="M19.7679 12.4652L19.766 12.4649C19.0695 12.3689 18.427 12.8556 18.331 13.5521L18.1305 15.0068C18.0344 15.7033 18.5212 16.3458 19.2177 16.4418L19.2196 16.4421C19.9161 16.5381 20.5586 16.0513 20.6546 15.3548L20.8551 13.9001C20.9512 13.2036 20.4644 12.5612 19.7679 12.4652Z" fill="white"/>
</mask>
<g mask="url(#mask2_2833_15270)">
<path d="M19.6585 12.2923L19.6566 12.292C18.9601 12.196 18.3177 12.6828 18.2216 13.3793L18.0211 14.834C17.925 15.5305 18.4118 16.1729 19.1083 16.2689L19.1102 16.2692C19.8067 16.3652 20.4492 15.8785 20.5452 15.182L20.7458 13.7273C20.8418 13.0308 20.355 12.3883 19.6585 12.2923Z" fill="#FFD8D4"/>
</g>
<path d="M23.0785 14.3666C23.2432 13.778 22.8999 13.1675 22.3119 13.003C21.7238 12.8385 21.1136 13.1822 20.9489 13.7708L20.5616 15.1551C20.3969 15.7437 20.7402 16.3543 21.3283 16.5188C21.9163 16.6833 22.5265 16.3395 22.6912 15.7509L23.0785 14.3666Z" fill="#FCBEB4"/>
<path d="M23.0795 14.057C23.2442 13.4684 22.9009 12.8579 22.3128 12.6934C21.7248 12.5289 21.1146 12.8727 20.9499 13.4612L20.5626 14.8456C20.3979 15.4342 20.7412 16.0447 21.3292 16.2092C21.9173 16.3737 22.5275 16.03 22.6922 15.4414L23.0795 14.057Z" fill="#FFD8D4"/>
<path d="M24.846 15.0948C25.0001 14.5565 24.6892 13.9953 24.1514 13.8413C23.6137 13.6873 23.0528 13.9988 22.8986 14.5371L22.7016 15.2253C22.5474 15.7636 22.8584 16.3247 23.3961 16.4787C23.9339 16.6327 24.4948 16.3212 24.6489 15.783L24.846 15.0948Z" fill="#FCBEB4"/>
<path d="M24.846 14.9771C25.0001 14.4388 24.6892 13.8776 24.1514 13.7237C23.6137 13.5697 23.0528 13.8812 22.8986 14.4194L22.7016 15.1076C22.5474 15.6459 22.8584 16.2071 23.3961 16.3611C23.9339 16.5151 24.4948 16.2035 24.6489 15.6653L24.846 14.9771Z" fill="#FFD8D4"/>
<path d="M30.6989 12.6816L27.9903 12.6816C27.0286 12.6816 26.249 13.4612 26.249 14.4229L26.249 22.005C26.249 22.9667 27.0286 23.7463 27.9903 23.7463L30.6989 23.7463C31.6605 23.7463 32.4401 22.9667 32.4401 22.005L32.4401 14.4229C32.4401 13.4612 31.6605 12.6816 30.6989 12.6816Z" fill="#598BC9"/>
<mask id="mask3_2833_15270" style="mask-type:luminance" maskUnits="userSpaceOnUse" x="26" y="12" width="7" height="12">
<path d="M30.6979 12.6812L27.9893 12.6812C27.0276 12.6812 26.248 13.4607 26.248 14.4224L26.248 22.0045C26.248 22.9662 27.0276 23.7458 27.9893 23.7458L30.6979 23.7458C31.6595 23.7458 32.4391 22.9662 32.4391 22.0045L32.4391 14.4224C32.4391 13.4607 31.6595 12.6812 30.6979 12.6812Z" fill="white"/>
</mask>
<g mask="url(#mask3_2833_15270)">
<path d="M30.6979 11.854L27.9893 11.854C27.0276 11.854 26.248 12.6336 26.248 13.5952L26.248 21.1774C26.248 22.139 27.0276 22.9186 27.9893 22.9186L30.6979 22.9186C31.6595 22.9186 32.4391 22.139 32.4391 21.1774L32.4391 13.5952C32.4391 12.6336 31.6595 11.854 30.6979 11.854Z" fill="#62A9FF"/>
</g>
<path d="M15.0578 21.8008C15.0578 21.8008 12.7381 20.0363 13.4578 18.5853C14.1775 17.1342 15.5551 16.8363 16.6482 17.3954C17.7413 17.9546 17.6117 19.2218 16.1916 19.6668" fill="#FCBEB4"/>
<path d="M19.5475 28.9357C21.6642 28.9357 23.3802 28.377 23.3802 27.6878C23.3802 26.9986 21.6642 26.4399 19.5475 26.4399C17.4308 26.4399 15.7148 26.9986 15.7148 27.6878C15.7148 28.377 17.4308 28.9357 19.5475 28.9357Z" fill="#FCBEB4"/>
</svg>
