<svg width="40" height="40" viewBox="0 0 40 40" fill="none" xmlns="http://www.w3.org/2000/svg">
<rect width="40" height="40" rx="14" fill="#F6F7F9"/>
<path d="M11.4482 25.2412H14.8965V26.9653C14.8965 27.9176 14.1246 28.6895 13.1724 28.6895C12.2202 28.6895 11.4482 27.9176 11.4482 26.9653V25.2412Z" fill="#9D6C51"/>
<path d="M26.1035 25.2412H29.5518V26.9653C29.5518 27.9176 28.7799 28.6895 27.8277 28.6895C26.8754 28.6895 26.1035 27.9176 26.1035 26.9653V25.2412Z" fill="#9D6C51"/>
<path d="M11.4482 14.8968C11.4482 13.4684 12.6061 12.3105 14.0344 12.3105H20.0689C20.545 12.3105 20.931 12.6965 20.931 13.1726V23.5174H11.4482V14.8968Z" fill="#F9B36D"/>
<path d="M20.9307 13.1726C20.9307 12.6965 21.3166 12.3105 21.7927 12.3105H26.9651C28.3935 12.3105 29.5514 13.4684 29.5514 14.8968V23.5174H20.9307V13.1726Z" fill="#F9B36D"/>
<path d="M9.72461 17.4829V24.3795H31.2763V17.4829" stroke="#F09935" stroke-width="3.44828" stroke-linecap="round" stroke-linejoin="round"/>
<rect x="13.1738" y="15.5059" width="0.862069" height="1.72414" rx="0.431034" transform="rotate(-45 13.1738 15.5059)" fill="#D48D46"/>
<rect width="0.862069" height="1.72414" rx="0.431034" transform="matrix(0.707107 0.707107 0.707107 -0.707107 13.1738 19.564)" fill="#D48D46"/>
<rect width="0.862069" height="1.72414" rx="0.431034" transform="matrix(-0.707107 -0.707107 -0.707107 0.707107 19.3125 15.5059)" fill="#D48D46"/>
<rect x="19.417" y="19.564" width="0.862069" height="1.72414" rx="0.431034" transform="rotate(135 19.417 19.564)" fill="#D48D46"/>
<rect x="21.793" y="15.5059" width="0.862069" height="1.72414" rx="0.431034" transform="rotate(-45 21.793 15.5059)" fill="#D48D46"/>
<rect width="0.862069" height="1.72414" rx="0.431034" transform="matrix(0.707107 0.707107 0.707107 -0.707107 21.793 19.564)" fill="#D48D46"/>
<rect width="0.862069" height="1.72414" rx="0.431034" transform="matrix(-0.707107 -0.707107 -0.707107 0.707107 27.9316 15.5059)" fill="#D48D46"/>
<rect x="28.0361" y="19.564" width="0.862069" height="1.72414" rx="0.431034" transform="rotate(135 28.0361 19.564)" fill="#D48D46"/>
</svg>
