<svg width="40" height="40" viewBox="0 0 40 40" fill="none" xmlns="http://www.w3.org/2000/svg">
<rect width="40" height="40" rx="14" fill="#F6F7F9"/>
<path d="M30.1863 20.7308C30.1863 26.2226 24.6567 25.5013 18.7057 25.5013C12.7546 25.5013 8.63574 26.2226 8.63574 20.7308C8.63574 15.2391 13.46 10.7871 19.411 10.7871C25.3621 10.7871 30.1863 15.2391 30.1863 20.7308Z" fill="#A17D7D"/>
<path d="M10.2959 23.1909H28.5894V24.9272C28.5894 29.5253 24.8619 33.2528 20.2638 33.2528H18.6215C14.0234 33.2528 10.2959 29.5253 10.2959 24.9272V23.1909Z" fill="#FBCBBC"/>
<path d="M30.0604 21.3427C29.8479 20.1755 30.0026 19.3585 30.0026 19.3585C24.1386 15.3923 14.5613 16.21 8.6961 20.1699C8.6961 20.1699 8.62037 20.1757 8.76511 21.3427C7.7881 21.3427 7.0463 21.9036 7.00106 23.0163C6.95583 24.138 8.35803 26.0649 10.1944 25.5945C10.2125 25.6126 10.2306 25.6397 10.2487 25.6578C11.3604 33.916 27.4651 33.916 28.5767 25.6578C28.6039 25.6307 28.631 25.5945 28.6582 25.5674C30.5489 26.1463 32.0053 24.1652 31.9511 23.0163C31.8968 21.8583 31.1007 21.2794 30.0513 21.3337L30.0604 21.3427Z" fill="#FBCBBC"/>
<line x1="0.5" y1="-0.5" x2="2.84482" y2="-0.5" transform="matrix(-0.970485 0.241161 0.241161 0.970485 24.9082 23.8193)" stroke="black" stroke-linecap="round"/>
<path d="M17.3613 27.6118L19.4427 26.8081L21.5241 27.6118" stroke="#BC6458" stroke-width="0.832559" stroke-linecap="round"/>
<path d="M15.6874 18.0568C11.9009 22.3901 10.3064 21.5629 8.74031 21.3226L8.62891 20.5249L8.74031 19.4434L11.599 15.3472L19.6952 14.9707L25.692 15.3472L29.9896 19.0205L30.0952 20.4701V21.3269C23.9968 21.3705 17.3282 20.7914 15.6874 18.0568Z" fill="#A17D7D"/>
<path d="M28.5119 22.6547C28.2902 21.8797 27.4542 21.2946 27.168 21.0857C27.8576 20.5819 29.2606 19.7733 29.3561 20.5687C29.4314 21.1967 29.1812 22.1221 28.8442 22.7383C28.7672 22.8791 28.556 22.809 28.5119 22.6547Z" fill="#A17D7D"/>
<path d="M10.6805 22.6547C10.9021 21.8797 11.7382 21.2946 12.0244 21.0857C11.3348 20.5819 9.93174 19.7733 9.8363 20.5687C9.76094 21.1967 10.0112 22.1221 10.3482 22.7383C10.4252 22.8791 10.6364 22.809 10.6805 22.6547Z" fill="#A17D7D"/>
<path d="M14.3936 23.394L16.6692 23.9595" stroke="black" stroke-linecap="round"/>
<path d="M30.672 12.4853L35.3551 11.3297C35.6965 11.2454 35.9083 11.6893 35.6281 11.9017L33.9197 13.1966L35.2918 14.7139C35.3794 14.8108 35.3319 14.9661 35.2051 14.9973L29.8093 16.3245C29.4516 16.4125 29.2484 15.9297 29.5613 15.7354L31.9351 14.2611L30.5853 12.7686C30.4978 12.6718 30.5453 12.5166 30.672 12.4853Z" fill="#C95243"/>
<path d="M26.2732 9.73489L28.899 6.74732C29.0904 6.52957 29.4429 6.7303 29.3532 7.00599L28.8065 8.68701L30.4499 9.06795C30.5548 9.09227 30.5957 9.21978 30.5246 9.30061L27.4972 12.7399C27.2964 12.9679 26.9315 12.7368 27.0519 12.4579L27.9644 10.3422L26.348 9.96747C26.2431 9.94316 26.2021 9.81574 26.2732 9.73489Z" fill="#C95243"/>
</svg>
