<svg width="40" height="40" viewBox="0 0 40 40" fill="none" xmlns="http://www.w3.org/2000/svg">
<rect width="40" height="40" rx="14" fill="#F6F7F9"/>
<path d="M15.5986 10.0234C17.5871 10.0235 19.1991 12.173 19.1992 14.8242C19.1992 17.1142 17.9958 19.0272 16.3867 19.5068L16.9521 28.5332C17.001 29.3144 16.3804 29.9745 15.5977 29.9746C14.8148 29.9746 14.1943 29.3145 14.2432 28.5332L14.8066 19.5068C13.1994 19.0255 11.998 17.1126 11.998 14.8242C11.9981 12.173 13.6102 10.0234 15.5986 10.0234Z" fill="#69AFFF"/>
<path d="M27.1328 10.0234C27.6113 10.0234 28.0006 10.4113 28.001 10.8896L27.999 14.8525C27.9892 17.1291 26.7908 19.0282 25.1895 19.5068L25.7549 28.5332C25.8037 29.3144 25.183 29.9744 24.4004 29.9746C23.6176 29.9746 22.9971 29.3145 23.0459 28.5332L23.6094 19.5068C22.0078 19.0283 20.8087 17.1292 20.7988 14.8525V10.8896C20.7992 10.4115 21.1869 10.0238 21.665 10.0234C22.1435 10.0234 22.5328 10.4113 22.5332 10.8896V15.0205C22.5332 15.2967 22.757 15.5205 23.0332 15.5205C23.3092 15.5203 23.5332 15.2966 23.5332 15.0205V10.8896C23.5336 10.4115 23.9212 10.0237 24.3994 10.0234C24.8777 10.0236 25.2662 10.4114 25.2666 10.8896V15.0205C25.2666 15.2966 25.4905 15.5204 25.7666 15.5205C26.0428 15.5205 26.2666 15.2967 26.2666 15.0205V10.8896C26.267 10.4116 26.6548 10.0239 27.1328 10.0234Z" fill="#69AFFF"/>
<path d="M13.2002 13.6001C13.2002 13.2001 13.5202 12.2401 14.8002 11.6001" stroke="white" stroke-width="0.8" stroke-linecap="round"/>
</svg>
