<svg width="17" height="17" viewBox="0 0 17 17" fill="none" xmlns="http://www.w3.org/2000/svg">
<path fill-rule="evenodd" clip-rule="evenodd" d="M12.519 1.79834C12.8457 1.79834 13.1079 2.06458 13.1079 2.39111V3.02197L14.3452 3.35107L14.3423 3.354C15.1662 3.57411 15.7114 4.31874 15.7114 5.14111C15.7114 5.29589 15.6927 5.4556 15.6519 5.61279L15.0708 7.8335C14.8521 8.66296 14.112 9.21142 13.2954 9.21143C13.1417 9.21143 12.9828 9.192 12.8267 9.15088L12.4692 9.05713C11.8723 10.0748 10.8981 10.843 9.73975 11.1685C9.50762 11.2337 9.33447 11.4381 9.33447 11.6792V12.7671C9.33447 13.0432 9.55833 13.2671 9.83447 13.2671H11.0347C11.5101 13.2673 11.894 13.6545 11.894 14.1333V15.0017C11.894 15.1121 11.8045 15.2017 11.694 15.2017H5.31572C5.20527 15.2017 5.11572 15.1121 5.11572 15.0017V14.1333C5.11572 13.6544 5.50047 13.2671 5.97607 13.2671H7.16455C7.44069 13.2671 7.66455 13.0432 7.66455 12.7671V11.6763C7.66448 11.4354 7.49207 11.2319 7.26025 11.1665C6.1037 10.841 5.12979 10.0718 4.53076 9.0542L4.17236 9.14893C4.01626 9.19003 3.85972 9.20947 3.70361 9.20947C2.88709 9.20928 2.14775 8.66005 1.9292 7.83057L1.34717 5.60986C1.30642 5.45281 1.2876 5.29523 1.2876 5.13818C1.28779 4.3184 1.83299 3.57114 2.65674 3.35107L3.89404 3.02197V2.39111C3.89404 2.06229 4.15783 1.79854 4.48193 1.79834H12.519ZM2.97119 4.54639C2.69753 4.61906 2.51514 4.87032 2.51514 5.14111C2.51514 5.19189 2.52026 5.24515 2.53467 5.29834L3.11572 7.51904C3.18792 7.79456 3.43764 7.97803 3.70654 7.97803C3.75695 7.97561 3.80998 7.97105 3.86279 7.95654H3.86475L4.05518 7.90576C3.95189 7.52118 3.896 7.11671 3.896 6.70068V4.29932L2.97119 4.54639ZM13.1079 6.70068C13.1079 7.11671 13.053 7.52118 12.9497 7.90576L13.1421 7.95654C13.1946 7.97094 13.2448 7.97799 13.2974 7.97803C13.5663 7.97803 13.817 7.79465 13.8892 7.51904L14.4702 5.29834C14.4846 5.24515 14.4917 5.19189 14.4917 5.14111C14.4917 4.87037 14.3092 4.61912 14.0356 4.54639L13.1079 4.29932V6.70068Z" fill="#FFBB6D"/>
</svg>
